G04 #@! TF.GenerationSoftware,KiCad,Pcbnew,(5.1.2)-2*
G04 #@! TF.CreationDate,2019-09-18T13:09:57+09:00*
G04 #@! TF.ProjectId,VFD_Clock_LD8035,5646445f-436c-46f6-936b-5f4c44383033,rev?*
G04 #@! TF.SameCoordinates,Original*
G04 #@! TF.FileFunction,Copper,L1,Top*
G04 #@! TF.FilePolarity,Positive*
%FSLAX46Y46*%
G04 Gerber Fmt 4.6, Leading zero omitted, Abs format (unit mm)*
G04 Created by KiCad (PCBNEW (5.1.2)-2) date 2019-09-18 13:09:57*
%MOMM*%
%LPD*%
G04 APERTURE LIST*
%ADD10C,0.100000*%
%ADD11R,1.700000X1.700000*%
%ADD12O,1.700000X1.700000*%
%ADD13R,1.600000X1.600000*%
%ADD14O,1.600000X1.600000*%
%ADD15C,2.000000*%
%ADD16R,1.600000X2.400000*%
%ADD17O,1.600000X2.400000*%
%ADD18C,1.600000*%
%ADD19C,0.800000*%
%ADD20C,0.600000*%
%ADD21C,0.250000*%
%ADD22C,0.600000*%
%ADD23C,1.000000*%
%ADD24C,2.000000*%
%ADD25C,0.254000*%
G04 APERTURE END LIST*
D10*
X106500000Y-83996400D02*
X186500000Y-83996400D01*
X101500000Y-88996400D02*
G75*
G02X106500000Y-83996400I5000000J0D01*
G01*
X101500000Y-143996400D02*
X101500000Y-88996400D01*
X106500000Y-148996400D02*
G75*
G02X101500000Y-143996400I0J5000000D01*
G01*
X186500000Y-148996400D02*
X106500000Y-148996400D01*
X191500000Y-143996400D02*
G75*
G02X186500000Y-148996400I-5000000J0D01*
G01*
X191500000Y-88996400D02*
X191500000Y-143996400D01*
X186500000Y-83996400D02*
G75*
G02X191500000Y-88996400I0J-5000000D01*
G01*
X189100001Y-87996399D02*
G75*
G03X189100001Y-87996399I-1600000J0D01*
G01*
X107100000Y-144996400D02*
G75*
G03X107100000Y-144996400I-1600000J0D01*
G01*
X189100001Y-144996400D02*
G75*
G03X189100001Y-144996400I-1600000J0D01*
G01*
X107100000Y-87996399D02*
G75*
G03X107100000Y-87996399I-1600000J0D01*
G01*
D11*
X182880000Y-117094000D03*
D12*
X182880000Y-114554000D03*
X182880000Y-112014000D03*
X182880000Y-109474000D03*
X182880000Y-106934000D03*
D13*
X147500000Y-103000000D03*
D14*
X114480000Y-118240000D03*
X144960000Y-103000000D03*
X117020000Y-118240000D03*
X142420000Y-103000000D03*
X119560000Y-118240000D03*
X139880000Y-103000000D03*
X122100000Y-118240000D03*
X137340000Y-103000000D03*
X124640000Y-118240000D03*
X134800000Y-103000000D03*
X127180000Y-118240000D03*
X132260000Y-103000000D03*
X129720000Y-118240000D03*
X129720000Y-103000000D03*
X132260000Y-118240000D03*
X127180000Y-103000000D03*
X134800000Y-118240000D03*
X124640000Y-103000000D03*
X137340000Y-118240000D03*
X122100000Y-103000000D03*
X139880000Y-118240000D03*
X119560000Y-103000000D03*
X142420000Y-118240000D03*
X117020000Y-103000000D03*
X144960000Y-118240000D03*
X114480000Y-103000000D03*
X147500000Y-118240000D03*
X111940000Y-103000000D03*
X111940000Y-118240000D03*
D15*
X110490000Y-123190000D03*
X110490000Y-128190000D03*
X162306000Y-116078000D03*
X157306000Y-116078000D03*
X113792000Y-95178000D03*
X113792000Y-90678000D03*
X120292000Y-95178000D03*
X120292000Y-90678000D03*
X130810000Y-95178000D03*
X130810000Y-90678000D03*
X137310000Y-95178000D03*
X137310000Y-90678000D03*
D16*
X162306000Y-121920000D03*
D17*
X141986000Y-129540000D03*
X159766000Y-121920000D03*
X144526000Y-129540000D03*
X157226000Y-121920000D03*
X147066000Y-129540000D03*
X154686000Y-121920000D03*
X149606000Y-129540000D03*
X152146000Y-121920000D03*
X152146000Y-129540000D03*
X149606000Y-121920000D03*
X154686000Y-129540000D03*
X147066000Y-121920000D03*
X157226000Y-129540000D03*
X144526000Y-121920000D03*
X159766000Y-129540000D03*
X141986000Y-121920000D03*
X162306000Y-129540000D03*
D16*
X137160000Y-121920000D03*
D17*
X116840000Y-129540000D03*
X134620000Y-121920000D03*
X119380000Y-129540000D03*
X132080000Y-121920000D03*
X121920000Y-129540000D03*
X129540000Y-121920000D03*
X124460000Y-129540000D03*
X127000000Y-121920000D03*
X127000000Y-129540000D03*
X124460000Y-121920000D03*
X129540000Y-129540000D03*
X121920000Y-121920000D03*
X132080000Y-129540000D03*
X119380000Y-121920000D03*
X134620000Y-129540000D03*
X116840000Y-121920000D03*
X137160000Y-129540000D03*
D11*
X147500000Y-96500000D03*
D12*
X147500000Y-93960000D03*
X147500000Y-91420000D03*
X147500000Y-88880000D03*
D11*
X178500000Y-96500000D03*
D12*
X178500000Y-93960000D03*
X178500000Y-91420000D03*
X178500000Y-88880000D03*
D18*
X180500000Y-144250000D03*
X182500000Y-143000000D03*
X183750000Y-141000000D03*
X183750000Y-138500000D03*
X182500000Y-136500000D03*
X180500000Y-135250000D03*
X176000000Y-136500000D03*
X174750000Y-138500000D03*
X174750000Y-141000000D03*
X176000000Y-143000000D03*
X178000000Y-144250000D03*
X178000000Y-135250000D03*
X167500000Y-144250000D03*
X169500000Y-143000000D03*
X170750000Y-141000000D03*
X170750000Y-138500000D03*
X169500000Y-136500000D03*
X167500000Y-135250000D03*
X163000000Y-136500000D03*
X161750000Y-138500000D03*
X161750000Y-141000000D03*
X163000000Y-143000000D03*
X165000000Y-144250000D03*
X165000000Y-135250000D03*
X154500000Y-144250000D03*
X156500000Y-143000000D03*
X157750000Y-141000000D03*
X157750000Y-138500000D03*
X156500000Y-136500000D03*
X154500000Y-135250000D03*
X150000000Y-136500000D03*
X148750000Y-138500000D03*
X148750000Y-141000000D03*
X150000000Y-143000000D03*
X152000000Y-144250000D03*
X152000000Y-135250000D03*
X141500000Y-144250000D03*
X143500000Y-143000000D03*
X144750000Y-141000000D03*
X144750000Y-138500000D03*
X143500000Y-136500000D03*
X141500000Y-135250000D03*
X137000000Y-136500000D03*
X135750000Y-138500000D03*
X135750000Y-141000000D03*
X137000000Y-143000000D03*
X139000000Y-144250000D03*
X139000000Y-135250000D03*
X128250000Y-144250000D03*
X130250000Y-143000000D03*
X131500000Y-141000000D03*
X131500000Y-138500000D03*
X130250000Y-136500000D03*
X128250000Y-135250000D03*
X123750000Y-136500000D03*
X122500000Y-138500000D03*
X122500000Y-141000000D03*
X123750000Y-143000000D03*
X125750000Y-144250000D03*
X125750000Y-135250000D03*
X115042000Y-144327000D03*
X117042000Y-143077000D03*
X118292000Y-141077000D03*
X118292000Y-138577000D03*
X117042000Y-136577000D03*
X115042000Y-135327000D03*
X110542000Y-136577000D03*
X109292000Y-138577000D03*
X109292000Y-141077000D03*
X110542000Y-143077000D03*
X112542000Y-144327000D03*
X112542000Y-135327000D03*
X187706000Y-139446000D03*
D14*
X187706000Y-136906000D03*
X173609000Y-146304000D03*
D18*
X171069000Y-146304000D03*
X158051500Y-146304000D03*
D14*
X160591500Y-146304000D03*
X147701000Y-146304000D03*
D18*
X145161000Y-146304000D03*
X132080000Y-146304000D03*
D14*
X134620000Y-146304000D03*
X121158000Y-146304000D03*
D18*
X118618000Y-146304000D03*
D19*
X175260000Y-91440000D03*
X152400000Y-91440000D03*
X154940000Y-91440000D03*
X157480000Y-91440000D03*
X160020000Y-91440000D03*
X162560000Y-91440000D03*
X165100000Y-91440000D03*
X167640000Y-91440000D03*
X170180000Y-91440000D03*
X172720000Y-91440000D03*
D20*
X150876000Y-119634000D03*
X132080000Y-99060000D03*
X143510000Y-99060000D03*
X129540000Y-99060000D03*
X127000000Y-99060000D03*
X123190000Y-99060000D03*
X119380000Y-99060000D03*
X115570000Y-99060000D03*
X111760000Y-99060000D03*
X111760000Y-106934000D03*
X111760000Y-109982000D03*
X114554000Y-109982000D03*
X116840000Y-113538000D03*
X114554000Y-113538000D03*
X111760000Y-113538000D03*
X128778000Y-147828000D03*
X123190000Y-127127000D03*
X120650000Y-127127000D03*
X118110000Y-127127000D03*
X124206000Y-147828000D03*
X125730000Y-147828000D03*
X127254000Y-147828000D03*
X185674000Y-133350000D03*
X143764000Y-126746000D03*
X154432000Y-146812000D03*
X166878000Y-129286000D03*
X168148000Y-129286000D03*
X169418000Y-129286000D03*
X170688000Y-129286000D03*
X171958000Y-129286000D03*
X173228000Y-129286000D03*
X140970000Y-126746000D03*
X142240000Y-126746000D03*
X145288000Y-126746000D03*
X150114000Y-116078000D03*
X150622000Y-116840000D03*
X150876000Y-117856000D03*
X155702000Y-112522000D03*
X154432000Y-112522000D03*
X147320000Y-114046000D03*
X147320000Y-114046000D03*
X147320000Y-114046000D03*
X148336000Y-114046000D03*
X149352000Y-114046000D03*
X169672000Y-133858000D03*
X155702000Y-131826000D03*
X140208000Y-147320000D03*
X143255984Y-147066000D03*
X157226000Y-134620000D03*
X133096000Y-133604000D03*
X139192000Y-131826000D03*
X135890000Y-127762000D03*
X171958000Y-134620000D03*
X160528000Y-135382000D03*
X134620000Y-133858000D03*
X172212000Y-140208000D03*
X152654000Y-141986000D03*
X150876000Y-134366000D03*
X159258000Y-144272028D03*
X133350000Y-143002000D03*
X136271000Y-110998000D03*
D21*
X152400000Y-91440000D02*
X154940000Y-91440000D01*
X157480000Y-91440000D02*
X160020000Y-91440000D01*
X162560000Y-91440000D02*
X165100000Y-91440000D01*
X167640000Y-91440000D02*
X170180000Y-91440000D01*
X172720000Y-91440000D02*
X175260000Y-91440000D01*
X178500000Y-88880000D02*
X147500000Y-88880000D01*
X157306000Y-116078000D02*
X157226000Y-116078000D01*
X157226000Y-116078000D02*
X153670000Y-119634000D01*
X153670000Y-119634000D02*
X150876000Y-119634000D01*
X157306000Y-116078000D02*
X157306000Y-116666000D01*
X132080000Y-99060000D02*
X143510000Y-99060000D01*
X127000000Y-99060000D02*
X129540000Y-99060000D01*
X119380000Y-99060000D02*
X123190000Y-99060000D01*
X111760000Y-99060000D02*
X115570000Y-99060000D01*
X127000000Y-99060000D02*
X123190000Y-99060000D01*
X111760000Y-109982000D02*
X111760000Y-106934000D01*
X115316000Y-109982000D02*
X114554000Y-109982000D01*
X116840000Y-111506000D02*
X115316000Y-109982000D01*
X116840000Y-113538000D02*
X116840000Y-111506000D01*
X111760000Y-113538000D02*
X114554000Y-113538000D01*
X138938000Y-145288000D02*
X138938000Y-146812000D01*
X137922000Y-147828000D02*
X128778000Y-147828000D01*
X138938000Y-146812000D02*
X137922000Y-147828000D01*
X139000000Y-145226000D02*
X138938000Y-145288000D01*
X139000000Y-144250000D02*
X139000000Y-145226000D01*
X116840000Y-129540000D02*
X116840000Y-127254000D01*
X120777000Y-127254000D02*
X123190000Y-127127000D01*
X120650000Y-127127000D02*
X120777000Y-127254000D01*
X116967000Y-127127000D02*
X118110000Y-127127000D01*
X116840000Y-127254000D02*
X116967000Y-127127000D01*
X124206000Y-147828000D02*
X123190000Y-147828000D01*
X127254000Y-147828000D02*
X125730000Y-147828000D01*
D22*
X186055000Y-134747000D02*
X186055000Y-133731000D01*
X186055000Y-133731000D02*
X185674000Y-133350000D01*
X186055000Y-142113000D02*
X186055000Y-134747000D01*
X181864000Y-146304000D02*
X186055000Y-142113000D01*
X178054000Y-146304000D02*
X181864000Y-146304000D01*
D23*
X141986000Y-129540000D02*
X141986000Y-128016000D01*
X141986000Y-128016000D02*
X142494000Y-127508000D01*
X142494000Y-127508000D02*
X144018000Y-127508000D01*
D21*
X110490000Y-128190000D02*
X112950000Y-128190000D01*
X112950000Y-128190000D02*
X114300000Y-129540000D01*
X114300000Y-129540000D02*
X116840000Y-129540000D01*
D22*
X165100000Y-146812000D02*
X166370000Y-148082000D01*
X178054000Y-146304000D02*
X178000000Y-144250000D01*
X176276000Y-148082000D02*
X178054000Y-146304000D01*
X166370000Y-148082000D02*
X176276000Y-148082000D01*
X165100000Y-146812000D02*
X165100000Y-144350000D01*
X163830000Y-148082000D02*
X165100000Y-146812000D01*
X155702000Y-148082000D02*
X163830000Y-148082000D01*
X154432000Y-146812000D02*
X155702000Y-148082000D01*
X165100000Y-144350000D02*
X165000000Y-144250000D01*
X112470000Y-144780000D02*
X113000000Y-144250000D01*
D21*
X122100000Y-118240000D02*
X122100000Y-121740000D01*
X122100000Y-121740000D02*
X121920000Y-121920000D01*
X178816000Y-109474000D02*
X182880000Y-109474000D01*
X155702000Y-112522000D02*
X158750000Y-109474000D01*
X158750000Y-109474000D02*
X178816000Y-109474000D01*
X181356000Y-112014000D02*
X182880000Y-112014000D01*
X154432000Y-112946264D02*
X155023736Y-113538000D01*
X155023736Y-113538000D02*
X156210000Y-113538000D01*
X154432000Y-112522000D02*
X154432000Y-112946264D01*
X156210000Y-113538000D02*
X159512000Y-110236000D01*
X159512000Y-110236000D02*
X179578000Y-110236000D01*
X179578000Y-110236000D02*
X181356000Y-112014000D01*
X143510000Y-115570000D02*
X144780000Y-115570000D01*
X127242618Y-104394511D02*
X138430000Y-115570000D01*
X138430000Y-115570000D02*
X143510000Y-115570000D01*
X146304000Y-117348000D02*
X146304000Y-119380000D01*
X146304000Y-119380000D02*
X147320000Y-120396000D01*
X147320000Y-121920000D02*
X147320000Y-120396000D01*
X127242618Y-104394511D02*
X127180000Y-103000000D01*
X146304000Y-117094000D02*
X146304000Y-117348000D01*
X144780000Y-115570000D02*
X146304000Y-117094000D01*
X137310000Y-95178000D02*
X130810000Y-95178000D01*
X132260000Y-103000000D02*
X132260000Y-101780000D01*
X130810000Y-100330000D02*
X130810000Y-95178000D01*
X132260000Y-101780000D02*
X130810000Y-100330000D01*
X124640000Y-103000000D02*
X124714000Y-104394000D01*
X144780000Y-120650000D02*
X144780000Y-121920000D01*
X143764000Y-119634000D02*
X144780000Y-120650000D01*
X143764000Y-117094000D02*
X143764000Y-119634000D01*
X142748000Y-116078000D02*
X143764000Y-117094000D01*
X136398000Y-116078000D02*
X142748000Y-116078000D01*
X124714000Y-104394000D02*
X136398000Y-116078000D01*
X122100000Y-103000000D02*
X122174000Y-104394000D01*
X137160000Y-120396000D02*
X137160000Y-121920000D01*
X136017000Y-119253000D02*
X137160000Y-120396000D01*
X136017000Y-116967000D02*
X136017000Y-119253000D01*
X135128000Y-116078000D02*
X136017000Y-116967000D01*
X133858000Y-116078000D02*
X135128000Y-116078000D01*
X122174000Y-104394000D02*
X133858000Y-116078000D01*
D24*
X154432000Y-99314000D02*
X154432000Y-98552000D01*
X154432000Y-106934000D02*
X154432000Y-99314000D01*
X152380000Y-96500000D02*
X147500000Y-96500000D01*
X154432000Y-98552000D02*
X152380000Y-96500000D01*
X154432000Y-108204000D02*
X154432000Y-106934000D01*
X154432000Y-109220000D02*
X154432000Y-108204000D01*
X147320000Y-114046000D02*
X149606000Y-114046000D01*
X149606000Y-114046000D02*
X154432000Y-109220000D01*
D22*
X129032000Y-146304000D02*
X123698000Y-146304000D01*
X130460989Y-144875011D02*
X129032000Y-146304000D01*
X133953011Y-144875011D02*
X130460989Y-144875011D01*
X134620000Y-146304000D02*
X134620000Y-145542000D01*
X134620000Y-145542000D02*
X133953011Y-144875011D01*
X123698000Y-146304000D02*
X121158000Y-146304000D01*
D24*
X180848000Y-106934000D02*
X182880000Y-106934000D01*
X154432000Y-106934000D02*
X180848000Y-106934000D01*
D21*
X119560000Y-103000000D02*
X119634000Y-104394000D01*
X134620000Y-120396000D02*
X134620000Y-121920000D01*
X133477000Y-119253000D02*
X134620000Y-120396000D01*
X133477000Y-116967000D02*
X133477000Y-119253000D01*
X132588000Y-116078000D02*
X133477000Y-116967000D01*
X131318000Y-116078000D02*
X132588000Y-116078000D01*
X119634000Y-104394000D02*
X131318000Y-116078000D01*
X117020000Y-103000000D02*
X117094000Y-104394000D01*
X132080000Y-120396000D02*
X132080000Y-121920000D01*
X131064000Y-119380000D02*
X132080000Y-120396000D01*
X131064000Y-117094000D02*
X131064000Y-119380000D01*
X130048000Y-116078000D02*
X131064000Y-117094000D01*
X128778000Y-116078000D02*
X130048000Y-116078000D01*
X117094000Y-104394000D02*
X128778000Y-116078000D01*
X114480000Y-103000000D02*
X114554000Y-104140000D01*
X129540000Y-120396000D02*
X129540000Y-121920000D01*
X128524000Y-119380000D02*
X129540000Y-120396000D01*
X128524000Y-117094000D02*
X128524000Y-119380000D01*
X126238000Y-116078000D02*
X127508000Y-116078000D01*
X127508000Y-116078000D02*
X128524000Y-117094000D01*
X114554000Y-104140000D02*
X114554000Y-104394000D01*
X114554000Y-104394000D02*
X126238000Y-116078000D01*
X111940000Y-103000000D02*
X111940000Y-104320000D01*
X111940000Y-104320000D02*
X123698000Y-116078000D01*
X127000000Y-120396000D02*
X127000000Y-121920000D01*
X125984000Y-119380000D02*
X127000000Y-120396000D01*
X125984000Y-117094000D02*
X125984000Y-119380000D01*
X124968000Y-116078000D02*
X125984000Y-117094000D01*
X123698000Y-116078000D02*
X124968000Y-116078000D01*
D24*
X110490000Y-123190000D02*
X115570000Y-123190000D01*
X115570000Y-123190000D02*
X116840000Y-121920000D01*
D22*
X118292000Y-141077000D02*
X118292000Y-141660000D01*
X118292000Y-141660000D02*
X118618000Y-141986000D01*
X118618000Y-141986000D02*
X118618000Y-146304000D01*
D21*
X144526000Y-129540000D02*
X144526000Y-133604000D01*
X144526000Y-133604000D02*
X143500000Y-134630000D01*
X143500000Y-134630000D02*
X143500000Y-136500000D01*
X168402000Y-134620000D02*
X167500000Y-135250000D01*
X169164000Y-133858000D02*
X168402000Y-134620000D01*
X169672000Y-133858000D02*
X169164000Y-133858000D01*
X155702000Y-131826000D02*
X159004000Y-131826000D01*
X159004000Y-131826000D02*
X160528000Y-133350000D01*
X160528000Y-133350000D02*
X166116000Y-133350000D01*
X166116000Y-133350000D02*
X167132000Y-134366000D01*
X167132000Y-134366000D02*
X167500000Y-135250000D01*
X128250000Y-135250000D02*
X128270000Y-134366000D01*
X115824000Y-134366000D02*
X115500000Y-135250000D01*
X116332000Y-133858000D02*
X115824000Y-134366000D01*
X127762000Y-133858000D02*
X116332000Y-133858000D01*
X128270000Y-134366000D02*
X127762000Y-133858000D01*
X141500000Y-134134000D02*
X141500000Y-135250000D01*
X140462000Y-133096000D02*
X141500000Y-134134000D01*
X140462000Y-132080000D02*
X140462000Y-133096000D01*
X147066000Y-126746000D02*
X145542000Y-125222000D01*
X147066000Y-129540000D02*
X147066000Y-126746000D01*
X145542000Y-125222000D02*
X139700000Y-125222000D01*
X139700000Y-125222000D02*
X139192000Y-125730000D01*
X139192000Y-125730000D02*
X139192000Y-130810000D01*
X139192000Y-130810000D02*
X140462000Y-132080000D01*
D22*
X149606000Y-127508000D02*
X149606000Y-129540000D01*
X146050000Y-123952000D02*
X149606000Y-127508000D01*
X119380000Y-123952000D02*
X146050000Y-123952000D01*
X118110000Y-125222000D02*
X119380000Y-123952000D01*
X117042000Y-144832000D02*
X115443000Y-146431000D01*
X117042000Y-143077000D02*
X117042000Y-144832000D01*
X115443000Y-146431000D02*
X110871000Y-146431000D01*
X110871000Y-146431000D02*
X106680000Y-142240000D01*
X106680000Y-142240000D02*
X106680000Y-128524000D01*
X109982000Y-125222000D02*
X118110000Y-125222000D01*
X106680000Y-128524000D02*
X109982000Y-125222000D01*
X148844000Y-131572000D02*
X149098000Y-131318000D01*
X146304000Y-134112000D02*
X148844000Y-131572000D01*
X152146000Y-131064000D02*
X152146000Y-129540000D01*
X151892000Y-131318000D02*
X152146000Y-131064000D01*
X149098000Y-131318000D02*
X151892000Y-131318000D01*
X146304000Y-134112000D02*
X146303972Y-134112028D01*
X141478000Y-146050000D02*
X140208000Y-147320000D01*
X143002000Y-146050000D02*
X141478000Y-146050000D01*
X146304000Y-134112000D02*
X146304000Y-142748000D01*
X146304000Y-142748000D02*
X143002000Y-146050000D01*
X143555983Y-147365999D02*
X143255984Y-147066000D01*
X148590000Y-148082000D02*
X144271984Y-148082000D01*
X149352000Y-147320000D02*
X148590000Y-148082000D01*
X149352000Y-145034000D02*
X149352000Y-147320000D01*
X154686000Y-129940000D02*
X152292000Y-132334000D01*
X144271984Y-148082000D02*
X143555983Y-147365999D01*
X154686000Y-129540000D02*
X154686000Y-129940000D01*
X152292000Y-132334000D02*
X149352000Y-132334000D01*
X149352000Y-132334000D02*
X147320000Y-134366000D01*
X147320000Y-134366000D02*
X147320000Y-143002000D01*
X147320000Y-143002000D02*
X149352000Y-145034000D01*
X157525999Y-134919999D02*
X157226000Y-134620000D01*
X159766000Y-137160000D02*
X157525999Y-134919999D01*
X159766000Y-141224000D02*
X159766000Y-137160000D01*
X156500000Y-143000000D02*
X157990000Y-143000000D01*
X157990000Y-143000000D02*
X159766000Y-141224000D01*
X160020000Y-129540000D02*
X160020000Y-131572000D01*
X170942000Y-143001700D02*
X169500000Y-143000000D01*
X170941701Y-143001700D02*
X170942000Y-143001700D01*
X173203195Y-141192985D02*
X170941701Y-143001700D01*
X172974000Y-134112000D02*
X173203195Y-141192985D01*
X171450000Y-132588000D02*
X172974000Y-134112000D01*
X161036000Y-132588000D02*
X171450000Y-132588000D01*
X160020000Y-131572000D02*
X161036000Y-132588000D01*
X182500000Y-143000000D02*
X183640000Y-143000000D01*
X183896000Y-143002000D02*
X185166000Y-141732000D01*
X183642000Y-143002000D02*
X183896000Y-143002000D01*
X183640000Y-143000000D02*
X183642000Y-143002000D01*
X162560000Y-129540000D02*
X162560000Y-131064000D01*
X185166000Y-135382000D02*
X185166000Y-141732000D01*
X181356000Y-131572000D02*
X185166000Y-135382000D01*
X163068000Y-131572000D02*
X181356000Y-131572000D01*
X162560000Y-131064000D02*
X163068000Y-131572000D01*
D21*
X121920000Y-129540000D02*
X121920000Y-131318000D01*
X121920000Y-131318000D02*
X123444000Y-132842000D01*
X123444000Y-132842000D02*
X132334000Y-132842000D01*
X132334000Y-132842000D02*
X133096000Y-133604000D01*
X115500000Y-144250000D02*
X115548000Y-144250000D01*
X133626000Y-144250000D02*
X134620000Y-143256000D01*
X128250000Y-144250000D02*
X133626000Y-144250000D01*
X133604000Y-134112000D02*
X133604000Y-141478000D01*
X133096000Y-133604000D02*
X133604000Y-134112000D01*
X133604000Y-141478000D02*
X134620000Y-142494000D01*
X134620000Y-142494000D02*
X134620000Y-143256000D01*
X137436000Y-144250000D02*
X137668000Y-144018000D01*
X138684000Y-142748000D02*
X139998000Y-142748000D01*
X139998000Y-142748000D02*
X140700001Y-143450001D01*
X140700001Y-143450001D02*
X141500000Y-144250000D01*
X137668000Y-144018000D02*
X138684000Y-142748000D01*
X135614000Y-144250000D02*
X137436000Y-144250000D01*
X134620000Y-143256000D02*
X135614000Y-144250000D01*
X180594000Y-143510000D02*
X180500000Y-144250000D01*
X168030000Y-144780000D02*
X175514000Y-144780000D01*
X167500000Y-144250000D02*
X168030000Y-144780000D01*
X175514000Y-144780000D02*
X176022000Y-144272000D01*
X179832000Y-142748000D02*
X180594000Y-143510000D01*
X176022000Y-144272000D02*
X176530000Y-144272000D01*
X176530000Y-144272000D02*
X177546000Y-142748000D01*
X177546000Y-142748000D02*
X179832000Y-142748000D01*
X137160137Y-125989904D02*
X138684000Y-127508000D01*
X138684000Y-127508000D02*
X138684000Y-131318000D01*
X138684000Y-131318000D02*
X139192000Y-131826000D01*
X124460000Y-129540000D02*
X124460000Y-128016000D01*
X124460000Y-128016000D02*
X126492000Y-125984000D01*
X126492000Y-125984000D02*
X137160137Y-125989904D01*
X145034000Y-138216000D02*
X144750000Y-138500000D01*
X148336000Y-130810000D02*
X145034000Y-134112000D01*
X137160137Y-125989904D02*
X137154104Y-125989904D01*
X137154100Y-125989900D02*
X138430000Y-124714000D01*
X137154104Y-125989904D02*
X137154100Y-125989900D01*
X138430000Y-124714000D02*
X145796000Y-124714000D01*
X145796000Y-124714000D02*
X148336000Y-127254000D01*
X145034000Y-134112000D02*
X145034000Y-138216000D01*
X148336000Y-127254000D02*
X148336000Y-130810000D01*
X165000000Y-135250000D02*
X165100000Y-136144000D01*
X169418000Y-134620000D02*
X171958000Y-134620000D01*
X167894000Y-136652000D02*
X169418000Y-134620000D01*
X165608000Y-136652000D02*
X167894000Y-136652000D01*
X165100000Y-136144000D02*
X165608000Y-136652000D01*
X138938000Y-134366000D02*
X138938000Y-135188000D01*
X138938000Y-135188000D02*
X139000000Y-135250000D01*
X135890000Y-131318000D02*
X138938000Y-134366000D01*
X138938000Y-135188000D02*
X139000000Y-135250000D01*
X127000000Y-129540000D02*
X127000000Y-128016000D01*
X127000000Y-128016000D02*
X128270000Y-126746000D01*
X128270000Y-126746000D02*
X134874000Y-126746000D01*
X134874000Y-126746000D02*
X135890000Y-127762000D01*
X135890000Y-127762000D02*
X135890000Y-131318000D01*
X158750000Y-133604000D02*
X160528000Y-135382000D01*
X149860000Y-133604000D02*
X158750000Y-133604000D01*
X148844000Y-134620000D02*
X149860000Y-133604000D01*
X148844000Y-135382000D02*
X148844000Y-134620000D01*
X149352000Y-135890000D02*
X148844000Y-135382000D01*
X149606000Y-135890000D02*
X149352000Y-135890000D01*
X150000000Y-136500000D02*
X150000000Y-136284000D01*
X150000000Y-136284000D02*
X149606000Y-135890000D01*
X129540000Y-129540000D02*
X129540000Y-128016000D01*
X129540000Y-128016000D02*
X130302000Y-127254000D01*
X130302000Y-127254000D02*
X132334000Y-127254000D01*
X132334000Y-127254000D02*
X133350000Y-128270000D01*
X133350000Y-128270000D02*
X133350000Y-131318000D01*
X133350000Y-131318000D02*
X136398000Y-134366000D01*
X136398000Y-134366000D02*
X136398000Y-135898000D01*
X136398000Y-135898000D02*
X137000000Y-136500000D01*
X150000000Y-136500000D02*
X150470000Y-136500000D01*
X129540000Y-129540000D02*
X129540000Y-130556000D01*
X157988000Y-133096000D02*
X159258000Y-133096000D01*
X148082000Y-137414000D02*
X148082000Y-134620000D01*
X148082000Y-134620000D02*
X149606000Y-133096000D01*
X149606000Y-133096000D02*
X157988000Y-133096000D01*
X148750000Y-138082000D02*
X148082000Y-137414000D01*
X161290000Y-135128000D02*
X161290000Y-138040000D01*
X159258000Y-133096000D02*
X161290000Y-135128000D01*
X161290000Y-138040000D02*
X161750000Y-138500000D01*
X148750000Y-138500000D02*
X148750000Y-138082000D01*
X132080000Y-129540000D02*
X132080000Y-131318000D01*
X132080000Y-131318000D02*
X134620000Y-133858000D01*
X134620000Y-133858000D02*
X134620000Y-136144000D01*
X134620000Y-136144000D02*
X135750000Y-137274000D01*
X135750000Y-137274000D02*
X135750000Y-138500000D01*
X161750000Y-141000000D02*
X168656000Y-140970000D01*
X171958000Y-139700000D02*
X172212000Y-140208000D01*
X171450000Y-139700000D02*
X171958000Y-139700000D01*
X169926000Y-139700000D02*
X171450000Y-139700000D01*
X168656000Y-140970000D02*
X169926000Y-139700000D01*
X138430000Y-136652000D02*
X138430000Y-139700000D01*
X138430000Y-139700000D02*
X137130000Y-141000000D01*
X137130000Y-141000000D02*
X135750000Y-141000000D01*
X137668000Y-135382000D02*
X138430000Y-136652000D01*
X137414000Y-134112000D02*
X137414000Y-135128000D01*
X137414000Y-135128000D02*
X137668000Y-135382000D01*
X134620000Y-129540000D02*
X134620000Y-131318000D01*
X134620000Y-131318000D02*
X136398000Y-133096000D01*
X136398000Y-133096000D02*
X137414000Y-134112000D01*
X159357002Y-143392998D02*
X160950001Y-141799999D01*
X154940000Y-142748000D02*
X155956000Y-144272000D01*
X158957998Y-143392998D02*
X159357002Y-143392998D01*
X158078996Y-144272000D02*
X158957998Y-143392998D01*
X155956000Y-144272000D02*
X158078996Y-144272000D01*
X154178000Y-141986000D02*
X154940000Y-142748000D01*
X152654000Y-141986000D02*
X154178000Y-141986000D01*
X160950001Y-141799999D02*
X161750000Y-141000000D01*
X168910000Y-144272000D02*
X175006000Y-144272000D01*
X167640000Y-142494000D02*
X168148000Y-143002000D01*
X168148000Y-143002000D02*
X168910000Y-144272000D01*
X163576000Y-142494000D02*
X167640000Y-142494000D01*
X175514000Y-143764000D02*
X176000000Y-143000000D01*
X175006000Y-144272000D02*
X175514000Y-143764000D01*
X163000000Y-143000000D02*
X163576000Y-142494000D01*
X152146000Y-138684000D02*
X152146000Y-140854000D01*
X152146000Y-140854000D02*
X150000000Y-143000000D01*
X151638000Y-137922000D02*
X151638000Y-138176000D01*
X151638000Y-138176000D02*
X152146000Y-138684000D01*
X150622000Y-135382000D02*
X150876000Y-134366000D01*
X151638000Y-136906000D02*
X150622000Y-135382000D01*
X151638000Y-137922000D02*
X151638000Y-136906000D01*
X137160000Y-129540000D02*
X137160000Y-131318000D01*
X138014000Y-141986000D02*
X137000000Y-143000000D01*
X138684000Y-141986000D02*
X138014000Y-141986000D01*
X140208000Y-140462000D02*
X138684000Y-141986000D01*
X140208000Y-133858000D02*
X140208000Y-140462000D01*
X139446000Y-133096000D02*
X140208000Y-133858000D01*
X138938000Y-133096000D02*
X139446000Y-133096000D01*
X137160000Y-131318000D02*
X138938000Y-133096000D01*
X123750000Y-143000000D02*
X123750000Y-142950000D01*
X163000000Y-143000000D02*
X160530028Y-143000000D01*
X159557999Y-143972029D02*
X159258000Y-144272028D01*
X160530028Y-143000000D02*
X159557999Y-143972029D01*
X123750000Y-143000000D02*
X125272000Y-141478000D01*
X132080000Y-143002000D02*
X132925736Y-143002000D01*
X132925736Y-143002000D02*
X133350000Y-143002000D01*
X131318000Y-142240000D02*
X132080000Y-143002000D01*
X130048000Y-141478000D02*
X131318000Y-142240000D01*
X125272000Y-141478000D02*
X130048000Y-141478000D01*
X137287000Y-104267000D02*
X137340000Y-103000000D01*
X137287000Y-106553000D02*
X137287000Y-104267000D01*
X146304000Y-115570000D02*
X137287000Y-106553000D01*
X147574000Y-115570000D02*
X146304000Y-115570000D01*
X149606000Y-121920000D02*
X149606000Y-117602000D01*
X149606000Y-117602000D02*
X147574000Y-115570000D01*
X129667000Y-104394000D02*
X129720000Y-103000000D01*
X136271000Y-110998000D02*
X129667000Y-104394000D01*
D25*
G36*
X187263637Y-84752275D02*
G01*
X188003140Y-84954580D01*
X188695128Y-85284642D01*
X189317733Y-85732029D01*
X189851268Y-86282595D01*
X190278876Y-86918944D01*
X190587041Y-87620961D01*
X190767283Y-88371720D01*
X190815000Y-89021512D01*
X190815001Y-143965884D01*
X190744125Y-144760037D01*
X190541820Y-145499540D01*
X190211758Y-146191528D01*
X189764371Y-146814133D01*
X189213808Y-147347666D01*
X188577456Y-147775276D01*
X187875437Y-148083442D01*
X187124681Y-148263682D01*
X186474888Y-148311400D01*
X149682889Y-148311400D01*
X149980659Y-148013630D01*
X150016344Y-147984344D01*
X150133186Y-147841972D01*
X150220007Y-147679540D01*
X150250215Y-147579957D01*
X150273472Y-147503292D01*
X150291524Y-147320000D01*
X150287000Y-147274065D01*
X150287000Y-146177000D01*
X156616500Y-146177000D01*
X156616500Y-146445335D01*
X156671647Y-146722574D01*
X156779820Y-146983727D01*
X156936863Y-147218759D01*
X157136741Y-147418637D01*
X157371773Y-147575680D01*
X157632926Y-147683853D01*
X157910165Y-147739000D01*
X158192835Y-147739000D01*
X158470074Y-147683853D01*
X158731227Y-147575680D01*
X158966259Y-147418637D01*
X159166137Y-147218759D01*
X159323180Y-146983727D01*
X159325150Y-146978971D01*
X159392568Y-147105101D01*
X159571892Y-147323608D01*
X159790399Y-147502932D01*
X160039692Y-147636182D01*
X160310191Y-147718236D01*
X160521008Y-147739000D01*
X160661992Y-147739000D01*
X160872809Y-147718236D01*
X161143308Y-147636182D01*
X161392601Y-147502932D01*
X161611108Y-147323608D01*
X161790432Y-147105101D01*
X161923682Y-146855808D01*
X162005736Y-146585309D01*
X162033443Y-146304000D01*
X162020934Y-146177000D01*
X169634000Y-146177000D01*
X169634000Y-146445335D01*
X169689147Y-146722574D01*
X169797320Y-146983727D01*
X169954363Y-147218759D01*
X170154241Y-147418637D01*
X170389273Y-147575680D01*
X170650426Y-147683853D01*
X170927665Y-147739000D01*
X171210335Y-147739000D01*
X171487574Y-147683853D01*
X171748727Y-147575680D01*
X171983759Y-147418637D01*
X172183637Y-147218759D01*
X172340680Y-146983727D01*
X172342650Y-146978971D01*
X172410068Y-147105101D01*
X172589392Y-147323608D01*
X172807899Y-147502932D01*
X173057192Y-147636182D01*
X173327691Y-147718236D01*
X173538508Y-147739000D01*
X173679492Y-147739000D01*
X173890309Y-147718236D01*
X174160808Y-147636182D01*
X174410101Y-147502932D01*
X174628608Y-147323608D01*
X174807932Y-147105101D01*
X174941182Y-146855808D01*
X175023236Y-146585309D01*
X175050943Y-146304000D01*
X175038434Y-146177000D01*
X181610000Y-146177000D01*
X181634776Y-146174560D01*
X181658601Y-146167333D01*
X181680557Y-146155597D01*
X181699803Y-146139803D01*
X182811023Y-145028583D01*
X185195226Y-145028583D01*
X185245371Y-145475636D01*
X185381394Y-145904436D01*
X185598114Y-146298649D01*
X185887277Y-146643260D01*
X186237868Y-146925142D01*
X186636533Y-147133559D01*
X187068087Y-147260572D01*
X187516093Y-147301344D01*
X187963486Y-147254321D01*
X188393224Y-147121295D01*
X188788941Y-146907332D01*
X189135562Y-146620582D01*
X189419884Y-146271968D01*
X189631080Y-145874767D01*
X189761103Y-145444110D01*
X189805001Y-144996400D01*
X189804102Y-144932041D01*
X189747720Y-144485731D01*
X189605723Y-144058872D01*
X189383520Y-143667724D01*
X189089574Y-143327184D01*
X188735082Y-143050224D01*
X188333546Y-142847394D01*
X187900260Y-142726418D01*
X187451729Y-142691906D01*
X187005036Y-142745170D01*
X186577196Y-142884184D01*
X186184506Y-143103651D01*
X185841923Y-143395212D01*
X185562495Y-143747763D01*
X185356866Y-144147873D01*
X185232869Y-144580303D01*
X185195226Y-145028583D01*
X182811023Y-145028583D01*
X183898309Y-143941297D01*
X183941932Y-143937000D01*
X184079292Y-143923471D01*
X184255540Y-143870007D01*
X184417972Y-143783186D01*
X184560344Y-143666344D01*
X184589630Y-143630659D01*
X185794664Y-142425626D01*
X185830344Y-142396344D01*
X185947186Y-142253972D01*
X186034007Y-142091540D01*
X186082209Y-141932640D01*
X186087471Y-141915293D01*
X186105524Y-141732001D01*
X186101000Y-141686069D01*
X186101000Y-136906000D01*
X186264057Y-136906000D01*
X186291764Y-137187309D01*
X186373818Y-137457808D01*
X186507068Y-137707101D01*
X186686392Y-137925608D01*
X186904899Y-138104932D01*
X187031029Y-138172350D01*
X187026273Y-138174320D01*
X186791241Y-138331363D01*
X186591363Y-138531241D01*
X186434320Y-138766273D01*
X186326147Y-139027426D01*
X186271000Y-139304665D01*
X186271000Y-139587335D01*
X186326147Y-139864574D01*
X186434320Y-140125727D01*
X186591363Y-140360759D01*
X186791241Y-140560637D01*
X187026273Y-140717680D01*
X187287426Y-140825853D01*
X187564665Y-140881000D01*
X187847335Y-140881000D01*
X188124574Y-140825853D01*
X188385727Y-140717680D01*
X188620759Y-140560637D01*
X188820637Y-140360759D01*
X188977680Y-140125727D01*
X189085853Y-139864574D01*
X189141000Y-139587335D01*
X189141000Y-139304665D01*
X189085853Y-139027426D01*
X188977680Y-138766273D01*
X188820637Y-138531241D01*
X188620759Y-138331363D01*
X188385727Y-138174320D01*
X188380971Y-138172350D01*
X188507101Y-138104932D01*
X188725608Y-137925608D01*
X188904932Y-137707101D01*
X189038182Y-137457808D01*
X189120236Y-137187309D01*
X189147943Y-136906000D01*
X189120236Y-136624691D01*
X189038182Y-136354192D01*
X188904932Y-136104899D01*
X188725608Y-135886392D01*
X188507101Y-135707068D01*
X188257808Y-135573818D01*
X187987309Y-135491764D01*
X187776492Y-135471000D01*
X187635508Y-135471000D01*
X187424691Y-135491764D01*
X187154192Y-135573818D01*
X186904899Y-135707068D01*
X186686392Y-135886392D01*
X186507068Y-136104899D01*
X186373818Y-136354192D01*
X186291764Y-136624691D01*
X186264057Y-136906000D01*
X186101000Y-136906000D01*
X186101000Y-135427935D01*
X186105524Y-135382000D01*
X186087472Y-135198708D01*
X186034007Y-135022459D01*
X185980442Y-134922246D01*
X185947186Y-134860028D01*
X185830344Y-134717656D01*
X185794660Y-134688371D01*
X182049630Y-130943341D01*
X182020344Y-130907656D01*
X181877972Y-130790814D01*
X181715540Y-130703993D01*
X181539292Y-130650529D01*
X181401932Y-130637000D01*
X181356000Y-130632476D01*
X181310068Y-130637000D01*
X163560575Y-130637000D01*
X163638182Y-130491808D01*
X163720236Y-130221309D01*
X163741000Y-130010492D01*
X163741000Y-129069509D01*
X163720236Y-128858691D01*
X163638182Y-128588192D01*
X163504932Y-128338899D01*
X163325608Y-128120392D01*
X163107101Y-127941068D01*
X162857808Y-127807818D01*
X162587309Y-127725764D01*
X162306000Y-127698057D01*
X162024692Y-127725764D01*
X161754193Y-127807818D01*
X161504900Y-127941068D01*
X161286393Y-128120392D01*
X161107068Y-128338899D01*
X161036000Y-128471858D01*
X160964932Y-128338899D01*
X160785608Y-128120392D01*
X160567101Y-127941068D01*
X160317808Y-127807818D01*
X160047309Y-127725764D01*
X159766000Y-127698057D01*
X159484692Y-127725764D01*
X159214193Y-127807818D01*
X158964900Y-127941068D01*
X158746393Y-128120392D01*
X158567068Y-128338899D01*
X158496000Y-128471858D01*
X158424932Y-128338899D01*
X158245608Y-128120392D01*
X158027101Y-127941068D01*
X157777808Y-127807818D01*
X157507309Y-127725764D01*
X157226000Y-127698057D01*
X156944692Y-127725764D01*
X156674193Y-127807818D01*
X156424900Y-127941068D01*
X156206393Y-128120392D01*
X156027068Y-128338899D01*
X155956000Y-128471858D01*
X155884932Y-128338899D01*
X155705608Y-128120392D01*
X155487101Y-127941068D01*
X155237808Y-127807818D01*
X154967309Y-127725764D01*
X154686000Y-127698057D01*
X154404692Y-127725764D01*
X154134193Y-127807818D01*
X153884900Y-127941068D01*
X153666393Y-128120392D01*
X153487068Y-128338899D01*
X153416000Y-128471858D01*
X153344932Y-128338899D01*
X153165608Y-128120392D01*
X152947101Y-127941068D01*
X152697808Y-127807818D01*
X152427309Y-127725764D01*
X152146000Y-127698057D01*
X151864692Y-127725764D01*
X151594193Y-127807818D01*
X151344900Y-127941068D01*
X151126393Y-128120392D01*
X150947068Y-128338899D01*
X150876000Y-128471858D01*
X150804932Y-128338899D01*
X150625608Y-128120392D01*
X150541000Y-128050956D01*
X150541000Y-127553924D01*
X150545523Y-127507999D01*
X150541000Y-127462074D01*
X150541000Y-127462068D01*
X150527471Y-127324708D01*
X150522949Y-127309799D01*
X150500013Y-127234192D01*
X150474007Y-127148460D01*
X150387186Y-126986028D01*
X150270344Y-126843656D01*
X150234666Y-126814376D01*
X147171810Y-123751521D01*
X147347308Y-123734236D01*
X147617807Y-123652182D01*
X147867100Y-123518932D01*
X148085607Y-123339608D01*
X148264932Y-123121101D01*
X148336000Y-122988142D01*
X148407068Y-123121100D01*
X148586392Y-123339607D01*
X148804899Y-123518932D01*
X149054192Y-123652182D01*
X149324691Y-123734236D01*
X149606000Y-123761943D01*
X149887308Y-123734236D01*
X150157807Y-123652182D01*
X150407100Y-123518932D01*
X150625607Y-123339608D01*
X150804932Y-123121101D01*
X150876000Y-122988142D01*
X150947068Y-123121100D01*
X151126392Y-123339607D01*
X151344899Y-123518932D01*
X151594192Y-123652182D01*
X151864691Y-123734236D01*
X152146000Y-123761943D01*
X152427308Y-123734236D01*
X152697807Y-123652182D01*
X152947100Y-123518932D01*
X153165607Y-123339608D01*
X153344932Y-123121101D01*
X153416000Y-122988142D01*
X153487068Y-123121100D01*
X153666392Y-123339607D01*
X153884899Y-123518932D01*
X154134192Y-123652182D01*
X154404691Y-123734236D01*
X154686000Y-123761943D01*
X154967308Y-123734236D01*
X155237807Y-123652182D01*
X155487100Y-123518932D01*
X155705607Y-123339608D01*
X155884932Y-123121101D01*
X155956000Y-122988142D01*
X156027068Y-123121100D01*
X156206392Y-123339607D01*
X156424899Y-123518932D01*
X156674192Y-123652182D01*
X156944691Y-123734236D01*
X157226000Y-123761943D01*
X157507308Y-123734236D01*
X157777807Y-123652182D01*
X158027100Y-123518932D01*
X158245607Y-123339608D01*
X158424932Y-123121101D01*
X158496000Y-122988142D01*
X158567068Y-123121100D01*
X158746392Y-123339607D01*
X158964899Y-123518932D01*
X159214192Y-123652182D01*
X159484691Y-123734236D01*
X159766000Y-123761943D01*
X160047308Y-123734236D01*
X160317807Y-123652182D01*
X160567100Y-123518932D01*
X160785607Y-123339608D01*
X160878419Y-123226517D01*
X160880188Y-123244482D01*
X160916498Y-123364180D01*
X160975463Y-123474494D01*
X161054815Y-123571185D01*
X161151506Y-123650537D01*
X161261820Y-123709502D01*
X161381518Y-123745812D01*
X161506000Y-123758072D01*
X163106000Y-123758072D01*
X163230482Y-123745812D01*
X163350180Y-123709502D01*
X163460494Y-123650537D01*
X163557185Y-123571185D01*
X163636537Y-123474494D01*
X163695502Y-123364180D01*
X163731812Y-123244482D01*
X163744072Y-123120000D01*
X163744072Y-120720000D01*
X163731812Y-120595518D01*
X163695502Y-120475820D01*
X163636537Y-120365506D01*
X163557185Y-120268815D01*
X163460494Y-120189463D01*
X163350180Y-120130498D01*
X163230482Y-120094188D01*
X163106000Y-120081928D01*
X161506000Y-120081928D01*
X161381518Y-120094188D01*
X161261820Y-120130498D01*
X161151506Y-120189463D01*
X161054815Y-120268815D01*
X160975463Y-120365506D01*
X160916498Y-120475820D01*
X160880188Y-120595518D01*
X160878419Y-120613482D01*
X160785608Y-120500392D01*
X160567101Y-120321068D01*
X160317808Y-120187818D01*
X160047309Y-120105764D01*
X159766000Y-120078057D01*
X159484692Y-120105764D01*
X159214193Y-120187818D01*
X158964900Y-120321068D01*
X158746393Y-120500392D01*
X158567068Y-120718899D01*
X158496000Y-120851858D01*
X158424932Y-120718899D01*
X158245608Y-120500392D01*
X158027101Y-120321068D01*
X157777808Y-120187818D01*
X157507309Y-120105764D01*
X157226000Y-120078057D01*
X156944692Y-120105764D01*
X156674193Y-120187818D01*
X156424900Y-120321068D01*
X156206393Y-120500392D01*
X156027068Y-120718899D01*
X155956000Y-120851858D01*
X155884932Y-120718899D01*
X155705608Y-120500392D01*
X155487101Y-120321068D01*
X155237808Y-120187818D01*
X154967309Y-120105764D01*
X154686000Y-120078057D01*
X154404692Y-120105764D01*
X154134193Y-120187818D01*
X153884900Y-120321068D01*
X153666393Y-120500392D01*
X153487068Y-120718899D01*
X153416000Y-120851858D01*
X153344932Y-120718899D01*
X153165608Y-120500392D01*
X152947101Y-120321068D01*
X152697808Y-120187818D01*
X152427309Y-120105764D01*
X152146000Y-120078057D01*
X151864692Y-120105764D01*
X151594193Y-120187818D01*
X151344900Y-120321068D01*
X151126393Y-120500392D01*
X150947068Y-120718899D01*
X150876000Y-120851858D01*
X150804932Y-120718899D01*
X150625608Y-120500392D01*
X150407101Y-120321068D01*
X150366000Y-120299099D01*
X150366000Y-117944000D01*
X181391928Y-117944000D01*
X181404188Y-118068482D01*
X181440498Y-118188180D01*
X181499463Y-118298494D01*
X181578815Y-118395185D01*
X181675506Y-118474537D01*
X181785820Y-118533502D01*
X181905518Y-118569812D01*
X182030000Y-118582072D01*
X182594250Y-118579000D01*
X182753000Y-118420250D01*
X182753000Y-117221000D01*
X183007000Y-117221000D01*
X183007000Y-118420250D01*
X183165750Y-118579000D01*
X183730000Y-118582072D01*
X183854482Y-118569812D01*
X183974180Y-118533502D01*
X184084494Y-118474537D01*
X184181185Y-118395185D01*
X184260537Y-118298494D01*
X184319502Y-118188180D01*
X184355812Y-118068482D01*
X184368072Y-117944000D01*
X184365000Y-117379750D01*
X184206250Y-117221000D01*
X183007000Y-117221000D01*
X182753000Y-117221000D01*
X181553750Y-117221000D01*
X181395000Y-117379750D01*
X181391928Y-117944000D01*
X150366000Y-117944000D01*
X150366000Y-117639323D01*
X150369676Y-117602000D01*
X150366000Y-117564677D01*
X150366000Y-117564667D01*
X150355003Y-117453014D01*
X150311546Y-117309753D01*
X150284549Y-117259246D01*
X150260051Y-117213413D01*
X156350192Y-117213413D01*
X156445956Y-117477814D01*
X156735571Y-117618704D01*
X157047108Y-117700384D01*
X157368595Y-117719718D01*
X157687675Y-117675961D01*
X157992088Y-117570795D01*
X158166044Y-117477814D01*
X158261808Y-117213413D01*
X157306000Y-116257605D01*
X156350192Y-117213413D01*
X150260051Y-117213413D01*
X150240974Y-117177723D01*
X150169799Y-117090997D01*
X150146001Y-117061999D01*
X150117003Y-117038201D01*
X149219397Y-116140595D01*
X155664282Y-116140595D01*
X155708039Y-116459675D01*
X155813205Y-116764088D01*
X155906186Y-116938044D01*
X156170587Y-117033808D01*
X157126395Y-116078000D01*
X157485605Y-116078000D01*
X158441413Y-117033808D01*
X158705814Y-116938044D01*
X158846704Y-116648429D01*
X158928384Y-116336892D01*
X158947718Y-116015405D01*
X158934219Y-115916967D01*
X160671000Y-115916967D01*
X160671000Y-116239033D01*
X160733832Y-116554912D01*
X160857082Y-116852463D01*
X161036013Y-117120252D01*
X161263748Y-117347987D01*
X161531537Y-117526918D01*
X161829088Y-117650168D01*
X162144967Y-117713000D01*
X162467033Y-117713000D01*
X162782912Y-117650168D01*
X163080463Y-117526918D01*
X163348252Y-117347987D01*
X163575987Y-117120252D01*
X163754918Y-116852463D01*
X163878168Y-116554912D01*
X163941000Y-116239033D01*
X163941000Y-115916967D01*
X163878168Y-115601088D01*
X163754918Y-115303537D01*
X163575987Y-115035748D01*
X163348252Y-114808013D01*
X163080463Y-114629082D01*
X162782912Y-114505832D01*
X162467033Y-114443000D01*
X162144967Y-114443000D01*
X161829088Y-114505832D01*
X161531537Y-114629082D01*
X161263748Y-114808013D01*
X161036013Y-115035748D01*
X160857082Y-115303537D01*
X160733832Y-115601088D01*
X160671000Y-115916967D01*
X158934219Y-115916967D01*
X158903961Y-115696325D01*
X158798795Y-115391912D01*
X158705814Y-115217956D01*
X158441413Y-115122192D01*
X157485605Y-116078000D01*
X157126395Y-116078000D01*
X156170587Y-115122192D01*
X155906186Y-115217956D01*
X155765296Y-115507571D01*
X155683616Y-115819108D01*
X155664282Y-116140595D01*
X149219397Y-116140595D01*
X148759801Y-115681000D01*
X149525681Y-115681000D01*
X149606000Y-115688911D01*
X149686319Y-115681000D01*
X149686322Y-115681000D01*
X149926516Y-115657343D01*
X150234715Y-115563852D01*
X150518752Y-115412031D01*
X150767714Y-115207714D01*
X150818925Y-115145313D01*
X151021651Y-114942587D01*
X156350192Y-114942587D01*
X157306000Y-115898395D01*
X158261808Y-114942587D01*
X158166044Y-114678186D01*
X157876429Y-114537296D01*
X157564892Y-114455616D01*
X157243405Y-114436282D01*
X156924325Y-114480039D01*
X156619912Y-114585205D01*
X156445956Y-114678186D01*
X156350192Y-114942587D01*
X151021651Y-114942587D01*
X153497000Y-112467239D01*
X153497000Y-112614089D01*
X153532932Y-112794729D01*
X153603414Y-112964889D01*
X153681697Y-113082048D01*
X153682997Y-113095250D01*
X153726454Y-113238511D01*
X153797026Y-113370540D01*
X153892000Y-113486265D01*
X153920998Y-113510063D01*
X154459936Y-114049002D01*
X154483735Y-114078001D01*
X154512733Y-114101799D01*
X154599459Y-114172974D01*
X154731489Y-114243546D01*
X154874750Y-114287003D01*
X154986403Y-114298000D01*
X154986412Y-114298000D01*
X155023735Y-114301676D01*
X155061058Y-114298000D01*
X156172678Y-114298000D01*
X156210000Y-114301676D01*
X156247322Y-114298000D01*
X156247333Y-114298000D01*
X156358986Y-114287003D01*
X156502247Y-114243546D01*
X156634276Y-114172974D01*
X156750001Y-114078001D01*
X156773804Y-114048997D01*
X159826802Y-110996000D01*
X179263199Y-110996000D01*
X180792201Y-112525003D01*
X180815999Y-112554001D01*
X180931724Y-112648974D01*
X181063753Y-112719546D01*
X181207014Y-112763003D01*
X181318667Y-112774000D01*
X181318675Y-112774000D01*
X181356000Y-112777676D01*
X181393325Y-112774000D01*
X181602405Y-112774000D01*
X181639294Y-112843014D01*
X181824866Y-113069134D01*
X182050986Y-113254706D01*
X182105791Y-113284000D01*
X182050986Y-113313294D01*
X181824866Y-113498866D01*
X181639294Y-113724986D01*
X181501401Y-113982966D01*
X181416487Y-114262889D01*
X181387815Y-114554000D01*
X181416487Y-114845111D01*
X181501401Y-115125034D01*
X181639294Y-115383014D01*
X181824866Y-115609134D01*
X181854687Y-115633607D01*
X181785820Y-115654498D01*
X181675506Y-115713463D01*
X181578815Y-115792815D01*
X181499463Y-115889506D01*
X181440498Y-115999820D01*
X181404188Y-116119518D01*
X181391928Y-116244000D01*
X181395000Y-116808250D01*
X181553750Y-116967000D01*
X182753000Y-116967000D01*
X182753000Y-116947000D01*
X183007000Y-116947000D01*
X183007000Y-116967000D01*
X184206250Y-116967000D01*
X184365000Y-116808250D01*
X184368072Y-116244000D01*
X184355812Y-116119518D01*
X184319502Y-115999820D01*
X184260537Y-115889506D01*
X184181185Y-115792815D01*
X184084494Y-115713463D01*
X183974180Y-115654498D01*
X183905313Y-115633607D01*
X183935134Y-115609134D01*
X184120706Y-115383014D01*
X184258599Y-115125034D01*
X184343513Y-114845111D01*
X184372185Y-114554000D01*
X184343513Y-114262889D01*
X184258599Y-113982966D01*
X184120706Y-113724986D01*
X183935134Y-113498866D01*
X183709014Y-113313294D01*
X183654209Y-113284000D01*
X183709014Y-113254706D01*
X183935134Y-113069134D01*
X184120706Y-112843014D01*
X184258599Y-112585034D01*
X184343513Y-112305111D01*
X184372185Y-112014000D01*
X184343513Y-111722889D01*
X184258599Y-111442966D01*
X184120706Y-111184986D01*
X183935134Y-110958866D01*
X183709014Y-110773294D01*
X183654209Y-110744000D01*
X183709014Y-110714706D01*
X183935134Y-110529134D01*
X184120706Y-110303014D01*
X184258599Y-110045034D01*
X184343513Y-109765111D01*
X184372185Y-109474000D01*
X184343513Y-109182889D01*
X184258599Y-108902966D01*
X184120706Y-108644986D01*
X183935134Y-108418866D01*
X183791287Y-108300814D01*
X183792752Y-108300031D01*
X184041714Y-108095714D01*
X184246031Y-107846752D01*
X184397852Y-107562715D01*
X184491343Y-107254516D01*
X184522911Y-106934000D01*
X184491343Y-106613484D01*
X184397852Y-106305285D01*
X184246031Y-106021248D01*
X184041714Y-105772286D01*
X183792752Y-105567969D01*
X183508715Y-105416148D01*
X183200516Y-105322657D01*
X182960322Y-105299000D01*
X156067000Y-105299000D01*
X156067000Y-98632319D01*
X156074911Y-98551999D01*
X156060063Y-98401248D01*
X156043343Y-98231484D01*
X155949852Y-97923285D01*
X155798031Y-97639248D01*
X155593714Y-97390286D01*
X155531318Y-97339080D01*
X153592925Y-95400687D01*
X153541714Y-95338286D01*
X153292752Y-95133969D01*
X153008715Y-94982148D01*
X152700516Y-94888657D01*
X152460322Y-94865000D01*
X152460319Y-94865000D01*
X152380000Y-94857089D01*
X152299681Y-94865000D01*
X148678346Y-94865000D01*
X148740706Y-94789014D01*
X148878599Y-94531034D01*
X148963513Y-94251111D01*
X148992185Y-93960000D01*
X148963513Y-93668889D01*
X148878599Y-93388966D01*
X148740706Y-93130986D01*
X148555134Y-92904866D01*
X148329014Y-92719294D01*
X148274209Y-92690000D01*
X148329014Y-92660706D01*
X148555134Y-92475134D01*
X148740706Y-92249014D01*
X148878599Y-91991034D01*
X148963513Y-91711111D01*
X148992185Y-91420000D01*
X177007815Y-91420000D01*
X177036487Y-91711111D01*
X177121401Y-91991034D01*
X177259294Y-92249014D01*
X177444866Y-92475134D01*
X177670986Y-92660706D01*
X177725791Y-92690000D01*
X177670986Y-92719294D01*
X177444866Y-92904866D01*
X177259294Y-93130986D01*
X177121401Y-93388966D01*
X177036487Y-93668889D01*
X177007815Y-93960000D01*
X177036487Y-94251111D01*
X177121401Y-94531034D01*
X177259294Y-94789014D01*
X177444866Y-95015134D01*
X177474687Y-95039607D01*
X177405820Y-95060498D01*
X177295506Y-95119463D01*
X177198815Y-95198815D01*
X177119463Y-95295506D01*
X177060498Y-95405820D01*
X177024188Y-95525518D01*
X177011928Y-95650000D01*
X177011928Y-97350000D01*
X177024188Y-97474482D01*
X177060498Y-97594180D01*
X177119463Y-97704494D01*
X177198815Y-97801185D01*
X177295506Y-97880537D01*
X177405820Y-97939502D01*
X177525518Y-97975812D01*
X177650000Y-97988072D01*
X179350000Y-97988072D01*
X179474482Y-97975812D01*
X179594180Y-97939502D01*
X179704494Y-97880537D01*
X179801185Y-97801185D01*
X179880537Y-97704494D01*
X179939502Y-97594180D01*
X179975812Y-97474482D01*
X179988072Y-97350000D01*
X179988072Y-95650000D01*
X179975812Y-95525518D01*
X179939502Y-95405820D01*
X179880537Y-95295506D01*
X179801185Y-95198815D01*
X179704494Y-95119463D01*
X179594180Y-95060498D01*
X179525313Y-95039607D01*
X179555134Y-95015134D01*
X179740706Y-94789014D01*
X179878599Y-94531034D01*
X179963513Y-94251111D01*
X179992185Y-93960000D01*
X179963513Y-93668889D01*
X179878599Y-93388966D01*
X179740706Y-93130986D01*
X179555134Y-92904866D01*
X179329014Y-92719294D01*
X179274209Y-92690000D01*
X179329014Y-92660706D01*
X179555134Y-92475134D01*
X179740706Y-92249014D01*
X179878599Y-91991034D01*
X179963513Y-91711111D01*
X179992185Y-91420000D01*
X179963513Y-91128889D01*
X179878599Y-90848966D01*
X179740706Y-90590986D01*
X179555134Y-90364866D01*
X179329014Y-90179294D01*
X179264477Y-90144799D01*
X179381355Y-90075178D01*
X179597588Y-89880269D01*
X179771641Y-89646920D01*
X179896825Y-89384099D01*
X179941476Y-89236890D01*
X179820155Y-89007000D01*
X178627000Y-89007000D01*
X178627000Y-89027000D01*
X178373000Y-89027000D01*
X178373000Y-89007000D01*
X177179845Y-89007000D01*
X177058524Y-89236890D01*
X177103175Y-89384099D01*
X177228359Y-89646920D01*
X177402412Y-89880269D01*
X177618645Y-90075178D01*
X177735523Y-90144799D01*
X177670986Y-90179294D01*
X177444866Y-90364866D01*
X177259294Y-90590986D01*
X177121401Y-90848966D01*
X177036487Y-91128889D01*
X177007815Y-91420000D01*
X148992185Y-91420000D01*
X148963513Y-91128889D01*
X148878599Y-90848966D01*
X148740706Y-90590986D01*
X148555134Y-90364866D01*
X148329014Y-90179294D01*
X148264477Y-90144799D01*
X148381355Y-90075178D01*
X148597588Y-89880269D01*
X148771641Y-89646920D01*
X148896825Y-89384099D01*
X148941476Y-89236890D01*
X148820155Y-89007000D01*
X147627000Y-89007000D01*
X147627000Y-89027000D01*
X147373000Y-89027000D01*
X147373000Y-89007000D01*
X146179845Y-89007000D01*
X146058524Y-89236890D01*
X146103175Y-89384099D01*
X146228359Y-89646920D01*
X146402412Y-89880269D01*
X146618645Y-90075178D01*
X146735523Y-90144799D01*
X146670986Y-90179294D01*
X146444866Y-90364866D01*
X146259294Y-90590986D01*
X146121401Y-90848966D01*
X146036487Y-91128889D01*
X146007815Y-91420000D01*
X146036487Y-91711111D01*
X146121401Y-91991034D01*
X146259294Y-92249014D01*
X146444866Y-92475134D01*
X146670986Y-92660706D01*
X146725791Y-92690000D01*
X146670986Y-92719294D01*
X146444866Y-92904866D01*
X146259294Y-93130986D01*
X146121401Y-93388966D01*
X146036487Y-93668889D01*
X146007815Y-93960000D01*
X146036487Y-94251111D01*
X146121401Y-94531034D01*
X146259294Y-94789014D01*
X146444866Y-95015134D01*
X146474687Y-95039607D01*
X146405820Y-95060498D01*
X146295506Y-95119463D01*
X146198815Y-95198815D01*
X146119463Y-95295506D01*
X146060498Y-95405820D01*
X146024188Y-95525518D01*
X146011928Y-95650000D01*
X146011928Y-95815571D01*
X145982148Y-95871285D01*
X145888657Y-96179484D01*
X145857089Y-96500000D01*
X145888657Y-96820516D01*
X145982148Y-97128715D01*
X146011928Y-97184429D01*
X146011928Y-97350000D01*
X146024188Y-97474482D01*
X146060498Y-97594180D01*
X146119463Y-97704494D01*
X146198815Y-97801185D01*
X146295506Y-97880537D01*
X146405820Y-97939502D01*
X146525518Y-97975812D01*
X146650000Y-97988072D01*
X146815571Y-97988072D01*
X146871285Y-98017852D01*
X147179484Y-98111343D01*
X147419678Y-98135000D01*
X151702762Y-98135000D01*
X152797000Y-99229239D01*
X152797000Y-99394321D01*
X152797001Y-99394331D01*
X152797000Y-106853678D01*
X152789089Y-106934000D01*
X152797000Y-107014321D01*
X152797000Y-108542760D01*
X148928762Y-112411000D01*
X147239678Y-112411000D01*
X146999484Y-112434657D01*
X146691285Y-112528148D01*
X146407248Y-112679969D01*
X146158286Y-112884286D01*
X145953969Y-113133248D01*
X145802148Y-113417285D01*
X145708657Y-113725484D01*
X145693023Y-113884221D01*
X138047000Y-106238199D01*
X138047000Y-104282874D01*
X138048440Y-104248461D01*
X138141101Y-104198932D01*
X138359608Y-104019608D01*
X138538932Y-103801101D01*
X138612579Y-103663318D01*
X138727615Y-103855131D01*
X138916586Y-104063519D01*
X139142580Y-104231037D01*
X139396913Y-104351246D01*
X139530961Y-104391904D01*
X139753000Y-104269915D01*
X139753000Y-103127000D01*
X139733000Y-103127000D01*
X139733000Y-102873000D01*
X139753000Y-102873000D01*
X139753000Y-101730085D01*
X140007000Y-101730085D01*
X140007000Y-102873000D01*
X140027000Y-102873000D01*
X140027000Y-103127000D01*
X140007000Y-103127000D01*
X140007000Y-104269915D01*
X140229039Y-104391904D01*
X140363087Y-104351246D01*
X140617420Y-104231037D01*
X140843414Y-104063519D01*
X141032385Y-103855131D01*
X141147421Y-103663318D01*
X141221068Y-103801101D01*
X141400392Y-104019608D01*
X141618899Y-104198932D01*
X141868192Y-104332182D01*
X142138691Y-104414236D01*
X142349508Y-104435000D01*
X142490492Y-104435000D01*
X142701309Y-104414236D01*
X142971808Y-104332182D01*
X143221101Y-104198932D01*
X143439608Y-104019608D01*
X143618932Y-103801101D01*
X143690000Y-103668142D01*
X143761068Y-103801101D01*
X143940392Y-104019608D01*
X144158899Y-104198932D01*
X144408192Y-104332182D01*
X144678691Y-104414236D01*
X144889508Y-104435000D01*
X145030492Y-104435000D01*
X145241309Y-104414236D01*
X145511808Y-104332182D01*
X145761101Y-104198932D01*
X145979608Y-104019608D01*
X146072419Y-103906518D01*
X146074188Y-103924482D01*
X146110498Y-104044180D01*
X146169463Y-104154494D01*
X146248815Y-104251185D01*
X146345506Y-104330537D01*
X146455820Y-104389502D01*
X146575518Y-104425812D01*
X146700000Y-104438072D01*
X148300000Y-104438072D01*
X148424482Y-104425812D01*
X148544180Y-104389502D01*
X148654494Y-104330537D01*
X148751185Y-104251185D01*
X148830537Y-104154494D01*
X148889502Y-104044180D01*
X148925812Y-103924482D01*
X148938072Y-103800000D01*
X148938072Y-102200000D01*
X148925812Y-102075518D01*
X148889502Y-101955820D01*
X148830537Y-101845506D01*
X148751185Y-101748815D01*
X148654494Y-101669463D01*
X148544180Y-101610498D01*
X148424482Y-101574188D01*
X148300000Y-101561928D01*
X146700000Y-101561928D01*
X146575518Y-101574188D01*
X146455820Y-101610498D01*
X146345506Y-101669463D01*
X146248815Y-101748815D01*
X146169463Y-101845506D01*
X146110498Y-101955820D01*
X146074188Y-102075518D01*
X146072419Y-102093482D01*
X145979608Y-101980392D01*
X145761101Y-101801068D01*
X145511808Y-101667818D01*
X145241309Y-101585764D01*
X145030492Y-101565000D01*
X144889508Y-101565000D01*
X144678691Y-101585764D01*
X144408192Y-101667818D01*
X144158899Y-101801068D01*
X143940392Y-101980392D01*
X143761068Y-102198899D01*
X143690000Y-102331858D01*
X143618932Y-102198899D01*
X143439608Y-101980392D01*
X143221101Y-101801068D01*
X142971808Y-101667818D01*
X142701309Y-101585764D01*
X142490492Y-101565000D01*
X142349508Y-101565000D01*
X142138691Y-101585764D01*
X141868192Y-101667818D01*
X141618899Y-101801068D01*
X141400392Y-101980392D01*
X141221068Y-102198899D01*
X141147421Y-102336682D01*
X141032385Y-102144869D01*
X140843414Y-101936481D01*
X140617420Y-101768963D01*
X140363087Y-101648754D01*
X140229039Y-101608096D01*
X140007000Y-101730085D01*
X139753000Y-101730085D01*
X139530961Y-101608096D01*
X139396913Y-101648754D01*
X139142580Y-101768963D01*
X138916586Y-101936481D01*
X138727615Y-102144869D01*
X138612579Y-102336682D01*
X138538932Y-102198899D01*
X138359608Y-101980392D01*
X138141101Y-101801068D01*
X137891808Y-101667818D01*
X137621309Y-101585764D01*
X137410492Y-101565000D01*
X137269508Y-101565000D01*
X137058691Y-101585764D01*
X136788192Y-101667818D01*
X136538899Y-101801068D01*
X136320392Y-101980392D01*
X136141068Y-102198899D01*
X136070000Y-102331858D01*
X135998932Y-102198899D01*
X135819608Y-101980392D01*
X135601101Y-101801068D01*
X135351808Y-101667818D01*
X135081309Y-101585764D01*
X134870492Y-101565000D01*
X134729508Y-101565000D01*
X134518691Y-101585764D01*
X134248192Y-101667818D01*
X133998899Y-101801068D01*
X133780392Y-101980392D01*
X133601068Y-102198899D01*
X133530000Y-102331858D01*
X133458932Y-102198899D01*
X133279608Y-101980392D01*
X133061101Y-101801068D01*
X133023576Y-101781011D01*
X133023676Y-101780000D01*
X133020000Y-101742675D01*
X133020000Y-101742667D01*
X133009003Y-101631014D01*
X132965546Y-101487753D01*
X132894974Y-101355724D01*
X132800001Y-101239999D01*
X132771003Y-101216201D01*
X131570000Y-100015199D01*
X131570000Y-96632909D01*
X131584463Y-96626918D01*
X131852252Y-96447987D01*
X132079987Y-96220252D01*
X132258918Y-95952463D01*
X132264909Y-95938000D01*
X135855091Y-95938000D01*
X135861082Y-95952463D01*
X136040013Y-96220252D01*
X136267748Y-96447987D01*
X136535537Y-96626918D01*
X136833088Y-96750168D01*
X137148967Y-96813000D01*
X137471033Y-96813000D01*
X137786912Y-96750168D01*
X138084463Y-96626918D01*
X138352252Y-96447987D01*
X138579987Y-96220252D01*
X138758918Y-95952463D01*
X138882168Y-95654912D01*
X138945000Y-95339033D01*
X138945000Y-95016967D01*
X138882168Y-94701088D01*
X138758918Y-94403537D01*
X138579987Y-94135748D01*
X138352252Y-93908013D01*
X138084463Y-93729082D01*
X137786912Y-93605832D01*
X137471033Y-93543000D01*
X137148967Y-93543000D01*
X136833088Y-93605832D01*
X136535537Y-93729082D01*
X136267748Y-93908013D01*
X136040013Y-94135748D01*
X135861082Y-94403537D01*
X135855091Y-94418000D01*
X132264909Y-94418000D01*
X132258918Y-94403537D01*
X132079987Y-94135748D01*
X131852252Y-93908013D01*
X131584463Y-93729082D01*
X131286912Y-93605832D01*
X130971033Y-93543000D01*
X130648967Y-93543000D01*
X130333088Y-93605832D01*
X130035537Y-93729082D01*
X129767748Y-93908013D01*
X129540013Y-94135748D01*
X129361082Y-94403537D01*
X129237832Y-94701088D01*
X129175000Y-95016967D01*
X129175000Y-95339033D01*
X129237832Y-95654912D01*
X129361082Y-95952463D01*
X129540013Y-96220252D01*
X129767748Y-96447987D01*
X130035537Y-96626918D01*
X130050001Y-96632909D01*
X130050000Y-100292677D01*
X130046324Y-100330000D01*
X130050000Y-100367322D01*
X130050000Y-100367332D01*
X130060997Y-100478985D01*
X130104454Y-100622246D01*
X130175026Y-100754276D01*
X130214871Y-100802826D01*
X130269999Y-100870001D01*
X130299003Y-100893804D01*
X131320142Y-101914943D01*
X131240392Y-101980392D01*
X131061068Y-102198899D01*
X130990000Y-102331858D01*
X130918932Y-102198899D01*
X130739608Y-101980392D01*
X130521101Y-101801068D01*
X130271808Y-101667818D01*
X130001309Y-101585764D01*
X129790492Y-101565000D01*
X129649508Y-101565000D01*
X129438691Y-101585764D01*
X129168192Y-101667818D01*
X128918899Y-101801068D01*
X128700392Y-101980392D01*
X128521068Y-102198899D01*
X128450000Y-102331858D01*
X128378932Y-102198899D01*
X128199608Y-101980392D01*
X127981101Y-101801068D01*
X127731808Y-101667818D01*
X127461309Y-101585764D01*
X127250492Y-101565000D01*
X127109508Y-101565000D01*
X126898691Y-101585764D01*
X126628192Y-101667818D01*
X126378899Y-101801068D01*
X126160392Y-101980392D01*
X125981068Y-102198899D01*
X125910000Y-102331858D01*
X125838932Y-102198899D01*
X125659608Y-101980392D01*
X125441101Y-101801068D01*
X125191808Y-101667818D01*
X124921309Y-101585764D01*
X124710492Y-101565000D01*
X124569508Y-101565000D01*
X124358691Y-101585764D01*
X124088192Y-101667818D01*
X123838899Y-101801068D01*
X123620392Y-101980392D01*
X123441068Y-102198899D01*
X123370000Y-102331858D01*
X123298932Y-102198899D01*
X123119608Y-101980392D01*
X122901101Y-101801068D01*
X122651808Y-101667818D01*
X122381309Y-101585764D01*
X122170492Y-101565000D01*
X122029508Y-101565000D01*
X121818691Y-101585764D01*
X121548192Y-101667818D01*
X121298899Y-101801068D01*
X121080392Y-101980392D01*
X120901068Y-102198899D01*
X120830000Y-102331858D01*
X120758932Y-102198899D01*
X120579608Y-101980392D01*
X120361101Y-101801068D01*
X120111808Y-101667818D01*
X119841309Y-101585764D01*
X119630492Y-101565000D01*
X119489508Y-101565000D01*
X119278691Y-101585764D01*
X119008192Y-101667818D01*
X118758899Y-101801068D01*
X118540392Y-101980392D01*
X118361068Y-102198899D01*
X118290000Y-102331858D01*
X118218932Y-102198899D01*
X118039608Y-101980392D01*
X117821101Y-101801068D01*
X117571808Y-101667818D01*
X117301309Y-101585764D01*
X117090492Y-101565000D01*
X116949508Y-101565000D01*
X116738691Y-101585764D01*
X116468192Y-101667818D01*
X116218899Y-101801068D01*
X116000392Y-101980392D01*
X115821068Y-102198899D01*
X115750000Y-102331858D01*
X115678932Y-102198899D01*
X115499608Y-101980392D01*
X115281101Y-101801068D01*
X115031808Y-101667818D01*
X114761309Y-101585764D01*
X114550492Y-101565000D01*
X114409508Y-101565000D01*
X114198691Y-101585764D01*
X113928192Y-101667818D01*
X113678899Y-101801068D01*
X113460392Y-101980392D01*
X113281068Y-102198899D01*
X113210000Y-102331858D01*
X113138932Y-102198899D01*
X112959608Y-101980392D01*
X112741101Y-101801068D01*
X112491808Y-101667818D01*
X112221309Y-101585764D01*
X112010492Y-101565000D01*
X111869508Y-101565000D01*
X111658691Y-101585764D01*
X111388192Y-101667818D01*
X111138899Y-101801068D01*
X110920392Y-101980392D01*
X110741068Y-102198899D01*
X110607818Y-102448192D01*
X110525764Y-102718691D01*
X110498057Y-103000000D01*
X110525764Y-103281309D01*
X110607818Y-103551808D01*
X110741068Y-103801101D01*
X110920392Y-104019608D01*
X111138899Y-104198932D01*
X111180001Y-104220901D01*
X111180001Y-104282668D01*
X111176324Y-104320000D01*
X111180001Y-104357333D01*
X111190998Y-104468986D01*
X111193531Y-104477335D01*
X111234454Y-104612246D01*
X111305026Y-104744276D01*
X111376201Y-104831002D01*
X111400000Y-104860001D01*
X111428998Y-104883799D01*
X123134200Y-116589002D01*
X123157999Y-116618001D01*
X123186997Y-116641799D01*
X123273723Y-116712974D01*
X123369350Y-116764088D01*
X123405753Y-116783546D01*
X123549014Y-116827003D01*
X123660667Y-116838000D01*
X123660676Y-116838000D01*
X123697999Y-116841676D01*
X123735322Y-116838000D01*
X124318354Y-116838000D01*
X124088192Y-116907818D01*
X123838899Y-117041068D01*
X123620392Y-117220392D01*
X123441068Y-117438899D01*
X123370000Y-117571858D01*
X123298932Y-117438899D01*
X123119608Y-117220392D01*
X122901101Y-117041068D01*
X122651808Y-116907818D01*
X122381309Y-116825764D01*
X122170492Y-116805000D01*
X122029508Y-116805000D01*
X121818691Y-116825764D01*
X121548192Y-116907818D01*
X121298899Y-117041068D01*
X121080392Y-117220392D01*
X120901068Y-117438899D01*
X120830000Y-117571858D01*
X120758932Y-117438899D01*
X120579608Y-117220392D01*
X120361101Y-117041068D01*
X120111808Y-116907818D01*
X119841309Y-116825764D01*
X119630492Y-116805000D01*
X119489508Y-116805000D01*
X119278691Y-116825764D01*
X119008192Y-116907818D01*
X118758899Y-117041068D01*
X118540392Y-117220392D01*
X118361068Y-117438899D01*
X118290000Y-117571858D01*
X118218932Y-117438899D01*
X118039608Y-117220392D01*
X117821101Y-117041068D01*
X117571808Y-116907818D01*
X117301309Y-116825764D01*
X117090492Y-116805000D01*
X116949508Y-116805000D01*
X116738691Y-116825764D01*
X116468192Y-116907818D01*
X116218899Y-117041068D01*
X116000392Y-117220392D01*
X115821068Y-117438899D01*
X115750000Y-117571858D01*
X115678932Y-117438899D01*
X115499608Y-117220392D01*
X115281101Y-117041068D01*
X115031808Y-116907818D01*
X114761309Y-116825764D01*
X114550492Y-116805000D01*
X114409508Y-116805000D01*
X114198691Y-116825764D01*
X113928192Y-116907818D01*
X113678899Y-117041068D01*
X113460392Y-117220392D01*
X113281068Y-117438899D01*
X113210000Y-117571858D01*
X113138932Y-117438899D01*
X112959608Y-117220392D01*
X112741101Y-117041068D01*
X112491808Y-116907818D01*
X112221309Y-116825764D01*
X112010492Y-116805000D01*
X111869508Y-116805000D01*
X111658691Y-116825764D01*
X111388192Y-116907818D01*
X111138899Y-117041068D01*
X110920392Y-117220392D01*
X110741068Y-117438899D01*
X110607818Y-117688192D01*
X110525764Y-117958691D01*
X110498057Y-118240000D01*
X110525764Y-118521309D01*
X110607818Y-118791808D01*
X110741068Y-119041101D01*
X110920392Y-119259608D01*
X111138899Y-119438932D01*
X111388192Y-119572182D01*
X111658691Y-119654236D01*
X111869508Y-119675000D01*
X112010492Y-119675000D01*
X112221309Y-119654236D01*
X112491808Y-119572182D01*
X112741101Y-119438932D01*
X112959608Y-119259608D01*
X113138932Y-119041101D01*
X113210000Y-118908142D01*
X113281068Y-119041101D01*
X113460392Y-119259608D01*
X113678899Y-119438932D01*
X113928192Y-119572182D01*
X114198691Y-119654236D01*
X114409508Y-119675000D01*
X114550492Y-119675000D01*
X114761309Y-119654236D01*
X115031808Y-119572182D01*
X115281101Y-119438932D01*
X115499608Y-119259608D01*
X115678932Y-119041101D01*
X115750000Y-118908142D01*
X115821068Y-119041101D01*
X116000392Y-119259608D01*
X116218899Y-119438932D01*
X116468192Y-119572182D01*
X116738691Y-119654236D01*
X116949508Y-119675000D01*
X117090492Y-119675000D01*
X117301309Y-119654236D01*
X117571808Y-119572182D01*
X117821101Y-119438932D01*
X118039608Y-119259608D01*
X118218932Y-119041101D01*
X118290000Y-118908142D01*
X118361068Y-119041101D01*
X118540392Y-119259608D01*
X118758899Y-119438932D01*
X119008192Y-119572182D01*
X119278691Y-119654236D01*
X119489508Y-119675000D01*
X119630492Y-119675000D01*
X119841309Y-119654236D01*
X120111808Y-119572182D01*
X120361101Y-119438932D01*
X120579608Y-119259608D01*
X120758932Y-119041101D01*
X120830000Y-118908142D01*
X120901068Y-119041101D01*
X121080392Y-119259608D01*
X121298899Y-119438932D01*
X121340000Y-119460901D01*
X121340001Y-120202887D01*
X121118900Y-120321068D01*
X120900393Y-120500392D01*
X120721068Y-120718899D01*
X120650000Y-120851858D01*
X120578932Y-120718899D01*
X120399608Y-120500392D01*
X120181101Y-120321068D01*
X119931808Y-120187818D01*
X119661309Y-120105764D01*
X119380000Y-120078057D01*
X119098692Y-120105764D01*
X118828193Y-120187818D01*
X118578900Y-120321068D01*
X118360393Y-120500392D01*
X118181068Y-120718899D01*
X118110000Y-120851858D01*
X118038932Y-120718899D01*
X117859608Y-120500392D01*
X117641101Y-120321068D01*
X117391808Y-120187818D01*
X117121309Y-120105764D01*
X116840000Y-120078057D01*
X116558692Y-120105764D01*
X116288193Y-120187818D01*
X116038900Y-120321068D01*
X115820393Y-120500392D01*
X115641068Y-120718899D01*
X115540256Y-120907506D01*
X114892762Y-121555000D01*
X110328967Y-121555000D01*
X110249807Y-121570746D01*
X110169484Y-121578657D01*
X110092249Y-121602086D01*
X110013088Y-121617832D01*
X109938521Y-121648719D01*
X109861285Y-121672148D01*
X109790102Y-121710196D01*
X109715537Y-121741082D01*
X109648431Y-121785921D01*
X109577248Y-121823969D01*
X109514854Y-121875174D01*
X109447748Y-121920013D01*
X109390681Y-121977080D01*
X109328286Y-122028286D01*
X109277080Y-122090681D01*
X109220013Y-122147748D01*
X109175174Y-122214854D01*
X109123969Y-122277248D01*
X109085921Y-122348431D01*
X109041082Y-122415537D01*
X109010196Y-122490102D01*
X108972148Y-122561285D01*
X108948719Y-122638521D01*
X108917832Y-122713088D01*
X108902086Y-122792249D01*
X108878657Y-122869484D01*
X108870746Y-122949807D01*
X108855000Y-123028967D01*
X108855000Y-123109678D01*
X108847089Y-123190000D01*
X108855000Y-123270322D01*
X108855000Y-123351033D01*
X108870746Y-123430193D01*
X108878657Y-123510516D01*
X108902086Y-123587751D01*
X108917832Y-123666912D01*
X108948719Y-123741479D01*
X108972148Y-123818715D01*
X109010196Y-123889898D01*
X109041082Y-123964463D01*
X109085921Y-124031569D01*
X109123969Y-124102752D01*
X109175174Y-124165146D01*
X109220013Y-124232252D01*
X109277080Y-124289319D01*
X109328286Y-124351714D01*
X109390681Y-124402920D01*
X109442753Y-124454992D01*
X109317656Y-124557656D01*
X109288376Y-124593334D01*
X106051336Y-127830375D01*
X106015657Y-127859656D01*
X105898815Y-128002028D01*
X105880924Y-128035500D01*
X105811994Y-128164460D01*
X105758529Y-128340709D01*
X105740476Y-128524000D01*
X105745001Y-128569942D01*
X105745000Y-142194068D01*
X105740476Y-142240000D01*
X105750095Y-142337657D01*
X105758529Y-142423291D01*
X105811993Y-142599539D01*
X105878934Y-142724777D01*
X105451728Y-142691906D01*
X105005035Y-142745170D01*
X104577195Y-142884184D01*
X104184505Y-143103651D01*
X103841922Y-143395212D01*
X103562494Y-143747763D01*
X103356865Y-144147873D01*
X103232868Y-144580303D01*
X103195225Y-145028583D01*
X103245370Y-145475636D01*
X103381393Y-145904436D01*
X103598113Y-146298649D01*
X103887276Y-146643260D01*
X104237867Y-146925142D01*
X104636532Y-147133559D01*
X105068086Y-147260572D01*
X105516092Y-147301344D01*
X105963485Y-147254321D01*
X106393223Y-147121295D01*
X106788940Y-146907332D01*
X107135561Y-146620582D01*
X107419883Y-146271968D01*
X107631079Y-145874767D01*
X107761102Y-145444110D01*
X107805000Y-144996400D01*
X107804101Y-144932041D01*
X107768581Y-144650870D01*
X110177374Y-147059664D01*
X110206656Y-147095344D01*
X110349028Y-147212186D01*
X110511460Y-147299007D01*
X110595157Y-147324396D01*
X110687707Y-147352471D01*
X110870999Y-147370524D01*
X110916931Y-147366000D01*
X115397068Y-147366000D01*
X115443000Y-147370524D01*
X115488932Y-147366000D01*
X115626292Y-147352471D01*
X115802540Y-147299007D01*
X115964972Y-147212186D01*
X116107344Y-147095344D01*
X116136630Y-147059659D01*
X117019290Y-146177000D01*
X117183000Y-146177000D01*
X117183000Y-146445335D01*
X117238147Y-146722574D01*
X117346320Y-146983727D01*
X117503363Y-147218759D01*
X117703241Y-147418637D01*
X117938273Y-147575680D01*
X118199426Y-147683853D01*
X118476665Y-147739000D01*
X118759335Y-147739000D01*
X119036574Y-147683853D01*
X119297727Y-147575680D01*
X119532759Y-147418637D01*
X119732637Y-147218759D01*
X119889680Y-146983727D01*
X119891650Y-146978971D01*
X119959068Y-147105101D01*
X120138392Y-147323608D01*
X120356899Y-147502932D01*
X120606192Y-147636182D01*
X120876691Y-147718236D01*
X121087508Y-147739000D01*
X121228492Y-147739000D01*
X121439309Y-147718236D01*
X121709808Y-147636182D01*
X121959101Y-147502932D01*
X122177608Y-147323608D01*
X122247044Y-147239000D01*
X128986068Y-147239000D01*
X129032000Y-147243524D01*
X129077932Y-147239000D01*
X129215292Y-147225471D01*
X129391540Y-147172007D01*
X129553972Y-147085186D01*
X129696344Y-146968344D01*
X129725630Y-146932659D01*
X130481289Y-146177000D01*
X130645000Y-146177000D01*
X130645000Y-146445335D01*
X130700147Y-146722574D01*
X130808320Y-146983727D01*
X130965363Y-147218759D01*
X131165241Y-147418637D01*
X131400273Y-147575680D01*
X131661426Y-147683853D01*
X131938665Y-147739000D01*
X132221335Y-147739000D01*
X132498574Y-147683853D01*
X132759727Y-147575680D01*
X132994759Y-147418637D01*
X133194637Y-147218759D01*
X133351680Y-146983727D01*
X133353650Y-146978971D01*
X133421068Y-147105101D01*
X133600392Y-147323608D01*
X133818899Y-147502932D01*
X134068192Y-147636182D01*
X134338691Y-147718236D01*
X134549508Y-147739000D01*
X134690492Y-147739000D01*
X134901309Y-147718236D01*
X135171808Y-147636182D01*
X135421101Y-147502932D01*
X135639608Y-147323608D01*
X135818932Y-147105101D01*
X135952182Y-146855808D01*
X136034236Y-146585309D01*
X136061943Y-146304000D01*
X136049434Y-146177000D01*
X140028711Y-146177000D01*
X139611975Y-146593736D01*
X139611972Y-146593738D01*
X139481738Y-146723972D01*
X139456089Y-146762358D01*
X139426815Y-146798029D01*
X139405062Y-146838726D01*
X139379414Y-146877111D01*
X139361748Y-146919762D01*
X139339994Y-146960460D01*
X139326597Y-147004623D01*
X139308932Y-147047271D01*
X139299927Y-147092543D01*
X139286529Y-147136709D01*
X139282005Y-147182640D01*
X139273000Y-147227911D01*
X139273000Y-147274068D01*
X139268476Y-147320000D01*
X139273000Y-147365932D01*
X139273000Y-147412089D01*
X139282005Y-147457360D01*
X139286529Y-147503291D01*
X139299927Y-147547457D01*
X139308932Y-147592729D01*
X139326597Y-147635377D01*
X139339994Y-147679540D01*
X139361748Y-147720238D01*
X139379414Y-147762889D01*
X139405062Y-147801274D01*
X139426815Y-147841971D01*
X139456089Y-147877641D01*
X139481738Y-147916028D01*
X139514385Y-147948675D01*
X139543657Y-147984343D01*
X139579325Y-148013615D01*
X139611972Y-148046262D01*
X139650359Y-148071911D01*
X139686029Y-148101185D01*
X139726726Y-148122938D01*
X139765111Y-148148586D01*
X139807762Y-148166252D01*
X139848460Y-148188006D01*
X139892623Y-148201403D01*
X139935271Y-148219068D01*
X139980543Y-148228073D01*
X140024709Y-148241471D01*
X140070640Y-148245995D01*
X140115911Y-148255000D01*
X140162068Y-148255000D01*
X140208000Y-148259524D01*
X140253932Y-148255000D01*
X140300089Y-148255000D01*
X140345360Y-148245995D01*
X140391291Y-148241471D01*
X140435457Y-148228073D01*
X140480729Y-148219068D01*
X140523377Y-148201403D01*
X140567540Y-148188006D01*
X140608238Y-148166252D01*
X140650889Y-148148586D01*
X140689274Y-148122938D01*
X140729971Y-148101185D01*
X140765642Y-148071911D01*
X140804028Y-148046262D01*
X140934262Y-147916028D01*
X140934264Y-147916025D01*
X141865290Y-146985000D01*
X142320984Y-146985000D01*
X142320984Y-147020068D01*
X142316460Y-147066000D01*
X142320984Y-147111932D01*
X142320984Y-147158089D01*
X142329989Y-147203360D01*
X142334513Y-147249291D01*
X142347911Y-147293457D01*
X142356916Y-147338729D01*
X142374581Y-147381377D01*
X142387978Y-147425540D01*
X142409732Y-147466238D01*
X142427398Y-147508889D01*
X142453046Y-147547274D01*
X142474799Y-147587971D01*
X142504073Y-147623642D01*
X142529722Y-147662028D01*
X142659956Y-147792262D01*
X142659960Y-147792265D01*
X142862356Y-147994660D01*
X142862360Y-147994665D01*
X143179095Y-148311400D01*
X106530505Y-148311400D01*
X105736363Y-148240525D01*
X104996860Y-148038220D01*
X104304872Y-147708158D01*
X103682267Y-147260771D01*
X103148734Y-146710208D01*
X102721124Y-146073856D01*
X102412958Y-145371837D01*
X102232718Y-144621081D01*
X102185000Y-143971288D01*
X102185000Y-95016967D01*
X112157000Y-95016967D01*
X112157000Y-95339033D01*
X112219832Y-95654912D01*
X112343082Y-95952463D01*
X112522013Y-96220252D01*
X112749748Y-96447987D01*
X113017537Y-96626918D01*
X113315088Y-96750168D01*
X113630967Y-96813000D01*
X113953033Y-96813000D01*
X114268912Y-96750168D01*
X114566463Y-96626918D01*
X114834252Y-96447987D01*
X115061987Y-96220252D01*
X115240918Y-95952463D01*
X115364168Y-95654912D01*
X115427000Y-95339033D01*
X115427000Y-95016967D01*
X118657000Y-95016967D01*
X118657000Y-95339033D01*
X118719832Y-95654912D01*
X118843082Y-95952463D01*
X119022013Y-96220252D01*
X119249748Y-96447987D01*
X119517537Y-96626918D01*
X119815088Y-96750168D01*
X120130967Y-96813000D01*
X120453033Y-96813000D01*
X120768912Y-96750168D01*
X121066463Y-96626918D01*
X121334252Y-96447987D01*
X121561987Y-96220252D01*
X121740918Y-95952463D01*
X121864168Y-95654912D01*
X121927000Y-95339033D01*
X121927000Y-95016967D01*
X121864168Y-94701088D01*
X121740918Y-94403537D01*
X121561987Y-94135748D01*
X121334252Y-93908013D01*
X121066463Y-93729082D01*
X120768912Y-93605832D01*
X120453033Y-93543000D01*
X120130967Y-93543000D01*
X119815088Y-93605832D01*
X119517537Y-93729082D01*
X119249748Y-93908013D01*
X119022013Y-94135748D01*
X118843082Y-94403537D01*
X118719832Y-94701088D01*
X118657000Y-95016967D01*
X115427000Y-95016967D01*
X115364168Y-94701088D01*
X115240918Y-94403537D01*
X115061987Y-94135748D01*
X114834252Y-93908013D01*
X114566463Y-93729082D01*
X114268912Y-93605832D01*
X113953033Y-93543000D01*
X113630967Y-93543000D01*
X113315088Y-93605832D01*
X113017537Y-93729082D01*
X112749748Y-93908013D01*
X112522013Y-94135748D01*
X112343082Y-94403537D01*
X112219832Y-94701088D01*
X112157000Y-95016967D01*
X102185000Y-95016967D01*
X102185000Y-91813413D01*
X112836192Y-91813413D01*
X112931956Y-92077814D01*
X113221571Y-92218704D01*
X113533108Y-92300384D01*
X113854595Y-92319718D01*
X114173675Y-92275961D01*
X114478088Y-92170795D01*
X114652044Y-92077814D01*
X114747808Y-91813413D01*
X119336192Y-91813413D01*
X119431956Y-92077814D01*
X119721571Y-92218704D01*
X120033108Y-92300384D01*
X120354595Y-92319718D01*
X120673675Y-92275961D01*
X120978088Y-92170795D01*
X121152044Y-92077814D01*
X121247808Y-91813413D01*
X129854192Y-91813413D01*
X129949956Y-92077814D01*
X130239571Y-92218704D01*
X130551108Y-92300384D01*
X130872595Y-92319718D01*
X131191675Y-92275961D01*
X131496088Y-92170795D01*
X131670044Y-92077814D01*
X131765808Y-91813413D01*
X136354192Y-91813413D01*
X136449956Y-92077814D01*
X136739571Y-92218704D01*
X137051108Y-92300384D01*
X137372595Y-92319718D01*
X137691675Y-92275961D01*
X137996088Y-92170795D01*
X138170044Y-92077814D01*
X138265808Y-91813413D01*
X137310000Y-90857605D01*
X136354192Y-91813413D01*
X131765808Y-91813413D01*
X130810000Y-90857605D01*
X129854192Y-91813413D01*
X121247808Y-91813413D01*
X120292000Y-90857605D01*
X119336192Y-91813413D01*
X114747808Y-91813413D01*
X113792000Y-90857605D01*
X112836192Y-91813413D01*
X102185000Y-91813413D01*
X102185000Y-90740595D01*
X112150282Y-90740595D01*
X112194039Y-91059675D01*
X112299205Y-91364088D01*
X112392186Y-91538044D01*
X112656587Y-91633808D01*
X113612395Y-90678000D01*
X113971605Y-90678000D01*
X114927413Y-91633808D01*
X115191814Y-91538044D01*
X115332704Y-91248429D01*
X115414384Y-90936892D01*
X115426189Y-90740595D01*
X118650282Y-90740595D01*
X118694039Y-91059675D01*
X118799205Y-91364088D01*
X118892186Y-91538044D01*
X119156587Y-91633808D01*
X120112395Y-90678000D01*
X120471605Y-90678000D01*
X121427413Y-91633808D01*
X121691814Y-91538044D01*
X121832704Y-91248429D01*
X121914384Y-90936892D01*
X121926189Y-90740595D01*
X129168282Y-90740595D01*
X129212039Y-91059675D01*
X129317205Y-91364088D01*
X129410186Y-91538044D01*
X129674587Y-91633808D01*
X130630395Y-90678000D01*
X130989605Y-90678000D01*
X131945413Y-91633808D01*
X132209814Y-91538044D01*
X132350704Y-91248429D01*
X132432384Y-90936892D01*
X132444189Y-90740595D01*
X135668282Y-90740595D01*
X135712039Y-91059675D01*
X135817205Y-91364088D01*
X135910186Y-91538044D01*
X136174587Y-91633808D01*
X137130395Y-90678000D01*
X137489605Y-90678000D01*
X138445413Y-91633808D01*
X138709814Y-91538044D01*
X138850704Y-91248429D01*
X138932384Y-90936892D01*
X138951718Y-90615405D01*
X138907961Y-90296325D01*
X138802795Y-89991912D01*
X138709814Y-89817956D01*
X138445413Y-89722192D01*
X137489605Y-90678000D01*
X137130395Y-90678000D01*
X136174587Y-89722192D01*
X135910186Y-89817956D01*
X135769296Y-90107571D01*
X135687616Y-90419108D01*
X135668282Y-90740595D01*
X132444189Y-90740595D01*
X132451718Y-90615405D01*
X132407961Y-90296325D01*
X132302795Y-89991912D01*
X132209814Y-89817956D01*
X131945413Y-89722192D01*
X130989605Y-90678000D01*
X130630395Y-90678000D01*
X129674587Y-89722192D01*
X129410186Y-89817956D01*
X129269296Y-90107571D01*
X129187616Y-90419108D01*
X129168282Y-90740595D01*
X121926189Y-90740595D01*
X121933718Y-90615405D01*
X121889961Y-90296325D01*
X121784795Y-89991912D01*
X121691814Y-89817956D01*
X121427413Y-89722192D01*
X120471605Y-90678000D01*
X120112395Y-90678000D01*
X119156587Y-89722192D01*
X118892186Y-89817956D01*
X118751296Y-90107571D01*
X118669616Y-90419108D01*
X118650282Y-90740595D01*
X115426189Y-90740595D01*
X115433718Y-90615405D01*
X115389961Y-90296325D01*
X115284795Y-89991912D01*
X115191814Y-89817956D01*
X114927413Y-89722192D01*
X113971605Y-90678000D01*
X113612395Y-90678000D01*
X112656587Y-89722192D01*
X112392186Y-89817956D01*
X112251296Y-90107571D01*
X112169616Y-90419108D01*
X112150282Y-90740595D01*
X102185000Y-90740595D01*
X102185000Y-89026906D01*
X102255875Y-88232763D01*
X102311732Y-88028582D01*
X103195225Y-88028582D01*
X103245370Y-88475635D01*
X103381393Y-88904435D01*
X103598113Y-89298648D01*
X103887276Y-89643259D01*
X104237867Y-89925141D01*
X104636532Y-90133558D01*
X105068086Y-90260571D01*
X105516092Y-90301343D01*
X105963485Y-90254320D01*
X106393223Y-90121294D01*
X106788940Y-89907331D01*
X107135561Y-89620581D01*
X107199171Y-89542587D01*
X112836192Y-89542587D01*
X113792000Y-90498395D01*
X114747808Y-89542587D01*
X119336192Y-89542587D01*
X120292000Y-90498395D01*
X121247808Y-89542587D01*
X129854192Y-89542587D01*
X130810000Y-90498395D01*
X131765808Y-89542587D01*
X136354192Y-89542587D01*
X137310000Y-90498395D01*
X138265808Y-89542587D01*
X138170044Y-89278186D01*
X137880429Y-89137296D01*
X137568892Y-89055616D01*
X137247405Y-89036282D01*
X136928325Y-89080039D01*
X136623912Y-89185205D01*
X136449956Y-89278186D01*
X136354192Y-89542587D01*
X131765808Y-89542587D01*
X131670044Y-89278186D01*
X131380429Y-89137296D01*
X131068892Y-89055616D01*
X130747405Y-89036282D01*
X130428325Y-89080039D01*
X130123912Y-89185205D01*
X129949956Y-89278186D01*
X129854192Y-89542587D01*
X121247808Y-89542587D01*
X121152044Y-89278186D01*
X120862429Y-89137296D01*
X120550892Y-89055616D01*
X120229405Y-89036282D01*
X119910325Y-89080039D01*
X119605912Y-89185205D01*
X119431956Y-89278186D01*
X119336192Y-89542587D01*
X114747808Y-89542587D01*
X114652044Y-89278186D01*
X114362429Y-89137296D01*
X114050892Y-89055616D01*
X113729405Y-89036282D01*
X113410325Y-89080039D01*
X113105912Y-89185205D01*
X112931956Y-89278186D01*
X112836192Y-89542587D01*
X107199171Y-89542587D01*
X107419883Y-89271967D01*
X107631079Y-88874766D01*
X107737250Y-88523110D01*
X146058524Y-88523110D01*
X146179845Y-88753000D01*
X147373000Y-88753000D01*
X147373000Y-87559186D01*
X147627000Y-87559186D01*
X147627000Y-88753000D01*
X148820155Y-88753000D01*
X148941476Y-88523110D01*
X177058524Y-88523110D01*
X177179845Y-88753000D01*
X178373000Y-88753000D01*
X178373000Y-87559186D01*
X178627000Y-87559186D01*
X178627000Y-88753000D01*
X179820155Y-88753000D01*
X179941476Y-88523110D01*
X179896825Y-88375901D01*
X179771641Y-88113080D01*
X179708615Y-88028582D01*
X185195226Y-88028582D01*
X185245371Y-88475635D01*
X185381394Y-88904435D01*
X185598114Y-89298648D01*
X185887277Y-89643259D01*
X186237868Y-89925141D01*
X186636533Y-90133558D01*
X187068087Y-90260571D01*
X187516093Y-90301343D01*
X187963486Y-90254320D01*
X188393224Y-90121294D01*
X188788941Y-89907331D01*
X189135562Y-89620581D01*
X189419884Y-89271967D01*
X189631080Y-88874766D01*
X189761103Y-88444109D01*
X189805001Y-87996399D01*
X189804102Y-87932040D01*
X189747720Y-87485730D01*
X189605723Y-87058871D01*
X189383520Y-86667723D01*
X189089574Y-86327183D01*
X188735082Y-86050223D01*
X188333546Y-85847393D01*
X187900260Y-85726417D01*
X187451729Y-85691905D01*
X187005036Y-85745169D01*
X186577196Y-85884183D01*
X186184506Y-86103650D01*
X185841923Y-86395211D01*
X185562495Y-86747762D01*
X185356866Y-87147872D01*
X185232869Y-87580302D01*
X185195226Y-88028582D01*
X179708615Y-88028582D01*
X179597588Y-87879731D01*
X179381355Y-87684822D01*
X179131252Y-87535843D01*
X178856891Y-87438519D01*
X178627000Y-87559186D01*
X178373000Y-87559186D01*
X178143109Y-87438519D01*
X177868748Y-87535843D01*
X177618645Y-87684822D01*
X177402412Y-87879731D01*
X177228359Y-88113080D01*
X177103175Y-88375901D01*
X177058524Y-88523110D01*
X148941476Y-88523110D01*
X148896825Y-88375901D01*
X148771641Y-88113080D01*
X148597588Y-87879731D01*
X148381355Y-87684822D01*
X148131252Y-87535843D01*
X147856891Y-87438519D01*
X147627000Y-87559186D01*
X147373000Y-87559186D01*
X147143109Y-87438519D01*
X146868748Y-87535843D01*
X146618645Y-87684822D01*
X146402412Y-87879731D01*
X146228359Y-88113080D01*
X146103175Y-88375901D01*
X146058524Y-88523110D01*
X107737250Y-88523110D01*
X107761102Y-88444109D01*
X107805000Y-87996399D01*
X107804101Y-87932040D01*
X107747719Y-87485730D01*
X107605722Y-87058871D01*
X107383519Y-86667723D01*
X107089573Y-86327183D01*
X106735081Y-86050223D01*
X106333545Y-85847393D01*
X105900259Y-85726417D01*
X105451728Y-85691905D01*
X105005035Y-85745169D01*
X104577195Y-85884183D01*
X104184505Y-86103650D01*
X103841922Y-86395211D01*
X103562494Y-86747762D01*
X103356865Y-87147872D01*
X103232868Y-87580302D01*
X103195225Y-88028582D01*
X102311732Y-88028582D01*
X102458180Y-87493260D01*
X102788242Y-86801272D01*
X103235629Y-86178667D01*
X103786195Y-85645132D01*
X104422544Y-85217524D01*
X105124561Y-84909359D01*
X105875320Y-84729117D01*
X106525112Y-84681400D01*
X186469494Y-84681400D01*
X187263637Y-84752275D01*
X187263637Y-84752275D01*
G37*
X187263637Y-84752275D02*
X188003140Y-84954580D01*
X188695128Y-85284642D01*
X189317733Y-85732029D01*
X189851268Y-86282595D01*
X190278876Y-86918944D01*
X190587041Y-87620961D01*
X190767283Y-88371720D01*
X190815000Y-89021512D01*
X190815001Y-143965884D01*
X190744125Y-144760037D01*
X190541820Y-145499540D01*
X190211758Y-146191528D01*
X189764371Y-146814133D01*
X189213808Y-147347666D01*
X188577456Y-147775276D01*
X187875437Y-148083442D01*
X187124681Y-148263682D01*
X186474888Y-148311400D01*
X149682889Y-148311400D01*
X149980659Y-148013630D01*
X150016344Y-147984344D01*
X150133186Y-147841972D01*
X150220007Y-147679540D01*
X150250215Y-147579957D01*
X150273472Y-147503292D01*
X150291524Y-147320000D01*
X150287000Y-147274065D01*
X150287000Y-146177000D01*
X156616500Y-146177000D01*
X156616500Y-146445335D01*
X156671647Y-146722574D01*
X156779820Y-146983727D01*
X156936863Y-147218759D01*
X157136741Y-147418637D01*
X157371773Y-147575680D01*
X157632926Y-147683853D01*
X157910165Y-147739000D01*
X158192835Y-147739000D01*
X158470074Y-147683853D01*
X158731227Y-147575680D01*
X158966259Y-147418637D01*
X159166137Y-147218759D01*
X159323180Y-146983727D01*
X159325150Y-146978971D01*
X159392568Y-147105101D01*
X159571892Y-147323608D01*
X159790399Y-147502932D01*
X160039692Y-147636182D01*
X160310191Y-147718236D01*
X160521008Y-147739000D01*
X160661992Y-147739000D01*
X160872809Y-147718236D01*
X161143308Y-147636182D01*
X161392601Y-147502932D01*
X161611108Y-147323608D01*
X161790432Y-147105101D01*
X161923682Y-146855808D01*
X162005736Y-146585309D01*
X162033443Y-146304000D01*
X162020934Y-146177000D01*
X169634000Y-146177000D01*
X169634000Y-146445335D01*
X169689147Y-146722574D01*
X169797320Y-146983727D01*
X169954363Y-147218759D01*
X170154241Y-147418637D01*
X170389273Y-147575680D01*
X170650426Y-147683853D01*
X170927665Y-147739000D01*
X171210335Y-147739000D01*
X171487574Y-147683853D01*
X171748727Y-147575680D01*
X171983759Y-147418637D01*
X172183637Y-147218759D01*
X172340680Y-146983727D01*
X172342650Y-146978971D01*
X172410068Y-147105101D01*
X172589392Y-147323608D01*
X172807899Y-147502932D01*
X173057192Y-147636182D01*
X173327691Y-147718236D01*
X173538508Y-147739000D01*
X173679492Y-147739000D01*
X173890309Y-147718236D01*
X174160808Y-147636182D01*
X174410101Y-147502932D01*
X174628608Y-147323608D01*
X174807932Y-147105101D01*
X174941182Y-146855808D01*
X175023236Y-146585309D01*
X175050943Y-146304000D01*
X175038434Y-146177000D01*
X181610000Y-146177000D01*
X181634776Y-146174560D01*
X181658601Y-146167333D01*
X181680557Y-146155597D01*
X181699803Y-146139803D01*
X182811023Y-145028583D01*
X185195226Y-145028583D01*
X185245371Y-145475636D01*
X185381394Y-145904436D01*
X185598114Y-146298649D01*
X185887277Y-146643260D01*
X186237868Y-146925142D01*
X186636533Y-147133559D01*
X187068087Y-147260572D01*
X187516093Y-147301344D01*
X187963486Y-147254321D01*
X188393224Y-147121295D01*
X188788941Y-146907332D01*
X189135562Y-146620582D01*
X189419884Y-146271968D01*
X189631080Y-145874767D01*
X189761103Y-145444110D01*
X189805001Y-144996400D01*
X189804102Y-144932041D01*
X189747720Y-144485731D01*
X189605723Y-144058872D01*
X189383520Y-143667724D01*
X189089574Y-143327184D01*
X188735082Y-143050224D01*
X188333546Y-142847394D01*
X187900260Y-142726418D01*
X187451729Y-142691906D01*
X187005036Y-142745170D01*
X186577196Y-142884184D01*
X186184506Y-143103651D01*
X185841923Y-143395212D01*
X185562495Y-143747763D01*
X185356866Y-144147873D01*
X185232869Y-144580303D01*
X185195226Y-145028583D01*
X182811023Y-145028583D01*
X183898309Y-143941297D01*
X183941932Y-143937000D01*
X184079292Y-143923471D01*
X184255540Y-143870007D01*
X184417972Y-143783186D01*
X184560344Y-143666344D01*
X184589630Y-143630659D01*
X185794664Y-142425626D01*
X185830344Y-142396344D01*
X185947186Y-142253972D01*
X186034007Y-142091540D01*
X186082209Y-141932640D01*
X186087471Y-141915293D01*
X186105524Y-141732001D01*
X186101000Y-141686069D01*
X186101000Y-136906000D01*
X186264057Y-136906000D01*
X186291764Y-137187309D01*
X186373818Y-137457808D01*
X186507068Y-137707101D01*
X186686392Y-137925608D01*
X186904899Y-138104932D01*
X187031029Y-138172350D01*
X187026273Y-138174320D01*
X186791241Y-138331363D01*
X186591363Y-138531241D01*
X186434320Y-138766273D01*
X186326147Y-139027426D01*
X186271000Y-139304665D01*
X186271000Y-139587335D01*
X186326147Y-139864574D01*
X186434320Y-140125727D01*
X186591363Y-140360759D01*
X186791241Y-140560637D01*
X187026273Y-140717680D01*
X187287426Y-140825853D01*
X187564665Y-140881000D01*
X187847335Y-140881000D01*
X188124574Y-140825853D01*
X188385727Y-140717680D01*
X188620759Y-140560637D01*
X188820637Y-140360759D01*
X188977680Y-140125727D01*
X189085853Y-139864574D01*
X189141000Y-139587335D01*
X189141000Y-139304665D01*
X189085853Y-139027426D01*
X188977680Y-138766273D01*
X188820637Y-138531241D01*
X188620759Y-138331363D01*
X188385727Y-138174320D01*
X188380971Y-138172350D01*
X188507101Y-138104932D01*
X188725608Y-137925608D01*
X188904932Y-137707101D01*
X189038182Y-137457808D01*
X189120236Y-137187309D01*
X189147943Y-136906000D01*
X189120236Y-136624691D01*
X189038182Y-136354192D01*
X188904932Y-136104899D01*
X188725608Y-135886392D01*
X188507101Y-135707068D01*
X188257808Y-135573818D01*
X187987309Y-135491764D01*
X187776492Y-135471000D01*
X187635508Y-135471000D01*
X187424691Y-135491764D01*
X187154192Y-135573818D01*
X186904899Y-135707068D01*
X186686392Y-135886392D01*
X186507068Y-136104899D01*
X186373818Y-136354192D01*
X186291764Y-136624691D01*
X186264057Y-136906000D01*
X186101000Y-136906000D01*
X186101000Y-135427935D01*
X186105524Y-135382000D01*
X186087472Y-135198708D01*
X186034007Y-135022459D01*
X185980442Y-134922246D01*
X185947186Y-134860028D01*
X185830344Y-134717656D01*
X185794660Y-134688371D01*
X182049630Y-130943341D01*
X182020344Y-130907656D01*
X181877972Y-130790814D01*
X181715540Y-130703993D01*
X181539292Y-130650529D01*
X181401932Y-130637000D01*
X181356000Y-130632476D01*
X181310068Y-130637000D01*
X163560575Y-130637000D01*
X163638182Y-130491808D01*
X163720236Y-130221309D01*
X163741000Y-130010492D01*
X163741000Y-129069509D01*
X163720236Y-128858691D01*
X163638182Y-128588192D01*
X163504932Y-128338899D01*
X163325608Y-128120392D01*
X163107101Y-127941068D01*
X162857808Y-127807818D01*
X162587309Y-127725764D01*
X162306000Y-127698057D01*
X162024692Y-127725764D01*
X161754193Y-127807818D01*
X161504900Y-127941068D01*
X161286393Y-128120392D01*
X161107068Y-128338899D01*
X161036000Y-128471858D01*
X160964932Y-128338899D01*
X160785608Y-128120392D01*
X160567101Y-127941068D01*
X160317808Y-127807818D01*
X160047309Y-127725764D01*
X159766000Y-127698057D01*
X159484692Y-127725764D01*
X159214193Y-127807818D01*
X158964900Y-127941068D01*
X158746393Y-128120392D01*
X158567068Y-128338899D01*
X158496000Y-128471858D01*
X158424932Y-128338899D01*
X158245608Y-128120392D01*
X158027101Y-127941068D01*
X157777808Y-127807818D01*
X157507309Y-127725764D01*
X157226000Y-127698057D01*
X156944692Y-127725764D01*
X156674193Y-127807818D01*
X156424900Y-127941068D01*
X156206393Y-128120392D01*
X156027068Y-128338899D01*
X155956000Y-128471858D01*
X155884932Y-128338899D01*
X155705608Y-128120392D01*
X155487101Y-127941068D01*
X155237808Y-127807818D01*
X154967309Y-127725764D01*
X154686000Y-127698057D01*
X154404692Y-127725764D01*
X154134193Y-127807818D01*
X153884900Y-127941068D01*
X153666393Y-128120392D01*
X153487068Y-128338899D01*
X153416000Y-128471858D01*
X153344932Y-128338899D01*
X153165608Y-128120392D01*
X152947101Y-127941068D01*
X152697808Y-127807818D01*
X152427309Y-127725764D01*
X152146000Y-127698057D01*
X151864692Y-127725764D01*
X151594193Y-127807818D01*
X151344900Y-127941068D01*
X151126393Y-128120392D01*
X150947068Y-128338899D01*
X150876000Y-128471858D01*
X150804932Y-128338899D01*
X150625608Y-128120392D01*
X150541000Y-128050956D01*
X150541000Y-127553924D01*
X150545523Y-127507999D01*
X150541000Y-127462074D01*
X150541000Y-127462068D01*
X150527471Y-127324708D01*
X150522949Y-127309799D01*
X150500013Y-127234192D01*
X150474007Y-127148460D01*
X150387186Y-126986028D01*
X150270344Y-126843656D01*
X150234666Y-126814376D01*
X147171810Y-123751521D01*
X147347308Y-123734236D01*
X147617807Y-123652182D01*
X147867100Y-123518932D01*
X148085607Y-123339608D01*
X148264932Y-123121101D01*
X148336000Y-122988142D01*
X148407068Y-123121100D01*
X148586392Y-123339607D01*
X148804899Y-123518932D01*
X149054192Y-123652182D01*
X149324691Y-123734236D01*
X149606000Y-123761943D01*
X149887308Y-123734236D01*
X150157807Y-123652182D01*
X150407100Y-123518932D01*
X150625607Y-123339608D01*
X150804932Y-123121101D01*
X150876000Y-122988142D01*
X150947068Y-123121100D01*
X151126392Y-123339607D01*
X151344899Y-123518932D01*
X151594192Y-123652182D01*
X151864691Y-123734236D01*
X152146000Y-123761943D01*
X152427308Y-123734236D01*
X152697807Y-123652182D01*
X152947100Y-123518932D01*
X153165607Y-123339608D01*
X153344932Y-123121101D01*
X153416000Y-122988142D01*
X153487068Y-123121100D01*
X153666392Y-123339607D01*
X153884899Y-123518932D01*
X154134192Y-123652182D01*
X154404691Y-123734236D01*
X154686000Y-123761943D01*
X154967308Y-123734236D01*
X155237807Y-123652182D01*
X155487100Y-123518932D01*
X155705607Y-123339608D01*
X155884932Y-123121101D01*
X155956000Y-122988142D01*
X156027068Y-123121100D01*
X156206392Y-123339607D01*
X156424899Y-123518932D01*
X156674192Y-123652182D01*
X156944691Y-123734236D01*
X157226000Y-123761943D01*
X157507308Y-123734236D01*
X157777807Y-123652182D01*
X158027100Y-123518932D01*
X158245607Y-123339608D01*
X158424932Y-123121101D01*
X158496000Y-122988142D01*
X158567068Y-123121100D01*
X158746392Y-123339607D01*
X158964899Y-123518932D01*
X159214192Y-123652182D01*
X159484691Y-123734236D01*
X159766000Y-123761943D01*
X160047308Y-123734236D01*
X160317807Y-123652182D01*
X160567100Y-123518932D01*
X160785607Y-123339608D01*
X160878419Y-123226517D01*
X160880188Y-123244482D01*
X160916498Y-123364180D01*
X160975463Y-123474494D01*
X161054815Y-123571185D01*
X161151506Y-123650537D01*
X161261820Y-123709502D01*
X161381518Y-123745812D01*
X161506000Y-123758072D01*
X163106000Y-123758072D01*
X163230482Y-123745812D01*
X163350180Y-123709502D01*
X163460494Y-123650537D01*
X163557185Y-123571185D01*
X163636537Y-123474494D01*
X163695502Y-123364180D01*
X163731812Y-123244482D01*
X163744072Y-123120000D01*
X163744072Y-120720000D01*
X163731812Y-120595518D01*
X163695502Y-120475820D01*
X163636537Y-120365506D01*
X163557185Y-120268815D01*
X163460494Y-120189463D01*
X163350180Y-120130498D01*
X163230482Y-120094188D01*
X163106000Y-120081928D01*
X161506000Y-120081928D01*
X161381518Y-120094188D01*
X161261820Y-120130498D01*
X161151506Y-120189463D01*
X161054815Y-120268815D01*
X160975463Y-120365506D01*
X160916498Y-120475820D01*
X160880188Y-120595518D01*
X160878419Y-120613482D01*
X160785608Y-120500392D01*
X160567101Y-120321068D01*
X160317808Y-120187818D01*
X160047309Y-120105764D01*
X159766000Y-120078057D01*
X159484692Y-120105764D01*
X159214193Y-120187818D01*
X158964900Y-120321068D01*
X158746393Y-120500392D01*
X158567068Y-120718899D01*
X158496000Y-120851858D01*
X158424932Y-120718899D01*
X158245608Y-120500392D01*
X158027101Y-120321068D01*
X157777808Y-120187818D01*
X157507309Y-120105764D01*
X157226000Y-120078057D01*
X156944692Y-120105764D01*
X156674193Y-120187818D01*
X156424900Y-120321068D01*
X156206393Y-120500392D01*
X156027068Y-120718899D01*
X155956000Y-120851858D01*
X155884932Y-120718899D01*
X155705608Y-120500392D01*
X155487101Y-120321068D01*
X155237808Y-120187818D01*
X154967309Y-120105764D01*
X154686000Y-120078057D01*
X154404692Y-120105764D01*
X154134193Y-120187818D01*
X153884900Y-120321068D01*
X153666393Y-120500392D01*
X153487068Y-120718899D01*
X153416000Y-120851858D01*
X153344932Y-120718899D01*
X153165608Y-120500392D01*
X152947101Y-120321068D01*
X152697808Y-120187818D01*
X152427309Y-120105764D01*
X152146000Y-120078057D01*
X151864692Y-120105764D01*
X151594193Y-120187818D01*
X151344900Y-120321068D01*
X151126393Y-120500392D01*
X150947068Y-120718899D01*
X150876000Y-120851858D01*
X150804932Y-120718899D01*
X150625608Y-120500392D01*
X150407101Y-120321068D01*
X150366000Y-120299099D01*
X150366000Y-117944000D01*
X181391928Y-117944000D01*
X181404188Y-118068482D01*
X181440498Y-118188180D01*
X181499463Y-118298494D01*
X181578815Y-118395185D01*
X181675506Y-118474537D01*
X181785820Y-118533502D01*
X181905518Y-118569812D01*
X182030000Y-118582072D01*
X182594250Y-118579000D01*
X182753000Y-118420250D01*
X182753000Y-117221000D01*
X183007000Y-117221000D01*
X183007000Y-118420250D01*
X183165750Y-118579000D01*
X183730000Y-118582072D01*
X183854482Y-118569812D01*
X183974180Y-118533502D01*
X184084494Y-118474537D01*
X184181185Y-118395185D01*
X184260537Y-118298494D01*
X184319502Y-118188180D01*
X184355812Y-118068482D01*
X184368072Y-117944000D01*
X184365000Y-117379750D01*
X184206250Y-117221000D01*
X183007000Y-117221000D01*
X182753000Y-117221000D01*
X181553750Y-117221000D01*
X181395000Y-117379750D01*
X181391928Y-117944000D01*
X150366000Y-117944000D01*
X150366000Y-117639323D01*
X150369676Y-117602000D01*
X150366000Y-117564677D01*
X150366000Y-117564667D01*
X150355003Y-117453014D01*
X150311546Y-117309753D01*
X150284549Y-117259246D01*
X150260051Y-117213413D01*
X156350192Y-117213413D01*
X156445956Y-117477814D01*
X156735571Y-117618704D01*
X157047108Y-117700384D01*
X157368595Y-117719718D01*
X157687675Y-117675961D01*
X157992088Y-117570795D01*
X158166044Y-117477814D01*
X158261808Y-117213413D01*
X157306000Y-116257605D01*
X156350192Y-117213413D01*
X150260051Y-117213413D01*
X150240974Y-117177723D01*
X150169799Y-117090997D01*
X150146001Y-117061999D01*
X150117003Y-117038201D01*
X149219397Y-116140595D01*
X155664282Y-116140595D01*
X155708039Y-116459675D01*
X155813205Y-116764088D01*
X155906186Y-116938044D01*
X156170587Y-117033808D01*
X157126395Y-116078000D01*
X157485605Y-116078000D01*
X158441413Y-117033808D01*
X158705814Y-116938044D01*
X158846704Y-116648429D01*
X158928384Y-116336892D01*
X158947718Y-116015405D01*
X158934219Y-115916967D01*
X160671000Y-115916967D01*
X160671000Y-116239033D01*
X160733832Y-116554912D01*
X160857082Y-116852463D01*
X161036013Y-117120252D01*
X161263748Y-117347987D01*
X161531537Y-117526918D01*
X161829088Y-117650168D01*
X162144967Y-117713000D01*
X162467033Y-117713000D01*
X162782912Y-117650168D01*
X163080463Y-117526918D01*
X163348252Y-117347987D01*
X163575987Y-117120252D01*
X163754918Y-116852463D01*
X163878168Y-116554912D01*
X163941000Y-116239033D01*
X163941000Y-115916967D01*
X163878168Y-115601088D01*
X163754918Y-115303537D01*
X163575987Y-115035748D01*
X163348252Y-114808013D01*
X163080463Y-114629082D01*
X162782912Y-114505832D01*
X162467033Y-114443000D01*
X162144967Y-114443000D01*
X161829088Y-114505832D01*
X161531537Y-114629082D01*
X161263748Y-114808013D01*
X161036013Y-115035748D01*
X160857082Y-115303537D01*
X160733832Y-115601088D01*
X160671000Y-115916967D01*
X158934219Y-115916967D01*
X158903961Y-115696325D01*
X158798795Y-115391912D01*
X158705814Y-115217956D01*
X158441413Y-115122192D01*
X157485605Y-116078000D01*
X157126395Y-116078000D01*
X156170587Y-115122192D01*
X155906186Y-115217956D01*
X155765296Y-115507571D01*
X155683616Y-115819108D01*
X155664282Y-116140595D01*
X149219397Y-116140595D01*
X148759801Y-115681000D01*
X149525681Y-115681000D01*
X149606000Y-115688911D01*
X149686319Y-115681000D01*
X149686322Y-115681000D01*
X149926516Y-115657343D01*
X150234715Y-115563852D01*
X150518752Y-115412031D01*
X150767714Y-115207714D01*
X150818925Y-115145313D01*
X151021651Y-114942587D01*
X156350192Y-114942587D01*
X157306000Y-115898395D01*
X158261808Y-114942587D01*
X158166044Y-114678186D01*
X157876429Y-114537296D01*
X157564892Y-114455616D01*
X157243405Y-114436282D01*
X156924325Y-114480039D01*
X156619912Y-114585205D01*
X156445956Y-114678186D01*
X156350192Y-114942587D01*
X151021651Y-114942587D01*
X153497000Y-112467239D01*
X153497000Y-112614089D01*
X153532932Y-112794729D01*
X153603414Y-112964889D01*
X153681697Y-113082048D01*
X153682997Y-113095250D01*
X153726454Y-113238511D01*
X153797026Y-113370540D01*
X153892000Y-113486265D01*
X153920998Y-113510063D01*
X154459936Y-114049002D01*
X154483735Y-114078001D01*
X154512733Y-114101799D01*
X154599459Y-114172974D01*
X154731489Y-114243546D01*
X154874750Y-114287003D01*
X154986403Y-114298000D01*
X154986412Y-114298000D01*
X155023735Y-114301676D01*
X155061058Y-114298000D01*
X156172678Y-114298000D01*
X156210000Y-114301676D01*
X156247322Y-114298000D01*
X156247333Y-114298000D01*
X156358986Y-114287003D01*
X156502247Y-114243546D01*
X156634276Y-114172974D01*
X156750001Y-114078001D01*
X156773804Y-114048997D01*
X159826802Y-110996000D01*
X179263199Y-110996000D01*
X180792201Y-112525003D01*
X180815999Y-112554001D01*
X180931724Y-112648974D01*
X181063753Y-112719546D01*
X181207014Y-112763003D01*
X181318667Y-112774000D01*
X181318675Y-112774000D01*
X181356000Y-112777676D01*
X181393325Y-112774000D01*
X181602405Y-112774000D01*
X181639294Y-112843014D01*
X181824866Y-113069134D01*
X182050986Y-113254706D01*
X182105791Y-113284000D01*
X182050986Y-113313294D01*
X181824866Y-113498866D01*
X181639294Y-113724986D01*
X181501401Y-113982966D01*
X181416487Y-114262889D01*
X181387815Y-114554000D01*
X181416487Y-114845111D01*
X181501401Y-115125034D01*
X181639294Y-115383014D01*
X181824866Y-115609134D01*
X181854687Y-115633607D01*
X181785820Y-115654498D01*
X181675506Y-115713463D01*
X181578815Y-115792815D01*
X181499463Y-115889506D01*
X181440498Y-115999820D01*
X181404188Y-116119518D01*
X181391928Y-116244000D01*
X181395000Y-116808250D01*
X181553750Y-116967000D01*
X182753000Y-116967000D01*
X182753000Y-116947000D01*
X183007000Y-116947000D01*
X183007000Y-116967000D01*
X184206250Y-116967000D01*
X184365000Y-116808250D01*
X184368072Y-116244000D01*
X184355812Y-116119518D01*
X184319502Y-115999820D01*
X184260537Y-115889506D01*
X184181185Y-115792815D01*
X184084494Y-115713463D01*
X183974180Y-115654498D01*
X183905313Y-115633607D01*
X183935134Y-115609134D01*
X184120706Y-115383014D01*
X184258599Y-115125034D01*
X184343513Y-114845111D01*
X184372185Y-114554000D01*
X184343513Y-114262889D01*
X184258599Y-113982966D01*
X184120706Y-113724986D01*
X183935134Y-113498866D01*
X183709014Y-113313294D01*
X183654209Y-113284000D01*
X183709014Y-113254706D01*
X183935134Y-113069134D01*
X184120706Y-112843014D01*
X184258599Y-112585034D01*
X184343513Y-112305111D01*
X184372185Y-112014000D01*
X184343513Y-111722889D01*
X184258599Y-111442966D01*
X184120706Y-111184986D01*
X183935134Y-110958866D01*
X183709014Y-110773294D01*
X183654209Y-110744000D01*
X183709014Y-110714706D01*
X183935134Y-110529134D01*
X184120706Y-110303014D01*
X184258599Y-110045034D01*
X184343513Y-109765111D01*
X184372185Y-109474000D01*
X184343513Y-109182889D01*
X184258599Y-108902966D01*
X184120706Y-108644986D01*
X183935134Y-108418866D01*
X183791287Y-108300814D01*
X183792752Y-108300031D01*
X184041714Y-108095714D01*
X184246031Y-107846752D01*
X184397852Y-107562715D01*
X184491343Y-107254516D01*
X184522911Y-106934000D01*
X184491343Y-106613484D01*
X184397852Y-106305285D01*
X184246031Y-106021248D01*
X184041714Y-105772286D01*
X183792752Y-105567969D01*
X183508715Y-105416148D01*
X183200516Y-105322657D01*
X182960322Y-105299000D01*
X156067000Y-105299000D01*
X156067000Y-98632319D01*
X156074911Y-98551999D01*
X156060063Y-98401248D01*
X156043343Y-98231484D01*
X155949852Y-97923285D01*
X155798031Y-97639248D01*
X155593714Y-97390286D01*
X155531318Y-97339080D01*
X153592925Y-95400687D01*
X153541714Y-95338286D01*
X153292752Y-95133969D01*
X153008715Y-94982148D01*
X152700516Y-94888657D01*
X152460322Y-94865000D01*
X152460319Y-94865000D01*
X152380000Y-94857089D01*
X152299681Y-94865000D01*
X148678346Y-94865000D01*
X148740706Y-94789014D01*
X148878599Y-94531034D01*
X148963513Y-94251111D01*
X148992185Y-93960000D01*
X148963513Y-93668889D01*
X148878599Y-93388966D01*
X148740706Y-93130986D01*
X148555134Y-92904866D01*
X148329014Y-92719294D01*
X148274209Y-92690000D01*
X148329014Y-92660706D01*
X148555134Y-92475134D01*
X148740706Y-92249014D01*
X148878599Y-91991034D01*
X148963513Y-91711111D01*
X148992185Y-91420000D01*
X177007815Y-91420000D01*
X177036487Y-91711111D01*
X177121401Y-91991034D01*
X177259294Y-92249014D01*
X177444866Y-92475134D01*
X177670986Y-92660706D01*
X177725791Y-92690000D01*
X177670986Y-92719294D01*
X177444866Y-92904866D01*
X177259294Y-93130986D01*
X177121401Y-93388966D01*
X177036487Y-93668889D01*
X177007815Y-93960000D01*
X177036487Y-94251111D01*
X177121401Y-94531034D01*
X177259294Y-94789014D01*
X177444866Y-95015134D01*
X177474687Y-95039607D01*
X177405820Y-95060498D01*
X177295506Y-95119463D01*
X177198815Y-95198815D01*
X177119463Y-95295506D01*
X177060498Y-95405820D01*
X177024188Y-95525518D01*
X177011928Y-95650000D01*
X177011928Y-97350000D01*
X177024188Y-97474482D01*
X177060498Y-97594180D01*
X177119463Y-97704494D01*
X177198815Y-97801185D01*
X177295506Y-97880537D01*
X177405820Y-97939502D01*
X177525518Y-97975812D01*
X177650000Y-97988072D01*
X179350000Y-97988072D01*
X179474482Y-97975812D01*
X179594180Y-97939502D01*
X179704494Y-97880537D01*
X179801185Y-97801185D01*
X179880537Y-97704494D01*
X179939502Y-97594180D01*
X179975812Y-97474482D01*
X179988072Y-97350000D01*
X179988072Y-95650000D01*
X179975812Y-95525518D01*
X179939502Y-95405820D01*
X179880537Y-95295506D01*
X179801185Y-95198815D01*
X179704494Y-95119463D01*
X179594180Y-95060498D01*
X179525313Y-95039607D01*
X179555134Y-95015134D01*
X179740706Y-94789014D01*
X179878599Y-94531034D01*
X179963513Y-94251111D01*
X179992185Y-93960000D01*
X179963513Y-93668889D01*
X179878599Y-93388966D01*
X179740706Y-93130986D01*
X179555134Y-92904866D01*
X179329014Y-92719294D01*
X179274209Y-92690000D01*
X179329014Y-92660706D01*
X179555134Y-92475134D01*
X179740706Y-92249014D01*
X179878599Y-91991034D01*
X179963513Y-91711111D01*
X179992185Y-91420000D01*
X179963513Y-91128889D01*
X179878599Y-90848966D01*
X179740706Y-90590986D01*
X179555134Y-90364866D01*
X179329014Y-90179294D01*
X179264477Y-90144799D01*
X179381355Y-90075178D01*
X179597588Y-89880269D01*
X179771641Y-89646920D01*
X179896825Y-89384099D01*
X179941476Y-89236890D01*
X179820155Y-89007000D01*
X178627000Y-89007000D01*
X178627000Y-89027000D01*
X178373000Y-89027000D01*
X178373000Y-89007000D01*
X177179845Y-89007000D01*
X177058524Y-89236890D01*
X177103175Y-89384099D01*
X177228359Y-89646920D01*
X177402412Y-89880269D01*
X177618645Y-90075178D01*
X177735523Y-90144799D01*
X177670986Y-90179294D01*
X177444866Y-90364866D01*
X177259294Y-90590986D01*
X177121401Y-90848966D01*
X177036487Y-91128889D01*
X177007815Y-91420000D01*
X148992185Y-91420000D01*
X148963513Y-91128889D01*
X148878599Y-90848966D01*
X148740706Y-90590986D01*
X148555134Y-90364866D01*
X148329014Y-90179294D01*
X148264477Y-90144799D01*
X148381355Y-90075178D01*
X148597588Y-89880269D01*
X148771641Y-89646920D01*
X148896825Y-89384099D01*
X148941476Y-89236890D01*
X148820155Y-89007000D01*
X147627000Y-89007000D01*
X147627000Y-89027000D01*
X147373000Y-89027000D01*
X147373000Y-89007000D01*
X146179845Y-89007000D01*
X146058524Y-89236890D01*
X146103175Y-89384099D01*
X146228359Y-89646920D01*
X146402412Y-89880269D01*
X146618645Y-90075178D01*
X146735523Y-90144799D01*
X146670986Y-90179294D01*
X146444866Y-90364866D01*
X146259294Y-90590986D01*
X146121401Y-90848966D01*
X146036487Y-91128889D01*
X146007815Y-91420000D01*
X146036487Y-91711111D01*
X146121401Y-91991034D01*
X146259294Y-92249014D01*
X146444866Y-92475134D01*
X146670986Y-92660706D01*
X146725791Y-92690000D01*
X146670986Y-92719294D01*
X146444866Y-92904866D01*
X146259294Y-93130986D01*
X146121401Y-93388966D01*
X146036487Y-93668889D01*
X146007815Y-93960000D01*
X146036487Y-94251111D01*
X146121401Y-94531034D01*
X146259294Y-94789014D01*
X146444866Y-95015134D01*
X146474687Y-95039607D01*
X146405820Y-95060498D01*
X146295506Y-95119463D01*
X146198815Y-95198815D01*
X146119463Y-95295506D01*
X146060498Y-95405820D01*
X146024188Y-95525518D01*
X146011928Y-95650000D01*
X146011928Y-95815571D01*
X145982148Y-95871285D01*
X145888657Y-96179484D01*
X145857089Y-96500000D01*
X145888657Y-96820516D01*
X145982148Y-97128715D01*
X146011928Y-97184429D01*
X146011928Y-97350000D01*
X146024188Y-97474482D01*
X146060498Y-97594180D01*
X146119463Y-97704494D01*
X146198815Y-97801185D01*
X146295506Y-97880537D01*
X146405820Y-97939502D01*
X146525518Y-97975812D01*
X146650000Y-97988072D01*
X146815571Y-97988072D01*
X146871285Y-98017852D01*
X147179484Y-98111343D01*
X147419678Y-98135000D01*
X151702762Y-98135000D01*
X152797000Y-99229239D01*
X152797000Y-99394321D01*
X152797001Y-99394331D01*
X152797000Y-106853678D01*
X152789089Y-106934000D01*
X152797000Y-107014321D01*
X152797000Y-108542760D01*
X148928762Y-112411000D01*
X147239678Y-112411000D01*
X146999484Y-112434657D01*
X146691285Y-112528148D01*
X146407248Y-112679969D01*
X146158286Y-112884286D01*
X145953969Y-113133248D01*
X145802148Y-113417285D01*
X145708657Y-113725484D01*
X145693023Y-113884221D01*
X138047000Y-106238199D01*
X138047000Y-104282874D01*
X138048440Y-104248461D01*
X138141101Y-104198932D01*
X138359608Y-104019608D01*
X138538932Y-103801101D01*
X138612579Y-103663318D01*
X138727615Y-103855131D01*
X138916586Y-104063519D01*
X139142580Y-104231037D01*
X139396913Y-104351246D01*
X139530961Y-104391904D01*
X139753000Y-104269915D01*
X139753000Y-103127000D01*
X139733000Y-103127000D01*
X139733000Y-102873000D01*
X139753000Y-102873000D01*
X139753000Y-101730085D01*
X140007000Y-101730085D01*
X140007000Y-102873000D01*
X140027000Y-102873000D01*
X140027000Y-103127000D01*
X140007000Y-103127000D01*
X140007000Y-104269915D01*
X140229039Y-104391904D01*
X140363087Y-104351246D01*
X140617420Y-104231037D01*
X140843414Y-104063519D01*
X141032385Y-103855131D01*
X141147421Y-103663318D01*
X141221068Y-103801101D01*
X141400392Y-104019608D01*
X141618899Y-104198932D01*
X141868192Y-104332182D01*
X142138691Y-104414236D01*
X142349508Y-104435000D01*
X142490492Y-104435000D01*
X142701309Y-104414236D01*
X142971808Y-104332182D01*
X143221101Y-104198932D01*
X143439608Y-104019608D01*
X143618932Y-103801101D01*
X143690000Y-103668142D01*
X143761068Y-103801101D01*
X143940392Y-104019608D01*
X144158899Y-104198932D01*
X144408192Y-104332182D01*
X144678691Y-104414236D01*
X144889508Y-104435000D01*
X145030492Y-104435000D01*
X145241309Y-104414236D01*
X145511808Y-104332182D01*
X145761101Y-104198932D01*
X145979608Y-104019608D01*
X146072419Y-103906518D01*
X146074188Y-103924482D01*
X146110498Y-104044180D01*
X146169463Y-104154494D01*
X146248815Y-104251185D01*
X146345506Y-104330537D01*
X146455820Y-104389502D01*
X146575518Y-104425812D01*
X146700000Y-104438072D01*
X148300000Y-104438072D01*
X148424482Y-104425812D01*
X148544180Y-104389502D01*
X148654494Y-104330537D01*
X148751185Y-104251185D01*
X148830537Y-104154494D01*
X148889502Y-104044180D01*
X148925812Y-103924482D01*
X148938072Y-103800000D01*
X148938072Y-102200000D01*
X148925812Y-102075518D01*
X148889502Y-101955820D01*
X148830537Y-101845506D01*
X148751185Y-101748815D01*
X148654494Y-101669463D01*
X148544180Y-101610498D01*
X148424482Y-101574188D01*
X148300000Y-101561928D01*
X146700000Y-101561928D01*
X146575518Y-101574188D01*
X146455820Y-101610498D01*
X146345506Y-101669463D01*
X146248815Y-101748815D01*
X146169463Y-101845506D01*
X146110498Y-101955820D01*
X146074188Y-102075518D01*
X146072419Y-102093482D01*
X145979608Y-101980392D01*
X145761101Y-101801068D01*
X145511808Y-101667818D01*
X145241309Y-101585764D01*
X145030492Y-101565000D01*
X144889508Y-101565000D01*
X144678691Y-101585764D01*
X144408192Y-101667818D01*
X144158899Y-101801068D01*
X143940392Y-101980392D01*
X143761068Y-102198899D01*
X143690000Y-102331858D01*
X143618932Y-102198899D01*
X143439608Y-101980392D01*
X143221101Y-101801068D01*
X142971808Y-101667818D01*
X142701309Y-101585764D01*
X142490492Y-101565000D01*
X142349508Y-101565000D01*
X142138691Y-101585764D01*
X141868192Y-101667818D01*
X141618899Y-101801068D01*
X141400392Y-101980392D01*
X141221068Y-102198899D01*
X141147421Y-102336682D01*
X141032385Y-102144869D01*
X140843414Y-101936481D01*
X140617420Y-101768963D01*
X140363087Y-101648754D01*
X140229039Y-101608096D01*
X140007000Y-101730085D01*
X139753000Y-101730085D01*
X139530961Y-101608096D01*
X139396913Y-101648754D01*
X139142580Y-101768963D01*
X138916586Y-101936481D01*
X138727615Y-102144869D01*
X138612579Y-102336682D01*
X138538932Y-102198899D01*
X138359608Y-101980392D01*
X138141101Y-101801068D01*
X137891808Y-101667818D01*
X137621309Y-101585764D01*
X137410492Y-101565000D01*
X137269508Y-101565000D01*
X137058691Y-101585764D01*
X136788192Y-101667818D01*
X136538899Y-101801068D01*
X136320392Y-101980392D01*
X136141068Y-102198899D01*
X136070000Y-102331858D01*
X135998932Y-102198899D01*
X135819608Y-101980392D01*
X135601101Y-101801068D01*
X135351808Y-101667818D01*
X135081309Y-101585764D01*
X134870492Y-101565000D01*
X134729508Y-101565000D01*
X134518691Y-101585764D01*
X134248192Y-101667818D01*
X133998899Y-101801068D01*
X133780392Y-101980392D01*
X133601068Y-102198899D01*
X133530000Y-102331858D01*
X133458932Y-102198899D01*
X133279608Y-101980392D01*
X133061101Y-101801068D01*
X133023576Y-101781011D01*
X133023676Y-101780000D01*
X133020000Y-101742675D01*
X133020000Y-101742667D01*
X133009003Y-101631014D01*
X132965546Y-101487753D01*
X132894974Y-101355724D01*
X132800001Y-101239999D01*
X132771003Y-101216201D01*
X131570000Y-100015199D01*
X131570000Y-96632909D01*
X131584463Y-96626918D01*
X131852252Y-96447987D01*
X132079987Y-96220252D01*
X132258918Y-95952463D01*
X132264909Y-95938000D01*
X135855091Y-95938000D01*
X135861082Y-95952463D01*
X136040013Y-96220252D01*
X136267748Y-96447987D01*
X136535537Y-96626918D01*
X136833088Y-96750168D01*
X137148967Y-96813000D01*
X137471033Y-96813000D01*
X137786912Y-96750168D01*
X138084463Y-96626918D01*
X138352252Y-96447987D01*
X138579987Y-96220252D01*
X138758918Y-95952463D01*
X138882168Y-95654912D01*
X138945000Y-95339033D01*
X138945000Y-95016967D01*
X138882168Y-94701088D01*
X138758918Y-94403537D01*
X138579987Y-94135748D01*
X138352252Y-93908013D01*
X138084463Y-93729082D01*
X137786912Y-93605832D01*
X137471033Y-93543000D01*
X137148967Y-93543000D01*
X136833088Y-93605832D01*
X136535537Y-93729082D01*
X136267748Y-93908013D01*
X136040013Y-94135748D01*
X135861082Y-94403537D01*
X135855091Y-94418000D01*
X132264909Y-94418000D01*
X132258918Y-94403537D01*
X132079987Y-94135748D01*
X131852252Y-93908013D01*
X131584463Y-93729082D01*
X131286912Y-93605832D01*
X130971033Y-93543000D01*
X130648967Y-93543000D01*
X130333088Y-93605832D01*
X130035537Y-93729082D01*
X129767748Y-93908013D01*
X129540013Y-94135748D01*
X129361082Y-94403537D01*
X129237832Y-94701088D01*
X129175000Y-95016967D01*
X129175000Y-95339033D01*
X129237832Y-95654912D01*
X129361082Y-95952463D01*
X129540013Y-96220252D01*
X129767748Y-96447987D01*
X130035537Y-96626918D01*
X130050001Y-96632909D01*
X130050000Y-100292677D01*
X130046324Y-100330000D01*
X130050000Y-100367322D01*
X130050000Y-100367332D01*
X130060997Y-100478985D01*
X130104454Y-100622246D01*
X130175026Y-100754276D01*
X130214871Y-100802826D01*
X130269999Y-100870001D01*
X130299003Y-100893804D01*
X131320142Y-101914943D01*
X131240392Y-101980392D01*
X131061068Y-102198899D01*
X130990000Y-102331858D01*
X130918932Y-102198899D01*
X130739608Y-101980392D01*
X130521101Y-101801068D01*
X130271808Y-101667818D01*
X130001309Y-101585764D01*
X129790492Y-101565000D01*
X129649508Y-101565000D01*
X129438691Y-101585764D01*
X129168192Y-101667818D01*
X128918899Y-101801068D01*
X128700392Y-101980392D01*
X128521068Y-102198899D01*
X128450000Y-102331858D01*
X128378932Y-102198899D01*
X128199608Y-101980392D01*
X127981101Y-101801068D01*
X127731808Y-101667818D01*
X127461309Y-101585764D01*
X127250492Y-101565000D01*
X127109508Y-101565000D01*
X126898691Y-101585764D01*
X126628192Y-101667818D01*
X126378899Y-101801068D01*
X126160392Y-101980392D01*
X125981068Y-102198899D01*
X125910000Y-102331858D01*
X125838932Y-102198899D01*
X125659608Y-101980392D01*
X125441101Y-101801068D01*
X125191808Y-101667818D01*
X124921309Y-101585764D01*
X124710492Y-101565000D01*
X124569508Y-101565000D01*
X124358691Y-101585764D01*
X124088192Y-101667818D01*
X123838899Y-101801068D01*
X123620392Y-101980392D01*
X123441068Y-102198899D01*
X123370000Y-102331858D01*
X123298932Y-102198899D01*
X123119608Y-101980392D01*
X122901101Y-101801068D01*
X122651808Y-101667818D01*
X122381309Y-101585764D01*
X122170492Y-101565000D01*
X122029508Y-101565000D01*
X121818691Y-101585764D01*
X121548192Y-101667818D01*
X121298899Y-101801068D01*
X121080392Y-101980392D01*
X120901068Y-102198899D01*
X120830000Y-102331858D01*
X120758932Y-102198899D01*
X120579608Y-101980392D01*
X120361101Y-101801068D01*
X120111808Y-101667818D01*
X119841309Y-101585764D01*
X119630492Y-101565000D01*
X119489508Y-101565000D01*
X119278691Y-101585764D01*
X119008192Y-101667818D01*
X118758899Y-101801068D01*
X118540392Y-101980392D01*
X118361068Y-102198899D01*
X118290000Y-102331858D01*
X118218932Y-102198899D01*
X118039608Y-101980392D01*
X117821101Y-101801068D01*
X117571808Y-101667818D01*
X117301309Y-101585764D01*
X117090492Y-101565000D01*
X116949508Y-101565000D01*
X116738691Y-101585764D01*
X116468192Y-101667818D01*
X116218899Y-101801068D01*
X116000392Y-101980392D01*
X115821068Y-102198899D01*
X115750000Y-102331858D01*
X115678932Y-102198899D01*
X115499608Y-101980392D01*
X115281101Y-101801068D01*
X115031808Y-101667818D01*
X114761309Y-101585764D01*
X114550492Y-101565000D01*
X114409508Y-101565000D01*
X114198691Y-101585764D01*
X113928192Y-101667818D01*
X113678899Y-101801068D01*
X113460392Y-101980392D01*
X113281068Y-102198899D01*
X113210000Y-102331858D01*
X113138932Y-102198899D01*
X112959608Y-101980392D01*
X112741101Y-101801068D01*
X112491808Y-101667818D01*
X112221309Y-101585764D01*
X112010492Y-101565000D01*
X111869508Y-101565000D01*
X111658691Y-101585764D01*
X111388192Y-101667818D01*
X111138899Y-101801068D01*
X110920392Y-101980392D01*
X110741068Y-102198899D01*
X110607818Y-102448192D01*
X110525764Y-102718691D01*
X110498057Y-103000000D01*
X110525764Y-103281309D01*
X110607818Y-103551808D01*
X110741068Y-103801101D01*
X110920392Y-104019608D01*
X111138899Y-104198932D01*
X111180001Y-104220901D01*
X111180001Y-104282668D01*
X111176324Y-104320000D01*
X111180001Y-104357333D01*
X111190998Y-104468986D01*
X111193531Y-104477335D01*
X111234454Y-104612246D01*
X111305026Y-104744276D01*
X111376201Y-104831002D01*
X111400000Y-104860001D01*
X111428998Y-104883799D01*
X123134200Y-116589002D01*
X123157999Y-116618001D01*
X123186997Y-116641799D01*
X123273723Y-116712974D01*
X123369350Y-116764088D01*
X123405753Y-116783546D01*
X123549014Y-116827003D01*
X123660667Y-116838000D01*
X123660676Y-116838000D01*
X123697999Y-116841676D01*
X123735322Y-116838000D01*
X124318354Y-116838000D01*
X124088192Y-116907818D01*
X123838899Y-117041068D01*
X123620392Y-117220392D01*
X123441068Y-117438899D01*
X123370000Y-117571858D01*
X123298932Y-117438899D01*
X123119608Y-117220392D01*
X122901101Y-117041068D01*
X122651808Y-116907818D01*
X122381309Y-116825764D01*
X122170492Y-116805000D01*
X122029508Y-116805000D01*
X121818691Y-116825764D01*
X121548192Y-116907818D01*
X121298899Y-117041068D01*
X121080392Y-117220392D01*
X120901068Y-117438899D01*
X120830000Y-117571858D01*
X120758932Y-117438899D01*
X120579608Y-117220392D01*
X120361101Y-117041068D01*
X120111808Y-116907818D01*
X119841309Y-116825764D01*
X119630492Y-116805000D01*
X119489508Y-116805000D01*
X119278691Y-116825764D01*
X119008192Y-116907818D01*
X118758899Y-117041068D01*
X118540392Y-117220392D01*
X118361068Y-117438899D01*
X118290000Y-117571858D01*
X118218932Y-117438899D01*
X118039608Y-117220392D01*
X117821101Y-117041068D01*
X117571808Y-116907818D01*
X117301309Y-116825764D01*
X117090492Y-116805000D01*
X116949508Y-116805000D01*
X116738691Y-116825764D01*
X116468192Y-116907818D01*
X116218899Y-117041068D01*
X116000392Y-117220392D01*
X115821068Y-117438899D01*
X115750000Y-117571858D01*
X115678932Y-117438899D01*
X115499608Y-117220392D01*
X115281101Y-117041068D01*
X115031808Y-116907818D01*
X114761309Y-116825764D01*
X114550492Y-116805000D01*
X114409508Y-116805000D01*
X114198691Y-116825764D01*
X113928192Y-116907818D01*
X113678899Y-117041068D01*
X113460392Y-117220392D01*
X113281068Y-117438899D01*
X113210000Y-117571858D01*
X113138932Y-117438899D01*
X112959608Y-117220392D01*
X112741101Y-117041068D01*
X112491808Y-116907818D01*
X112221309Y-116825764D01*
X112010492Y-116805000D01*
X111869508Y-116805000D01*
X111658691Y-116825764D01*
X111388192Y-116907818D01*
X111138899Y-117041068D01*
X110920392Y-117220392D01*
X110741068Y-117438899D01*
X110607818Y-117688192D01*
X110525764Y-117958691D01*
X110498057Y-118240000D01*
X110525764Y-118521309D01*
X110607818Y-118791808D01*
X110741068Y-119041101D01*
X110920392Y-119259608D01*
X111138899Y-119438932D01*
X111388192Y-119572182D01*
X111658691Y-119654236D01*
X111869508Y-119675000D01*
X112010492Y-119675000D01*
X112221309Y-119654236D01*
X112491808Y-119572182D01*
X112741101Y-119438932D01*
X112959608Y-119259608D01*
X113138932Y-119041101D01*
X113210000Y-118908142D01*
X113281068Y-119041101D01*
X113460392Y-119259608D01*
X113678899Y-119438932D01*
X113928192Y-119572182D01*
X114198691Y-119654236D01*
X114409508Y-119675000D01*
X114550492Y-119675000D01*
X114761309Y-119654236D01*
X115031808Y-119572182D01*
X115281101Y-119438932D01*
X115499608Y-119259608D01*
X115678932Y-119041101D01*
X115750000Y-118908142D01*
X115821068Y-119041101D01*
X116000392Y-119259608D01*
X116218899Y-119438932D01*
X116468192Y-119572182D01*
X116738691Y-119654236D01*
X116949508Y-119675000D01*
X117090492Y-119675000D01*
X117301309Y-119654236D01*
X117571808Y-119572182D01*
X117821101Y-119438932D01*
X118039608Y-119259608D01*
X118218932Y-119041101D01*
X118290000Y-118908142D01*
X118361068Y-119041101D01*
X118540392Y-119259608D01*
X118758899Y-119438932D01*
X119008192Y-119572182D01*
X119278691Y-119654236D01*
X119489508Y-119675000D01*
X119630492Y-119675000D01*
X119841309Y-119654236D01*
X120111808Y-119572182D01*
X120361101Y-119438932D01*
X120579608Y-119259608D01*
X120758932Y-119041101D01*
X120830000Y-118908142D01*
X120901068Y-119041101D01*
X121080392Y-119259608D01*
X121298899Y-119438932D01*
X121340000Y-119460901D01*
X121340001Y-120202887D01*
X121118900Y-120321068D01*
X120900393Y-120500392D01*
X120721068Y-120718899D01*
X120650000Y-120851858D01*
X120578932Y-120718899D01*
X120399608Y-120500392D01*
X120181101Y-120321068D01*
X119931808Y-120187818D01*
X119661309Y-120105764D01*
X119380000Y-120078057D01*
X119098692Y-120105764D01*
X118828193Y-120187818D01*
X118578900Y-120321068D01*
X118360393Y-120500392D01*
X118181068Y-120718899D01*
X118110000Y-120851858D01*
X118038932Y-120718899D01*
X117859608Y-120500392D01*
X117641101Y-120321068D01*
X117391808Y-120187818D01*
X117121309Y-120105764D01*
X116840000Y-120078057D01*
X116558692Y-120105764D01*
X116288193Y-120187818D01*
X116038900Y-120321068D01*
X115820393Y-120500392D01*
X115641068Y-120718899D01*
X115540256Y-120907506D01*
X114892762Y-121555000D01*
X110328967Y-121555000D01*
X110249807Y-121570746D01*
X110169484Y-121578657D01*
X110092249Y-121602086D01*
X110013088Y-121617832D01*
X109938521Y-121648719D01*
X109861285Y-121672148D01*
X109790102Y-121710196D01*
X109715537Y-121741082D01*
X109648431Y-121785921D01*
X109577248Y-121823969D01*
X109514854Y-121875174D01*
X109447748Y-121920013D01*
X109390681Y-121977080D01*
X109328286Y-122028286D01*
X109277080Y-122090681D01*
X109220013Y-122147748D01*
X109175174Y-122214854D01*
X109123969Y-122277248D01*
X109085921Y-122348431D01*
X109041082Y-122415537D01*
X109010196Y-122490102D01*
X108972148Y-122561285D01*
X108948719Y-122638521D01*
X108917832Y-122713088D01*
X108902086Y-122792249D01*
X108878657Y-122869484D01*
X108870746Y-122949807D01*
X108855000Y-123028967D01*
X108855000Y-123109678D01*
X108847089Y-123190000D01*
X108855000Y-123270322D01*
X108855000Y-123351033D01*
X108870746Y-123430193D01*
X108878657Y-123510516D01*
X108902086Y-123587751D01*
X108917832Y-123666912D01*
X108948719Y-123741479D01*
X108972148Y-123818715D01*
X109010196Y-123889898D01*
X109041082Y-123964463D01*
X109085921Y-124031569D01*
X109123969Y-124102752D01*
X109175174Y-124165146D01*
X109220013Y-124232252D01*
X109277080Y-124289319D01*
X109328286Y-124351714D01*
X109390681Y-124402920D01*
X109442753Y-124454992D01*
X109317656Y-124557656D01*
X109288376Y-124593334D01*
X106051336Y-127830375D01*
X106015657Y-127859656D01*
X105898815Y-128002028D01*
X105880924Y-128035500D01*
X105811994Y-128164460D01*
X105758529Y-128340709D01*
X105740476Y-128524000D01*
X105745001Y-128569942D01*
X105745000Y-142194068D01*
X105740476Y-142240000D01*
X105750095Y-142337657D01*
X105758529Y-142423291D01*
X105811993Y-142599539D01*
X105878934Y-142724777D01*
X105451728Y-142691906D01*
X105005035Y-142745170D01*
X104577195Y-142884184D01*
X104184505Y-143103651D01*
X103841922Y-143395212D01*
X103562494Y-143747763D01*
X103356865Y-144147873D01*
X103232868Y-144580303D01*
X103195225Y-145028583D01*
X103245370Y-145475636D01*
X103381393Y-145904436D01*
X103598113Y-146298649D01*
X103887276Y-146643260D01*
X104237867Y-146925142D01*
X104636532Y-147133559D01*
X105068086Y-147260572D01*
X105516092Y-147301344D01*
X105963485Y-147254321D01*
X106393223Y-147121295D01*
X106788940Y-146907332D01*
X107135561Y-146620582D01*
X107419883Y-146271968D01*
X107631079Y-145874767D01*
X107761102Y-145444110D01*
X107805000Y-144996400D01*
X107804101Y-144932041D01*
X107768581Y-144650870D01*
X110177374Y-147059664D01*
X110206656Y-147095344D01*
X110349028Y-147212186D01*
X110511460Y-147299007D01*
X110595157Y-147324396D01*
X110687707Y-147352471D01*
X110870999Y-147370524D01*
X110916931Y-147366000D01*
X115397068Y-147366000D01*
X115443000Y-147370524D01*
X115488932Y-147366000D01*
X115626292Y-147352471D01*
X115802540Y-147299007D01*
X115964972Y-147212186D01*
X116107344Y-147095344D01*
X116136630Y-147059659D01*
X117019290Y-146177000D01*
X117183000Y-146177000D01*
X117183000Y-146445335D01*
X117238147Y-146722574D01*
X117346320Y-146983727D01*
X117503363Y-147218759D01*
X117703241Y-147418637D01*
X117938273Y-147575680D01*
X118199426Y-147683853D01*
X118476665Y-147739000D01*
X118759335Y-147739000D01*
X119036574Y-147683853D01*
X119297727Y-147575680D01*
X119532759Y-147418637D01*
X119732637Y-147218759D01*
X119889680Y-146983727D01*
X119891650Y-146978971D01*
X119959068Y-147105101D01*
X120138392Y-147323608D01*
X120356899Y-147502932D01*
X120606192Y-147636182D01*
X120876691Y-147718236D01*
X121087508Y-147739000D01*
X121228492Y-147739000D01*
X121439309Y-147718236D01*
X121709808Y-147636182D01*
X121959101Y-147502932D01*
X122177608Y-147323608D01*
X122247044Y-147239000D01*
X128986068Y-147239000D01*
X129032000Y-147243524D01*
X129077932Y-147239000D01*
X129215292Y-147225471D01*
X129391540Y-147172007D01*
X129553972Y-147085186D01*
X129696344Y-146968344D01*
X129725630Y-146932659D01*
X130481289Y-146177000D01*
X130645000Y-146177000D01*
X130645000Y-146445335D01*
X130700147Y-146722574D01*
X130808320Y-146983727D01*
X130965363Y-147218759D01*
X131165241Y-147418637D01*
X131400273Y-147575680D01*
X131661426Y-147683853D01*
X131938665Y-147739000D01*
X132221335Y-147739000D01*
X132498574Y-147683853D01*
X132759727Y-147575680D01*
X132994759Y-147418637D01*
X133194637Y-147218759D01*
X133351680Y-146983727D01*
X133353650Y-146978971D01*
X133421068Y-147105101D01*
X133600392Y-147323608D01*
X133818899Y-147502932D01*
X134068192Y-147636182D01*
X134338691Y-147718236D01*
X134549508Y-147739000D01*
X134690492Y-147739000D01*
X134901309Y-147718236D01*
X135171808Y-147636182D01*
X135421101Y-147502932D01*
X135639608Y-147323608D01*
X135818932Y-147105101D01*
X135952182Y-146855808D01*
X136034236Y-146585309D01*
X136061943Y-146304000D01*
X136049434Y-146177000D01*
X140028711Y-146177000D01*
X139611975Y-146593736D01*
X139611972Y-146593738D01*
X139481738Y-146723972D01*
X139456089Y-146762358D01*
X139426815Y-146798029D01*
X139405062Y-146838726D01*
X139379414Y-146877111D01*
X139361748Y-146919762D01*
X139339994Y-146960460D01*
X139326597Y-147004623D01*
X139308932Y-147047271D01*
X139299927Y-147092543D01*
X139286529Y-147136709D01*
X139282005Y-147182640D01*
X139273000Y-147227911D01*
X139273000Y-147274068D01*
X139268476Y-147320000D01*
X139273000Y-147365932D01*
X139273000Y-147412089D01*
X139282005Y-147457360D01*
X139286529Y-147503291D01*
X139299927Y-147547457D01*
X139308932Y-147592729D01*
X139326597Y-147635377D01*
X139339994Y-147679540D01*
X139361748Y-147720238D01*
X139379414Y-147762889D01*
X139405062Y-147801274D01*
X139426815Y-147841971D01*
X139456089Y-147877641D01*
X139481738Y-147916028D01*
X139514385Y-147948675D01*
X139543657Y-147984343D01*
X139579325Y-148013615D01*
X139611972Y-148046262D01*
X139650359Y-148071911D01*
X139686029Y-148101185D01*
X139726726Y-148122938D01*
X139765111Y-148148586D01*
X139807762Y-148166252D01*
X139848460Y-148188006D01*
X139892623Y-148201403D01*
X139935271Y-148219068D01*
X139980543Y-148228073D01*
X140024709Y-148241471D01*
X140070640Y-148245995D01*
X140115911Y-148255000D01*
X140162068Y-148255000D01*
X140208000Y-148259524D01*
X140253932Y-148255000D01*
X140300089Y-148255000D01*
X140345360Y-148245995D01*
X140391291Y-148241471D01*
X140435457Y-148228073D01*
X140480729Y-148219068D01*
X140523377Y-148201403D01*
X140567540Y-148188006D01*
X140608238Y-148166252D01*
X140650889Y-148148586D01*
X140689274Y-148122938D01*
X140729971Y-148101185D01*
X140765642Y-148071911D01*
X140804028Y-148046262D01*
X140934262Y-147916028D01*
X140934264Y-147916025D01*
X141865290Y-146985000D01*
X142320984Y-146985000D01*
X142320984Y-147020068D01*
X142316460Y-147066000D01*
X142320984Y-147111932D01*
X142320984Y-147158089D01*
X142329989Y-147203360D01*
X142334513Y-147249291D01*
X142347911Y-147293457D01*
X142356916Y-147338729D01*
X142374581Y-147381377D01*
X142387978Y-147425540D01*
X142409732Y-147466238D01*
X142427398Y-147508889D01*
X142453046Y-147547274D01*
X142474799Y-147587971D01*
X142504073Y-147623642D01*
X142529722Y-147662028D01*
X142659956Y-147792262D01*
X142659960Y-147792265D01*
X142862356Y-147994660D01*
X142862360Y-147994665D01*
X143179095Y-148311400D01*
X106530505Y-148311400D01*
X105736363Y-148240525D01*
X104996860Y-148038220D01*
X104304872Y-147708158D01*
X103682267Y-147260771D01*
X103148734Y-146710208D01*
X102721124Y-146073856D01*
X102412958Y-145371837D01*
X102232718Y-144621081D01*
X102185000Y-143971288D01*
X102185000Y-95016967D01*
X112157000Y-95016967D01*
X112157000Y-95339033D01*
X112219832Y-95654912D01*
X112343082Y-95952463D01*
X112522013Y-96220252D01*
X112749748Y-96447987D01*
X113017537Y-96626918D01*
X113315088Y-96750168D01*
X113630967Y-96813000D01*
X113953033Y-96813000D01*
X114268912Y-96750168D01*
X114566463Y-96626918D01*
X114834252Y-96447987D01*
X115061987Y-96220252D01*
X115240918Y-95952463D01*
X115364168Y-95654912D01*
X115427000Y-95339033D01*
X115427000Y-95016967D01*
X118657000Y-95016967D01*
X118657000Y-95339033D01*
X118719832Y-95654912D01*
X118843082Y-95952463D01*
X119022013Y-96220252D01*
X119249748Y-96447987D01*
X119517537Y-96626918D01*
X119815088Y-96750168D01*
X120130967Y-96813000D01*
X120453033Y-96813000D01*
X120768912Y-96750168D01*
X121066463Y-96626918D01*
X121334252Y-96447987D01*
X121561987Y-96220252D01*
X121740918Y-95952463D01*
X121864168Y-95654912D01*
X121927000Y-95339033D01*
X121927000Y-95016967D01*
X121864168Y-94701088D01*
X121740918Y-94403537D01*
X121561987Y-94135748D01*
X121334252Y-93908013D01*
X121066463Y-93729082D01*
X120768912Y-93605832D01*
X120453033Y-93543000D01*
X120130967Y-93543000D01*
X119815088Y-93605832D01*
X119517537Y-93729082D01*
X119249748Y-93908013D01*
X119022013Y-94135748D01*
X118843082Y-94403537D01*
X118719832Y-94701088D01*
X118657000Y-95016967D01*
X115427000Y-95016967D01*
X115364168Y-94701088D01*
X115240918Y-94403537D01*
X115061987Y-94135748D01*
X114834252Y-93908013D01*
X114566463Y-93729082D01*
X114268912Y-93605832D01*
X113953033Y-93543000D01*
X113630967Y-93543000D01*
X113315088Y-93605832D01*
X113017537Y-93729082D01*
X112749748Y-93908013D01*
X112522013Y-94135748D01*
X112343082Y-94403537D01*
X112219832Y-94701088D01*
X112157000Y-95016967D01*
X102185000Y-95016967D01*
X102185000Y-91813413D01*
X112836192Y-91813413D01*
X112931956Y-92077814D01*
X113221571Y-92218704D01*
X113533108Y-92300384D01*
X113854595Y-92319718D01*
X114173675Y-92275961D01*
X114478088Y-92170795D01*
X114652044Y-92077814D01*
X114747808Y-91813413D01*
X119336192Y-91813413D01*
X119431956Y-92077814D01*
X119721571Y-92218704D01*
X120033108Y-92300384D01*
X120354595Y-92319718D01*
X120673675Y-92275961D01*
X120978088Y-92170795D01*
X121152044Y-92077814D01*
X121247808Y-91813413D01*
X129854192Y-91813413D01*
X129949956Y-92077814D01*
X130239571Y-92218704D01*
X130551108Y-92300384D01*
X130872595Y-92319718D01*
X131191675Y-92275961D01*
X131496088Y-92170795D01*
X131670044Y-92077814D01*
X131765808Y-91813413D01*
X136354192Y-91813413D01*
X136449956Y-92077814D01*
X136739571Y-92218704D01*
X137051108Y-92300384D01*
X137372595Y-92319718D01*
X137691675Y-92275961D01*
X137996088Y-92170795D01*
X138170044Y-92077814D01*
X138265808Y-91813413D01*
X137310000Y-90857605D01*
X136354192Y-91813413D01*
X131765808Y-91813413D01*
X130810000Y-90857605D01*
X129854192Y-91813413D01*
X121247808Y-91813413D01*
X120292000Y-90857605D01*
X119336192Y-91813413D01*
X114747808Y-91813413D01*
X113792000Y-90857605D01*
X112836192Y-91813413D01*
X102185000Y-91813413D01*
X102185000Y-90740595D01*
X112150282Y-90740595D01*
X112194039Y-91059675D01*
X112299205Y-91364088D01*
X112392186Y-91538044D01*
X112656587Y-91633808D01*
X113612395Y-90678000D01*
X113971605Y-90678000D01*
X114927413Y-91633808D01*
X115191814Y-91538044D01*
X115332704Y-91248429D01*
X115414384Y-90936892D01*
X115426189Y-90740595D01*
X118650282Y-90740595D01*
X118694039Y-91059675D01*
X118799205Y-91364088D01*
X118892186Y-91538044D01*
X119156587Y-91633808D01*
X120112395Y-90678000D01*
X120471605Y-90678000D01*
X121427413Y-91633808D01*
X121691814Y-91538044D01*
X121832704Y-91248429D01*
X121914384Y-90936892D01*
X121926189Y-90740595D01*
X129168282Y-90740595D01*
X129212039Y-91059675D01*
X129317205Y-91364088D01*
X129410186Y-91538044D01*
X129674587Y-91633808D01*
X130630395Y-90678000D01*
X130989605Y-90678000D01*
X131945413Y-91633808D01*
X132209814Y-91538044D01*
X132350704Y-91248429D01*
X132432384Y-90936892D01*
X132444189Y-90740595D01*
X135668282Y-90740595D01*
X135712039Y-91059675D01*
X135817205Y-91364088D01*
X135910186Y-91538044D01*
X136174587Y-91633808D01*
X137130395Y-90678000D01*
X137489605Y-90678000D01*
X138445413Y-91633808D01*
X138709814Y-91538044D01*
X138850704Y-91248429D01*
X138932384Y-90936892D01*
X138951718Y-90615405D01*
X138907961Y-90296325D01*
X138802795Y-89991912D01*
X138709814Y-89817956D01*
X138445413Y-89722192D01*
X137489605Y-90678000D01*
X137130395Y-90678000D01*
X136174587Y-89722192D01*
X135910186Y-89817956D01*
X135769296Y-90107571D01*
X135687616Y-90419108D01*
X135668282Y-90740595D01*
X132444189Y-90740595D01*
X132451718Y-90615405D01*
X132407961Y-90296325D01*
X132302795Y-89991912D01*
X132209814Y-89817956D01*
X131945413Y-89722192D01*
X130989605Y-90678000D01*
X130630395Y-90678000D01*
X129674587Y-89722192D01*
X129410186Y-89817956D01*
X129269296Y-90107571D01*
X129187616Y-90419108D01*
X129168282Y-90740595D01*
X121926189Y-90740595D01*
X121933718Y-90615405D01*
X121889961Y-90296325D01*
X121784795Y-89991912D01*
X121691814Y-89817956D01*
X121427413Y-89722192D01*
X120471605Y-90678000D01*
X120112395Y-90678000D01*
X119156587Y-89722192D01*
X118892186Y-89817956D01*
X118751296Y-90107571D01*
X118669616Y-90419108D01*
X118650282Y-90740595D01*
X115426189Y-90740595D01*
X115433718Y-90615405D01*
X115389961Y-90296325D01*
X115284795Y-89991912D01*
X115191814Y-89817956D01*
X114927413Y-89722192D01*
X113971605Y-90678000D01*
X113612395Y-90678000D01*
X112656587Y-89722192D01*
X112392186Y-89817956D01*
X112251296Y-90107571D01*
X112169616Y-90419108D01*
X112150282Y-90740595D01*
X102185000Y-90740595D01*
X102185000Y-89026906D01*
X102255875Y-88232763D01*
X102311732Y-88028582D01*
X103195225Y-88028582D01*
X103245370Y-88475635D01*
X103381393Y-88904435D01*
X103598113Y-89298648D01*
X103887276Y-89643259D01*
X104237867Y-89925141D01*
X104636532Y-90133558D01*
X105068086Y-90260571D01*
X105516092Y-90301343D01*
X105963485Y-90254320D01*
X106393223Y-90121294D01*
X106788940Y-89907331D01*
X107135561Y-89620581D01*
X107199171Y-89542587D01*
X112836192Y-89542587D01*
X113792000Y-90498395D01*
X114747808Y-89542587D01*
X119336192Y-89542587D01*
X120292000Y-90498395D01*
X121247808Y-89542587D01*
X129854192Y-89542587D01*
X130810000Y-90498395D01*
X131765808Y-89542587D01*
X136354192Y-89542587D01*
X137310000Y-90498395D01*
X138265808Y-89542587D01*
X138170044Y-89278186D01*
X137880429Y-89137296D01*
X137568892Y-89055616D01*
X137247405Y-89036282D01*
X136928325Y-89080039D01*
X136623912Y-89185205D01*
X136449956Y-89278186D01*
X136354192Y-89542587D01*
X131765808Y-89542587D01*
X131670044Y-89278186D01*
X131380429Y-89137296D01*
X131068892Y-89055616D01*
X130747405Y-89036282D01*
X130428325Y-89080039D01*
X130123912Y-89185205D01*
X129949956Y-89278186D01*
X129854192Y-89542587D01*
X121247808Y-89542587D01*
X121152044Y-89278186D01*
X120862429Y-89137296D01*
X120550892Y-89055616D01*
X120229405Y-89036282D01*
X119910325Y-89080039D01*
X119605912Y-89185205D01*
X119431956Y-89278186D01*
X119336192Y-89542587D01*
X114747808Y-89542587D01*
X114652044Y-89278186D01*
X114362429Y-89137296D01*
X114050892Y-89055616D01*
X113729405Y-89036282D01*
X113410325Y-89080039D01*
X113105912Y-89185205D01*
X112931956Y-89278186D01*
X112836192Y-89542587D01*
X107199171Y-89542587D01*
X107419883Y-89271967D01*
X107631079Y-88874766D01*
X107737250Y-88523110D01*
X146058524Y-88523110D01*
X146179845Y-88753000D01*
X147373000Y-88753000D01*
X147373000Y-87559186D01*
X147627000Y-87559186D01*
X147627000Y-88753000D01*
X148820155Y-88753000D01*
X148941476Y-88523110D01*
X177058524Y-88523110D01*
X177179845Y-88753000D01*
X178373000Y-88753000D01*
X178373000Y-87559186D01*
X178627000Y-87559186D01*
X178627000Y-88753000D01*
X179820155Y-88753000D01*
X179941476Y-88523110D01*
X179896825Y-88375901D01*
X179771641Y-88113080D01*
X179708615Y-88028582D01*
X185195226Y-88028582D01*
X185245371Y-88475635D01*
X185381394Y-88904435D01*
X185598114Y-89298648D01*
X185887277Y-89643259D01*
X186237868Y-89925141D01*
X186636533Y-90133558D01*
X187068087Y-90260571D01*
X187516093Y-90301343D01*
X187963486Y-90254320D01*
X188393224Y-90121294D01*
X188788941Y-89907331D01*
X189135562Y-89620581D01*
X189419884Y-89271967D01*
X189631080Y-88874766D01*
X189761103Y-88444109D01*
X189805001Y-87996399D01*
X189804102Y-87932040D01*
X189747720Y-87485730D01*
X189605723Y-87058871D01*
X189383520Y-86667723D01*
X189089574Y-86327183D01*
X188735082Y-86050223D01*
X188333546Y-85847393D01*
X187900260Y-85726417D01*
X187451729Y-85691905D01*
X187005036Y-85745169D01*
X186577196Y-85884183D01*
X186184506Y-86103650D01*
X185841923Y-86395211D01*
X185562495Y-86747762D01*
X185356866Y-87147872D01*
X185232869Y-87580302D01*
X185195226Y-88028582D01*
X179708615Y-88028582D01*
X179597588Y-87879731D01*
X179381355Y-87684822D01*
X179131252Y-87535843D01*
X178856891Y-87438519D01*
X178627000Y-87559186D01*
X178373000Y-87559186D01*
X178143109Y-87438519D01*
X177868748Y-87535843D01*
X177618645Y-87684822D01*
X177402412Y-87879731D01*
X177228359Y-88113080D01*
X177103175Y-88375901D01*
X177058524Y-88523110D01*
X148941476Y-88523110D01*
X148896825Y-88375901D01*
X148771641Y-88113080D01*
X148597588Y-87879731D01*
X148381355Y-87684822D01*
X148131252Y-87535843D01*
X147856891Y-87438519D01*
X147627000Y-87559186D01*
X147373000Y-87559186D01*
X147143109Y-87438519D01*
X146868748Y-87535843D01*
X146618645Y-87684822D01*
X146402412Y-87879731D01*
X146228359Y-88113080D01*
X146103175Y-88375901D01*
X146058524Y-88523110D01*
X107737250Y-88523110D01*
X107761102Y-88444109D01*
X107805000Y-87996399D01*
X107804101Y-87932040D01*
X107747719Y-87485730D01*
X107605722Y-87058871D01*
X107383519Y-86667723D01*
X107089573Y-86327183D01*
X106735081Y-86050223D01*
X106333545Y-85847393D01*
X105900259Y-85726417D01*
X105451728Y-85691905D01*
X105005035Y-85745169D01*
X104577195Y-85884183D01*
X104184505Y-86103650D01*
X103841922Y-86395211D01*
X103562494Y-86747762D01*
X103356865Y-87147872D01*
X103232868Y-87580302D01*
X103195225Y-88028582D01*
X102311732Y-88028582D01*
X102458180Y-87493260D01*
X102788242Y-86801272D01*
X103235629Y-86178667D01*
X103786195Y-85645132D01*
X104422544Y-85217524D01*
X105124561Y-84909359D01*
X105875320Y-84729117D01*
X106525112Y-84681400D01*
X186469494Y-84681400D01*
X187263637Y-84752275D01*
G36*
X136839472Y-125229727D02*
G01*
X126529538Y-125224021D01*
X126492000Y-125220324D01*
X126418602Y-125227553D01*
X126343429Y-125234915D01*
X126343223Y-125234977D01*
X126343014Y-125234998D01*
X126271377Y-125256728D01*
X126200144Y-125278293D01*
X126199960Y-125278391D01*
X126199753Y-125278454D01*
X126132214Y-125314555D01*
X126068076Y-125348792D01*
X126067917Y-125348922D01*
X126067723Y-125349026D01*
X126008709Y-125397458D01*
X125952298Y-125443701D01*
X125928353Y-125472845D01*
X123948998Y-127452201D01*
X123920000Y-127475999D01*
X123896202Y-127504997D01*
X123896201Y-127504998D01*
X123825026Y-127591724D01*
X123754454Y-127723754D01*
X123728801Y-127808325D01*
X123717457Y-127845723D01*
X123710998Y-127867015D01*
X123706194Y-127915789D01*
X123658900Y-127941068D01*
X123440393Y-128120392D01*
X123261068Y-128338899D01*
X123190000Y-128471858D01*
X123118932Y-128338899D01*
X122939608Y-128120392D01*
X122721101Y-127941068D01*
X122471808Y-127807818D01*
X122201309Y-127725764D01*
X121920000Y-127698057D01*
X121638692Y-127725764D01*
X121368193Y-127807818D01*
X121118900Y-127941068D01*
X120900393Y-128120392D01*
X120721068Y-128338899D01*
X120650000Y-128471858D01*
X120578932Y-128338899D01*
X120399608Y-128120392D01*
X120181101Y-127941068D01*
X119931808Y-127807818D01*
X119661309Y-127725764D01*
X119380000Y-127698057D01*
X119098692Y-127725764D01*
X118828193Y-127807818D01*
X118578900Y-127941068D01*
X118360393Y-128120392D01*
X118181068Y-128338899D01*
X118112735Y-128466741D01*
X117962601Y-128237161D01*
X117764895Y-128035500D01*
X117531646Y-127876285D01*
X117271818Y-127765633D01*
X117189039Y-127748096D01*
X116967000Y-127870085D01*
X116967000Y-129413000D01*
X116987000Y-129413000D01*
X116987000Y-129667000D01*
X116967000Y-129667000D01*
X116967000Y-131209915D01*
X117189039Y-131331904D01*
X117271818Y-131314367D01*
X117531646Y-131203715D01*
X117764895Y-131044500D01*
X117962601Y-130842839D01*
X118112735Y-130613258D01*
X118181068Y-130741100D01*
X118360392Y-130959607D01*
X118578899Y-131138932D01*
X118828192Y-131272182D01*
X119098691Y-131354236D01*
X119380000Y-131381943D01*
X119661308Y-131354236D01*
X119931807Y-131272182D01*
X120181100Y-131138932D01*
X120399607Y-130959608D01*
X120578932Y-130741101D01*
X120650000Y-130608142D01*
X120721068Y-130741100D01*
X120900392Y-130959607D01*
X121118899Y-131138932D01*
X121160001Y-131160901D01*
X121160001Y-131280668D01*
X121156324Y-131318000D01*
X121170998Y-131466985D01*
X121214454Y-131610246D01*
X121285026Y-131742276D01*
X121353737Y-131826000D01*
X121380000Y-131858001D01*
X121408998Y-131881799D01*
X122625197Y-133098000D01*
X116369322Y-133098000D01*
X116331999Y-133094324D01*
X116294676Y-133098000D01*
X116294667Y-133098000D01*
X116183014Y-133108997D01*
X116039753Y-133152454D01*
X115907773Y-133223000D01*
X113030000Y-133223000D01*
X112998481Y-133226973D01*
X112975085Y-133235486D01*
X112953800Y-133248400D01*
X111897192Y-134040856D01*
X111862273Y-134055320D01*
X111627241Y-134212363D01*
X111503416Y-134336188D01*
X110429000Y-135142000D01*
X110400665Y-135142000D01*
X110123426Y-135197147D01*
X109862273Y-135305320D01*
X109627241Y-135462363D01*
X109427363Y-135662241D01*
X109270320Y-135897273D01*
X109201977Y-136062267D01*
X107873800Y-137058400D01*
X107860197Y-137070197D01*
X107844403Y-137089443D01*
X107832667Y-137111399D01*
X107825440Y-137135224D01*
X107823000Y-137160000D01*
X107823000Y-142060711D01*
X107615000Y-141852711D01*
X107615000Y-129325413D01*
X109534192Y-129325413D01*
X109629956Y-129589814D01*
X109919571Y-129730704D01*
X110231108Y-129812384D01*
X110552595Y-129831718D01*
X110871675Y-129787961D01*
X111176088Y-129682795D01*
X111205638Y-129667000D01*
X115405000Y-129667000D01*
X115405000Y-130067000D01*
X115457350Y-130344514D01*
X115562834Y-130606483D01*
X115717399Y-130842839D01*
X115915105Y-131044500D01*
X116148354Y-131203715D01*
X116408182Y-131314367D01*
X116490961Y-131331904D01*
X116713000Y-131209915D01*
X116713000Y-129667000D01*
X115405000Y-129667000D01*
X111205638Y-129667000D01*
X111350044Y-129589814D01*
X111445808Y-129325413D01*
X110490000Y-128369605D01*
X109534192Y-129325413D01*
X107615000Y-129325413D01*
X107615000Y-128911289D01*
X108989630Y-127536659D01*
X108949296Y-127619571D01*
X108867616Y-127931108D01*
X108848282Y-128252595D01*
X108892039Y-128571675D01*
X108997205Y-128876088D01*
X109090186Y-129050044D01*
X109354587Y-129145808D01*
X110310395Y-128190000D01*
X110669605Y-128190000D01*
X111625413Y-129145808D01*
X111889814Y-129050044D01*
X111907834Y-129013000D01*
X115405000Y-129013000D01*
X115405000Y-129413000D01*
X116713000Y-129413000D01*
X116713000Y-127870085D01*
X116490961Y-127748096D01*
X116408182Y-127765633D01*
X116148354Y-127876285D01*
X115915105Y-128035500D01*
X115717399Y-128237161D01*
X115562834Y-128473517D01*
X115457350Y-128735486D01*
X115405000Y-129013000D01*
X111907834Y-129013000D01*
X112030704Y-128760429D01*
X112112384Y-128448892D01*
X112131718Y-128127405D01*
X112087961Y-127808325D01*
X111982795Y-127503912D01*
X111889814Y-127329956D01*
X111625413Y-127234192D01*
X110669605Y-128190000D01*
X110310395Y-128190000D01*
X110296253Y-128175858D01*
X110475858Y-127996253D01*
X110490000Y-128010395D01*
X111445808Y-127054587D01*
X111350044Y-126790186D01*
X111060429Y-126649296D01*
X110748892Y-126567616D01*
X110427405Y-126548282D01*
X110108325Y-126592039D01*
X109842371Y-126683918D01*
X110369290Y-126157000D01*
X118064068Y-126157000D01*
X118110000Y-126161524D01*
X118155932Y-126157000D01*
X118293292Y-126143471D01*
X118469540Y-126090007D01*
X118631972Y-126003186D01*
X118774344Y-125886344D01*
X118803630Y-125850659D01*
X119767290Y-124887000D01*
X137182199Y-124887000D01*
X136839472Y-125229727D01*
X136839472Y-125229727D01*
G37*
X136839472Y-125229727D02*
X126529538Y-125224021D01*
X126492000Y-125220324D01*
X126418602Y-125227553D01*
X126343429Y-125234915D01*
X126343223Y-125234977D01*
X126343014Y-125234998D01*
X126271377Y-125256728D01*
X126200144Y-125278293D01*
X126199960Y-125278391D01*
X126199753Y-125278454D01*
X126132214Y-125314555D01*
X126068076Y-125348792D01*
X126067917Y-125348922D01*
X126067723Y-125349026D01*
X126008709Y-125397458D01*
X125952298Y-125443701D01*
X125928353Y-125472845D01*
X123948998Y-127452201D01*
X123920000Y-127475999D01*
X123896202Y-127504997D01*
X123896201Y-127504998D01*
X123825026Y-127591724D01*
X123754454Y-127723754D01*
X123728801Y-127808325D01*
X123717457Y-127845723D01*
X123710998Y-127867015D01*
X123706194Y-127915789D01*
X123658900Y-127941068D01*
X123440393Y-128120392D01*
X123261068Y-128338899D01*
X123190000Y-128471858D01*
X123118932Y-128338899D01*
X122939608Y-128120392D01*
X122721101Y-127941068D01*
X122471808Y-127807818D01*
X122201309Y-127725764D01*
X121920000Y-127698057D01*
X121638692Y-127725764D01*
X121368193Y-127807818D01*
X121118900Y-127941068D01*
X120900393Y-128120392D01*
X120721068Y-128338899D01*
X120650000Y-128471858D01*
X120578932Y-128338899D01*
X120399608Y-128120392D01*
X120181101Y-127941068D01*
X119931808Y-127807818D01*
X119661309Y-127725764D01*
X119380000Y-127698057D01*
X119098692Y-127725764D01*
X118828193Y-127807818D01*
X118578900Y-127941068D01*
X118360393Y-128120392D01*
X118181068Y-128338899D01*
X118112735Y-128466741D01*
X117962601Y-128237161D01*
X117764895Y-128035500D01*
X117531646Y-127876285D01*
X117271818Y-127765633D01*
X117189039Y-127748096D01*
X116967000Y-127870085D01*
X116967000Y-129413000D01*
X116987000Y-129413000D01*
X116987000Y-129667000D01*
X116967000Y-129667000D01*
X116967000Y-131209915D01*
X117189039Y-131331904D01*
X117271818Y-131314367D01*
X117531646Y-131203715D01*
X117764895Y-131044500D01*
X117962601Y-130842839D01*
X118112735Y-130613258D01*
X118181068Y-130741100D01*
X118360392Y-130959607D01*
X118578899Y-131138932D01*
X118828192Y-131272182D01*
X119098691Y-131354236D01*
X119380000Y-131381943D01*
X119661308Y-131354236D01*
X119931807Y-131272182D01*
X120181100Y-131138932D01*
X120399607Y-130959608D01*
X120578932Y-130741101D01*
X120650000Y-130608142D01*
X120721068Y-130741100D01*
X120900392Y-130959607D01*
X121118899Y-131138932D01*
X121160001Y-131160901D01*
X121160001Y-131280668D01*
X121156324Y-131318000D01*
X121170998Y-131466985D01*
X121214454Y-131610246D01*
X121285026Y-131742276D01*
X121353737Y-131826000D01*
X121380000Y-131858001D01*
X121408998Y-131881799D01*
X122625197Y-133098000D01*
X116369322Y-133098000D01*
X116331999Y-133094324D01*
X116294676Y-133098000D01*
X116294667Y-133098000D01*
X116183014Y-133108997D01*
X116039753Y-133152454D01*
X115907773Y-133223000D01*
X113030000Y-133223000D01*
X112998481Y-133226973D01*
X112975085Y-133235486D01*
X112953800Y-133248400D01*
X111897192Y-134040856D01*
X111862273Y-134055320D01*
X111627241Y-134212363D01*
X111503416Y-134336188D01*
X110429000Y-135142000D01*
X110400665Y-135142000D01*
X110123426Y-135197147D01*
X109862273Y-135305320D01*
X109627241Y-135462363D01*
X109427363Y-135662241D01*
X109270320Y-135897273D01*
X109201977Y-136062267D01*
X107873800Y-137058400D01*
X107860197Y-137070197D01*
X107844403Y-137089443D01*
X107832667Y-137111399D01*
X107825440Y-137135224D01*
X107823000Y-137160000D01*
X107823000Y-142060711D01*
X107615000Y-141852711D01*
X107615000Y-129325413D01*
X109534192Y-129325413D01*
X109629956Y-129589814D01*
X109919571Y-129730704D01*
X110231108Y-129812384D01*
X110552595Y-129831718D01*
X110871675Y-129787961D01*
X111176088Y-129682795D01*
X111205638Y-129667000D01*
X115405000Y-129667000D01*
X115405000Y-130067000D01*
X115457350Y-130344514D01*
X115562834Y-130606483D01*
X115717399Y-130842839D01*
X115915105Y-131044500D01*
X116148354Y-131203715D01*
X116408182Y-131314367D01*
X116490961Y-131331904D01*
X116713000Y-131209915D01*
X116713000Y-129667000D01*
X115405000Y-129667000D01*
X111205638Y-129667000D01*
X111350044Y-129589814D01*
X111445808Y-129325413D01*
X110490000Y-128369605D01*
X109534192Y-129325413D01*
X107615000Y-129325413D01*
X107615000Y-128911289D01*
X108989630Y-127536659D01*
X108949296Y-127619571D01*
X108867616Y-127931108D01*
X108848282Y-128252595D01*
X108892039Y-128571675D01*
X108997205Y-128876088D01*
X109090186Y-129050044D01*
X109354587Y-129145808D01*
X110310395Y-128190000D01*
X110669605Y-128190000D01*
X111625413Y-129145808D01*
X111889814Y-129050044D01*
X111907834Y-129013000D01*
X115405000Y-129013000D01*
X115405000Y-129413000D01*
X116713000Y-129413000D01*
X116713000Y-127870085D01*
X116490961Y-127748096D01*
X116408182Y-127765633D01*
X116148354Y-127876285D01*
X115915105Y-128035500D01*
X115717399Y-128237161D01*
X115562834Y-128473517D01*
X115457350Y-128735486D01*
X115405000Y-129013000D01*
X111907834Y-129013000D01*
X112030704Y-128760429D01*
X112112384Y-128448892D01*
X112131718Y-128127405D01*
X112087961Y-127808325D01*
X111982795Y-127503912D01*
X111889814Y-127329956D01*
X111625413Y-127234192D01*
X110669605Y-128190000D01*
X110310395Y-128190000D01*
X110296253Y-128175858D01*
X110475858Y-127996253D01*
X110490000Y-128010395D01*
X111445808Y-127054587D01*
X111350044Y-126790186D01*
X111060429Y-126649296D01*
X110748892Y-126567616D01*
X110427405Y-126548282D01*
X110108325Y-126592039D01*
X109842371Y-126683918D01*
X110369290Y-126157000D01*
X118064068Y-126157000D01*
X118110000Y-126161524D01*
X118155932Y-126157000D01*
X118293292Y-126143471D01*
X118469540Y-126090007D01*
X118631972Y-126003186D01*
X118774344Y-125886344D01*
X118803630Y-125850659D01*
X119767290Y-124887000D01*
X137182199Y-124887000D01*
X136839472Y-125229727D01*
G36*
X146306001Y-127060804D02*
G01*
X146306001Y-127919099D01*
X146264900Y-127941068D01*
X146046393Y-128120392D01*
X145867068Y-128338899D01*
X145796000Y-128471858D01*
X145724932Y-128338899D01*
X145545608Y-128120392D01*
X145327101Y-127941068D01*
X145077808Y-127807818D01*
X144807309Y-127725764D01*
X144526000Y-127698057D01*
X144244692Y-127725764D01*
X143974193Y-127807818D01*
X143724900Y-127941068D01*
X143506393Y-128120392D01*
X143327068Y-128338899D01*
X143258735Y-128466741D01*
X143108601Y-128237161D01*
X142910895Y-128035500D01*
X142677646Y-127876285D01*
X142417818Y-127765633D01*
X142335039Y-127748096D01*
X142113000Y-127870085D01*
X142113000Y-129413000D01*
X142133000Y-129413000D01*
X142133000Y-129667000D01*
X142113000Y-129667000D01*
X142113000Y-131209915D01*
X142335039Y-131331904D01*
X142417818Y-131314367D01*
X142677646Y-131203715D01*
X142910895Y-131044500D01*
X143108601Y-130842839D01*
X143258735Y-130613258D01*
X143327068Y-130741100D01*
X143506392Y-130959607D01*
X143724899Y-131138932D01*
X143766000Y-131160901D01*
X143766001Y-133223000D01*
X141663802Y-133223000D01*
X141222000Y-132781199D01*
X141222000Y-132117322D01*
X141225676Y-132079999D01*
X141222000Y-132042676D01*
X141222000Y-132042667D01*
X141211003Y-131931014D01*
X141167546Y-131787753D01*
X141096974Y-131655724D01*
X141002001Y-131539999D01*
X140973004Y-131516202D01*
X139952000Y-130495199D01*
X139952000Y-129667000D01*
X140551000Y-129667000D01*
X140551000Y-130067000D01*
X140603350Y-130344514D01*
X140708834Y-130606483D01*
X140863399Y-130842839D01*
X141061105Y-131044500D01*
X141294354Y-131203715D01*
X141554182Y-131314367D01*
X141636961Y-131331904D01*
X141859000Y-131209915D01*
X141859000Y-129667000D01*
X140551000Y-129667000D01*
X139952000Y-129667000D01*
X139952000Y-129013000D01*
X140551000Y-129013000D01*
X140551000Y-129413000D01*
X141859000Y-129413000D01*
X141859000Y-127870085D01*
X141636961Y-127748096D01*
X141554182Y-127765633D01*
X141294354Y-127876285D01*
X141061105Y-128035500D01*
X140863399Y-128237161D01*
X140708834Y-128473517D01*
X140603350Y-128735486D01*
X140551000Y-129013000D01*
X139952000Y-129013000D01*
X139952000Y-126044801D01*
X140014802Y-125982000D01*
X145227199Y-125982000D01*
X146306001Y-127060804D01*
X146306001Y-127060804D01*
G37*
X146306001Y-127060804D02*
X146306001Y-127919099D01*
X146264900Y-127941068D01*
X146046393Y-128120392D01*
X145867068Y-128338899D01*
X145796000Y-128471858D01*
X145724932Y-128338899D01*
X145545608Y-128120392D01*
X145327101Y-127941068D01*
X145077808Y-127807818D01*
X144807309Y-127725764D01*
X144526000Y-127698057D01*
X144244692Y-127725764D01*
X143974193Y-127807818D01*
X143724900Y-127941068D01*
X143506393Y-128120392D01*
X143327068Y-128338899D01*
X143258735Y-128466741D01*
X143108601Y-128237161D01*
X142910895Y-128035500D01*
X142677646Y-127876285D01*
X142417818Y-127765633D01*
X142335039Y-127748096D01*
X142113000Y-127870085D01*
X142113000Y-129413000D01*
X142133000Y-129413000D01*
X142133000Y-129667000D01*
X142113000Y-129667000D01*
X142113000Y-131209915D01*
X142335039Y-131331904D01*
X142417818Y-131314367D01*
X142677646Y-131203715D01*
X142910895Y-131044500D01*
X143108601Y-130842839D01*
X143258735Y-130613258D01*
X143327068Y-130741100D01*
X143506392Y-130959607D01*
X143724899Y-131138932D01*
X143766000Y-131160901D01*
X143766001Y-133223000D01*
X141663802Y-133223000D01*
X141222000Y-132781199D01*
X141222000Y-132117322D01*
X141225676Y-132079999D01*
X141222000Y-132042676D01*
X141222000Y-132042667D01*
X141211003Y-131931014D01*
X141167546Y-131787753D01*
X141096974Y-131655724D01*
X141002001Y-131539999D01*
X140973004Y-131516202D01*
X139952000Y-130495199D01*
X139952000Y-129667000D01*
X140551000Y-129667000D01*
X140551000Y-130067000D01*
X140603350Y-130344514D01*
X140708834Y-130606483D01*
X140863399Y-130842839D01*
X141061105Y-131044500D01*
X141294354Y-131203715D01*
X141554182Y-131314367D01*
X141636961Y-131331904D01*
X141859000Y-131209915D01*
X141859000Y-129667000D01*
X140551000Y-129667000D01*
X139952000Y-129667000D01*
X139952000Y-129013000D01*
X140551000Y-129013000D01*
X140551000Y-129413000D01*
X141859000Y-129413000D01*
X141859000Y-127870085D01*
X141636961Y-127748096D01*
X141554182Y-127765633D01*
X141294354Y-127876285D01*
X141061105Y-128035500D01*
X140863399Y-128237161D01*
X140708834Y-128473517D01*
X140603350Y-128735486D01*
X140551000Y-129013000D01*
X139952000Y-129013000D01*
X139952000Y-126044801D01*
X140014802Y-125982000D01*
X145227199Y-125982000D01*
X146306001Y-127060804D01*
G36*
X145087000Y-118113000D02*
G01*
X145107000Y-118113000D01*
X145107000Y-118367000D01*
X145087000Y-118367000D01*
X145087000Y-119509915D01*
X145309039Y-119631904D01*
X145443087Y-119591246D01*
X145557483Y-119537177D01*
X145559931Y-119545247D01*
X145598454Y-119672246D01*
X145669026Y-119804276D01*
X145735273Y-119884997D01*
X145764000Y-119920001D01*
X145792998Y-119943799D01*
X146212923Y-120363724D01*
X146046393Y-120500392D01*
X145867068Y-120718899D01*
X145796000Y-120851858D01*
X145724932Y-120718899D01*
X145545608Y-120500392D01*
X145523248Y-120482042D01*
X145485546Y-120357753D01*
X145438007Y-120268815D01*
X145414974Y-120225723D01*
X145343799Y-120138997D01*
X145320001Y-120109999D01*
X145291004Y-120086202D01*
X144756659Y-119551857D01*
X144833000Y-119509915D01*
X144833000Y-118367000D01*
X144813000Y-118367000D01*
X144813000Y-118113000D01*
X144833000Y-118113000D01*
X144833000Y-118093000D01*
X145087000Y-118093000D01*
X145087000Y-118113000D01*
X145087000Y-118113000D01*
G37*
X145087000Y-118113000D02*
X145107000Y-118113000D01*
X145107000Y-118367000D01*
X145087000Y-118367000D01*
X145087000Y-119509915D01*
X145309039Y-119631904D01*
X145443087Y-119591246D01*
X145557483Y-119537177D01*
X145559931Y-119545247D01*
X145598454Y-119672246D01*
X145669026Y-119804276D01*
X145735273Y-119884997D01*
X145764000Y-119920001D01*
X145792998Y-119943799D01*
X146212923Y-120363724D01*
X146046393Y-120500392D01*
X145867068Y-120718899D01*
X145796000Y-120851858D01*
X145724932Y-120718899D01*
X145545608Y-120500392D01*
X145523248Y-120482042D01*
X145485546Y-120357753D01*
X145438007Y-120268815D01*
X145414974Y-120225723D01*
X145343799Y-120138997D01*
X145320001Y-120109999D01*
X145291004Y-120086202D01*
X144756659Y-119551857D01*
X144833000Y-119509915D01*
X144833000Y-118367000D01*
X144813000Y-118367000D01*
X144813000Y-118113000D01*
X144833000Y-118113000D01*
X144833000Y-118093000D01*
X145087000Y-118093000D01*
X145087000Y-118113000D01*
M02*
