G04 #@! TF.GenerationSoftware,KiCad,Pcbnew,(5.1.2)-2*
G04 #@! TF.CreationDate,2019-09-18T13:09:57+09:00*
G04 #@! TF.ProjectId,VFD_Clock_LD8035,5646445f-436c-46f6-936b-5f4c44383033,rev?*
G04 #@! TF.SameCoordinates,Original*
G04 #@! TF.FileFunction,Legend,Top*
G04 #@! TF.FilePolarity,Positive*
%FSLAX46Y46*%
G04 Gerber Fmt 4.6, Leading zero omitted, Abs format (unit mm)*
G04 Created by KiCad (PCBNEW (5.1.2)-2) date 2019-09-18 13:09:57*
%MOMM*%
%LPD*%
G04 APERTURE LIST*
%ADD10C,0.300000*%
%ADD11C,0.100000*%
%ADD12C,0.120000*%
%ADD13C,0.150000*%
G04 APERTURE END LIST*
D10*
X174276571Y-128186571D02*
X174276571Y-126686571D01*
X174848000Y-126686571D01*
X174990857Y-126758000D01*
X175062285Y-126829428D01*
X175133714Y-126972285D01*
X175133714Y-127186571D01*
X175062285Y-127329428D01*
X174990857Y-127400857D01*
X174848000Y-127472285D01*
X174276571Y-127472285D01*
X176633714Y-128043714D02*
X176562285Y-128115142D01*
X176348000Y-128186571D01*
X176205142Y-128186571D01*
X175990857Y-128115142D01*
X175848000Y-127972285D01*
X175776571Y-127829428D01*
X175705142Y-127543714D01*
X175705142Y-127329428D01*
X175776571Y-127043714D01*
X175848000Y-126900857D01*
X175990857Y-126758000D01*
X176205142Y-126686571D01*
X176348000Y-126686571D01*
X176562285Y-126758000D01*
X176633714Y-126829428D01*
X177776571Y-127400857D02*
X177990857Y-127472285D01*
X178062285Y-127543714D01*
X178133714Y-127686571D01*
X178133714Y-127900857D01*
X178062285Y-128043714D01*
X177990857Y-128115142D01*
X177848000Y-128186571D01*
X177276571Y-128186571D01*
X177276571Y-126686571D01*
X177776571Y-126686571D01*
X177919428Y-126758000D01*
X177990857Y-126829428D01*
X178062285Y-126972285D01*
X178062285Y-127115142D01*
X177990857Y-127258000D01*
X177919428Y-127329428D01*
X177776571Y-127400857D01*
X177276571Y-127400857D01*
X180776571Y-128186571D02*
X180276571Y-127472285D01*
X179919428Y-128186571D02*
X179919428Y-126686571D01*
X180490857Y-126686571D01*
X180633714Y-126758000D01*
X180705142Y-126829428D01*
X180776571Y-126972285D01*
X180776571Y-127186571D01*
X180705142Y-127329428D01*
X180633714Y-127400857D01*
X180490857Y-127472285D01*
X179919428Y-127472285D01*
X181990857Y-128115142D02*
X181848000Y-128186571D01*
X181562285Y-128186571D01*
X181419428Y-128115142D01*
X181348000Y-127972285D01*
X181348000Y-127400857D01*
X181419428Y-127258000D01*
X181562285Y-127186571D01*
X181848000Y-127186571D01*
X181990857Y-127258000D01*
X182062285Y-127400857D01*
X182062285Y-127543714D01*
X181348000Y-127686571D01*
X182562285Y-127186571D02*
X182919428Y-128186571D01*
X183276571Y-127186571D01*
X183848000Y-128043714D02*
X183919428Y-128115142D01*
X183848000Y-128186571D01*
X183776571Y-128115142D01*
X183848000Y-128043714D01*
X183848000Y-128186571D01*
X185348000Y-128186571D02*
X184490857Y-128186571D01*
X184919428Y-128186571D02*
X184919428Y-126686571D01*
X184776571Y-126900857D01*
X184633714Y-127043714D01*
X184490857Y-127115142D01*
X185990857Y-128043714D02*
X186062285Y-128115142D01*
X185990857Y-128186571D01*
X185919428Y-128115142D01*
X185990857Y-128043714D01*
X185990857Y-128186571D01*
X187490857Y-128186571D02*
X186633714Y-128186571D01*
X187062285Y-128186571D02*
X187062285Y-126686571D01*
X186919428Y-126900857D01*
X186776571Y-127043714D01*
X186633714Y-127115142D01*
X105752428Y-102358428D02*
X105752428Y-101644142D01*
X107252428Y-101644142D01*
X105752428Y-102858428D02*
X107252428Y-102858428D01*
X107252428Y-103215571D01*
X107181000Y-103429857D01*
X107038142Y-103572714D01*
X106895285Y-103644142D01*
X106609571Y-103715571D01*
X106395285Y-103715571D01*
X106109571Y-103644142D01*
X105966714Y-103572714D01*
X105823857Y-103429857D01*
X105752428Y-103215571D01*
X105752428Y-102858428D01*
X106609571Y-104572714D02*
X106681000Y-104429857D01*
X106752428Y-104358428D01*
X106895285Y-104287000D01*
X106966714Y-104287000D01*
X107109571Y-104358428D01*
X107181000Y-104429857D01*
X107252428Y-104572714D01*
X107252428Y-104858428D01*
X107181000Y-105001285D01*
X107109571Y-105072714D01*
X106966714Y-105144142D01*
X106895285Y-105144142D01*
X106752428Y-105072714D01*
X106681000Y-105001285D01*
X106609571Y-104858428D01*
X106609571Y-104572714D01*
X106538142Y-104429857D01*
X106466714Y-104358428D01*
X106323857Y-104287000D01*
X106038142Y-104287000D01*
X105895285Y-104358428D01*
X105823857Y-104429857D01*
X105752428Y-104572714D01*
X105752428Y-104858428D01*
X105823857Y-105001285D01*
X105895285Y-105072714D01*
X106038142Y-105144142D01*
X106323857Y-105144142D01*
X106466714Y-105072714D01*
X106538142Y-105001285D01*
X106609571Y-104858428D01*
X107252428Y-106072714D02*
X107252428Y-106215571D01*
X107181000Y-106358428D01*
X107109571Y-106429857D01*
X106966714Y-106501285D01*
X106681000Y-106572714D01*
X106323857Y-106572714D01*
X106038142Y-106501285D01*
X105895285Y-106429857D01*
X105823857Y-106358428D01*
X105752428Y-106215571D01*
X105752428Y-106072714D01*
X105823857Y-105929857D01*
X105895285Y-105858428D01*
X106038142Y-105787000D01*
X106323857Y-105715571D01*
X106681000Y-105715571D01*
X106966714Y-105787000D01*
X107109571Y-105858428D01*
X107181000Y-105929857D01*
X107252428Y-106072714D01*
X107252428Y-107072714D02*
X107252428Y-108001285D01*
X106681000Y-107501285D01*
X106681000Y-107715571D01*
X106609571Y-107858428D01*
X106538142Y-107929857D01*
X106395285Y-108001285D01*
X106038142Y-108001285D01*
X105895285Y-107929857D01*
X105823857Y-107858428D01*
X105752428Y-107715571D01*
X105752428Y-107287000D01*
X105823857Y-107144142D01*
X105895285Y-107072714D01*
X107252428Y-109358428D02*
X107252428Y-108644142D01*
X106538142Y-108572714D01*
X106609571Y-108644142D01*
X106681000Y-108787000D01*
X106681000Y-109144142D01*
X106609571Y-109287000D01*
X106538142Y-109358428D01*
X106395285Y-109429857D01*
X106038142Y-109429857D01*
X105895285Y-109358428D01*
X105823857Y-109287000D01*
X105752428Y-109144142D01*
X105752428Y-108787000D01*
X105823857Y-108644142D01*
X105895285Y-108572714D01*
X106538142Y-110072714D02*
X106538142Y-110572714D01*
X105752428Y-110787000D02*
X105752428Y-110072714D01*
X107252428Y-110072714D01*
X107252428Y-110787000D01*
X107252428Y-112358428D02*
X105752428Y-112858428D01*
X107252428Y-113358428D01*
X106538142Y-114358428D02*
X106538142Y-113858428D01*
X105752428Y-113858428D02*
X107252428Y-113858428D01*
X107252428Y-114572714D01*
X105752428Y-115144142D02*
X107252428Y-115144142D01*
X107252428Y-115501285D01*
X107181000Y-115715571D01*
X107038142Y-115858428D01*
X106895285Y-115929857D01*
X106609571Y-116001285D01*
X106395285Y-116001285D01*
X106109571Y-115929857D01*
X105966714Y-115858428D01*
X105823857Y-115715571D01*
X105752428Y-115501285D01*
X105752428Y-115144142D01*
X105895285Y-118644142D02*
X105823857Y-118572714D01*
X105752428Y-118358428D01*
X105752428Y-118215571D01*
X105823857Y-118001285D01*
X105966714Y-117858428D01*
X106109571Y-117787000D01*
X106395285Y-117715571D01*
X106609571Y-117715571D01*
X106895285Y-117787000D01*
X107038142Y-117858428D01*
X107181000Y-118001285D01*
X107252428Y-118215571D01*
X107252428Y-118358428D01*
X107181000Y-118572714D01*
X107109571Y-118644142D01*
X105752428Y-119501285D02*
X105823857Y-119358428D01*
X105966714Y-119287000D01*
X107252428Y-119287000D01*
X105752428Y-120287000D02*
X105823857Y-120144142D01*
X105895285Y-120072714D01*
X106038142Y-120001285D01*
X106466714Y-120001285D01*
X106609571Y-120072714D01*
X106681000Y-120144142D01*
X106752428Y-120287000D01*
X106752428Y-120501285D01*
X106681000Y-120644142D01*
X106609571Y-120715571D01*
X106466714Y-120787000D01*
X106038142Y-120787000D01*
X105895285Y-120715571D01*
X105823857Y-120644142D01*
X105752428Y-120501285D01*
X105752428Y-120287000D01*
X105823857Y-122072714D02*
X105752428Y-121929857D01*
X105752428Y-121644142D01*
X105823857Y-121501285D01*
X105895285Y-121429857D01*
X106038142Y-121358428D01*
X106466714Y-121358428D01*
X106609571Y-121429857D01*
X106681000Y-121501285D01*
X106752428Y-121644142D01*
X106752428Y-121929857D01*
X106681000Y-122072714D01*
X105752428Y-122715571D02*
X107252428Y-122715571D01*
X106323857Y-122858428D02*
X105752428Y-123287000D01*
X106752428Y-123287000D02*
X106181000Y-122715571D01*
X103202428Y-101644142D02*
X104702428Y-101644142D01*
X104131000Y-101644142D02*
X104202428Y-101787000D01*
X104202428Y-102072714D01*
X104131000Y-102215571D01*
X104059571Y-102287000D01*
X103916714Y-102358428D01*
X103488142Y-102358428D01*
X103345285Y-102287000D01*
X103273857Y-102215571D01*
X103202428Y-102072714D01*
X103202428Y-101787000D01*
X103273857Y-101644142D01*
X104202428Y-102858428D02*
X103202428Y-103215571D01*
X104202428Y-103572714D02*
X103202428Y-103215571D01*
X102845285Y-103072714D01*
X102773857Y-103001285D01*
X102702428Y-102858428D01*
X103988142Y-105787000D02*
X103988142Y-105287000D01*
X103202428Y-105287000D02*
X104702428Y-105287000D01*
X104702428Y-106001285D01*
X103202428Y-107215571D02*
X103988142Y-107215571D01*
X104131000Y-107144142D01*
X104202428Y-107001285D01*
X104202428Y-106715571D01*
X104131000Y-106572714D01*
X103273857Y-107215571D02*
X103202428Y-107072714D01*
X103202428Y-106715571D01*
X103273857Y-106572714D01*
X103416714Y-106501285D01*
X103559571Y-106501285D01*
X103702428Y-106572714D01*
X103773857Y-106715571D01*
X103773857Y-107072714D01*
X103845285Y-107215571D01*
X103202428Y-107929857D02*
X104702428Y-107929857D01*
X104131000Y-107929857D02*
X104202428Y-108072714D01*
X104202428Y-108358428D01*
X104131000Y-108501285D01*
X104059571Y-108572714D01*
X103916714Y-108644142D01*
X103488142Y-108644142D01*
X103345285Y-108572714D01*
X103273857Y-108501285D01*
X103202428Y-108358428D01*
X103202428Y-108072714D01*
X103273857Y-107929857D01*
X103202428Y-109501285D02*
X103273857Y-109358428D01*
X103416714Y-109287000D01*
X104702428Y-109287000D01*
X103202428Y-110715571D02*
X103988142Y-110715571D01*
X104131000Y-110644142D01*
X104202428Y-110501285D01*
X104202428Y-110215571D01*
X104131000Y-110072714D01*
X103273857Y-110715571D02*
X103202428Y-110572714D01*
X103202428Y-110215571D01*
X103273857Y-110072714D01*
X103416714Y-110001285D01*
X103559571Y-110001285D01*
X103702428Y-110072714D01*
X103773857Y-110215571D01*
X103773857Y-110572714D01*
X103845285Y-110715571D01*
X103202428Y-111429857D02*
X104702428Y-111429857D01*
X104131000Y-111429857D02*
X104202428Y-111572714D01*
X104202428Y-111858428D01*
X104131000Y-112001285D01*
X104059571Y-112072714D01*
X103916714Y-112144142D01*
X103488142Y-112144142D01*
X103345285Y-112072714D01*
X103273857Y-112001285D01*
X103202428Y-111858428D01*
X103202428Y-111572714D01*
X103273857Y-111429857D01*
X103202428Y-113929857D02*
X104702428Y-113929857D01*
X103202428Y-114787000D02*
X104059571Y-114144142D01*
X104702428Y-114787000D02*
X103845285Y-113929857D01*
X103202428Y-116072714D02*
X103988142Y-116072714D01*
X104131000Y-116001285D01*
X104202428Y-115858428D01*
X104202428Y-115572714D01*
X104131000Y-115429857D01*
X103273857Y-116072714D02*
X103202428Y-115929857D01*
X103202428Y-115572714D01*
X103273857Y-115429857D01*
X103416714Y-115358428D01*
X103559571Y-115358428D01*
X103702428Y-115429857D01*
X103773857Y-115572714D01*
X103773857Y-115929857D01*
X103845285Y-116072714D01*
X104202428Y-116787000D02*
X103202428Y-116787000D01*
X104059571Y-116787000D02*
X104131000Y-116858428D01*
X104202428Y-117001285D01*
X104202428Y-117215571D01*
X104131000Y-117358428D01*
X103988142Y-117429857D01*
X103202428Y-117429857D01*
X104202428Y-118144142D02*
X103202428Y-118144142D01*
X104059571Y-118144142D02*
X104131000Y-118215571D01*
X104202428Y-118358428D01*
X104202428Y-118572714D01*
X104131000Y-118715571D01*
X103988142Y-118787000D01*
X103202428Y-118787000D01*
X103202428Y-120144142D02*
X103988142Y-120144142D01*
X104131000Y-120072714D01*
X104202428Y-119929857D01*
X104202428Y-119644142D01*
X104131000Y-119501285D01*
X103273857Y-120144142D02*
X103202428Y-120001285D01*
X103202428Y-119644142D01*
X103273857Y-119501285D01*
X103416714Y-119429857D01*
X103559571Y-119429857D01*
X103702428Y-119501285D01*
X103773857Y-119644142D01*
X103773857Y-120001285D01*
X103845285Y-120144142D01*
X103202428Y-120858428D02*
X104202428Y-120858428D01*
X104702428Y-120858428D02*
X104631000Y-120787000D01*
X104559571Y-120858428D01*
X104631000Y-120929857D01*
X104702428Y-120858428D01*
X104559571Y-120858428D01*
X169148571Y-95698571D02*
X169648571Y-97198571D01*
X170148571Y-95698571D01*
X170934285Y-95698571D02*
X171220000Y-95698571D01*
X171362857Y-95770000D01*
X171505714Y-95912857D01*
X171577142Y-96198571D01*
X171577142Y-96698571D01*
X171505714Y-96984285D01*
X171362857Y-97127142D01*
X171220000Y-97198571D01*
X170934285Y-97198571D01*
X170791428Y-97127142D01*
X170648571Y-96984285D01*
X170577142Y-96698571D01*
X170577142Y-96198571D01*
X170648571Y-95912857D01*
X170791428Y-95770000D01*
X170934285Y-95698571D01*
X172220000Y-95698571D02*
X172220000Y-96912857D01*
X172291428Y-97055714D01*
X172362857Y-97127142D01*
X172505714Y-97198571D01*
X172791428Y-97198571D01*
X172934285Y-97127142D01*
X173005714Y-97055714D01*
X173077142Y-96912857D01*
X173077142Y-95698571D01*
X173577142Y-95698571D02*
X174434285Y-95698571D01*
X174005714Y-97198571D02*
X174005714Y-95698571D01*
X174934285Y-96627142D02*
X176077142Y-96627142D01*
X175505714Y-97198571D02*
X175505714Y-96055714D01*
X169148571Y-88078571D02*
X169648571Y-89578571D01*
X170148571Y-88078571D01*
X170934285Y-88078571D02*
X171220000Y-88078571D01*
X171362857Y-88150000D01*
X171505714Y-88292857D01*
X171577142Y-88578571D01*
X171577142Y-89078571D01*
X171505714Y-89364285D01*
X171362857Y-89507142D01*
X171220000Y-89578571D01*
X170934285Y-89578571D01*
X170791428Y-89507142D01*
X170648571Y-89364285D01*
X170577142Y-89078571D01*
X170577142Y-88578571D01*
X170648571Y-88292857D01*
X170791428Y-88150000D01*
X170934285Y-88078571D01*
X172220000Y-88078571D02*
X172220000Y-89292857D01*
X172291428Y-89435714D01*
X172362857Y-89507142D01*
X172505714Y-89578571D01*
X172791428Y-89578571D01*
X172934285Y-89507142D01*
X173005714Y-89435714D01*
X173077142Y-89292857D01*
X173077142Y-88078571D01*
X173577142Y-88078571D02*
X174434285Y-88078571D01*
X174005714Y-89578571D02*
X174005714Y-88078571D01*
X174934285Y-89007142D02*
X176077142Y-89007142D01*
X140938571Y-95444571D02*
X141438571Y-96944571D01*
X141938571Y-95444571D01*
X142438571Y-96944571D02*
X142438571Y-95444571D01*
X143152857Y-96944571D02*
X143152857Y-95444571D01*
X144010000Y-96944571D01*
X144010000Y-95444571D01*
X144724285Y-96373142D02*
X145867142Y-96373142D01*
X145295714Y-96944571D02*
X145295714Y-95801714D01*
X140938571Y-87824571D02*
X141438571Y-89324571D01*
X141938571Y-87824571D01*
X142438571Y-89324571D02*
X142438571Y-87824571D01*
X143152857Y-89324571D02*
X143152857Y-87824571D01*
X144010000Y-89324571D01*
X144010000Y-87824571D01*
X144724285Y-88753142D02*
X145867142Y-88753142D01*
X135790571Y-87276857D02*
X135576285Y-87205428D01*
X135219142Y-87205428D01*
X135076285Y-87276857D01*
X135004857Y-87348285D01*
X134933428Y-87491142D01*
X134933428Y-87634000D01*
X135004857Y-87776857D01*
X135076285Y-87848285D01*
X135219142Y-87919714D01*
X135504857Y-87991142D01*
X135647714Y-88062571D01*
X135719142Y-88134000D01*
X135790571Y-88276857D01*
X135790571Y-88419714D01*
X135719142Y-88562571D01*
X135647714Y-88634000D01*
X135504857Y-88705428D01*
X135147714Y-88705428D01*
X134933428Y-88634000D01*
X134290571Y-87991142D02*
X133790571Y-87991142D01*
X133576285Y-87205428D02*
X134290571Y-87205428D01*
X134290571Y-88705428D01*
X133576285Y-88705428D01*
X133147714Y-88705428D02*
X132290571Y-88705428D01*
X132719142Y-87205428D02*
X132719142Y-88705428D01*
X119808285Y-87205428D02*
X119808285Y-88705428D01*
X119308285Y-87634000D01*
X118808285Y-88705428D01*
X118808285Y-87205428D01*
X117808285Y-88705428D02*
X117522571Y-88705428D01*
X117379714Y-88634000D01*
X117236857Y-88491142D01*
X117165428Y-88205428D01*
X117165428Y-87705428D01*
X117236857Y-87419714D01*
X117379714Y-87276857D01*
X117522571Y-87205428D01*
X117808285Y-87205428D01*
X117951142Y-87276857D01*
X118094000Y-87419714D01*
X118165428Y-87705428D01*
X118165428Y-88205428D01*
X118094000Y-88491142D01*
X117951142Y-88634000D01*
X117808285Y-88705428D01*
X116522571Y-87205428D02*
X116522571Y-88705428D01*
X116165428Y-88705428D01*
X115951142Y-88634000D01*
X115808285Y-88491142D01*
X115736857Y-88348285D01*
X115665428Y-88062571D01*
X115665428Y-87848285D01*
X115736857Y-87562571D01*
X115808285Y-87419714D01*
X115951142Y-87276857D01*
X116165428Y-87205428D01*
X116522571Y-87205428D01*
X115022571Y-87991142D02*
X114522571Y-87991142D01*
X114308285Y-87205428D02*
X115022571Y-87205428D01*
X115022571Y-88705428D01*
X114308285Y-88705428D01*
D11*
X106500000Y-83996400D02*
X186500000Y-83996400D01*
X101500000Y-88996400D02*
G75*
G02X106500000Y-83996400I5000000J0D01*
G01*
X101500000Y-143996400D02*
X101500000Y-88996400D01*
X106500000Y-148996400D02*
G75*
G02X101500000Y-143996400I0J5000000D01*
G01*
X186500000Y-148996400D02*
X106500000Y-148996400D01*
X191500000Y-143996400D02*
G75*
G02X186500000Y-148996400I-5000000J0D01*
G01*
X191500000Y-88996400D02*
X191500000Y-143996400D01*
X186500000Y-83996400D02*
G75*
G02X191500000Y-88996400I0J-5000000D01*
G01*
X189100001Y-87996399D02*
G75*
G03X189100001Y-87996399I-1600000J0D01*
G01*
X107100000Y-144996400D02*
G75*
G03X107100000Y-144996400I-1600000J0D01*
G01*
X189100001Y-144996400D02*
G75*
G03X189100001Y-144996400I-1600000J0D01*
G01*
X107100000Y-87996399D02*
G75*
G03X107100000Y-87996399I-1600000J0D01*
G01*
D12*
X184880000Y-104344000D02*
X184880000Y-119844000D01*
X170880000Y-104344000D02*
X184880000Y-104344000D01*
X170880000Y-119844000D02*
X170880000Y-104344000D01*
X184880000Y-119844000D02*
X170880000Y-119844000D01*
X184210000Y-115824000D02*
X181550000Y-115824000D01*
X184210000Y-115824000D02*
X184210000Y-105604000D01*
X184210000Y-105604000D02*
X181550000Y-105604000D01*
X181550000Y-115824000D02*
X181550000Y-105604000D01*
X181550000Y-118424000D02*
X181550000Y-117094000D01*
X182880000Y-118424000D02*
X181550000Y-118424000D01*
X146230000Y-104270000D02*
X148770000Y-104270000D01*
X148770000Y-104270000D02*
X148770000Y-101600000D01*
X146230000Y-101600000D02*
X108000000Y-101600000D01*
X151440000Y-101600000D02*
X148770000Y-101600000D01*
X148770000Y-116970000D02*
X148770000Y-119640000D01*
X148770000Y-116970000D02*
X110670000Y-116970000D01*
X110670000Y-116970000D02*
X110670000Y-119640000D01*
X146230000Y-104270000D02*
X146230000Y-101600000D01*
X146230000Y-104270000D02*
X110670000Y-104270000D01*
X110670000Y-104270000D02*
X110670000Y-101600000D01*
X108000000Y-101600000D02*
X108000000Y-119640000D01*
X108000000Y-119640000D02*
X151440000Y-119640000D01*
X151440000Y-119640000D02*
X151440000Y-101600000D01*
X113050000Y-121880000D02*
X113050000Y-129500000D01*
X107930000Y-121880000D02*
X107930000Y-129500000D01*
X113050000Y-121880000D02*
X107930000Y-121880000D01*
X113050000Y-129500000D02*
X107930000Y-129500000D01*
X163616000Y-118638000D02*
X155996000Y-118638000D01*
X163616000Y-113518000D02*
X155996000Y-113518000D01*
X163616000Y-118638000D02*
X163616000Y-113518000D01*
X155996000Y-118638000D02*
X155996000Y-113518000D01*
X114792000Y-96178000D02*
X119292000Y-96178000D01*
X113542000Y-92178000D02*
X113542000Y-93678000D01*
X119292000Y-89678000D02*
X114792000Y-89678000D01*
X120542000Y-93678000D02*
X120542000Y-92178000D01*
X131810000Y-96178000D02*
X136310000Y-96178000D01*
X130560000Y-92178000D02*
X130560000Y-93678000D01*
X136310000Y-89678000D02*
X131810000Y-89678000D01*
X137560000Y-93678000D02*
X137560000Y-92178000D01*
X163636000Y-126730000D02*
G75*
G02X163636000Y-124730000I0J1000000D01*
G01*
X163636000Y-124730000D02*
X163636000Y-123480000D01*
X163636000Y-123480000D02*
X140656000Y-123480000D01*
X140656000Y-123480000D02*
X140656000Y-127980000D01*
X140656000Y-127980000D02*
X163636000Y-127980000D01*
X163636000Y-127980000D02*
X163636000Y-126730000D01*
X138490000Y-126730000D02*
G75*
G02X138490000Y-124730000I0J1000000D01*
G01*
X138490000Y-124730000D02*
X138490000Y-123480000D01*
X138490000Y-123480000D02*
X115510000Y-123480000D01*
X115510000Y-123480000D02*
X115510000Y-127980000D01*
X115510000Y-127980000D02*
X138490000Y-127980000D01*
X138490000Y-127980000D02*
X138490000Y-126730000D01*
X148830000Y-87550000D02*
X146170000Y-87550000D01*
X148830000Y-95230000D02*
X148830000Y-87550000D01*
X146170000Y-95230000D02*
X146170000Y-87550000D01*
X148830000Y-95230000D02*
X146170000Y-95230000D01*
X148830000Y-96500000D02*
X148830000Y-97830000D01*
X148830000Y-97830000D02*
X147500000Y-97830000D01*
X179830000Y-87550000D02*
X177170000Y-87550000D01*
X179830000Y-95230000D02*
X179830000Y-87550000D01*
X177170000Y-95230000D02*
X177170000Y-87550000D01*
X179830000Y-95230000D02*
X177170000Y-95230000D01*
X179830000Y-96500000D02*
X179830000Y-97830000D01*
X179830000Y-97830000D02*
X178500000Y-97830000D01*
D13*
X179250000Y-144250000D02*
G75*
G03X179250000Y-144250000I-1250000J0D01*
G01*
X185270797Y-139750000D02*
G75*
G03X185270797Y-139750000I-6020797J0D01*
G01*
X166250000Y-144250000D02*
G75*
G03X166250000Y-144250000I-1250000J0D01*
G01*
X172270797Y-139750000D02*
G75*
G03X172270797Y-139750000I-6020797J0D01*
G01*
X153250000Y-144250000D02*
G75*
G03X153250000Y-144250000I-1250000J0D01*
G01*
X159270797Y-139750000D02*
G75*
G03X159270797Y-139750000I-6020797J0D01*
G01*
X140250000Y-144250000D02*
G75*
G03X140250000Y-144250000I-1250000J0D01*
G01*
X146270797Y-139750000D02*
G75*
G03X146270797Y-139750000I-6020797J0D01*
G01*
X127000000Y-144250000D02*
G75*
G03X127000000Y-144250000I-1250000J0D01*
G01*
X133020797Y-139750000D02*
G75*
G03X133020797Y-139750000I-6020797J0D01*
G01*
X113792000Y-144327000D02*
G75*
G03X113792000Y-144327000I-1250000J0D01*
G01*
X119812797Y-139827000D02*
G75*
G03X119812797Y-139827000I-6020797J0D01*
G01*
D12*
X189016000Y-139446000D02*
G75*
G03X189016000Y-139446000I-1310000J0D01*
G01*
X187706000Y-138136000D02*
X187706000Y-138006000D01*
X172379000Y-146304000D02*
X172509000Y-146304000D01*
X172379000Y-146304000D02*
G75*
G03X172379000Y-146304000I-1310000J0D01*
G01*
X159361500Y-146304000D02*
G75*
G03X159361500Y-146304000I-1310000J0D01*
G01*
X159361500Y-146304000D02*
X159491500Y-146304000D01*
X146471000Y-146304000D02*
X146601000Y-146304000D01*
X146471000Y-146304000D02*
G75*
G03X146471000Y-146304000I-1310000J0D01*
G01*
X133390000Y-146304000D02*
G75*
G03X133390000Y-146304000I-1310000J0D01*
G01*
X133390000Y-146304000D02*
X133520000Y-146304000D01*
X119928000Y-146304000D02*
X120058000Y-146304000D01*
X119928000Y-146304000D02*
G75*
G03X119928000Y-146304000I-1310000J0D01*
G01*
D13*
X182546666Y-120102380D02*
X182546666Y-120816666D01*
X182499047Y-120959523D01*
X182403809Y-121054761D01*
X182260952Y-121102380D01*
X182165714Y-121102380D01*
X182927619Y-120102380D02*
X183546666Y-120102380D01*
X183213333Y-120483333D01*
X183356190Y-120483333D01*
X183451428Y-120530952D01*
X183499047Y-120578571D01*
X183546666Y-120673809D01*
X183546666Y-120911904D01*
X183499047Y-121007142D01*
X183451428Y-121054761D01*
X183356190Y-121102380D01*
X183070476Y-121102380D01*
X182975238Y-121054761D01*
X182927619Y-121007142D01*
X179046285Y-115006380D02*
X179046285Y-114006380D01*
X179617714Y-115006380D01*
X179617714Y-114006380D01*
X180665333Y-114911142D02*
X180617714Y-114958761D01*
X180474857Y-115006380D01*
X180379619Y-115006380D01*
X180236761Y-114958761D01*
X180141523Y-114863523D01*
X180093904Y-114768285D01*
X180046285Y-114577809D01*
X180046285Y-114434952D01*
X180093904Y-114244476D01*
X180141523Y-114149238D01*
X180236761Y-114054000D01*
X180379619Y-114006380D01*
X180474857Y-114006380D01*
X180617714Y-114054000D01*
X180665333Y-114101619D01*
X179959047Y-117165428D02*
X180720952Y-117165428D01*
X180649523Y-112117142D02*
X180601904Y-112164761D01*
X180459047Y-112212380D01*
X180363809Y-112212380D01*
X180220952Y-112164761D01*
X180125714Y-112069523D01*
X180078095Y-111974285D01*
X180030476Y-111783809D01*
X180030476Y-111640952D01*
X180078095Y-111450476D01*
X180125714Y-111355238D01*
X180220952Y-111260000D01*
X180363809Y-111212380D01*
X180459047Y-111212380D01*
X180601904Y-111260000D01*
X180649523Y-111307619D01*
X180078095Y-109926380D02*
X180078095Y-108926380D01*
X180316190Y-108926380D01*
X180459047Y-108974000D01*
X180554285Y-109069238D01*
X180601904Y-109164476D01*
X180649523Y-109354952D01*
X180649523Y-109497809D01*
X180601904Y-109688285D01*
X180554285Y-109783523D01*
X180459047Y-109878761D01*
X180316190Y-109926380D01*
X180078095Y-109926380D01*
X179999047Y-107165428D02*
X180760952Y-107165428D01*
X180380000Y-107546380D02*
X180380000Y-106784476D01*
X172332380Y-119498761D02*
X171332380Y-119498761D01*
X171332380Y-119260666D01*
X171380000Y-119117809D01*
X171475238Y-119022571D01*
X171570476Y-118974952D01*
X171760952Y-118927333D01*
X171903809Y-118927333D01*
X172094285Y-118974952D01*
X172189523Y-119022571D01*
X172284761Y-119117809D01*
X172332380Y-119260666D01*
X172332380Y-119498761D01*
X172284761Y-118546380D02*
X172332380Y-118403523D01*
X172332380Y-118165428D01*
X172284761Y-118070190D01*
X172237142Y-118022571D01*
X172141904Y-117974952D01*
X172046666Y-117974952D01*
X171951428Y-118022571D01*
X171903809Y-118070190D01*
X171856190Y-118165428D01*
X171808571Y-118355904D01*
X171760952Y-118451142D01*
X171713333Y-118498761D01*
X171618095Y-118546380D01*
X171522857Y-118546380D01*
X171427619Y-118498761D01*
X171380000Y-118451142D01*
X171332380Y-118355904D01*
X171332380Y-118117809D01*
X171380000Y-117974952D01*
X171332380Y-117641619D02*
X171332380Y-117022571D01*
X171713333Y-117355904D01*
X171713333Y-117213047D01*
X171760952Y-117117809D01*
X171808571Y-117070190D01*
X171903809Y-117022571D01*
X172141904Y-117022571D01*
X172237142Y-117070190D01*
X172284761Y-117117809D01*
X172332380Y-117213047D01*
X172332380Y-117498761D01*
X172284761Y-117594000D01*
X172237142Y-117641619D01*
X171427619Y-116641619D02*
X171380000Y-116594000D01*
X171332380Y-116498761D01*
X171332380Y-116260666D01*
X171380000Y-116165428D01*
X171427619Y-116117809D01*
X171522857Y-116070190D01*
X171618095Y-116070190D01*
X171760952Y-116117809D01*
X172332380Y-116689238D01*
X172332380Y-116070190D01*
X171332380Y-115736857D02*
X171332380Y-115117809D01*
X171713333Y-115451142D01*
X171713333Y-115308285D01*
X171760952Y-115213047D01*
X171808571Y-115165428D01*
X171903809Y-115117809D01*
X172141904Y-115117809D01*
X172237142Y-115165428D01*
X172284761Y-115213047D01*
X172332380Y-115308285D01*
X172332380Y-115594000D01*
X172284761Y-115689238D01*
X172237142Y-115736857D01*
X172332380Y-114165428D02*
X172332380Y-114736857D01*
X172332380Y-114451142D02*
X171332380Y-114451142D01*
X171475238Y-114546380D01*
X171570476Y-114641619D01*
X171618095Y-114736857D01*
X172332380Y-112403523D02*
X171856190Y-112736857D01*
X172332380Y-112974952D02*
X171332380Y-112974952D01*
X171332380Y-112594000D01*
X171380000Y-112498761D01*
X171427619Y-112451142D01*
X171522857Y-112403523D01*
X171665714Y-112403523D01*
X171760952Y-112451142D01*
X171808571Y-112498761D01*
X171856190Y-112594000D01*
X171856190Y-112974952D01*
X171332380Y-112117809D02*
X171332380Y-111546380D01*
X172332380Y-111832095D02*
X171332380Y-111832095D01*
X172237142Y-110641619D02*
X172284761Y-110689238D01*
X172332380Y-110832095D01*
X172332380Y-110927333D01*
X172284761Y-111070190D01*
X172189523Y-111165428D01*
X172094285Y-111213047D01*
X171903809Y-111260666D01*
X171760952Y-111260666D01*
X171570476Y-111213047D01*
X171475238Y-111165428D01*
X171380000Y-111070190D01*
X171332380Y-110927333D01*
X171332380Y-110832095D01*
X171380000Y-110689238D01*
X171427619Y-110641619D01*
X172332380Y-109451142D02*
X171332380Y-109451142D01*
X172046666Y-109117809D01*
X171332380Y-108784476D01*
X172332380Y-108784476D01*
X172332380Y-108165428D02*
X172284761Y-108260666D01*
X172237142Y-108308285D01*
X172141904Y-108355904D01*
X171856190Y-108355904D01*
X171760952Y-108308285D01*
X171713333Y-108260666D01*
X171665714Y-108165428D01*
X171665714Y-108022571D01*
X171713333Y-107927333D01*
X171760952Y-107879714D01*
X171856190Y-107832095D01*
X172141904Y-107832095D01*
X172237142Y-107879714D01*
X172284761Y-107927333D01*
X172332380Y-108022571D01*
X172332380Y-108165428D01*
X172332380Y-106974952D02*
X171332380Y-106974952D01*
X172284761Y-106974952D02*
X172332380Y-107070190D01*
X172332380Y-107260666D01*
X172284761Y-107355904D01*
X172237142Y-107403523D01*
X172141904Y-107451142D01*
X171856190Y-107451142D01*
X171760952Y-107403523D01*
X171713333Y-107355904D01*
X171665714Y-107260666D01*
X171665714Y-107070190D01*
X171713333Y-106974952D01*
X171665714Y-106070190D02*
X172332380Y-106070190D01*
X171665714Y-106498761D02*
X172189523Y-106498761D01*
X172284761Y-106451142D01*
X172332380Y-106355904D01*
X172332380Y-106213047D01*
X172284761Y-106117809D01*
X172237142Y-106070190D01*
X172332380Y-105451142D02*
X172284761Y-105546380D01*
X172189523Y-105594000D01*
X171332380Y-105594000D01*
X172284761Y-104689238D02*
X172332380Y-104784476D01*
X172332380Y-104974952D01*
X172284761Y-105070190D01*
X172189523Y-105117809D01*
X171808571Y-105117809D01*
X171713333Y-105070190D01*
X171665714Y-104974952D01*
X171665714Y-104784476D01*
X171713333Y-104689238D01*
X171808571Y-104641619D01*
X171903809Y-104641619D01*
X171999047Y-105117809D01*
X152746666Y-114143809D02*
X152746666Y-113667619D01*
X153032380Y-114239047D02*
X152032380Y-113905714D01*
X153032380Y-113572380D01*
X153032380Y-112667619D02*
X152556190Y-113000952D01*
X153032380Y-113239047D02*
X152032380Y-113239047D01*
X152032380Y-112858095D01*
X152080000Y-112762857D01*
X152127619Y-112715238D01*
X152222857Y-112667619D01*
X152365714Y-112667619D01*
X152460952Y-112715238D01*
X152508571Y-112762857D01*
X152556190Y-112858095D01*
X152556190Y-113239047D01*
X153032380Y-112239047D02*
X152032380Y-112239047D01*
X152032380Y-112000952D01*
X152080000Y-111858095D01*
X152175238Y-111762857D01*
X152270476Y-111715238D01*
X152460952Y-111667619D01*
X152603809Y-111667619D01*
X152794285Y-111715238D01*
X152889523Y-111762857D01*
X152984761Y-111858095D01*
X153032380Y-112000952D01*
X153032380Y-112239047D01*
X152032380Y-111239047D02*
X152841904Y-111239047D01*
X152937142Y-111191428D01*
X152984761Y-111143809D01*
X153032380Y-111048571D01*
X153032380Y-110858095D01*
X152984761Y-110762857D01*
X152937142Y-110715238D01*
X152841904Y-110667619D01*
X152032380Y-110667619D01*
X153032380Y-110191428D02*
X152032380Y-110191428D01*
X153032380Y-109715238D02*
X152032380Y-109715238D01*
X153032380Y-109143809D01*
X152032380Y-109143809D01*
X152032380Y-108477142D02*
X152032380Y-108286666D01*
X152080000Y-108191428D01*
X152175238Y-108096190D01*
X152365714Y-108048571D01*
X152699047Y-108048571D01*
X152889523Y-108096190D01*
X152984761Y-108191428D01*
X153032380Y-108286666D01*
X153032380Y-108477142D01*
X152984761Y-108572380D01*
X152889523Y-108667619D01*
X152699047Y-108715238D01*
X152365714Y-108715238D01*
X152175238Y-108667619D01*
X152080000Y-108572380D01*
X152032380Y-108477142D01*
X153032380Y-107096190D02*
X153032380Y-107667619D01*
X153032380Y-107381904D02*
X152032380Y-107381904D01*
X152175238Y-107477142D01*
X152270476Y-107572380D01*
X152318095Y-107667619D01*
X108545333Y-130913142D02*
X108497714Y-130960761D01*
X108354857Y-131008380D01*
X108259619Y-131008380D01*
X108116761Y-130960761D01*
X108021523Y-130865523D01*
X107973904Y-130770285D01*
X107926285Y-130579809D01*
X107926285Y-130436952D01*
X107973904Y-130246476D01*
X108021523Y-130151238D01*
X108116761Y-130056000D01*
X108259619Y-130008380D01*
X108354857Y-130008380D01*
X108497714Y-130056000D01*
X108545333Y-130103619D01*
X108926285Y-130103619D02*
X108973904Y-130056000D01*
X109069142Y-130008380D01*
X109307238Y-130008380D01*
X109402476Y-130056000D01*
X109450095Y-130103619D01*
X109497714Y-130198857D01*
X109497714Y-130294095D01*
X109450095Y-130436952D01*
X108878666Y-131008380D01*
X109497714Y-131008380D01*
X156551333Y-112879142D02*
X156503714Y-112926761D01*
X156360857Y-112974380D01*
X156265619Y-112974380D01*
X156122761Y-112926761D01*
X156027523Y-112831523D01*
X155979904Y-112736285D01*
X155932285Y-112545809D01*
X155932285Y-112402952D01*
X155979904Y-112212476D01*
X156027523Y-112117238D01*
X156122761Y-112022000D01*
X156265619Y-111974380D01*
X156360857Y-111974380D01*
X156503714Y-112022000D01*
X156551333Y-112069619D01*
X156884666Y-111974380D02*
X157503714Y-111974380D01*
X157170380Y-112355333D01*
X157313238Y-112355333D01*
X157408476Y-112402952D01*
X157456095Y-112450571D01*
X157503714Y-112545809D01*
X157503714Y-112783904D01*
X157456095Y-112879142D01*
X157408476Y-112926761D01*
X157313238Y-112974380D01*
X157027523Y-112974380D01*
X156932285Y-112926761D01*
X156884666Y-112879142D01*
X115760666Y-97940761D02*
X115903523Y-97988380D01*
X116141619Y-97988380D01*
X116236857Y-97940761D01*
X116284476Y-97893142D01*
X116332095Y-97797904D01*
X116332095Y-97702666D01*
X116284476Y-97607428D01*
X116236857Y-97559809D01*
X116141619Y-97512190D01*
X115951142Y-97464571D01*
X115855904Y-97416952D01*
X115808285Y-97369333D01*
X115760666Y-97274095D01*
X115760666Y-97178857D01*
X115808285Y-97083619D01*
X115855904Y-97036000D01*
X115951142Y-96988380D01*
X116189238Y-96988380D01*
X116332095Y-97036000D01*
X116665428Y-96988380D02*
X116903523Y-97988380D01*
X117094000Y-97274095D01*
X117284476Y-97988380D01*
X117522571Y-96988380D01*
X118427333Y-97988380D02*
X117855904Y-97988380D01*
X118141619Y-97988380D02*
X118141619Y-96988380D01*
X118046380Y-97131238D01*
X117951142Y-97226476D01*
X117855904Y-97274095D01*
X133032666Y-97940761D02*
X133175523Y-97988380D01*
X133413619Y-97988380D01*
X133508857Y-97940761D01*
X133556476Y-97893142D01*
X133604095Y-97797904D01*
X133604095Y-97702666D01*
X133556476Y-97607428D01*
X133508857Y-97559809D01*
X133413619Y-97512190D01*
X133223142Y-97464571D01*
X133127904Y-97416952D01*
X133080285Y-97369333D01*
X133032666Y-97274095D01*
X133032666Y-97178857D01*
X133080285Y-97083619D01*
X133127904Y-97036000D01*
X133223142Y-96988380D01*
X133461238Y-96988380D01*
X133604095Y-97036000D01*
X133937428Y-96988380D02*
X134175523Y-97988380D01*
X134366000Y-97274095D01*
X134556476Y-97988380D01*
X134794571Y-96988380D01*
X135127904Y-97083619D02*
X135175523Y-97036000D01*
X135270761Y-96988380D01*
X135508857Y-96988380D01*
X135604095Y-97036000D01*
X135651714Y-97083619D01*
X135699333Y-97178857D01*
X135699333Y-97274095D01*
X135651714Y-97416952D01*
X135080285Y-97988380D01*
X135699333Y-97988380D01*
X161798095Y-131532380D02*
X161798095Y-132341904D01*
X161845714Y-132437142D01*
X161893333Y-132484761D01*
X161988571Y-132532380D01*
X162179047Y-132532380D01*
X162274285Y-132484761D01*
X162321904Y-132437142D01*
X162369523Y-132341904D01*
X162369523Y-131532380D01*
X162798095Y-131627619D02*
X162845714Y-131580000D01*
X162940952Y-131532380D01*
X163179047Y-131532380D01*
X163274285Y-131580000D01*
X163321904Y-131627619D01*
X163369523Y-131722857D01*
X163369523Y-131818095D01*
X163321904Y-131960952D01*
X162750476Y-132532380D01*
X163369523Y-132532380D01*
X136652095Y-131786380D02*
X136652095Y-132595904D01*
X136699714Y-132691142D01*
X136747333Y-132738761D01*
X136842571Y-132786380D01*
X137033047Y-132786380D01*
X137128285Y-132738761D01*
X137175904Y-132691142D01*
X137223523Y-132595904D01*
X137223523Y-131786380D01*
X137604476Y-131786380D02*
X138223523Y-131786380D01*
X137890190Y-132167333D01*
X138033047Y-132167333D01*
X138128285Y-132214952D01*
X138175904Y-132262571D01*
X138223523Y-132357809D01*
X138223523Y-132595904D01*
X138175904Y-132691142D01*
X138128285Y-132738761D01*
X138033047Y-132786380D01*
X137747333Y-132786380D01*
X137652095Y-132738761D01*
X137604476Y-132691142D01*
X147166666Y-98282380D02*
X147166666Y-98996666D01*
X147119047Y-99139523D01*
X147023809Y-99234761D01*
X146880952Y-99282380D01*
X146785714Y-99282380D01*
X148166666Y-99282380D02*
X147595238Y-99282380D01*
X147880952Y-99282380D02*
X147880952Y-98282380D01*
X147785714Y-98425238D01*
X147690476Y-98520476D01*
X147595238Y-98568095D01*
X178166666Y-98282380D02*
X178166666Y-98996666D01*
X178119047Y-99139523D01*
X178023809Y-99234761D01*
X177880952Y-99282380D01*
X177785714Y-99282380D01*
X178595238Y-98377619D02*
X178642857Y-98330000D01*
X178738095Y-98282380D01*
X178976190Y-98282380D01*
X179071428Y-98330000D01*
X179119047Y-98377619D01*
X179166666Y-98472857D01*
X179166666Y-98568095D01*
X179119047Y-98710952D01*
X178547619Y-99282380D01*
X179166666Y-99282380D01*
X178440476Y-146202380D02*
X178773809Y-147202380D01*
X179107142Y-146202380D01*
X179964285Y-147202380D02*
X179392857Y-147202380D01*
X179678571Y-147202380D02*
X179678571Y-146202380D01*
X179583333Y-146345238D01*
X179488095Y-146440476D01*
X179392857Y-146488095D01*
X165440476Y-146202380D02*
X165773809Y-147202380D01*
X166107142Y-146202380D01*
X166392857Y-146297619D02*
X166440476Y-146250000D01*
X166535714Y-146202380D01*
X166773809Y-146202380D01*
X166869047Y-146250000D01*
X166916666Y-146297619D01*
X166964285Y-146392857D01*
X166964285Y-146488095D01*
X166916666Y-146630952D01*
X166345238Y-147202380D01*
X166964285Y-147202380D01*
X152440476Y-146202380D02*
X152773809Y-147202380D01*
X153107142Y-146202380D01*
X153345238Y-146202380D02*
X153964285Y-146202380D01*
X153630952Y-146583333D01*
X153773809Y-146583333D01*
X153869047Y-146630952D01*
X153916666Y-146678571D01*
X153964285Y-146773809D01*
X153964285Y-147011904D01*
X153916666Y-147107142D01*
X153869047Y-147154761D01*
X153773809Y-147202380D01*
X153488095Y-147202380D01*
X153392857Y-147154761D01*
X153345238Y-147107142D01*
X139440476Y-146202380D02*
X139773809Y-147202380D01*
X140107142Y-146202380D01*
X140869047Y-146535714D02*
X140869047Y-147202380D01*
X140630952Y-146154761D02*
X140392857Y-146869047D01*
X141011904Y-146869047D01*
X126190476Y-146202380D02*
X126523809Y-147202380D01*
X126857142Y-146202380D01*
X127666666Y-146202380D02*
X127190476Y-146202380D01*
X127142857Y-146678571D01*
X127190476Y-146630952D01*
X127285714Y-146583333D01*
X127523809Y-146583333D01*
X127619047Y-146630952D01*
X127666666Y-146678571D01*
X127714285Y-146773809D01*
X127714285Y-147011904D01*
X127666666Y-147107142D01*
X127619047Y-147154761D01*
X127523809Y-147202380D01*
X127285714Y-147202380D01*
X127190476Y-147154761D01*
X127142857Y-147107142D01*
X112982476Y-146279380D02*
X113315809Y-147279380D01*
X113649142Y-146279380D01*
X114411047Y-146279380D02*
X114220571Y-146279380D01*
X114125333Y-146327000D01*
X114077714Y-146374619D01*
X113982476Y-146517476D01*
X113934857Y-146707952D01*
X113934857Y-147088904D01*
X113982476Y-147184142D01*
X114030095Y-147231761D01*
X114125333Y-147279380D01*
X114315809Y-147279380D01*
X114411047Y-147231761D01*
X114458666Y-147184142D01*
X114506285Y-147088904D01*
X114506285Y-146850809D01*
X114458666Y-146755571D01*
X114411047Y-146707952D01*
X114315809Y-146660333D01*
X114125333Y-146660333D01*
X114030095Y-146707952D01*
X113982476Y-146755571D01*
X113934857Y-146850809D01*
X186380380Y-137072666D02*
X185904190Y-137406000D01*
X186380380Y-137644095D02*
X185380380Y-137644095D01*
X185380380Y-137263142D01*
X185428000Y-137167904D01*
X185475619Y-137120285D01*
X185570857Y-137072666D01*
X185713714Y-137072666D01*
X185808952Y-137120285D01*
X185856571Y-137167904D01*
X185904190Y-137263142D01*
X185904190Y-137644095D01*
X186380380Y-136120285D02*
X186380380Y-136691714D01*
X186380380Y-136406000D02*
X185380380Y-136406000D01*
X185523238Y-136501238D01*
X185618476Y-136596476D01*
X185666095Y-136691714D01*
X172172333Y-144446380D02*
X171839000Y-143970190D01*
X171600904Y-144446380D02*
X171600904Y-143446380D01*
X171981857Y-143446380D01*
X172077095Y-143494000D01*
X172124714Y-143541619D01*
X172172333Y-143636857D01*
X172172333Y-143779714D01*
X172124714Y-143874952D01*
X172077095Y-143922571D01*
X171981857Y-143970190D01*
X171600904Y-143970190D01*
X172553285Y-143541619D02*
X172600904Y-143494000D01*
X172696142Y-143446380D01*
X172934238Y-143446380D01*
X173029476Y-143494000D01*
X173077095Y-143541619D01*
X173124714Y-143636857D01*
X173124714Y-143732095D01*
X173077095Y-143874952D01*
X172505666Y-144446380D01*
X173124714Y-144446380D01*
X159154833Y-144446380D02*
X158821500Y-143970190D01*
X158583404Y-144446380D02*
X158583404Y-143446380D01*
X158964357Y-143446380D01*
X159059595Y-143494000D01*
X159107214Y-143541619D01*
X159154833Y-143636857D01*
X159154833Y-143779714D01*
X159107214Y-143874952D01*
X159059595Y-143922571D01*
X158964357Y-143970190D01*
X158583404Y-143970190D01*
X159488166Y-143446380D02*
X160107214Y-143446380D01*
X159773880Y-143827333D01*
X159916738Y-143827333D01*
X160011976Y-143874952D01*
X160059595Y-143922571D01*
X160107214Y-144017809D01*
X160107214Y-144255904D01*
X160059595Y-144351142D01*
X160011976Y-144398761D01*
X159916738Y-144446380D01*
X159631023Y-144446380D01*
X159535785Y-144398761D01*
X159488166Y-144351142D01*
X146264333Y-144446380D02*
X145931000Y-143970190D01*
X145692904Y-144446380D02*
X145692904Y-143446380D01*
X146073857Y-143446380D01*
X146169095Y-143494000D01*
X146216714Y-143541619D01*
X146264333Y-143636857D01*
X146264333Y-143779714D01*
X146216714Y-143874952D01*
X146169095Y-143922571D01*
X146073857Y-143970190D01*
X145692904Y-143970190D01*
X147121476Y-143779714D02*
X147121476Y-144446380D01*
X146883380Y-143398761D02*
X146645285Y-144113047D01*
X147264333Y-144113047D01*
X133183333Y-144446380D02*
X132850000Y-143970190D01*
X132611904Y-144446380D02*
X132611904Y-143446380D01*
X132992857Y-143446380D01*
X133088095Y-143494000D01*
X133135714Y-143541619D01*
X133183333Y-143636857D01*
X133183333Y-143779714D01*
X133135714Y-143874952D01*
X133088095Y-143922571D01*
X132992857Y-143970190D01*
X132611904Y-143970190D01*
X134088095Y-143446380D02*
X133611904Y-143446380D01*
X133564285Y-143922571D01*
X133611904Y-143874952D01*
X133707142Y-143827333D01*
X133945238Y-143827333D01*
X134040476Y-143874952D01*
X134088095Y-143922571D01*
X134135714Y-144017809D01*
X134135714Y-144255904D01*
X134088095Y-144351142D01*
X134040476Y-144398761D01*
X133945238Y-144446380D01*
X133707142Y-144446380D01*
X133611904Y-144398761D01*
X133564285Y-144351142D01*
X119721333Y-144446380D02*
X119388000Y-143970190D01*
X119149904Y-144446380D02*
X119149904Y-143446380D01*
X119530857Y-143446380D01*
X119626095Y-143494000D01*
X119673714Y-143541619D01*
X119721333Y-143636857D01*
X119721333Y-143779714D01*
X119673714Y-143874952D01*
X119626095Y-143922571D01*
X119530857Y-143970190D01*
X119149904Y-143970190D01*
X120578476Y-143446380D02*
X120388000Y-143446380D01*
X120292761Y-143494000D01*
X120245142Y-143541619D01*
X120149904Y-143684476D01*
X120102285Y-143874952D01*
X120102285Y-144255904D01*
X120149904Y-144351142D01*
X120197523Y-144398761D01*
X120292761Y-144446380D01*
X120483238Y-144446380D01*
X120578476Y-144398761D01*
X120626095Y-144351142D01*
X120673714Y-144255904D01*
X120673714Y-144017809D01*
X120626095Y-143922571D01*
X120578476Y-143874952D01*
X120483238Y-143827333D01*
X120292761Y-143827333D01*
X120197523Y-143874952D01*
X120149904Y-143922571D01*
X120102285Y-144017809D01*
M02*
