G04 #@! TF.GenerationSoftware,KiCad,Pcbnew,(5.1.2)-2*
G04 #@! TF.CreationDate,2019-09-18T13:09:57+09:00*
G04 #@! TF.ProjectId,VFD_Clock_LD8035,5646445f-436c-46f6-936b-5f4c44383033,rev?*
G04 #@! TF.SameCoordinates,Original*
G04 #@! TF.FileFunction,Soldermask,Bot*
G04 #@! TF.FilePolarity,Negative*
%FSLAX46Y46*%
G04 Gerber Fmt 4.6, Leading zero omitted, Abs format (unit mm)*
G04 Created by KiCad (PCBNEW (5.1.2)-2) date 2019-09-18 13:09:57*
%MOMM*%
%LPD*%
G04 APERTURE LIST*
%ADD10C,0.100000*%
%ADD11R,2.100000X2.100000*%
%ADD12O,2.100000X2.100000*%
%ADD13R,2.000000X2.000000*%
%ADD14O,2.000000X2.000000*%
%ADD15C,2.400000*%
%ADD16R,2.000000X2.800000*%
%ADD17O,2.000000X2.800000*%
%ADD18C,2.000000*%
G04 APERTURE END LIST*
D10*
X106500000Y-83996400D02*
X186500000Y-83996400D01*
X101500000Y-88996400D02*
G75*
G02X106500000Y-83996400I5000000J0D01*
G01*
X101500000Y-143996400D02*
X101500000Y-88996400D01*
X106500000Y-148996400D02*
G75*
G02X101500000Y-143996400I0J5000000D01*
G01*
X186500000Y-148996400D02*
X106500000Y-148996400D01*
X191500000Y-143996400D02*
G75*
G02X186500000Y-148996400I-5000000J0D01*
G01*
X191500000Y-88996400D02*
X191500000Y-143996400D01*
X186500000Y-83996400D02*
G75*
G02X191500000Y-88996400I0J-5000000D01*
G01*
X189100001Y-87996399D02*
G75*
G03X189100001Y-87996399I-1600000J0D01*
G01*
X107100000Y-144996400D02*
G75*
G03X107100000Y-144996400I-1600000J0D01*
G01*
X189100001Y-144996400D02*
G75*
G03X189100001Y-144996400I-1600000J0D01*
G01*
X107100000Y-87996399D02*
G75*
G03X107100000Y-87996399I-1600000J0D01*
G01*
D11*
X182880000Y-117094000D03*
D12*
X182880000Y-114554000D03*
X182880000Y-112014000D03*
X182880000Y-109474000D03*
X182880000Y-106934000D03*
D13*
X147500000Y-103000000D03*
D14*
X114480000Y-118240000D03*
X144960000Y-103000000D03*
X117020000Y-118240000D03*
X142420000Y-103000000D03*
X119560000Y-118240000D03*
X139880000Y-103000000D03*
X122100000Y-118240000D03*
X137340000Y-103000000D03*
X124640000Y-118240000D03*
X134800000Y-103000000D03*
X127180000Y-118240000D03*
X132260000Y-103000000D03*
X129720000Y-118240000D03*
X129720000Y-103000000D03*
X132260000Y-118240000D03*
X127180000Y-103000000D03*
X134800000Y-118240000D03*
X124640000Y-103000000D03*
X137340000Y-118240000D03*
X122100000Y-103000000D03*
X139880000Y-118240000D03*
X119560000Y-103000000D03*
X142420000Y-118240000D03*
X117020000Y-103000000D03*
X144960000Y-118240000D03*
X114480000Y-103000000D03*
X147500000Y-118240000D03*
X111940000Y-103000000D03*
X111940000Y-118240000D03*
D15*
X110490000Y-123190000D03*
X110490000Y-128190000D03*
X162306000Y-116078000D03*
X157306000Y-116078000D03*
X113792000Y-95178000D03*
X113792000Y-90678000D03*
X120292000Y-95178000D03*
X120292000Y-90678000D03*
X130810000Y-95178000D03*
X130810000Y-90678000D03*
X137310000Y-95178000D03*
X137310000Y-90678000D03*
D16*
X162306000Y-121920000D03*
D17*
X141986000Y-129540000D03*
X159766000Y-121920000D03*
X144526000Y-129540000D03*
X157226000Y-121920000D03*
X147066000Y-129540000D03*
X154686000Y-121920000D03*
X149606000Y-129540000D03*
X152146000Y-121920000D03*
X152146000Y-129540000D03*
X149606000Y-121920000D03*
X154686000Y-129540000D03*
X147066000Y-121920000D03*
X157226000Y-129540000D03*
X144526000Y-121920000D03*
X159766000Y-129540000D03*
X141986000Y-121920000D03*
X162306000Y-129540000D03*
D16*
X137160000Y-121920000D03*
D17*
X116840000Y-129540000D03*
X134620000Y-121920000D03*
X119380000Y-129540000D03*
X132080000Y-121920000D03*
X121920000Y-129540000D03*
X129540000Y-121920000D03*
X124460000Y-129540000D03*
X127000000Y-121920000D03*
X127000000Y-129540000D03*
X124460000Y-121920000D03*
X129540000Y-129540000D03*
X121920000Y-121920000D03*
X132080000Y-129540000D03*
X119380000Y-121920000D03*
X134620000Y-129540000D03*
X116840000Y-121920000D03*
X137160000Y-129540000D03*
D11*
X147500000Y-96500000D03*
D12*
X147500000Y-93960000D03*
X147500000Y-91420000D03*
X147500000Y-88880000D03*
D11*
X178500000Y-96500000D03*
D12*
X178500000Y-93960000D03*
X178500000Y-91420000D03*
X178500000Y-88880000D03*
D18*
X180500000Y-144250000D03*
X182500000Y-143000000D03*
X183750000Y-141000000D03*
X183750000Y-138500000D03*
X182500000Y-136500000D03*
X180500000Y-135250000D03*
X176000000Y-136500000D03*
X174750000Y-138500000D03*
X174750000Y-141000000D03*
X176000000Y-143000000D03*
X178000000Y-144250000D03*
X178000000Y-135250000D03*
X167500000Y-144250000D03*
X169500000Y-143000000D03*
X170750000Y-141000000D03*
X170750000Y-138500000D03*
X169500000Y-136500000D03*
X167500000Y-135250000D03*
X163000000Y-136500000D03*
X161750000Y-138500000D03*
X161750000Y-141000000D03*
X163000000Y-143000000D03*
X165000000Y-144250000D03*
X165000000Y-135250000D03*
X154500000Y-144250000D03*
X156500000Y-143000000D03*
X157750000Y-141000000D03*
X157750000Y-138500000D03*
X156500000Y-136500000D03*
X154500000Y-135250000D03*
X150000000Y-136500000D03*
X148750000Y-138500000D03*
X148750000Y-141000000D03*
X150000000Y-143000000D03*
X152000000Y-144250000D03*
X152000000Y-135250000D03*
X141500000Y-144250000D03*
X143500000Y-143000000D03*
X144750000Y-141000000D03*
X144750000Y-138500000D03*
X143500000Y-136500000D03*
X141500000Y-135250000D03*
X137000000Y-136500000D03*
X135750000Y-138500000D03*
X135750000Y-141000000D03*
X137000000Y-143000000D03*
X139000000Y-144250000D03*
X139000000Y-135250000D03*
X128250000Y-144250000D03*
X130250000Y-143000000D03*
X131500000Y-141000000D03*
X131500000Y-138500000D03*
X130250000Y-136500000D03*
X128250000Y-135250000D03*
X123750000Y-136500000D03*
X122500000Y-138500000D03*
X122500000Y-141000000D03*
X123750000Y-143000000D03*
X125750000Y-144250000D03*
X125750000Y-135250000D03*
X115042000Y-144327000D03*
X117042000Y-143077000D03*
X118292000Y-141077000D03*
X118292000Y-138577000D03*
X117042000Y-136577000D03*
X115042000Y-135327000D03*
X110542000Y-136577000D03*
X109292000Y-138577000D03*
X109292000Y-141077000D03*
X110542000Y-143077000D03*
X112542000Y-144327000D03*
X112542000Y-135327000D03*
X187706000Y-139446000D03*
D14*
X187706000Y-136906000D03*
X173609000Y-146304000D03*
D18*
X171069000Y-146304000D03*
X158051500Y-146304000D03*
D14*
X160591500Y-146304000D03*
X147701000Y-146304000D03*
D18*
X145161000Y-146304000D03*
X132080000Y-146304000D03*
D14*
X134620000Y-146304000D03*
X121158000Y-146304000D03*
D18*
X118618000Y-146304000D03*
M02*
