M48
; DRILL file {KiCad (5.1.2)-2} date 2019/09/18 13:19:16
; FORMAT={-:-/ absolute / inch / decimal}
; #@! TF.CreationDate,2019-09-18T13:19:16+09:00
; #@! TF.GenerationSoftware,Kicad,Pcbnew,(5.1.2)-2
; #@! TF.FileFunction,Plated,1,2,PTH
FMAT,2
INCH
T1C0.0157
T2C0.0236
T3C0.0315
T4C0.0394
T5C0.0433
%
G90
G05
T1
X4.4Y-3.9
X4.4Y-4.21
X4.4Y-4.33
X4.4Y-4.47
X4.51Y-4.33
X4.51Y-4.47
X4.55Y-3.9
X4.6Y-4.47
X4.65Y-5.005
X4.7Y-3.9
X4.75Y-5.005
X4.85Y-3.9
X4.85Y-5.005
X4.89Y-5.82
X4.95Y-5.82
X5.0Y-3.9
X5.01Y-5.82
X5.07Y-5.82
X5.1Y-3.9
X5.2Y-3.9
X5.24Y-5.26
X5.25Y-5.63
X5.3Y-5.27
X5.35Y-5.03
X5.365Y-4.37
X5.48Y-5.19
X5.52Y-5.8
X5.55Y-4.99
X5.6Y-4.99
X5.64Y-5.79
X5.65Y-3.9
X5.66Y-4.99
X5.72Y-4.99
X5.8Y-4.49
X5.8Y-4.49
X5.8Y-4.49
X5.84Y-4.49
X5.88Y-4.49
X5.91Y-4.57
X5.93Y-4.6
X5.94Y-4.64
X5.94Y-4.71
X5.94Y-5.29
X6.01Y-5.59
X6.08Y-4.43
X6.08Y-5.78
X6.13Y-4.43
X6.13Y-5.19
X6.19Y-5.3
X6.27Y-5.68
X6.32Y-5.33
X6.57Y-5.09
X6.62Y-5.09
X6.67Y-5.09
X6.68Y-5.27
X6.72Y-5.09
X6.77Y-5.09
X6.77Y-5.3
X6.78Y-5.52
X6.82Y-5.09
X7.31Y-5.25
T2
X6.0Y-3.6
X6.1Y-3.6
X6.2Y-3.6
X6.3Y-3.6
X6.4Y-3.6
X6.5Y-3.6
X6.6Y-3.6
X6.7Y-3.6
X6.8Y-3.6
X6.9Y-3.6
T3
X5.8563Y-5.4528
X5.8563Y-5.5512
X5.9055Y-5.374
X5.9055Y-5.6299
X5.9843Y-5.3248
X5.9843Y-5.6791
X6.0827Y-5.3248
X6.0827Y-5.6791
X6.1614Y-5.374
X6.1614Y-5.6299
X6.2106Y-5.4528
X6.2106Y-5.5512
X6.2225Y-5.76
X6.3225Y-5.76
X6.735Y-5.76
X6.835Y-5.76
X5.3445Y-5.4528
X5.3445Y-5.5512
X5.3937Y-5.374
X5.3937Y-5.6299
X5.4724Y-5.3248
X5.4724Y-5.6791
X5.5709Y-5.3248
X5.5709Y-5.6791
X5.6496Y-5.374
X5.6496Y-5.6299
X5.6988Y-5.4528
X5.6988Y-5.5512
X4.3028Y-5.4558
X4.3028Y-5.5542
X4.352Y-5.377
X4.352Y-5.633
X4.4308Y-5.3278
X4.4308Y-5.6822
X4.5292Y-5.3278
X4.5292Y-5.6822
X4.608Y-5.377
X4.608Y-5.633
X4.6572Y-5.4558
X4.6572Y-5.5542
X4.4071Y-4.0551
X4.4071Y-4.6551
X4.5071Y-4.0551
X4.5071Y-4.6551
X4.6071Y-4.0551
X4.6071Y-4.6551
X4.7071Y-4.0551
X4.7071Y-4.6551
X4.8071Y-4.0551
X4.8071Y-4.6551
X4.9071Y-4.0551
X4.9071Y-4.6551
X5.0071Y-4.0551
X5.0071Y-4.6551
X5.1071Y-4.0551
X5.1071Y-4.6551
X5.2071Y-4.0551
X5.2071Y-4.6551
X5.3071Y-4.0551
X5.3071Y-4.6551
X5.4071Y-4.0551
X5.4071Y-4.6551
X5.5071Y-4.0551
X5.5071Y-4.6551
X5.6071Y-4.0551
X5.6071Y-4.6551
X5.7071Y-4.0551
X5.7071Y-4.6551
X5.8071Y-4.0551
X5.8071Y-4.6551
X4.6Y-4.8
X4.6Y-5.1
X4.7Y-4.8
X4.7Y-5.1
X4.8Y-4.8
X4.8Y-5.1
X4.9Y-4.8
X4.9Y-5.1
X5.0Y-4.8
X5.0Y-5.1
X5.1Y-4.8
X5.1Y-5.1
X5.2Y-4.8
X5.2Y-5.1
X5.3Y-4.8
X5.3Y-5.1
X5.4Y-4.8
X5.4Y-5.1
X7.39Y-5.39
X7.39Y-5.49
X6.3681Y-5.4528
X6.3681Y-5.5512
X6.4173Y-5.374
X6.4173Y-5.6299
X6.4961Y-5.3248
X6.4961Y-5.6791
X6.5945Y-5.3248
X6.5945Y-5.6791
X6.6732Y-5.374
X6.6732Y-5.6299
X6.7224Y-5.4528
X6.7224Y-5.5512
X4.67Y-5.76
X4.77Y-5.76
X5.715Y-5.76
X5.815Y-5.76
X6.8799Y-5.4528
X6.8799Y-5.5512
X6.9291Y-5.374
X6.9291Y-5.6299
X7.0079Y-5.3248
X7.0079Y-5.6791
X7.1063Y-5.3248
X7.1063Y-5.6791
X7.185Y-5.374
X7.185Y-5.6299
X7.2343Y-5.4528
X7.2343Y-5.5512
X4.8228Y-5.4528
X4.8228Y-5.5512
X4.872Y-5.374
X4.872Y-5.6299
X4.9508Y-5.3248
X4.9508Y-5.6791
X5.0492Y-5.3248
X5.0492Y-5.6791
X5.128Y-5.374
X5.128Y-5.6299
X5.1772Y-5.4528
X5.1772Y-5.5512
X5.2Y-5.76
X5.3Y-5.76
X5.59Y-4.8
X5.59Y-5.1
X5.69Y-4.8
X5.69Y-5.1
X5.79Y-4.8
X5.79Y-5.1
X5.89Y-4.8
X5.89Y-5.1
X5.99Y-4.8
X5.99Y-5.1
X6.09Y-4.8
X6.09Y-5.1
X6.19Y-4.8
X6.19Y-5.1
X6.29Y-4.8
X6.29Y-5.1
X6.39Y-4.8
X6.39Y-5.1
T4
X5.8071Y-3.4992
X5.8071Y-3.5992
X5.8071Y-3.6992
X5.8071Y-3.7992
X7.2Y-4.21
X7.2Y-4.31
X7.2Y-4.41
X7.2Y-4.51
X7.2Y-4.61
X7.0276Y-3.4992
X7.0276Y-3.5992
X7.0276Y-3.6992
X7.0276Y-3.7992
X6.1931Y-4.57
X6.39Y-4.57
X4.35Y-4.85
X4.35Y-5.0469
T5
X4.48Y-3.57
X4.48Y-3.7472
X4.7359Y-3.57
X4.7359Y-3.7472
X5.15Y-3.57
X5.15Y-3.7472
X5.4059Y-3.57
X5.4059Y-3.7472
T0
M30
