G04 #@! TF.GenerationSoftware,KiCad,Pcbnew,(5.1.2)-2*
G04 #@! TF.CreationDate,2019-09-18T13:09:57+09:00*
G04 #@! TF.ProjectId,VFD_Clock_LD8035,5646445f-436c-46f6-936b-5f4c44383033,rev?*
G04 #@! TF.SameCoordinates,Original*
G04 #@! TF.FileFunction,Soldermask,Top*
G04 #@! TF.FilePolarity,Negative*
%FSLAX46Y46*%
G04 Gerber Fmt 4.6, Leading zero omitted, Abs format (unit mm)*
G04 Created by KiCad (PCBNEW (5.1.2)-2) date 2019-09-18 13:09:57*
%MOMM*%
%LPD*%
G04 APERTURE LIST*
%ADD10C,0.100000*%
%ADD11C,0.010000*%
%ADD12R,2.100000X2.100000*%
%ADD13O,2.100000X2.100000*%
%ADD14R,2.000000X2.000000*%
%ADD15O,2.000000X2.000000*%
%ADD16C,2.400000*%
%ADD17R,2.000000X2.800000*%
%ADD18O,2.000000X2.800000*%
%ADD19C,2.000000*%
G04 APERTURE END LIST*
D10*
X106500000Y-83996400D02*
X186500000Y-83996400D01*
X101500000Y-88996400D02*
G75*
G02X106500000Y-83996400I5000000J0D01*
G01*
X101500000Y-143996400D02*
X101500000Y-88996400D01*
X106500000Y-148996400D02*
G75*
G02X101500000Y-143996400I0J5000000D01*
G01*
X186500000Y-148996400D02*
X106500000Y-148996400D01*
X191500000Y-143996400D02*
G75*
G02X186500000Y-148996400I-5000000J0D01*
G01*
X191500000Y-88996400D02*
X191500000Y-143996400D01*
X186500000Y-83996400D02*
G75*
G02X191500000Y-88996400I0J-5000000D01*
G01*
X189100001Y-87996399D02*
G75*
G03X189100001Y-87996399I-1600000J0D01*
G01*
X107100000Y-144996400D02*
G75*
G03X107100000Y-144996400I-1600000J0D01*
G01*
X189100001Y-144996400D02*
G75*
G03X189100001Y-144996400I-1600000J0D01*
G01*
X107100000Y-87996399D02*
G75*
G03X107100000Y-87996399I-1600000J0D01*
G01*
D11*
G36*
X105477139Y-95143503D02*
G01*
X105573617Y-95155394D01*
X105883240Y-95228740D01*
X106186724Y-95345473D01*
X106474266Y-95500378D01*
X106736060Y-95688240D01*
X106944562Y-95884427D01*
X107016523Y-95965729D01*
X107087512Y-96051986D01*
X107150887Y-96134308D01*
X107200008Y-96203804D01*
X107228235Y-96251583D01*
X107231245Y-96268245D01*
X107206149Y-96283392D01*
X107153153Y-96314200D01*
X107126898Y-96329287D01*
X107031228Y-96384090D01*
X106119529Y-95857876D01*
X105924187Y-95745521D01*
X105741790Y-95641369D01*
X105577001Y-95548027D01*
X105434485Y-95468102D01*
X105318903Y-95404201D01*
X105234920Y-95358931D01*
X105187199Y-95334899D01*
X105178315Y-95331661D01*
X105147003Y-95343616D01*
X105081127Y-95376459D01*
X104989296Y-95425660D01*
X104880117Y-95486688D01*
X104837842Y-95510899D01*
X104706144Y-95588854D01*
X104616995Y-95646609D01*
X104567929Y-95685951D01*
X104556477Y-95708664D01*
X104559638Y-95712263D01*
X104651991Y-95770686D01*
X104731979Y-95808441D01*
X104815069Y-95829396D01*
X104916729Y-95837416D01*
X105052428Y-95836367D01*
X105055803Y-95836274D01*
X105293499Y-95844133D01*
X105495762Y-95882778D01*
X105667606Y-95953429D01*
X105749762Y-96005496D01*
X105871437Y-96117595D01*
X105946971Y-96240010D01*
X105977863Y-96367559D01*
X105965616Y-96495064D01*
X105911730Y-96617344D01*
X105817706Y-96729221D01*
X105685044Y-96825514D01*
X105515246Y-96901043D01*
X105487692Y-96909946D01*
X105310770Y-96946934D01*
X105114028Y-96959092D01*
X104918489Y-96946465D01*
X104745179Y-96909099D01*
X104742687Y-96908296D01*
X104581399Y-96838908D01*
X104446923Y-96747000D01*
X104344639Y-96638690D01*
X104279925Y-96520095D01*
X104258160Y-96397332D01*
X104260847Y-96360333D01*
X104273603Y-96265226D01*
X103901409Y-96053464D01*
X103611115Y-96218608D01*
X103320822Y-96383752D01*
X103230176Y-96329293D01*
X103171866Y-96293893D01*
X103134680Y-96270629D01*
X103129603Y-96267169D01*
X103134082Y-96241179D01*
X103166902Y-96186394D01*
X103222161Y-96110590D01*
X103293956Y-96021541D01*
X103376385Y-95927021D01*
X103437928Y-95861063D01*
X103692397Y-95632271D01*
X103977468Y-95441149D01*
X104286933Y-95291382D01*
X104543041Y-95205149D01*
X104698684Y-95172690D01*
X104886813Y-95149480D01*
X105090530Y-95136335D01*
X105292938Y-95134071D01*
X105477139Y-95143503D01*
X105477139Y-95143503D01*
G37*
X105477139Y-95143503D02*
X105573617Y-95155394D01*
X105883240Y-95228740D01*
X106186724Y-95345473D01*
X106474266Y-95500378D01*
X106736060Y-95688240D01*
X106944562Y-95884427D01*
X107016523Y-95965729D01*
X107087512Y-96051986D01*
X107150887Y-96134308D01*
X107200008Y-96203804D01*
X107228235Y-96251583D01*
X107231245Y-96268245D01*
X107206149Y-96283392D01*
X107153153Y-96314200D01*
X107126898Y-96329287D01*
X107031228Y-96384090D01*
X106119529Y-95857876D01*
X105924187Y-95745521D01*
X105741790Y-95641369D01*
X105577001Y-95548027D01*
X105434485Y-95468102D01*
X105318903Y-95404201D01*
X105234920Y-95358931D01*
X105187199Y-95334899D01*
X105178315Y-95331661D01*
X105147003Y-95343616D01*
X105081127Y-95376459D01*
X104989296Y-95425660D01*
X104880117Y-95486688D01*
X104837842Y-95510899D01*
X104706144Y-95588854D01*
X104616995Y-95646609D01*
X104567929Y-95685951D01*
X104556477Y-95708664D01*
X104559638Y-95712263D01*
X104651991Y-95770686D01*
X104731979Y-95808441D01*
X104815069Y-95829396D01*
X104916729Y-95837416D01*
X105052428Y-95836367D01*
X105055803Y-95836274D01*
X105293499Y-95844133D01*
X105495762Y-95882778D01*
X105667606Y-95953429D01*
X105749762Y-96005496D01*
X105871437Y-96117595D01*
X105946971Y-96240010D01*
X105977863Y-96367559D01*
X105965616Y-96495064D01*
X105911730Y-96617344D01*
X105817706Y-96729221D01*
X105685044Y-96825514D01*
X105515246Y-96901043D01*
X105487692Y-96909946D01*
X105310770Y-96946934D01*
X105114028Y-96959092D01*
X104918489Y-96946465D01*
X104745179Y-96909099D01*
X104742687Y-96908296D01*
X104581399Y-96838908D01*
X104446923Y-96747000D01*
X104344639Y-96638690D01*
X104279925Y-96520095D01*
X104258160Y-96397332D01*
X104260847Y-96360333D01*
X104273603Y-96265226D01*
X103901409Y-96053464D01*
X103611115Y-96218608D01*
X103320822Y-96383752D01*
X103230176Y-96329293D01*
X103171866Y-96293893D01*
X103134680Y-96270629D01*
X103129603Y-96267169D01*
X103134082Y-96241179D01*
X103166902Y-96186394D01*
X103222161Y-96110590D01*
X103293956Y-96021541D01*
X103376385Y-95927021D01*
X103437928Y-95861063D01*
X103692397Y-95632271D01*
X103977468Y-95441149D01*
X104286933Y-95291382D01*
X104543041Y-95205149D01*
X104698684Y-95172690D01*
X104886813Y-95149480D01*
X105090530Y-95136335D01*
X105292938Y-95134071D01*
X105477139Y-95143503D01*
G36*
X107339986Y-96429444D02*
G01*
X107365958Y-96471721D01*
X107400781Y-96551325D01*
X107440608Y-96657120D01*
X107481592Y-96777971D01*
X107519885Y-96902741D01*
X107551641Y-97020295D01*
X107566382Y-97084778D01*
X107596606Y-97297515D01*
X107607244Y-97534900D01*
X107598811Y-97778183D01*
X107571824Y-98008613D01*
X107536433Y-98174009D01*
X107421980Y-98501825D01*
X107265876Y-98804986D01*
X107071639Y-99080505D01*
X106842788Y-99325396D01*
X106582842Y-99536672D01*
X106295319Y-99711348D01*
X105983738Y-99846437D01*
X105651618Y-99938953D01*
X105412756Y-99976359D01*
X105256198Y-99993320D01*
X105256198Y-99749609D01*
X106183022Y-99215316D01*
X107109847Y-98681024D01*
X107109847Y-97932654D01*
X106978338Y-98010368D01*
X106904050Y-98054763D01*
X106845992Y-98090354D01*
X106821249Y-98106371D01*
X106799067Y-98136146D01*
X106762392Y-98199413D01*
X106717971Y-98284291D01*
X106702891Y-98314754D01*
X106602157Y-98486148D01*
X106483561Y-98630302D01*
X106352510Y-98745406D01*
X106214408Y-98829651D01*
X106074662Y-98881224D01*
X105938677Y-98898318D01*
X105811858Y-98879120D01*
X105699609Y-98821820D01*
X105607338Y-98724609D01*
X105585290Y-98689055D01*
X105527466Y-98536960D01*
X105510009Y-98365643D01*
X105530974Y-98182706D01*
X105588417Y-97995754D01*
X105680394Y-97812390D01*
X105804961Y-97640218D01*
X105872050Y-97567494D01*
X106006652Y-97446629D01*
X106132240Y-97367293D01*
X106259137Y-97324801D01*
X106397665Y-97314465D01*
X106426444Y-97315768D01*
X106528654Y-97327266D01*
X106597472Y-97349826D01*
X106643428Y-97382880D01*
X106704664Y-97440408D01*
X106906904Y-97331646D01*
X107109143Y-97222884D01*
X107109495Y-96880999D01*
X107109847Y-96539115D01*
X107216306Y-96475824D01*
X107280780Y-96442481D01*
X107327330Y-96427532D01*
X107339986Y-96429444D01*
X107339986Y-96429444D01*
G37*
X107339986Y-96429444D02*
X107365958Y-96471721D01*
X107400781Y-96551325D01*
X107440608Y-96657120D01*
X107481592Y-96777971D01*
X107519885Y-96902741D01*
X107551641Y-97020295D01*
X107566382Y-97084778D01*
X107596606Y-97297515D01*
X107607244Y-97534900D01*
X107598811Y-97778183D01*
X107571824Y-98008613D01*
X107536433Y-98174009D01*
X107421980Y-98501825D01*
X107265876Y-98804986D01*
X107071639Y-99080505D01*
X106842788Y-99325396D01*
X106582842Y-99536672D01*
X106295319Y-99711348D01*
X105983738Y-99846437D01*
X105651618Y-99938953D01*
X105412756Y-99976359D01*
X105256198Y-99993320D01*
X105256198Y-99749609D01*
X106183022Y-99215316D01*
X107109847Y-98681024D01*
X107109847Y-97932654D01*
X106978338Y-98010368D01*
X106904050Y-98054763D01*
X106845992Y-98090354D01*
X106821249Y-98106371D01*
X106799067Y-98136146D01*
X106762392Y-98199413D01*
X106717971Y-98284291D01*
X106702891Y-98314754D01*
X106602157Y-98486148D01*
X106483561Y-98630302D01*
X106352510Y-98745406D01*
X106214408Y-98829651D01*
X106074662Y-98881224D01*
X105938677Y-98898318D01*
X105811858Y-98879120D01*
X105699609Y-98821820D01*
X105607338Y-98724609D01*
X105585290Y-98689055D01*
X105527466Y-98536960D01*
X105510009Y-98365643D01*
X105530974Y-98182706D01*
X105588417Y-97995754D01*
X105680394Y-97812390D01*
X105804961Y-97640218D01*
X105872050Y-97567494D01*
X106006652Y-97446629D01*
X106132240Y-97367293D01*
X106259137Y-97324801D01*
X106397665Y-97314465D01*
X106426444Y-97315768D01*
X106528654Y-97327266D01*
X106597472Y-97349826D01*
X106643428Y-97382880D01*
X106704664Y-97440408D01*
X106906904Y-97331646D01*
X107109143Y-97222884D01*
X107109495Y-96880999D01*
X107109847Y-96539115D01*
X107216306Y-96475824D01*
X107280780Y-96442481D01*
X107327330Y-96427532D01*
X107339986Y-96429444D01*
G36*
X103072326Y-96445852D02*
G01*
X103125982Y-96475740D01*
X103142837Y-96485972D01*
X103227204Y-96538114D01*
X103227204Y-97625716D01*
X103227621Y-97853439D01*
X103228815Y-98064725D01*
X103230698Y-98254519D01*
X103233182Y-98417768D01*
X103236180Y-98549418D01*
X103239603Y-98644416D01*
X103243364Y-98697707D01*
X103245991Y-98707577D01*
X103281094Y-98714407D01*
X103335172Y-98741001D01*
X103393204Y-98777620D01*
X103440167Y-98814529D01*
X103461040Y-98841991D01*
X103460283Y-98846475D01*
X103461543Y-98859237D01*
X103473009Y-98853986D01*
X103503900Y-98856584D01*
X103559128Y-98876920D01*
X103624635Y-98907783D01*
X103686365Y-98941965D01*
X103730258Y-98972254D01*
X103742256Y-98991441D01*
X103741872Y-98991878D01*
X103753533Y-99002348D01*
X103785741Y-99007794D01*
X103810944Y-99007910D01*
X103826375Y-98997090D01*
X103833638Y-98966262D01*
X103834339Y-98906357D01*
X103830083Y-98808304D01*
X103828018Y-98768928D01*
X103826037Y-98738367D01*
X104705113Y-98738367D01*
X104714278Y-98758985D01*
X104721812Y-98755067D01*
X104724810Y-98725339D01*
X104721812Y-98721667D01*
X104706921Y-98725106D01*
X104705113Y-98738367D01*
X103826037Y-98738367D01*
X103823601Y-98700793D01*
X104655014Y-98700793D01*
X104667539Y-98713318D01*
X104680064Y-98700793D01*
X104667539Y-98688268D01*
X104655014Y-98700793D01*
X103823601Y-98700793D01*
X103820416Y-98651668D01*
X103809832Y-98569453D01*
X103792390Y-98507236D01*
X103764216Y-98449971D01*
X103733042Y-98400201D01*
X103778288Y-98400201D01*
X103790813Y-98412726D01*
X103803338Y-98400201D01*
X103790813Y-98387677D01*
X103778288Y-98400201D01*
X103733042Y-98400201D01*
X103652630Y-98249905D01*
X104805310Y-98249905D01*
X104817835Y-98262430D01*
X104830359Y-98249905D01*
X104817835Y-98237381D01*
X104805310Y-98249905D01*
X103652630Y-98249905D01*
X103638958Y-98224352D01*
X103582749Y-98049511D01*
X104680064Y-98049511D01*
X104692588Y-98062036D01*
X104705113Y-98049511D01*
X104692588Y-98036986D01*
X104680064Y-98049511D01*
X103582749Y-98049511D01*
X103580989Y-98044038D01*
X103559148Y-97866794D01*
X103573447Y-97700150D01*
X103623899Y-97551641D01*
X103710515Y-97428799D01*
X103716245Y-97423278D01*
X103728190Y-97423278D01*
X103740714Y-97435803D01*
X103753239Y-97423278D01*
X103740714Y-97410754D01*
X103728190Y-97423278D01*
X103716245Y-97423278D01*
X103731411Y-97408666D01*
X103774532Y-97373180D01*
X104053831Y-97373180D01*
X104066355Y-97385704D01*
X104078880Y-97373180D01*
X104066355Y-97360655D01*
X104053831Y-97373180D01*
X103774532Y-97373180D01*
X103779455Y-97369129D01*
X103825465Y-97345628D01*
X103884908Y-97333823D01*
X103973253Y-97329370D01*
X104016257Y-97328719D01*
X104098960Y-97336364D01*
X104184670Y-97357686D01*
X104261562Y-97387665D01*
X104317812Y-97421283D01*
X104341596Y-97453521D01*
X104338912Y-97465683D01*
X104336968Y-97481844D01*
X104349982Y-97476121D01*
X104386406Y-97480745D01*
X104441955Y-97518585D01*
X104508783Y-97580636D01*
X104579044Y-97657896D01*
X104644892Y-97741362D01*
X104698479Y-97822031D01*
X104731960Y-97890899D01*
X104739122Y-97922630D01*
X104748008Y-97963753D01*
X104760516Y-97971073D01*
X104780704Y-97982511D01*
X104801948Y-98032564D01*
X104821922Y-98109864D01*
X104838303Y-98203042D01*
X104848767Y-98300729D01*
X104850990Y-98391556D01*
X104850142Y-98409486D01*
X104834553Y-98528064D01*
X104806100Y-98633236D01*
X104768944Y-98715062D01*
X104727244Y-98763602D01*
X104698195Y-98772507D01*
X104668279Y-98778935D01*
X104668228Y-98789580D01*
X104660127Y-98817377D01*
X104629560Y-98846048D01*
X104607713Y-98864989D01*
X104593481Y-98891601D01*
X104585600Y-98935358D01*
X104582808Y-99005734D01*
X104583842Y-99112204D01*
X104585305Y-99178035D01*
X104592391Y-99474061D01*
X104684596Y-99525790D01*
X104756171Y-99565886D01*
X104849319Y-99617991D01*
X104928827Y-99662419D01*
X105080853Y-99747319D01*
X105080853Y-99869076D01*
X105079701Y-99938615D01*
X105076764Y-99981075D01*
X105074590Y-99987540D01*
X105048500Y-99983194D01*
X104986227Y-99974993D01*
X104903144Y-99964938D01*
X104777190Y-99945944D01*
X104644599Y-99918727D01*
X104513693Y-99885904D01*
X104392795Y-99850090D01*
X104290227Y-99813901D01*
X104265768Y-99802963D01*
X104955606Y-99802963D01*
X104968131Y-99815487D01*
X104980655Y-99802963D01*
X104968131Y-99790438D01*
X104955606Y-99802963D01*
X104265768Y-99802963D01*
X104214313Y-99779953D01*
X104211443Y-99777913D01*
X104429570Y-99777913D01*
X104442095Y-99790438D01*
X104454620Y-99777913D01*
X104442095Y-99765389D01*
X104429570Y-99777913D01*
X104211443Y-99777913D01*
X104176194Y-99752864D01*
X104229176Y-99752864D01*
X104241701Y-99765389D01*
X104254225Y-99752864D01*
X104241701Y-99740339D01*
X104229176Y-99752864D01*
X104176194Y-99752864D01*
X104173376Y-99750862D01*
X104170126Y-99734558D01*
X104171088Y-99719417D01*
X104158634Y-99724968D01*
X104120026Y-99724051D01*
X104063366Y-99702765D01*
X104855409Y-99702765D01*
X104867933Y-99715290D01*
X104880458Y-99702765D01*
X104867933Y-99690241D01*
X104855409Y-99702765D01*
X104063366Y-99702765D01*
X104053679Y-99699126D01*
X103969686Y-99656563D01*
X103878138Y-99602730D01*
X103856442Y-99588413D01*
X104661156Y-99588413D01*
X104664582Y-99590044D01*
X104680817Y-99577519D01*
X104730162Y-99577519D01*
X104742687Y-99590044D01*
X104755212Y-99577519D01*
X104742687Y-99564994D01*
X104730162Y-99577519D01*
X104680817Y-99577519D01*
X104687442Y-99572409D01*
X104692588Y-99564994D01*
X104698971Y-99541576D01*
X104695545Y-99539945D01*
X104672685Y-99557579D01*
X104667539Y-99564994D01*
X104661156Y-99588413D01*
X103856442Y-99588413D01*
X103789130Y-99543996D01*
X103767022Y-99527420D01*
X103928584Y-99527420D01*
X103941109Y-99539945D01*
X103953634Y-99527420D01*
X103941109Y-99514896D01*
X103928584Y-99527420D01*
X103767022Y-99527420D01*
X103712753Y-99486732D01*
X103659099Y-99437306D01*
X103638263Y-99402086D01*
X103639016Y-99397054D01*
X103638848Y-99374241D01*
X103628413Y-99376864D01*
X103592663Y-99376313D01*
X103546108Y-99352933D01*
X103506698Y-99319311D01*
X103498766Y-99301976D01*
X103602943Y-99301976D01*
X103615468Y-99314501D01*
X103627993Y-99301976D01*
X103615468Y-99289452D01*
X103602943Y-99301976D01*
X103498766Y-99301976D01*
X103492384Y-99288032D01*
X103494307Y-99282842D01*
X103494374Y-99268591D01*
X103482668Y-99273855D01*
X103451591Y-99267095D01*
X103413765Y-99226829D01*
X103427598Y-99226829D01*
X103440123Y-99239353D01*
X103452647Y-99226829D01*
X103440123Y-99214304D01*
X103427598Y-99226829D01*
X103413765Y-99226829D01*
X103413267Y-99226299D01*
X103409998Y-99221364D01*
X103366033Y-99161988D01*
X103315027Y-99101582D01*
X103402549Y-99101582D01*
X103415073Y-99114107D01*
X103427598Y-99101582D01*
X103415073Y-99089057D01*
X103402549Y-99101582D01*
X103315027Y-99101582D01*
X103304498Y-99089113D01*
X103270595Y-99052147D01*
X103237418Y-99012278D01*
X103659183Y-99012278D01*
X103662610Y-99013909D01*
X103685469Y-98996275D01*
X103690616Y-98988860D01*
X103696999Y-98965442D01*
X103693573Y-98963811D01*
X103670713Y-98981445D01*
X103665567Y-98988860D01*
X103659183Y-99012278D01*
X103237418Y-99012278D01*
X103220260Y-98991660D01*
X103196742Y-98951286D01*
X103502746Y-98951286D01*
X103515271Y-98963811D01*
X103527795Y-98951286D01*
X103602943Y-98951286D01*
X103615468Y-98963811D01*
X103627993Y-98951286D01*
X103615468Y-98938761D01*
X103602943Y-98951286D01*
X103527795Y-98951286D01*
X103515271Y-98938761D01*
X103502746Y-98951286D01*
X103196742Y-98951286D01*
X103191198Y-98941770D01*
X103188197Y-98920938D01*
X103183624Y-98896033D01*
X103172003Y-98895226D01*
X103147733Y-98876837D01*
X103129946Y-98851089D01*
X103202154Y-98851089D01*
X103214679Y-98863614D01*
X103227204Y-98851089D01*
X103214679Y-98838564D01*
X103202154Y-98851089D01*
X103129946Y-98851089D01*
X103109328Y-98821245D01*
X103061460Y-98737678D01*
X103055369Y-98725842D01*
X103152056Y-98725842D01*
X103164580Y-98738367D01*
X103177105Y-98725842D01*
X103164580Y-98713318D01*
X103152056Y-98725842D01*
X103055369Y-98725842D01*
X103008805Y-98635368D01*
X102956035Y-98523543D01*
X102907824Y-98411433D01*
X102868845Y-98308269D01*
X102857929Y-98274955D01*
X102824157Y-98153936D01*
X102792483Y-98020119D01*
X102774130Y-97926716D01*
X102763225Y-97832517D01*
X102756944Y-97714116D01*
X102754982Y-97582316D01*
X102757037Y-97447922D01*
X102762806Y-97321740D01*
X102771985Y-97214572D01*
X102784271Y-97137224D01*
X102797266Y-97102577D01*
X102814951Y-97066793D01*
X102811897Y-97053896D01*
X102809289Y-97020763D01*
X102823433Y-96953337D01*
X102850255Y-96862545D01*
X102885683Y-96759316D01*
X102919071Y-96671799D01*
X102951661Y-96671799D01*
X102964186Y-96684324D01*
X102976711Y-96671799D01*
X102964186Y-96659274D01*
X102951661Y-96671799D01*
X102919071Y-96671799D01*
X102925642Y-96654576D01*
X102939581Y-96621700D01*
X103076908Y-96621700D01*
X103089432Y-96634225D01*
X103101957Y-96621700D01*
X103089432Y-96609176D01*
X103076908Y-96621700D01*
X102939581Y-96621700D01*
X102950201Y-96596651D01*
X103152056Y-96596651D01*
X103164580Y-96609176D01*
X103177105Y-96596651D01*
X103164580Y-96584126D01*
X103152056Y-96596651D01*
X102950201Y-96596651D01*
X102966057Y-96559255D01*
X102972291Y-96546552D01*
X103127006Y-96546552D01*
X103139531Y-96559077D01*
X103152056Y-96546552D01*
X103139531Y-96534028D01*
X103127006Y-96546552D01*
X102972291Y-96546552D01*
X102996879Y-96496454D01*
X103076908Y-96496454D01*
X103089432Y-96508978D01*
X103101957Y-96496454D01*
X103089432Y-96483929D01*
X103076908Y-96496454D01*
X102996879Y-96496454D01*
X103002855Y-96484280D01*
X103031962Y-96440578D01*
X103043061Y-96433831D01*
X103072326Y-96445852D01*
X103072326Y-96445852D01*
G37*
X103072326Y-96445852D02*
X103125982Y-96475740D01*
X103142837Y-96485972D01*
X103227204Y-96538114D01*
X103227204Y-97625716D01*
X103227621Y-97853439D01*
X103228815Y-98064725D01*
X103230698Y-98254519D01*
X103233182Y-98417768D01*
X103236180Y-98549418D01*
X103239603Y-98644416D01*
X103243364Y-98697707D01*
X103245991Y-98707577D01*
X103281094Y-98714407D01*
X103335172Y-98741001D01*
X103393204Y-98777620D01*
X103440167Y-98814529D01*
X103461040Y-98841991D01*
X103460283Y-98846475D01*
X103461543Y-98859237D01*
X103473009Y-98853986D01*
X103503900Y-98856584D01*
X103559128Y-98876920D01*
X103624635Y-98907783D01*
X103686365Y-98941965D01*
X103730258Y-98972254D01*
X103742256Y-98991441D01*
X103741872Y-98991878D01*
X103753533Y-99002348D01*
X103785741Y-99007794D01*
X103810944Y-99007910D01*
X103826375Y-98997090D01*
X103833638Y-98966262D01*
X103834339Y-98906357D01*
X103830083Y-98808304D01*
X103828018Y-98768928D01*
X103826037Y-98738367D01*
X104705113Y-98738367D01*
X104714278Y-98758985D01*
X104721812Y-98755067D01*
X104724810Y-98725339D01*
X104721812Y-98721667D01*
X104706921Y-98725106D01*
X104705113Y-98738367D01*
X103826037Y-98738367D01*
X103823601Y-98700793D01*
X104655014Y-98700793D01*
X104667539Y-98713318D01*
X104680064Y-98700793D01*
X104667539Y-98688268D01*
X104655014Y-98700793D01*
X103823601Y-98700793D01*
X103820416Y-98651668D01*
X103809832Y-98569453D01*
X103792390Y-98507236D01*
X103764216Y-98449971D01*
X103733042Y-98400201D01*
X103778288Y-98400201D01*
X103790813Y-98412726D01*
X103803338Y-98400201D01*
X103790813Y-98387677D01*
X103778288Y-98400201D01*
X103733042Y-98400201D01*
X103652630Y-98249905D01*
X104805310Y-98249905D01*
X104817835Y-98262430D01*
X104830359Y-98249905D01*
X104817835Y-98237381D01*
X104805310Y-98249905D01*
X103652630Y-98249905D01*
X103638958Y-98224352D01*
X103582749Y-98049511D01*
X104680064Y-98049511D01*
X104692588Y-98062036D01*
X104705113Y-98049511D01*
X104692588Y-98036986D01*
X104680064Y-98049511D01*
X103582749Y-98049511D01*
X103580989Y-98044038D01*
X103559148Y-97866794D01*
X103573447Y-97700150D01*
X103623899Y-97551641D01*
X103710515Y-97428799D01*
X103716245Y-97423278D01*
X103728190Y-97423278D01*
X103740714Y-97435803D01*
X103753239Y-97423278D01*
X103740714Y-97410754D01*
X103728190Y-97423278D01*
X103716245Y-97423278D01*
X103731411Y-97408666D01*
X103774532Y-97373180D01*
X104053831Y-97373180D01*
X104066355Y-97385704D01*
X104078880Y-97373180D01*
X104066355Y-97360655D01*
X104053831Y-97373180D01*
X103774532Y-97373180D01*
X103779455Y-97369129D01*
X103825465Y-97345628D01*
X103884908Y-97333823D01*
X103973253Y-97329370D01*
X104016257Y-97328719D01*
X104098960Y-97336364D01*
X104184670Y-97357686D01*
X104261562Y-97387665D01*
X104317812Y-97421283D01*
X104341596Y-97453521D01*
X104338912Y-97465683D01*
X104336968Y-97481844D01*
X104349982Y-97476121D01*
X104386406Y-97480745D01*
X104441955Y-97518585D01*
X104508783Y-97580636D01*
X104579044Y-97657896D01*
X104644892Y-97741362D01*
X104698479Y-97822031D01*
X104731960Y-97890899D01*
X104739122Y-97922630D01*
X104748008Y-97963753D01*
X104760516Y-97971073D01*
X104780704Y-97982511D01*
X104801948Y-98032564D01*
X104821922Y-98109864D01*
X104838303Y-98203042D01*
X104848767Y-98300729D01*
X104850990Y-98391556D01*
X104850142Y-98409486D01*
X104834553Y-98528064D01*
X104806100Y-98633236D01*
X104768944Y-98715062D01*
X104727244Y-98763602D01*
X104698195Y-98772507D01*
X104668279Y-98778935D01*
X104668228Y-98789580D01*
X104660127Y-98817377D01*
X104629560Y-98846048D01*
X104607713Y-98864989D01*
X104593481Y-98891601D01*
X104585600Y-98935358D01*
X104582808Y-99005734D01*
X104583842Y-99112204D01*
X104585305Y-99178035D01*
X104592391Y-99474061D01*
X104684596Y-99525790D01*
X104756171Y-99565886D01*
X104849319Y-99617991D01*
X104928827Y-99662419D01*
X105080853Y-99747319D01*
X105080853Y-99869076D01*
X105079701Y-99938615D01*
X105076764Y-99981075D01*
X105074590Y-99987540D01*
X105048500Y-99983194D01*
X104986227Y-99974993D01*
X104903144Y-99964938D01*
X104777190Y-99945944D01*
X104644599Y-99918727D01*
X104513693Y-99885904D01*
X104392795Y-99850090D01*
X104290227Y-99813901D01*
X104265768Y-99802963D01*
X104955606Y-99802963D01*
X104968131Y-99815487D01*
X104980655Y-99802963D01*
X104968131Y-99790438D01*
X104955606Y-99802963D01*
X104265768Y-99802963D01*
X104214313Y-99779953D01*
X104211443Y-99777913D01*
X104429570Y-99777913D01*
X104442095Y-99790438D01*
X104454620Y-99777913D01*
X104442095Y-99765389D01*
X104429570Y-99777913D01*
X104211443Y-99777913D01*
X104176194Y-99752864D01*
X104229176Y-99752864D01*
X104241701Y-99765389D01*
X104254225Y-99752864D01*
X104241701Y-99740339D01*
X104229176Y-99752864D01*
X104176194Y-99752864D01*
X104173376Y-99750862D01*
X104170126Y-99734558D01*
X104171088Y-99719417D01*
X104158634Y-99724968D01*
X104120026Y-99724051D01*
X104063366Y-99702765D01*
X104855409Y-99702765D01*
X104867933Y-99715290D01*
X104880458Y-99702765D01*
X104867933Y-99690241D01*
X104855409Y-99702765D01*
X104063366Y-99702765D01*
X104053679Y-99699126D01*
X103969686Y-99656563D01*
X103878138Y-99602730D01*
X103856442Y-99588413D01*
X104661156Y-99588413D01*
X104664582Y-99590044D01*
X104680817Y-99577519D01*
X104730162Y-99577519D01*
X104742687Y-99590044D01*
X104755212Y-99577519D01*
X104742687Y-99564994D01*
X104730162Y-99577519D01*
X104680817Y-99577519D01*
X104687442Y-99572409D01*
X104692588Y-99564994D01*
X104698971Y-99541576D01*
X104695545Y-99539945D01*
X104672685Y-99557579D01*
X104667539Y-99564994D01*
X104661156Y-99588413D01*
X103856442Y-99588413D01*
X103789130Y-99543996D01*
X103767022Y-99527420D01*
X103928584Y-99527420D01*
X103941109Y-99539945D01*
X103953634Y-99527420D01*
X103941109Y-99514896D01*
X103928584Y-99527420D01*
X103767022Y-99527420D01*
X103712753Y-99486732D01*
X103659099Y-99437306D01*
X103638263Y-99402086D01*
X103639016Y-99397054D01*
X103638848Y-99374241D01*
X103628413Y-99376864D01*
X103592663Y-99376313D01*
X103546108Y-99352933D01*
X103506698Y-99319311D01*
X103498766Y-99301976D01*
X103602943Y-99301976D01*
X103615468Y-99314501D01*
X103627993Y-99301976D01*
X103615468Y-99289452D01*
X103602943Y-99301976D01*
X103498766Y-99301976D01*
X103492384Y-99288032D01*
X103494307Y-99282842D01*
X103494374Y-99268591D01*
X103482668Y-99273855D01*
X103451591Y-99267095D01*
X103413765Y-99226829D01*
X103427598Y-99226829D01*
X103440123Y-99239353D01*
X103452647Y-99226829D01*
X103440123Y-99214304D01*
X103427598Y-99226829D01*
X103413765Y-99226829D01*
X103413267Y-99226299D01*
X103409998Y-99221364D01*
X103366033Y-99161988D01*
X103315027Y-99101582D01*
X103402549Y-99101582D01*
X103415073Y-99114107D01*
X103427598Y-99101582D01*
X103415073Y-99089057D01*
X103402549Y-99101582D01*
X103315027Y-99101582D01*
X103304498Y-99089113D01*
X103270595Y-99052147D01*
X103237418Y-99012278D01*
X103659183Y-99012278D01*
X103662610Y-99013909D01*
X103685469Y-98996275D01*
X103690616Y-98988860D01*
X103696999Y-98965442D01*
X103693573Y-98963811D01*
X103670713Y-98981445D01*
X103665567Y-98988860D01*
X103659183Y-99012278D01*
X103237418Y-99012278D01*
X103220260Y-98991660D01*
X103196742Y-98951286D01*
X103502746Y-98951286D01*
X103515271Y-98963811D01*
X103527795Y-98951286D01*
X103602943Y-98951286D01*
X103615468Y-98963811D01*
X103627993Y-98951286D01*
X103615468Y-98938761D01*
X103602943Y-98951286D01*
X103527795Y-98951286D01*
X103515271Y-98938761D01*
X103502746Y-98951286D01*
X103196742Y-98951286D01*
X103191198Y-98941770D01*
X103188197Y-98920938D01*
X103183624Y-98896033D01*
X103172003Y-98895226D01*
X103147733Y-98876837D01*
X103129946Y-98851089D01*
X103202154Y-98851089D01*
X103214679Y-98863614D01*
X103227204Y-98851089D01*
X103214679Y-98838564D01*
X103202154Y-98851089D01*
X103129946Y-98851089D01*
X103109328Y-98821245D01*
X103061460Y-98737678D01*
X103055369Y-98725842D01*
X103152056Y-98725842D01*
X103164580Y-98738367D01*
X103177105Y-98725842D01*
X103164580Y-98713318D01*
X103152056Y-98725842D01*
X103055369Y-98725842D01*
X103008805Y-98635368D01*
X102956035Y-98523543D01*
X102907824Y-98411433D01*
X102868845Y-98308269D01*
X102857929Y-98274955D01*
X102824157Y-98153936D01*
X102792483Y-98020119D01*
X102774130Y-97926716D01*
X102763225Y-97832517D01*
X102756944Y-97714116D01*
X102754982Y-97582316D01*
X102757037Y-97447922D01*
X102762806Y-97321740D01*
X102771985Y-97214572D01*
X102784271Y-97137224D01*
X102797266Y-97102577D01*
X102814951Y-97066793D01*
X102811897Y-97053896D01*
X102809289Y-97020763D01*
X102823433Y-96953337D01*
X102850255Y-96862545D01*
X102885683Y-96759316D01*
X102919071Y-96671799D01*
X102951661Y-96671799D01*
X102964186Y-96684324D01*
X102976711Y-96671799D01*
X102964186Y-96659274D01*
X102951661Y-96671799D01*
X102919071Y-96671799D01*
X102925642Y-96654576D01*
X102939581Y-96621700D01*
X103076908Y-96621700D01*
X103089432Y-96634225D01*
X103101957Y-96621700D01*
X103089432Y-96609176D01*
X103076908Y-96621700D01*
X102939581Y-96621700D01*
X102950201Y-96596651D01*
X103152056Y-96596651D01*
X103164580Y-96609176D01*
X103177105Y-96596651D01*
X103164580Y-96584126D01*
X103152056Y-96596651D01*
X102950201Y-96596651D01*
X102966057Y-96559255D01*
X102972291Y-96546552D01*
X103127006Y-96546552D01*
X103139531Y-96559077D01*
X103152056Y-96546552D01*
X103139531Y-96534028D01*
X103127006Y-96546552D01*
X102972291Y-96546552D01*
X102996879Y-96496454D01*
X103076908Y-96496454D01*
X103089432Y-96508978D01*
X103101957Y-96496454D01*
X103089432Y-96483929D01*
X103076908Y-96496454D01*
X102996879Y-96496454D01*
X103002855Y-96484280D01*
X103031962Y-96440578D01*
X103043061Y-96433831D01*
X103072326Y-96445852D01*
D12*
X182880000Y-117094000D03*
D13*
X182880000Y-114554000D03*
X182880000Y-112014000D03*
X182880000Y-109474000D03*
X182880000Y-106934000D03*
D14*
X147500000Y-103000000D03*
D15*
X114480000Y-118240000D03*
X144960000Y-103000000D03*
X117020000Y-118240000D03*
X142420000Y-103000000D03*
X119560000Y-118240000D03*
X139880000Y-103000000D03*
X122100000Y-118240000D03*
X137340000Y-103000000D03*
X124640000Y-118240000D03*
X134800000Y-103000000D03*
X127180000Y-118240000D03*
X132260000Y-103000000D03*
X129720000Y-118240000D03*
X129720000Y-103000000D03*
X132260000Y-118240000D03*
X127180000Y-103000000D03*
X134800000Y-118240000D03*
X124640000Y-103000000D03*
X137340000Y-118240000D03*
X122100000Y-103000000D03*
X139880000Y-118240000D03*
X119560000Y-103000000D03*
X142420000Y-118240000D03*
X117020000Y-103000000D03*
X144960000Y-118240000D03*
X114480000Y-103000000D03*
X147500000Y-118240000D03*
X111940000Y-103000000D03*
X111940000Y-118240000D03*
D16*
X110490000Y-123190000D03*
X110490000Y-128190000D03*
X162306000Y-116078000D03*
X157306000Y-116078000D03*
X113792000Y-95178000D03*
X113792000Y-90678000D03*
X120292000Y-95178000D03*
X120292000Y-90678000D03*
X130810000Y-95178000D03*
X130810000Y-90678000D03*
X137310000Y-95178000D03*
X137310000Y-90678000D03*
D17*
X162306000Y-121920000D03*
D18*
X141986000Y-129540000D03*
X159766000Y-121920000D03*
X144526000Y-129540000D03*
X157226000Y-121920000D03*
X147066000Y-129540000D03*
X154686000Y-121920000D03*
X149606000Y-129540000D03*
X152146000Y-121920000D03*
X152146000Y-129540000D03*
X149606000Y-121920000D03*
X154686000Y-129540000D03*
X147066000Y-121920000D03*
X157226000Y-129540000D03*
X144526000Y-121920000D03*
X159766000Y-129540000D03*
X141986000Y-121920000D03*
X162306000Y-129540000D03*
D17*
X137160000Y-121920000D03*
D18*
X116840000Y-129540000D03*
X134620000Y-121920000D03*
X119380000Y-129540000D03*
X132080000Y-121920000D03*
X121920000Y-129540000D03*
X129540000Y-121920000D03*
X124460000Y-129540000D03*
X127000000Y-121920000D03*
X127000000Y-129540000D03*
X124460000Y-121920000D03*
X129540000Y-129540000D03*
X121920000Y-121920000D03*
X132080000Y-129540000D03*
X119380000Y-121920000D03*
X134620000Y-129540000D03*
X116840000Y-121920000D03*
X137160000Y-129540000D03*
D12*
X147500000Y-96500000D03*
D13*
X147500000Y-93960000D03*
X147500000Y-91420000D03*
X147500000Y-88880000D03*
D12*
X178500000Y-96500000D03*
D13*
X178500000Y-93960000D03*
X178500000Y-91420000D03*
X178500000Y-88880000D03*
D19*
X180500000Y-144250000D03*
X182500000Y-143000000D03*
X183750000Y-141000000D03*
X183750000Y-138500000D03*
X182500000Y-136500000D03*
X180500000Y-135250000D03*
X176000000Y-136500000D03*
X174750000Y-138500000D03*
X174750000Y-141000000D03*
X176000000Y-143000000D03*
X178000000Y-144250000D03*
X178000000Y-135250000D03*
X167500000Y-144250000D03*
X169500000Y-143000000D03*
X170750000Y-141000000D03*
X170750000Y-138500000D03*
X169500000Y-136500000D03*
X167500000Y-135250000D03*
X163000000Y-136500000D03*
X161750000Y-138500000D03*
X161750000Y-141000000D03*
X163000000Y-143000000D03*
X165000000Y-144250000D03*
X165000000Y-135250000D03*
X154500000Y-144250000D03*
X156500000Y-143000000D03*
X157750000Y-141000000D03*
X157750000Y-138500000D03*
X156500000Y-136500000D03*
X154500000Y-135250000D03*
X150000000Y-136500000D03*
X148750000Y-138500000D03*
X148750000Y-141000000D03*
X150000000Y-143000000D03*
X152000000Y-144250000D03*
X152000000Y-135250000D03*
X141500000Y-144250000D03*
X143500000Y-143000000D03*
X144750000Y-141000000D03*
X144750000Y-138500000D03*
X143500000Y-136500000D03*
X141500000Y-135250000D03*
X137000000Y-136500000D03*
X135750000Y-138500000D03*
X135750000Y-141000000D03*
X137000000Y-143000000D03*
X139000000Y-144250000D03*
X139000000Y-135250000D03*
X128250000Y-144250000D03*
X130250000Y-143000000D03*
X131500000Y-141000000D03*
X131500000Y-138500000D03*
X130250000Y-136500000D03*
X128250000Y-135250000D03*
X123750000Y-136500000D03*
X122500000Y-138500000D03*
X122500000Y-141000000D03*
X123750000Y-143000000D03*
X125750000Y-144250000D03*
X125750000Y-135250000D03*
X115042000Y-144327000D03*
X117042000Y-143077000D03*
X118292000Y-141077000D03*
X118292000Y-138577000D03*
X117042000Y-136577000D03*
X115042000Y-135327000D03*
X110542000Y-136577000D03*
X109292000Y-138577000D03*
X109292000Y-141077000D03*
X110542000Y-143077000D03*
X112542000Y-144327000D03*
X112542000Y-135327000D03*
X187706000Y-139446000D03*
D15*
X187706000Y-136906000D03*
X173609000Y-146304000D03*
D19*
X171069000Y-146304000D03*
X158051500Y-146304000D03*
D15*
X160591500Y-146304000D03*
X147701000Y-146304000D03*
D19*
X145161000Y-146304000D03*
X132080000Y-146304000D03*
D15*
X134620000Y-146304000D03*
X121158000Y-146304000D03*
D19*
X118618000Y-146304000D03*
M02*
