M48
;DRILL file {KiCad 4.0.6} date 07/11/18 12:50:41
;FORMAT={-:-/ absolute / metric / decimal}
FMAT,2
METRIC,TZ
T1C0.400
T2C0.600
T3C0.800
T4C1.000
T5C1.100
%
G90
G05
M71
T1
X111.76Y-99.06
X111.76Y-106.934
X111.76Y-109.982
X111.76Y-113.538
X114.554Y-109.982
X114.554Y-113.538
X115.57Y-99.06
X116.84Y-113.538
X118.11Y-127.127
X119.38Y-99.06
X120.65Y-127.127
X123.19Y-99.06
X123.19Y-127.127
X124.206Y-147.828
X125.73Y-147.828
X127.Y-99.06
X127.254Y-147.828
X128.778Y-147.828
X129.54Y-99.06
X132.08Y-99.06
X133.096Y-133.604
X134.112Y-143.002
X134.62Y-133.858
X135.89Y-127.762
X136.271Y-110.998
X139.192Y-131.826
X140.208Y-147.32
X143.383Y-146.939
X143.51Y-99.06
X144.018Y-127.508
X147.32Y-114.046
X150.749Y-148.082
X150.876Y-119.634
X150.876Y-134.366
X152.654Y-141.986
X153.162Y-111.506
X154.432Y-146.812
X155.702Y-112.522
X155.702Y-131.826
X157.226Y-134.62
X159.512Y-144.526
X160.528Y-135.382
X169.672Y-133.858
X170.688Y-115.824
X170.688Y-121.412
X170.688Y-125.476
X171.958Y-134.62
X172.212Y-140.208
X173.228Y-115.824
X173.228Y-121.412
X173.228Y-125.476
X175.768Y-115.824
X175.768Y-121.412
X175.768Y-125.476
X178.308Y-115.824
X178.308Y-121.412
X178.308Y-125.476
X180.848Y-115.824
X180.848Y-121.412
X180.848Y-125.476
X183.388Y-115.824
X183.388Y-121.412
X184.277Y-132.08
X185.674Y-133.35
T2
X152.4Y-91.44
X154.94Y-91.44
X157.48Y-91.44
X160.02Y-91.44
X162.56Y-91.44
X165.1Y-91.44
X167.64Y-91.44
X170.18Y-91.44
X172.72Y-91.44
X175.26Y-91.44
X175.26Y-108.712
T3
X109.292Y-138.577
X109.292Y-141.077
X110.542Y-136.577
X110.542Y-143.077
X111.94Y-103.
X111.94Y-118.24
X112.542Y-135.327
X112.542Y-144.327
X114.48Y-103.
X114.48Y-118.24
X115.042Y-135.327
X115.042Y-144.327
X116.84Y-121.92
X116.84Y-129.54
X117.02Y-103.
X117.02Y-118.24
X117.042Y-136.577
X117.042Y-143.077
X118.292Y-138.577
X118.292Y-141.077
X118.618Y-146.304
X119.38Y-121.92
X119.38Y-129.54
X119.56Y-103.
X119.56Y-118.24
X121.92Y-121.92
X121.92Y-129.54
X122.1Y-103.
X122.1Y-118.24
X122.5Y-138.5
X122.5Y-141.
X123.698Y-146.304
X123.75Y-136.5
X123.75Y-143.
X124.46Y-121.92
X124.46Y-129.54
X124.64Y-103.
X124.64Y-118.24
X125.75Y-135.25
X125.75Y-144.25
X127.Y-121.92
X127.Y-129.54
X127.18Y-103.
X127.18Y-118.24
X128.25Y-135.25
X128.25Y-144.25
X129.54Y-121.92
X129.54Y-129.54
X129.72Y-103.
X129.72Y-118.24
X130.25Y-136.5
X130.25Y-143.
X131.5Y-138.5
X131.5Y-141.
X132.08Y-121.92
X132.08Y-129.54
X132.08Y-146.304
X132.26Y-103.
X132.26Y-118.24
X134.62Y-121.92
X134.62Y-129.54
X134.8Y-103.
X134.8Y-118.24
X135.75Y-138.5
X135.75Y-141.
X137.Y-136.5
X137.Y-143.
X137.16Y-121.92
X137.16Y-129.54
X137.16Y-146.304
X137.34Y-103.
X137.34Y-118.24
X139.Y-135.25
X139.Y-144.25
X139.88Y-103.
X139.88Y-118.24
X141.5Y-135.25
X141.5Y-144.25
X141.986Y-121.92
X141.986Y-129.54
X142.42Y-103.
X142.42Y-118.24
X143.5Y-136.5
X143.5Y-143.
X144.526Y-121.92
X144.526Y-129.54
X144.75Y-138.5
X144.75Y-141.
X144.96Y-103.
X144.96Y-118.24
X145.161Y-146.304
X147.066Y-121.92
X147.066Y-129.54
X147.5Y-103.
X147.5Y-118.24
X148.75Y-138.5
X148.75Y-141.
X149.606Y-121.92
X149.606Y-129.54
X150.Y-136.5
X150.Y-143.
X150.241Y-146.304
X152.Y-135.25
X152.Y-144.25
X152.146Y-121.92
X152.146Y-129.54
X154.5Y-135.25
X154.5Y-144.25
X154.686Y-121.92
X154.686Y-129.54
X156.5Y-136.5
X156.5Y-143.
X157.226Y-121.92
X157.226Y-129.54
X157.75Y-138.5
X157.75Y-141.
X158.052Y-146.304
X159.766Y-121.92
X159.766Y-129.54
X161.75Y-138.5
X161.75Y-141.
X162.306Y-121.92
X162.306Y-129.54
X163.Y-136.5
X163.Y-143.
X163.131Y-146.304
X165.Y-135.25
X165.Y-144.25
X167.5Y-135.25
X167.5Y-144.25
X169.5Y-136.5
X169.5Y-143.
X170.75Y-138.5
X170.75Y-141.
X171.069Y-146.304
X174.75Y-138.5
X174.75Y-141.
X176.Y-136.5
X176.Y-143.
X176.149Y-146.304
X178.Y-135.25
X178.Y-144.25
X180.5Y-135.25
X180.5Y-144.25
X182.5Y-136.5
X182.5Y-143.
X183.75Y-138.5
X183.75Y-141.
X187.706Y-134.366
X187.706Y-139.446
T4
X110.49Y-123.19
X110.49Y-128.19
X147.5Y-88.88
X147.5Y-91.42
X147.5Y-93.96
X147.5Y-96.5
X157.306Y-116.078
X162.306Y-116.078
X178.5Y-88.88
X178.5Y-91.42
X178.5Y-93.96
X178.5Y-96.5
X185.801Y-105.41
X185.801Y-107.95
X185.801Y-110.49
X185.801Y-113.03
X185.801Y-115.57
T5
X113.792Y-90.678
X113.792Y-95.178
X120.292Y-90.678
X120.292Y-95.178
X130.81Y-90.678
X130.81Y-95.178
X137.31Y-90.678
X137.31Y-95.178
T0
M30
