G04 #@! TF.GenerationSoftware,KiCad,Pcbnew,(5.1.2)-2*
G04 #@! TF.CreationDate,2019-09-18T13:09:57+09:00*
G04 #@! TF.ProjectId,VFD_Clock_LD8035,5646445f-436c-46f6-936b-5f4c44383033,rev?*
G04 #@! TF.SameCoordinates,Original*
G04 #@! TF.FileFunction,Copper,L2,Bot*
G04 #@! TF.FilePolarity,Positive*
%FSLAX46Y46*%
G04 Gerber Fmt 4.6, Leading zero omitted, Abs format (unit mm)*
G04 Created by KiCad (PCBNEW (5.1.2)-2) date 2019-09-18 13:09:57*
%MOMM*%
%LPD*%
G04 APERTURE LIST*
%ADD10C,0.100000*%
%ADD11R,1.700000X1.700000*%
%ADD12O,1.700000X1.700000*%
%ADD13R,1.600000X1.600000*%
%ADD14O,1.600000X1.600000*%
%ADD15C,2.000000*%
%ADD16R,1.600000X2.400000*%
%ADD17O,1.600000X2.400000*%
%ADD18C,1.600000*%
%ADD19C,0.800000*%
%ADD20C,0.600000*%
%ADD21C,0.250000*%
%ADD22C,0.600000*%
%ADD23C,1.000000*%
%ADD24C,2.000000*%
%ADD25C,0.254000*%
G04 APERTURE END LIST*
D10*
X106500000Y-83996400D02*
X186500000Y-83996400D01*
X101500000Y-88996400D02*
G75*
G02X106500000Y-83996400I5000000J0D01*
G01*
X101500000Y-143996400D02*
X101500000Y-88996400D01*
X106500000Y-148996400D02*
G75*
G02X101500000Y-143996400I0J5000000D01*
G01*
X186500000Y-148996400D02*
X106500000Y-148996400D01*
X191500000Y-143996400D02*
G75*
G02X186500000Y-148996400I-5000000J0D01*
G01*
X191500000Y-88996400D02*
X191500000Y-143996400D01*
X186500000Y-83996400D02*
G75*
G02X191500000Y-88996400I0J-5000000D01*
G01*
X189100001Y-87996399D02*
G75*
G03X189100001Y-87996399I-1600000J0D01*
G01*
X107100000Y-144996400D02*
G75*
G03X107100000Y-144996400I-1600000J0D01*
G01*
X189100001Y-144996400D02*
G75*
G03X189100001Y-144996400I-1600000J0D01*
G01*
X107100000Y-87996399D02*
G75*
G03X107100000Y-87996399I-1600000J0D01*
G01*
D11*
X182880000Y-117094000D03*
D12*
X182880000Y-114554000D03*
X182880000Y-112014000D03*
X182880000Y-109474000D03*
X182880000Y-106934000D03*
D13*
X147500000Y-103000000D03*
D14*
X114480000Y-118240000D03*
X144960000Y-103000000D03*
X117020000Y-118240000D03*
X142420000Y-103000000D03*
X119560000Y-118240000D03*
X139880000Y-103000000D03*
X122100000Y-118240000D03*
X137340000Y-103000000D03*
X124640000Y-118240000D03*
X134800000Y-103000000D03*
X127180000Y-118240000D03*
X132260000Y-103000000D03*
X129720000Y-118240000D03*
X129720000Y-103000000D03*
X132260000Y-118240000D03*
X127180000Y-103000000D03*
X134800000Y-118240000D03*
X124640000Y-103000000D03*
X137340000Y-118240000D03*
X122100000Y-103000000D03*
X139880000Y-118240000D03*
X119560000Y-103000000D03*
X142420000Y-118240000D03*
X117020000Y-103000000D03*
X144960000Y-118240000D03*
X114480000Y-103000000D03*
X147500000Y-118240000D03*
X111940000Y-103000000D03*
X111940000Y-118240000D03*
D15*
X110490000Y-123190000D03*
X110490000Y-128190000D03*
X162306000Y-116078000D03*
X157306000Y-116078000D03*
X113792000Y-95178000D03*
X113792000Y-90678000D03*
X120292000Y-95178000D03*
X120292000Y-90678000D03*
X130810000Y-95178000D03*
X130810000Y-90678000D03*
X137310000Y-95178000D03*
X137310000Y-90678000D03*
D16*
X162306000Y-121920000D03*
D17*
X141986000Y-129540000D03*
X159766000Y-121920000D03*
X144526000Y-129540000D03*
X157226000Y-121920000D03*
X147066000Y-129540000D03*
X154686000Y-121920000D03*
X149606000Y-129540000D03*
X152146000Y-121920000D03*
X152146000Y-129540000D03*
X149606000Y-121920000D03*
X154686000Y-129540000D03*
X147066000Y-121920000D03*
X157226000Y-129540000D03*
X144526000Y-121920000D03*
X159766000Y-129540000D03*
X141986000Y-121920000D03*
X162306000Y-129540000D03*
D16*
X137160000Y-121920000D03*
D17*
X116840000Y-129540000D03*
X134620000Y-121920000D03*
X119380000Y-129540000D03*
X132080000Y-121920000D03*
X121920000Y-129540000D03*
X129540000Y-121920000D03*
X124460000Y-129540000D03*
X127000000Y-121920000D03*
X127000000Y-129540000D03*
X124460000Y-121920000D03*
X129540000Y-129540000D03*
X121920000Y-121920000D03*
X132080000Y-129540000D03*
X119380000Y-121920000D03*
X134620000Y-129540000D03*
X116840000Y-121920000D03*
X137160000Y-129540000D03*
D11*
X147500000Y-96500000D03*
D12*
X147500000Y-93960000D03*
X147500000Y-91420000D03*
X147500000Y-88880000D03*
D11*
X178500000Y-96500000D03*
D12*
X178500000Y-93960000D03*
X178500000Y-91420000D03*
X178500000Y-88880000D03*
D18*
X180500000Y-144250000D03*
X182500000Y-143000000D03*
X183750000Y-141000000D03*
X183750000Y-138500000D03*
X182500000Y-136500000D03*
X180500000Y-135250000D03*
X176000000Y-136500000D03*
X174750000Y-138500000D03*
X174750000Y-141000000D03*
X176000000Y-143000000D03*
X178000000Y-144250000D03*
X178000000Y-135250000D03*
X167500000Y-144250000D03*
X169500000Y-143000000D03*
X170750000Y-141000000D03*
X170750000Y-138500000D03*
X169500000Y-136500000D03*
X167500000Y-135250000D03*
X163000000Y-136500000D03*
X161750000Y-138500000D03*
X161750000Y-141000000D03*
X163000000Y-143000000D03*
X165000000Y-144250000D03*
X165000000Y-135250000D03*
X154500000Y-144250000D03*
X156500000Y-143000000D03*
X157750000Y-141000000D03*
X157750000Y-138500000D03*
X156500000Y-136500000D03*
X154500000Y-135250000D03*
X150000000Y-136500000D03*
X148750000Y-138500000D03*
X148750000Y-141000000D03*
X150000000Y-143000000D03*
X152000000Y-144250000D03*
X152000000Y-135250000D03*
X141500000Y-144250000D03*
X143500000Y-143000000D03*
X144750000Y-141000000D03*
X144750000Y-138500000D03*
X143500000Y-136500000D03*
X141500000Y-135250000D03*
X137000000Y-136500000D03*
X135750000Y-138500000D03*
X135750000Y-141000000D03*
X137000000Y-143000000D03*
X139000000Y-144250000D03*
X139000000Y-135250000D03*
X128250000Y-144250000D03*
X130250000Y-143000000D03*
X131500000Y-141000000D03*
X131500000Y-138500000D03*
X130250000Y-136500000D03*
X128250000Y-135250000D03*
X123750000Y-136500000D03*
X122500000Y-138500000D03*
X122500000Y-141000000D03*
X123750000Y-143000000D03*
X125750000Y-144250000D03*
X125750000Y-135250000D03*
X115042000Y-144327000D03*
X117042000Y-143077000D03*
X118292000Y-141077000D03*
X118292000Y-138577000D03*
X117042000Y-136577000D03*
X115042000Y-135327000D03*
X110542000Y-136577000D03*
X109292000Y-138577000D03*
X109292000Y-141077000D03*
X110542000Y-143077000D03*
X112542000Y-144327000D03*
X112542000Y-135327000D03*
X187706000Y-139446000D03*
D14*
X187706000Y-136906000D03*
X173609000Y-146304000D03*
D18*
X171069000Y-146304000D03*
X158051500Y-146304000D03*
D14*
X160591500Y-146304000D03*
X147701000Y-146304000D03*
D18*
X145161000Y-146304000D03*
X132080000Y-146304000D03*
D14*
X134620000Y-146304000D03*
X121158000Y-146304000D03*
D18*
X118618000Y-146304000D03*
D19*
X175260000Y-91440000D03*
X152400000Y-91440000D03*
X154940000Y-91440000D03*
X157480000Y-91440000D03*
X160020000Y-91440000D03*
X162560000Y-91440000D03*
X165100000Y-91440000D03*
X167640000Y-91440000D03*
X170180000Y-91440000D03*
X172720000Y-91440000D03*
D20*
X150876000Y-119634000D03*
X132080000Y-99060000D03*
X143510000Y-99060000D03*
X129540000Y-99060000D03*
X127000000Y-99060000D03*
X123190000Y-99060000D03*
X119380000Y-99060000D03*
X115570000Y-99060000D03*
X111760000Y-99060000D03*
X111760000Y-106934000D03*
X111760000Y-109982000D03*
X114554000Y-109982000D03*
X116840000Y-113538000D03*
X114554000Y-113538000D03*
X111760000Y-113538000D03*
X128778000Y-147828000D03*
X123190000Y-127127000D03*
X120650000Y-127127000D03*
X118110000Y-127127000D03*
X124206000Y-147828000D03*
X125730000Y-147828000D03*
X127254000Y-147828000D03*
X185674000Y-133350000D03*
X143764000Y-126746000D03*
X154432000Y-146812000D03*
X166878000Y-129286000D03*
X168148000Y-129286000D03*
X169418000Y-129286000D03*
X170688000Y-129286000D03*
X171958000Y-129286000D03*
X173228000Y-129286000D03*
X140970000Y-126746000D03*
X142240000Y-126746000D03*
X145288000Y-126746000D03*
X150114000Y-116078000D03*
X150622000Y-116840000D03*
X150876000Y-117856000D03*
X155702000Y-112522000D03*
X154432000Y-112522000D03*
X147320000Y-114046000D03*
X147320000Y-114046000D03*
X147320000Y-114046000D03*
X148336000Y-114046000D03*
X149352000Y-114046000D03*
X169672000Y-133858000D03*
X155702000Y-131826000D03*
X140208000Y-147320000D03*
X143255984Y-147066000D03*
X157226000Y-134620000D03*
X133096000Y-133604000D03*
X139192000Y-131826000D03*
X135890000Y-127762000D03*
X171958000Y-134620000D03*
X160528000Y-135382000D03*
X134620000Y-133858000D03*
X172212000Y-140208000D03*
X152654000Y-141986000D03*
X150876000Y-134366000D03*
X159258000Y-144272028D03*
X133350000Y-143002000D03*
X136271000Y-110998000D03*
D21*
X139342000Y-88646000D02*
X143804000Y-88646000D01*
X137310000Y-90678000D02*
X139342000Y-88646000D01*
X143804000Y-88646000D02*
X144038000Y-88880000D01*
X147500000Y-88880000D02*
X144038000Y-88880000D01*
X139880000Y-98626000D02*
X139880000Y-103000000D01*
X144038000Y-88880000D02*
X140462000Y-92456000D01*
X140462000Y-92456000D02*
X140462000Y-98044000D01*
X140462000Y-98044000D02*
X139880000Y-98626000D01*
X149840000Y-88880000D02*
X147500000Y-88880000D01*
X149840000Y-88880000D02*
X152400000Y-91440000D01*
X154940000Y-91440000D02*
X157480000Y-91440000D01*
X160020000Y-91440000D02*
X162560000Y-91440000D01*
X165100000Y-91440000D02*
X167640000Y-91440000D01*
X170180000Y-91440000D02*
X172720000Y-91440000D01*
X125750000Y-144250000D02*
X125750000Y-146324000D01*
X125750000Y-146324000D02*
X127254000Y-147828000D01*
X144018000Y-127508000D02*
X175768000Y-127508000D01*
X177800000Y-131572000D02*
X179070000Y-132842000D01*
X179070000Y-132842000D02*
X185166000Y-132842000D01*
X185166000Y-132842000D02*
X185674000Y-133350000D01*
X177800000Y-129540000D02*
X177800000Y-131572000D01*
X175768000Y-127508000D02*
X177800000Y-129540000D01*
X110490000Y-128190000D02*
X109173000Y-128190000D01*
X109173000Y-128190000D02*
X106426000Y-130937000D01*
D22*
X106426000Y-142113000D02*
X106426000Y-130937000D01*
X110109000Y-145796000D02*
X106426000Y-142113000D01*
X111379000Y-145796000D02*
X110109000Y-145796000D01*
X112542000Y-144633000D02*
X111379000Y-145796000D01*
D21*
X139880000Y-103000000D02*
X139880000Y-100764000D01*
X139880000Y-100764000D02*
X138176000Y-99060000D01*
X138176000Y-99060000D02*
X132080000Y-99060000D01*
X146608000Y-119888000D02*
X144960000Y-118240000D01*
X150622000Y-119888000D02*
X146608000Y-119888000D01*
X150876000Y-119634000D02*
X150622000Y-119888000D01*
X107442000Y-99060000D02*
X111760000Y-99060000D01*
X115570000Y-99060000D02*
X119380000Y-99060000D01*
X129540000Y-99060000D02*
X132080000Y-99060000D01*
X107442000Y-113538000D02*
X111760000Y-113538000D01*
X114554000Y-109982000D02*
X111760000Y-109982000D01*
X117094000Y-113538000D02*
X116840000Y-113538000D01*
X114554000Y-113538000D02*
X117094000Y-113538000D01*
D22*
X112542000Y-144327000D02*
X112542000Y-144633000D01*
D21*
X128778000Y-147828000D02*
X124206000Y-147828000D01*
X118237000Y-127000000D02*
X120650000Y-127127000D01*
X118110000Y-127127000D02*
X118237000Y-127000000D01*
X123190000Y-127127000D02*
X123190000Y-127000000D01*
X123190000Y-127000000D02*
X123190000Y-127127000D01*
X123190000Y-127127000D02*
X123190000Y-127000000D01*
X125730000Y-147828000D02*
X124206000Y-147828000D01*
X125730000Y-147828000D02*
X123952000Y-147828000D01*
X109173000Y-128190000D02*
X108378000Y-128190000D01*
X108378000Y-128190000D02*
X107442000Y-127254000D01*
X107442000Y-127254000D02*
X107442000Y-113538000D01*
X111252000Y-90678000D02*
X113792000Y-90678000D01*
X107442000Y-99060000D02*
X107442000Y-94488000D01*
X107442000Y-94488000D02*
X111252000Y-90678000D01*
X107442000Y-113538000D02*
X107442000Y-99060000D01*
X117856000Y-147828000D02*
X123952000Y-147828000D01*
X113000000Y-145004000D02*
X114300000Y-146304000D01*
X116332000Y-146304000D02*
X117856000Y-147828000D01*
X114300000Y-146304000D02*
X116332000Y-146304000D01*
X123952000Y-147828000D02*
X124206000Y-147828000D01*
X120292000Y-90678000D02*
X130810000Y-90678000D01*
X130810000Y-90678000D02*
X137310000Y-90678000D01*
X113792000Y-90678000D02*
X120292000Y-90678000D01*
D23*
X136652000Y-126746000D02*
X140970000Y-126746000D01*
X116840000Y-128016000D02*
X117856000Y-127000000D01*
X117856000Y-127000000D02*
X123190000Y-127000000D01*
X123190000Y-127000000D02*
X134620000Y-127000000D01*
X134620000Y-127000000D02*
X134874000Y-126746000D01*
X134874000Y-126746000D02*
X136652000Y-126746000D01*
X116840000Y-129540000D02*
X116840000Y-128016000D01*
X143256000Y-126746000D02*
X144018000Y-127508000D01*
D22*
X152000000Y-144250000D02*
X152000000Y-145904000D01*
X152908000Y-146812000D02*
X154432000Y-146812000D01*
X152000000Y-145904000D02*
X152908000Y-146812000D01*
D23*
X140970000Y-126746000D02*
X142240000Y-126746000D01*
X142240000Y-126746000D02*
X143256000Y-126746000D01*
D21*
X154940000Y-111760000D02*
X155702000Y-112522000D01*
X152146000Y-108966000D02*
X154940000Y-111760000D01*
X129720000Y-118240000D02*
X129769082Y-116839889D01*
X129769082Y-116839889D02*
X129794000Y-111252000D01*
X132080000Y-108966000D02*
X149352000Y-108966000D01*
X129794000Y-111252000D02*
X132080000Y-108966000D01*
X149352000Y-108966000D02*
X152146000Y-108966000D01*
X154132001Y-112222001D02*
X154432000Y-112522000D01*
X151638000Y-109728000D02*
X154132001Y-112222001D01*
X133858000Y-109728000D02*
X151638000Y-109728000D01*
X132260000Y-111326000D02*
X133858000Y-109728000D01*
X132260000Y-118240000D02*
X132260000Y-111326000D01*
X130810000Y-95504000D02*
X130810000Y-95178000D01*
X134800000Y-103000000D02*
X134800000Y-101526000D01*
X120292000Y-98956000D02*
X120292000Y-95178000D01*
X121666000Y-100330000D02*
X120292000Y-98956000D01*
X133604000Y-100330000D02*
X121666000Y-100330000D01*
X134800000Y-101526000D02*
X133604000Y-100330000D01*
X113792000Y-95178000D02*
X120292000Y-95178000D01*
D24*
X139880000Y-118240000D02*
X139880000Y-114882000D01*
X140716000Y-114046000D02*
X147320000Y-114046000D01*
X139880000Y-114882000D02*
X140716000Y-114046000D01*
D22*
X150749000Y-148072002D02*
X150758998Y-148082000D01*
X150749000Y-148082000D02*
X150749000Y-148072002D01*
D24*
X147320000Y-114046000D02*
X149352000Y-114046000D01*
D22*
X164592000Y-148082000D02*
X174498000Y-148082000D01*
X160591500Y-148018500D02*
X160528000Y-148082000D01*
X160591500Y-146304000D02*
X160591500Y-148018500D01*
X150749000Y-148082000D02*
X160528000Y-148082000D01*
X160528000Y-148082000D02*
X164592000Y-148082000D01*
X173736000Y-148082000D02*
X174498000Y-148082000D01*
X173609000Y-146304000D02*
X173736000Y-146431000D01*
X173736000Y-146431000D02*
X173736000Y-148082000D01*
X188214000Y-132588000D02*
X187960000Y-132334000D01*
X188214000Y-134366000D02*
X188214000Y-132588000D01*
X189992000Y-136144000D02*
X188214000Y-134366000D01*
X188837370Y-136906000D02*
X189992000Y-136906000D01*
X187706000Y-136906000D02*
X188837370Y-136906000D01*
X189992000Y-136906000D02*
X189992000Y-136144000D01*
X147701000Y-147955000D02*
X147574000Y-148082000D01*
X147701000Y-146304000D02*
X147701000Y-147955000D01*
X150758998Y-148082000D02*
X147574000Y-148082000D01*
X137160000Y-146304000D02*
X134620000Y-146304000D01*
X140970000Y-146304000D02*
X137160000Y-146304000D01*
X147574000Y-148082000D02*
X142748000Y-148082000D01*
X142748000Y-148082000D02*
X140970000Y-146304000D01*
X189992000Y-139954000D02*
X189992000Y-136906000D01*
X182245000Y-148082000D02*
X184658000Y-145669000D01*
X174498000Y-148082000D02*
X182245000Y-148082000D01*
X184658000Y-145669000D02*
X184658000Y-143764000D01*
X184658000Y-143764000D02*
X186690000Y-141732000D01*
X186690000Y-141732000D02*
X188214000Y-141732000D01*
X188214000Y-141732000D02*
X189992000Y-139954000D01*
D24*
X188214000Y-108204000D02*
X186944000Y-106934000D01*
X188214000Y-132080000D02*
X188214000Y-108204000D01*
X186944000Y-106934000D02*
X182880000Y-106934000D01*
X167894000Y-99314000D02*
X167894000Y-98933000D01*
X167894000Y-111760000D02*
X167894000Y-99314000D01*
X170327000Y-96500000D02*
X178500000Y-96500000D01*
X167894000Y-98933000D02*
X170327000Y-96500000D01*
X162306000Y-116078000D02*
X163576000Y-116078000D01*
X163576000Y-116078000D02*
X167894000Y-111760000D01*
X143256000Y-124714000D02*
X165100000Y-124714000D01*
X165100000Y-124714000D02*
X167894000Y-121920000D01*
X143256000Y-124714000D02*
X141986000Y-123444000D01*
X167894000Y-111760000D02*
X167894000Y-121920000D01*
X141986000Y-121920000D02*
X141986000Y-123444000D01*
X116840000Y-121920000D02*
X116840000Y-123444000D01*
X140462000Y-124968000D02*
X141986000Y-123444000D01*
X118364000Y-124968000D02*
X140462000Y-124968000D01*
X116840000Y-123444000D02*
X118364000Y-124968000D01*
D22*
X131500000Y-141000000D02*
X131500000Y-141279000D01*
X131500000Y-141279000D02*
X132080000Y-141859000D01*
X132080000Y-141859000D02*
X132080000Y-146304000D01*
D23*
X131500000Y-141000000D02*
X131500000Y-141152000D01*
D21*
X177546000Y-136652000D02*
X181356000Y-136652000D01*
X175006000Y-135128000D02*
X176530000Y-135128000D01*
X176530000Y-135128000D02*
X177546000Y-136652000D01*
X169672000Y-135636000D02*
X174498000Y-135636000D01*
X174498000Y-135636000D02*
X175006000Y-135128000D01*
X181356000Y-136652000D02*
X182500000Y-136500000D01*
X156500000Y-136500000D02*
X157480000Y-136144000D01*
X169672000Y-135636000D02*
X169500000Y-136500000D01*
X169672000Y-135128000D02*
X169672000Y-135636000D01*
X168402000Y-133858000D02*
X169672000Y-135128000D01*
X159766000Y-133858000D02*
X168402000Y-133858000D01*
X157480000Y-136144000D02*
X159766000Y-133858000D01*
X136906000Y-137922000D02*
X135890000Y-137160000D01*
X143500000Y-136500000D02*
X143500000Y-136662000D01*
X143500000Y-136662000D02*
X142240000Y-137922000D01*
X142240000Y-137922000D02*
X136906000Y-137922000D01*
X130250000Y-136500000D02*
X135230000Y-136500000D01*
X135230000Y-136500000D02*
X135890000Y-137160000D01*
X156500000Y-136500000D02*
X156500000Y-136870000D01*
X156500000Y-136870000D02*
X155956000Y-137414000D01*
X155956000Y-137414000D02*
X153924000Y-137414000D01*
X153924000Y-137414000D02*
X153162000Y-136652000D01*
X153162000Y-136652000D02*
X153162000Y-133604000D01*
X153162000Y-133604000D02*
X152146000Y-132588000D01*
X152146000Y-132588000D02*
X146050000Y-132588000D01*
X146050000Y-132588000D02*
X144526000Y-131064000D01*
X144526000Y-131064000D02*
X144526000Y-129540000D01*
X129286000Y-137922000D02*
X129540000Y-137922000D01*
X123952000Y-137922000D02*
X129286000Y-137922000D01*
X117500000Y-136500000D02*
X121768000Y-136500000D01*
X121768000Y-136500000D02*
X122428000Y-137160000D01*
X122428000Y-137160000D02*
X123952000Y-137922000D01*
X129540000Y-137922000D02*
X130250000Y-137212000D01*
X130250000Y-137212000D02*
X130250000Y-136500000D01*
X180500000Y-135250000D02*
X180340000Y-134366000D01*
X179832000Y-133858000D02*
X169672000Y-133858000D01*
X180340000Y-134366000D02*
X179832000Y-133858000D01*
X152654000Y-131826000D02*
X155702000Y-131826000D01*
X141500000Y-135250000D02*
X140208000Y-134112000D01*
X140208000Y-134112000D02*
X135890000Y-134112000D01*
X135890000Y-134112000D02*
X135382000Y-134620000D01*
X135382000Y-134620000D02*
X130048000Y-134620000D01*
X130048000Y-134620000D02*
X129286000Y-134620000D01*
X129286000Y-134620000D02*
X128250000Y-135250000D01*
X154500000Y-135250000D02*
X154500000Y-133672000D01*
X154500000Y-133672000D02*
X152654000Y-131826000D01*
X152654000Y-131826000D02*
X147828000Y-131826000D01*
X147828000Y-131826000D02*
X147066000Y-131064000D01*
X147066000Y-131064000D02*
X147066000Y-129540000D01*
X128250000Y-135148000D02*
X128250000Y-135250000D01*
X115500000Y-135250000D02*
X115500000Y-135198000D01*
D22*
X140208000Y-147320000D02*
X139700000Y-147828000D01*
X130250000Y-146760000D02*
X131318000Y-147828000D01*
X131318000Y-147828000D02*
X139700000Y-147828000D01*
X130250000Y-145236000D02*
X130250000Y-143000000D01*
X130250000Y-145236000D02*
X130250000Y-146760000D01*
X143500000Y-143000000D02*
X143500000Y-146821984D01*
X143500000Y-146821984D02*
X143255984Y-147066000D01*
X157226000Y-134620000D02*
X157226000Y-129540000D01*
X157226000Y-129540000D02*
X157226000Y-130810000D01*
D21*
X154500000Y-144250000D02*
X154500000Y-140276000D01*
X154500000Y-140276000D02*
X153416000Y-139192000D01*
X167500000Y-144250000D02*
X167500000Y-140576000D01*
X156591000Y-139192000D02*
X153416000Y-139192000D01*
X167500000Y-140576000D02*
X166624000Y-139700000D01*
X166624000Y-139700000D02*
X157108000Y-139700000D01*
X157108000Y-139700000D02*
X156591000Y-139192000D01*
X125476000Y-142494000D02*
X127254000Y-142494000D01*
X124460000Y-144018000D02*
X125476000Y-142494000D01*
X115500000Y-144250000D02*
X116586000Y-144272000D01*
X117094000Y-144526000D02*
X118110000Y-144526000D01*
X118110000Y-144526000D02*
X118872000Y-143764000D01*
X118872000Y-143764000D02*
X122428000Y-143764000D01*
X122428000Y-143764000D02*
X123190000Y-144526000D01*
X123190000Y-144526000D02*
X123952000Y-144526000D01*
X116586000Y-144272000D02*
X117094000Y-144526000D01*
X123952000Y-144526000D02*
X124460000Y-144018000D01*
X128016000Y-143256000D02*
X128250000Y-144250000D01*
X127254000Y-142494000D02*
X128016000Y-143256000D01*
X147066000Y-137160000D02*
X146812000Y-137160000D01*
X146812000Y-137160000D02*
X142690002Y-133038002D01*
X142690002Y-133038002D02*
X133661998Y-133038002D01*
X133661998Y-133038002D02*
X133096000Y-133604000D01*
X150129631Y-137894645D02*
X148844000Y-137160000D01*
X148844000Y-137160000D02*
X147066000Y-137160000D01*
X151384000Y-139192000D02*
X150129631Y-137894645D01*
X154500000Y-144250000D02*
X154500000Y-144712000D01*
X153416000Y-139192000D02*
X153162000Y-139192000D01*
X153162000Y-139192000D02*
X151384000Y-139192000D01*
X115500000Y-144250000D02*
X116056000Y-144250000D01*
X176276000Y-137922000D02*
X182372000Y-137922000D01*
X171450000Y-137668000D02*
X171958000Y-137160000D01*
X171958000Y-137160000D02*
X174752000Y-137160000D01*
X174752000Y-137160000D02*
X176276000Y-137922000D01*
X170750000Y-138500000D02*
X171450000Y-137668000D01*
X182880000Y-137922000D02*
X183750000Y-138500000D01*
X182372000Y-137922000D02*
X182880000Y-137922000D01*
X157750000Y-138500000D02*
X159766000Y-138430000D01*
X161036000Y-137160000D02*
X161798000Y-137160000D01*
X159766000Y-138430000D02*
X161036000Y-137160000D01*
X163068000Y-137922000D02*
X168402000Y-137922000D01*
X169926000Y-138684000D02*
X169945079Y-138593771D01*
X169164000Y-138684000D02*
X169926000Y-138684000D01*
X168402000Y-137922000D02*
X169164000Y-138684000D01*
X169945079Y-138593771D02*
X170750000Y-138500000D01*
X161798000Y-137160000D02*
X163068000Y-137922000D01*
X139192000Y-131826000D02*
X139446000Y-132080000D01*
X139446000Y-132080000D02*
X140716000Y-132080000D01*
X150368000Y-134874000D02*
X146050000Y-134874000D01*
X146050000Y-134874000D02*
X143256000Y-132080000D01*
X143256000Y-132080000D02*
X140716000Y-132080000D01*
X151638000Y-136906000D02*
X150368000Y-134874000D01*
X157750000Y-138500000D02*
X157156000Y-138500000D01*
X157156000Y-138500000D02*
X157086000Y-138430000D01*
X157086000Y-138430000D02*
X153162000Y-138430000D01*
X153162000Y-138430000D02*
X151638000Y-136906000D01*
X144750000Y-138500000D02*
X144750000Y-138460000D01*
X131500000Y-138500000D02*
X133928000Y-138500000D01*
X138684000Y-138430000D02*
X138937767Y-138676302D01*
X138937767Y-138676302D02*
X143764000Y-138684000D01*
X143764000Y-138684000D02*
X144750000Y-138500000D01*
X135128000Y-139700000D02*
X136652000Y-139700000D01*
X136652000Y-139700000D02*
X137922000Y-138430000D01*
X137922000Y-138430000D02*
X138684000Y-138430000D01*
X133928000Y-138500000D02*
X135128000Y-139700000D01*
X118750000Y-138500000D02*
X120720000Y-138500000D01*
X130300000Y-139700000D02*
X131500000Y-138500000D01*
X121920000Y-139700000D02*
X130300000Y-139700000D01*
X120720000Y-138500000D02*
X121920000Y-139700000D01*
X113538000Y-134366000D02*
X113503000Y-134366000D01*
X113538000Y-134366000D02*
X114554000Y-133350000D01*
X114554000Y-133350000D02*
X124460000Y-133350000D01*
X124460000Y-133350000D02*
X125222000Y-133350000D01*
X125730000Y-132842000D02*
X125222000Y-133350000D01*
X113503000Y-134366000D02*
X112542000Y-135327000D01*
X142748000Y-127762000D02*
X143256000Y-128270000D01*
X142748000Y-127762000D02*
X136652000Y-127762000D01*
X135890000Y-127762000D02*
X136652000Y-127762000D01*
X152000000Y-134220000D02*
X152000000Y-135250000D01*
X152000000Y-134220000D02*
X150876000Y-133096000D01*
X150876000Y-133096000D02*
X145796000Y-133096000D01*
X145796000Y-133096000D02*
X143256000Y-130556000D01*
X143256000Y-130556000D02*
X143256000Y-128270000D01*
X177038000Y-134620000D02*
X178000000Y-135250000D01*
X171958000Y-134620000D02*
X177038000Y-134620000D01*
X164347195Y-134620000D02*
X164338000Y-134620000D01*
X165000000Y-135250000D02*
X164347195Y-134620000D01*
X160274000Y-134620000D02*
X157988000Y-136906000D01*
X152146000Y-136652000D02*
X152000000Y-135250000D01*
X156464000Y-137922000D02*
X157988000Y-136906000D01*
X153416000Y-137922000D02*
X156464000Y-137922000D01*
X152146000Y-136652000D02*
X153416000Y-137922000D01*
X164338000Y-134620000D02*
X160274000Y-134620000D01*
X125730000Y-132842000D02*
X127000000Y-131572000D01*
X127000000Y-131572000D02*
X127000000Y-129540000D01*
X125750000Y-134894000D02*
X125750000Y-135250000D01*
X125222000Y-133593365D02*
X125222000Y-133350000D01*
X125750000Y-135250000D02*
X125740547Y-134111912D01*
X125740547Y-134111912D02*
X125222000Y-133593365D01*
X115951000Y-136017000D02*
X116840000Y-135128000D01*
X123750000Y-136500000D02*
X122682000Y-136398000D01*
X121412000Y-135128000D02*
X117094000Y-135128000D01*
X121920000Y-135636000D02*
X121412000Y-135128000D01*
X122682000Y-136398000D02*
X121920000Y-135636000D01*
X115316000Y-136652000D02*
X115951000Y-136017000D01*
X112014000Y-136652000D02*
X111000000Y-136500000D01*
X112014000Y-136652000D02*
X115316000Y-136652000D01*
X116840000Y-135128000D02*
X117094000Y-135128000D01*
X167640000Y-137414000D02*
X168402000Y-137414000D01*
X163576000Y-137414000D02*
X167640000Y-137414000D01*
X163000000Y-136838000D02*
X163576000Y-137414000D01*
X174752000Y-136652000D02*
X176000000Y-136500000D01*
X171196000Y-136652000D02*
X174752000Y-136652000D01*
X169926000Y-137668000D02*
X171196000Y-136652000D01*
X169672000Y-137922000D02*
X169926000Y-137668000D01*
X169164000Y-137922000D02*
X169672000Y-137922000D01*
X168656000Y-137414000D02*
X169164000Y-137922000D01*
X168402000Y-137414000D02*
X168656000Y-137414000D01*
X160630000Y-135484000D02*
X163000000Y-136500000D01*
X160528000Y-135382000D02*
X160630000Y-135484000D01*
X129540000Y-135382000D02*
X129794000Y-135128000D01*
X129794000Y-135128000D02*
X135890000Y-135128000D01*
X135890000Y-135128000D02*
X136906000Y-135636000D01*
X136906000Y-135636000D02*
X137000000Y-136500000D01*
X123750000Y-136500000D02*
X124714000Y-136652000D01*
X124714000Y-136652000D02*
X128778000Y-136652000D01*
X128778000Y-136652000D02*
X129540000Y-135382000D01*
X129540000Y-129540000D02*
X129540000Y-131064000D01*
X129540000Y-131064000D02*
X131064000Y-132588000D01*
X131064000Y-132588000D02*
X137922000Y-132588000D01*
X150000000Y-136500000D02*
X149098000Y-136398000D01*
X149098000Y-136398000D02*
X146812000Y-136398000D01*
X146812000Y-136398000D02*
X143002000Y-132588000D01*
X143002000Y-132588000D02*
X137922000Y-132588000D01*
X163000000Y-136500000D02*
X163000000Y-136838000D01*
X129794000Y-129794000D02*
X129540000Y-129540000D01*
X137000000Y-136500000D02*
X137262000Y-136500000D01*
X116586000Y-138430000D02*
X117094000Y-137922000D01*
X110744000Y-138430000D02*
X116332000Y-138430000D01*
X116332000Y-138430000D02*
X116586000Y-138430000D01*
X122500000Y-138500000D02*
X121666000Y-137922000D01*
X120904000Y-137160000D02*
X118872000Y-137160000D01*
X121158000Y-137414000D02*
X120904000Y-137160000D01*
X121666000Y-137922000D02*
X121158000Y-137414000D01*
X110744000Y-138430000D02*
X109750000Y-138500000D01*
X118364000Y-137160000D02*
X118872000Y-137160000D01*
X117094000Y-137922000D02*
X118364000Y-137160000D01*
X169418000Y-139700000D02*
X171704000Y-139700000D01*
X162814000Y-138684000D02*
X168402000Y-138684000D01*
X168402000Y-138684000D02*
X169418000Y-139700000D01*
X161750000Y-138500000D02*
X162814000Y-138684000D01*
X173736000Y-138684000D02*
X174750000Y-138500000D01*
X172720000Y-138684000D02*
X173736000Y-138684000D01*
X171704000Y-139700000D02*
X172720000Y-138684000D01*
X130556000Y-137668000D02*
X131572000Y-137160000D01*
X129724000Y-138500000D02*
X130556000Y-137668000D01*
X122500000Y-138500000D02*
X129724000Y-138500000D01*
X135128000Y-137668000D02*
X135750000Y-138500000D01*
X134620000Y-137160000D02*
X135128000Y-137668000D01*
X131572000Y-137160000D02*
X134620000Y-137160000D01*
X148750000Y-138500000D02*
X147320000Y-138430000D01*
X147320000Y-138430000D02*
X142494000Y-133604000D01*
X142494000Y-133604000D02*
X134874000Y-133604000D01*
X134874000Y-133604000D02*
X134620000Y-133858000D01*
X161750000Y-138500000D02*
X161750000Y-137874000D01*
X161750000Y-137874000D02*
X161544000Y-138430000D01*
X173990000Y-140208000D02*
X174750000Y-141000000D01*
X172212000Y-140208000D02*
X173990000Y-140208000D01*
X148750000Y-141000000D02*
X151668000Y-141000000D01*
X151668000Y-141000000D02*
X152654000Y-141986000D01*
X142494000Y-139700000D02*
X147066000Y-139700000D01*
X147066000Y-139700000D02*
X148366000Y-141000000D01*
X148366000Y-141000000D02*
X148750000Y-141000000D01*
X135750000Y-141000000D02*
X138146000Y-141000000D01*
X138146000Y-141000000D02*
X139446000Y-139700000D01*
X139446000Y-139700000D02*
X142494000Y-139700000D01*
X161750000Y-140668000D02*
X161750000Y-141000000D01*
X122500000Y-141000000D02*
X129764000Y-141000000D01*
X134450000Y-139700000D02*
X135750000Y-141000000D01*
X131064000Y-139700000D02*
X134450000Y-139700000D01*
X129764000Y-141000000D02*
X131064000Y-139700000D01*
X109750000Y-141000000D02*
X116048000Y-141000000D01*
X121285000Y-139827000D02*
X122500000Y-141000000D01*
X117221000Y-139827000D02*
X121285000Y-139827000D01*
X116048000Y-141000000D02*
X117221000Y-139827000D01*
X119253000Y-143002000D02*
X119380000Y-143002000D01*
X123750000Y-143000000D02*
X119634000Y-143002000D01*
X119634000Y-143002000D02*
X119380000Y-143002000D01*
X112014000Y-141478000D02*
X116967000Y-141478000D01*
X112014000Y-141478000D02*
X111252000Y-142240000D01*
X111252000Y-142240000D02*
X111000000Y-143000000D01*
X116967000Y-141478000D02*
X117348000Y-141859000D01*
X119253000Y-143002000D02*
X117348000Y-141859000D01*
X138176000Y-129540000D02*
X137160000Y-129540000D01*
X138176000Y-129540000D02*
X138938000Y-130302000D01*
X138938000Y-130302000D02*
X140208000Y-131572000D01*
X150622000Y-133858000D02*
X145796000Y-133858000D01*
X145796000Y-133858000D02*
X143510000Y-131572000D01*
X143510000Y-131572000D02*
X141224000Y-131572000D01*
X141224000Y-131572000D02*
X140208000Y-131572000D01*
X150876000Y-134366000D02*
X150622000Y-133858000D01*
X150000000Y-143000000D02*
X150116000Y-143000000D01*
X158833736Y-144272028D02*
X159258000Y-144272028D01*
X157733972Y-144272028D02*
X158833736Y-144272028D01*
X156210000Y-145796000D02*
X157733972Y-144272028D01*
X150114000Y-143114000D02*
X150114000Y-145542000D01*
X152019000Y-147447000D02*
X155321000Y-147447000D01*
X150114000Y-145542000D02*
X152019000Y-147447000D01*
X155321000Y-147447000D02*
X156210000Y-146558000D01*
X150000000Y-143000000D02*
X150114000Y-143114000D01*
X156210000Y-146558000D02*
X156210000Y-145796000D01*
X133352000Y-143000000D02*
X133350000Y-143002000D01*
X137000000Y-143000000D02*
X133352000Y-143000000D01*
D23*
X144750000Y-141000000D02*
X144750000Y-141194000D01*
X144750000Y-141194000D02*
X145161000Y-141605000D01*
X145161000Y-141605000D02*
X145161000Y-146304000D01*
D22*
X171958000Y-142208000D02*
X170750000Y-141000000D01*
X170942000Y-146304000D02*
X171958000Y-145288000D01*
X171958000Y-145288000D02*
X171958000Y-142208000D01*
X159004000Y-141492000D02*
X157750000Y-141000000D01*
X159004000Y-141478000D02*
X157750000Y-141000000D01*
X160274000Y-142748000D02*
X159004000Y-141478000D01*
X160274000Y-144526000D02*
X160274000Y-142748000D01*
X158242000Y-146304000D02*
X158496000Y-146304000D01*
X158496000Y-146304000D02*
X160274000Y-144526000D01*
X187706000Y-139446000D02*
X185928000Y-139446000D01*
X185928000Y-139446000D02*
X184374000Y-141000000D01*
X184374000Y-141000000D02*
X183750000Y-141000000D01*
D21*
X139700000Y-112014000D02*
X150114000Y-112014000D01*
X152146000Y-114046000D02*
X152146000Y-121920000D01*
X119560000Y-119306000D02*
X120396000Y-120142000D01*
X119560000Y-118240000D02*
X119560000Y-119306000D01*
X120396000Y-120142000D02*
X135255000Y-120142000D01*
X135255000Y-120142000D02*
X136017000Y-119380000D01*
X150114000Y-112014000D02*
X152146000Y-114046000D01*
X136017000Y-119380000D02*
X136017000Y-115697000D01*
X136017000Y-115697000D02*
X139700000Y-112014000D01*
X152908000Y-118364000D02*
X154686000Y-120142000D01*
X150622000Y-111252000D02*
X152908000Y-113538000D01*
X137922000Y-111252000D02*
X150622000Y-111252000D01*
X154686000Y-120142000D02*
X154686000Y-121920000D01*
X133477000Y-115697000D02*
X137922000Y-111252000D01*
X123952000Y-119634000D02*
X132969000Y-119634000D01*
X111940000Y-116914000D02*
X112776000Y-116078000D01*
X132969000Y-119634000D02*
X133477000Y-119126000D01*
X111940000Y-118240000D02*
X111940000Y-116914000D01*
X133477000Y-119126000D02*
X133477000Y-115697000D01*
X112776000Y-116078000D02*
X122428176Y-116071320D01*
X122428176Y-116071320D02*
X123444000Y-117094000D01*
X123444000Y-117094000D02*
X123444000Y-119126000D01*
X152908000Y-113538000D02*
X152908000Y-118364000D01*
X123444000Y-119126000D02*
X123952000Y-119634000D01*
X136779000Y-110490000D02*
X136271000Y-110998000D01*
X150876000Y-110490000D02*
X136779000Y-110490000D01*
X153670000Y-113284000D02*
X150876000Y-110490000D01*
X153670000Y-116586000D02*
X153670000Y-113284000D01*
X157226000Y-121920000D02*
X157226000Y-120142000D01*
X157226000Y-120142000D02*
X153670000Y-116586000D01*
X127180000Y-118240000D02*
X127254000Y-116840000D01*
X127254000Y-116840000D02*
X127214569Y-111251805D01*
X159258000Y-114554000D02*
X159258000Y-121412000D01*
X157226000Y-112522000D02*
X159258000Y-114554000D01*
X152908000Y-108204000D02*
X157226000Y-112522000D01*
X150114003Y-108201015D02*
X152908000Y-108204000D01*
X130302000Y-108203962D02*
X150114003Y-108201015D01*
X127214569Y-111251805D02*
X130302000Y-108203962D01*
X159258000Y-121412000D02*
X159766000Y-121920000D01*
X124640000Y-118240000D02*
X124714000Y-116840000D01*
X124714000Y-116840000D02*
X124714000Y-111252000D01*
X162306000Y-120142000D02*
X162306000Y-121920000D01*
X160274000Y-118110000D02*
X162306000Y-120142000D01*
X160274000Y-114046000D02*
X160274000Y-118110000D01*
X157988000Y-111760000D02*
X160274000Y-114046000D01*
X153670000Y-107442000D02*
X157988000Y-111760000D01*
X150622000Y-107442000D02*
X153670000Y-107442000D01*
X128524000Y-107442000D02*
X150622000Y-107442000D01*
X124714000Y-111252000D02*
X128524000Y-107442000D01*
D25*
G36*
X187263637Y-84752275D02*
G01*
X188003140Y-84954580D01*
X188695128Y-85284642D01*
X189317733Y-85732029D01*
X189851268Y-86282595D01*
X190278876Y-86918944D01*
X190587041Y-87620961D01*
X190767283Y-88371720D01*
X190815000Y-89021512D01*
X190815001Y-135700259D01*
X190809590Y-135690136D01*
X190773186Y-135622028D01*
X190656344Y-135479656D01*
X190620659Y-135450370D01*
X189149000Y-133978711D01*
X189149000Y-133427772D01*
X189375714Y-133241714D01*
X189580031Y-132992752D01*
X189731852Y-132708715D01*
X189825343Y-132400516D01*
X189849000Y-132160322D01*
X189849000Y-108284319D01*
X189856911Y-108203999D01*
X189841864Y-108051229D01*
X189825343Y-107883484D01*
X189731852Y-107575285D01*
X189580031Y-107291248D01*
X189375714Y-107042286D01*
X189313318Y-106991079D01*
X188156924Y-105834686D01*
X188105714Y-105772286D01*
X187856752Y-105567969D01*
X187572715Y-105416148D01*
X187264516Y-105322657D01*
X187024322Y-105299000D01*
X187024319Y-105299000D01*
X186944000Y-105291089D01*
X186863681Y-105299000D01*
X182799678Y-105299000D01*
X182559484Y-105322657D01*
X182251285Y-105416148D01*
X181967248Y-105567969D01*
X181718286Y-105772286D01*
X181513969Y-106021248D01*
X181362148Y-106305285D01*
X181268657Y-106613484D01*
X181237089Y-106934000D01*
X181268657Y-107254516D01*
X181362148Y-107562715D01*
X181513969Y-107846752D01*
X181718286Y-108095714D01*
X181967248Y-108300031D01*
X181968713Y-108300814D01*
X181824866Y-108418866D01*
X181639294Y-108644986D01*
X181501401Y-108902966D01*
X181416487Y-109182889D01*
X181387815Y-109474000D01*
X181416487Y-109765111D01*
X181501401Y-110045034D01*
X181639294Y-110303014D01*
X181824866Y-110529134D01*
X182050986Y-110714706D01*
X182105791Y-110744000D01*
X182050986Y-110773294D01*
X181824866Y-110958866D01*
X181639294Y-111184986D01*
X181501401Y-111442966D01*
X181416487Y-111722889D01*
X181387815Y-112014000D01*
X181416487Y-112305111D01*
X181501401Y-112585034D01*
X181639294Y-112843014D01*
X181824866Y-113069134D01*
X182050986Y-113254706D01*
X182105791Y-113284000D01*
X182050986Y-113313294D01*
X181824866Y-113498866D01*
X181639294Y-113724986D01*
X181501401Y-113982966D01*
X181416487Y-114262889D01*
X181387815Y-114554000D01*
X181416487Y-114845111D01*
X181501401Y-115125034D01*
X181639294Y-115383014D01*
X181824866Y-115609134D01*
X181854687Y-115633607D01*
X181785820Y-115654498D01*
X181675506Y-115713463D01*
X181578815Y-115792815D01*
X181499463Y-115889506D01*
X181440498Y-115999820D01*
X181404188Y-116119518D01*
X181391928Y-116244000D01*
X181395000Y-116808250D01*
X181553750Y-116967000D01*
X182753000Y-116967000D01*
X182753000Y-116947000D01*
X183007000Y-116947000D01*
X183007000Y-116967000D01*
X184206250Y-116967000D01*
X184365000Y-116808250D01*
X184368072Y-116244000D01*
X184355812Y-116119518D01*
X184319502Y-115999820D01*
X184260537Y-115889506D01*
X184181185Y-115792815D01*
X184084494Y-115713463D01*
X183974180Y-115654498D01*
X183905313Y-115633607D01*
X183935134Y-115609134D01*
X184120706Y-115383014D01*
X184258599Y-115125034D01*
X184343513Y-114845111D01*
X184372185Y-114554000D01*
X184343513Y-114262889D01*
X184258599Y-113982966D01*
X184120706Y-113724986D01*
X183935134Y-113498866D01*
X183709014Y-113313294D01*
X183654209Y-113284000D01*
X183709014Y-113254706D01*
X183935134Y-113069134D01*
X184120706Y-112843014D01*
X184258599Y-112585034D01*
X184343513Y-112305111D01*
X184372185Y-112014000D01*
X184343513Y-111722889D01*
X184258599Y-111442966D01*
X184120706Y-111184986D01*
X183935134Y-110958866D01*
X183709014Y-110773294D01*
X183654209Y-110744000D01*
X183709014Y-110714706D01*
X183935134Y-110529134D01*
X184120706Y-110303014D01*
X184258599Y-110045034D01*
X184343513Y-109765111D01*
X184372185Y-109474000D01*
X184343513Y-109182889D01*
X184258599Y-108902966D01*
X184120706Y-108644986D01*
X184058346Y-108569000D01*
X186266762Y-108569000D01*
X186579001Y-108881240D01*
X186579000Y-132160321D01*
X186602657Y-132400515D01*
X186696148Y-132708714D01*
X186847969Y-132992751D01*
X187052286Y-133241714D01*
X187279001Y-133427773D01*
X187279000Y-134320068D01*
X187274476Y-134366000D01*
X187280067Y-134422761D01*
X187292529Y-134549291D01*
X187345993Y-134725539D01*
X187432814Y-134887971D01*
X187549656Y-135030344D01*
X187585341Y-135059630D01*
X188030610Y-135504899D01*
X187987309Y-135491764D01*
X187776492Y-135471000D01*
X187635508Y-135471000D01*
X187424691Y-135491764D01*
X187154192Y-135573818D01*
X186904899Y-135707068D01*
X186686392Y-135886392D01*
X186507068Y-136104899D01*
X186373818Y-136354192D01*
X186291764Y-136624691D01*
X186264057Y-136906000D01*
X186291764Y-137187309D01*
X186373818Y-137457808D01*
X186507068Y-137707101D01*
X186686392Y-137925608D01*
X186904899Y-138104932D01*
X187031029Y-138172350D01*
X187026273Y-138174320D01*
X186791241Y-138331363D01*
X186611604Y-138511000D01*
X185973932Y-138511000D01*
X185928000Y-138506476D01*
X185828724Y-138516254D01*
X185744708Y-138524529D01*
X185568460Y-138577993D01*
X185547000Y-138589464D01*
X185547000Y-137160000D01*
X185544560Y-137135224D01*
X185537333Y-137111399D01*
X185525597Y-137089443D01*
X185509803Y-137070197D01*
X181699803Y-133260197D01*
X181680557Y-133244403D01*
X181658601Y-133232667D01*
X181634776Y-133225440D01*
X181610000Y-133223000D01*
X180256227Y-133223000D01*
X180124247Y-133152454D01*
X179980986Y-133108997D01*
X179869333Y-133098000D01*
X179869322Y-133098000D01*
X179832000Y-133094324D01*
X179794678Y-133098000D01*
X170217535Y-133098000D01*
X170114889Y-133029414D01*
X169944729Y-132958932D01*
X169764089Y-132923000D01*
X169579911Y-132923000D01*
X169399271Y-132958932D01*
X169229111Y-133029414D01*
X169075972Y-133131738D01*
X168984710Y-133223000D01*
X168826227Y-133223000D01*
X168694247Y-133152454D01*
X168550986Y-133108997D01*
X168439333Y-133098000D01*
X168439322Y-133098000D01*
X168402000Y-133094324D01*
X168364678Y-133098000D01*
X159803322Y-133098000D01*
X159765999Y-133094324D01*
X159728676Y-133098000D01*
X159728667Y-133098000D01*
X159617014Y-133108997D01*
X159473753Y-133152454D01*
X159341773Y-133223000D01*
X158161000Y-133223000D01*
X158161000Y-131029043D01*
X158245607Y-130959608D01*
X158424932Y-130741101D01*
X158496000Y-130608142D01*
X158567068Y-130741100D01*
X158746392Y-130959607D01*
X158964899Y-131138932D01*
X159214192Y-131272182D01*
X159484691Y-131354236D01*
X159766000Y-131381943D01*
X160047308Y-131354236D01*
X160317807Y-131272182D01*
X160567100Y-131138932D01*
X160785607Y-130959608D01*
X160964932Y-130741101D01*
X161036000Y-130608142D01*
X161107068Y-130741100D01*
X161286392Y-130959607D01*
X161504899Y-131138932D01*
X161754192Y-131272182D01*
X162024691Y-131354236D01*
X162306000Y-131381943D01*
X162587308Y-131354236D01*
X162857807Y-131272182D01*
X163107100Y-131138932D01*
X163325607Y-130959608D01*
X163504932Y-130741101D01*
X163638182Y-130491808D01*
X163720236Y-130221309D01*
X163741000Y-130010492D01*
X163741000Y-129069509D01*
X163720236Y-128858691D01*
X163638182Y-128588192D01*
X163504932Y-128338899D01*
X163325608Y-128120392D01*
X163107101Y-127941068D01*
X162857808Y-127807818D01*
X162587309Y-127725764D01*
X162306000Y-127698057D01*
X162024692Y-127725764D01*
X161754193Y-127807818D01*
X161504900Y-127941068D01*
X161286393Y-128120392D01*
X161107068Y-128338899D01*
X161036000Y-128471858D01*
X160964932Y-128338899D01*
X160785608Y-128120392D01*
X160567101Y-127941068D01*
X160317808Y-127807818D01*
X160047309Y-127725764D01*
X159766000Y-127698057D01*
X159484692Y-127725764D01*
X159214193Y-127807818D01*
X158964900Y-127941068D01*
X158746393Y-128120392D01*
X158567068Y-128338899D01*
X158496000Y-128471858D01*
X158424932Y-128338899D01*
X158245608Y-128120392D01*
X158027101Y-127941068D01*
X157777808Y-127807818D01*
X157507309Y-127725764D01*
X157226000Y-127698057D01*
X156944692Y-127725764D01*
X156674193Y-127807818D01*
X156424900Y-127941068D01*
X156206393Y-128120392D01*
X156027068Y-128338899D01*
X155956000Y-128471858D01*
X155884932Y-128338899D01*
X155705608Y-128120392D01*
X155487101Y-127941068D01*
X155237808Y-127807818D01*
X154967309Y-127725764D01*
X154686000Y-127698057D01*
X154404692Y-127725764D01*
X154134193Y-127807818D01*
X153884900Y-127941068D01*
X153666393Y-128120392D01*
X153487068Y-128338899D01*
X153416000Y-128471858D01*
X153344932Y-128338899D01*
X153165608Y-128120392D01*
X152947101Y-127941068D01*
X152697808Y-127807818D01*
X152427309Y-127725764D01*
X152146000Y-127698057D01*
X151864692Y-127725764D01*
X151594193Y-127807818D01*
X151344900Y-127941068D01*
X151126393Y-128120392D01*
X150947068Y-128338899D01*
X150876000Y-128471858D01*
X150804932Y-128338899D01*
X150625608Y-128120392D01*
X150407101Y-127941068D01*
X150157808Y-127807818D01*
X149887309Y-127725764D01*
X149606000Y-127698057D01*
X149324692Y-127725764D01*
X149054193Y-127807818D01*
X148804900Y-127941068D01*
X148586393Y-128120392D01*
X148407068Y-128338899D01*
X148336000Y-128471858D01*
X148264932Y-128338899D01*
X148085608Y-128120392D01*
X147867101Y-127941068D01*
X147617808Y-127807818D01*
X147347309Y-127725764D01*
X147066000Y-127698057D01*
X146784692Y-127725764D01*
X146514193Y-127807818D01*
X146264900Y-127941068D01*
X146046393Y-128120392D01*
X145867068Y-128338899D01*
X145796000Y-128471858D01*
X145724932Y-128338899D01*
X145545608Y-128120392D01*
X145327101Y-127941068D01*
X145077808Y-127807818D01*
X144807309Y-127725764D01*
X144526000Y-127698057D01*
X144244692Y-127725764D01*
X143974193Y-127807818D01*
X143893708Y-127850838D01*
X143890974Y-127845724D01*
X143796001Y-127729999D01*
X143767002Y-127706200D01*
X143311803Y-127251002D01*
X143288001Y-127221999D01*
X143172276Y-127127026D01*
X143040247Y-127056454D01*
X142896986Y-127012997D01*
X142785333Y-127002000D01*
X142785322Y-127002000D01*
X142748000Y-126998324D01*
X142710678Y-127002000D01*
X136435535Y-127002000D01*
X136332889Y-126933414D01*
X136162729Y-126862932D01*
X135982089Y-126827000D01*
X135797911Y-126827000D01*
X135617271Y-126862932D01*
X135447111Y-126933414D01*
X135293972Y-127035738D01*
X135163738Y-127165972D01*
X135061414Y-127319111D01*
X134990932Y-127489271D01*
X134955000Y-127669911D01*
X134955000Y-127742051D01*
X134901309Y-127725764D01*
X134620000Y-127698057D01*
X134338692Y-127725764D01*
X134068193Y-127807818D01*
X133818900Y-127941068D01*
X133600393Y-128120392D01*
X133421068Y-128338899D01*
X133350000Y-128471858D01*
X133278932Y-128338899D01*
X133099608Y-128120392D01*
X132881101Y-127941068D01*
X132631808Y-127807818D01*
X132361309Y-127725764D01*
X132080000Y-127698057D01*
X131798692Y-127725764D01*
X131528193Y-127807818D01*
X131278900Y-127941068D01*
X131060393Y-128120392D01*
X130881068Y-128338899D01*
X130810000Y-128471858D01*
X130738932Y-128338899D01*
X130559608Y-128120392D01*
X130341101Y-127941068D01*
X130091808Y-127807818D01*
X129821309Y-127725764D01*
X129540000Y-127698057D01*
X129258692Y-127725764D01*
X128988193Y-127807818D01*
X128738900Y-127941068D01*
X128520393Y-128120392D01*
X128341068Y-128338899D01*
X128270000Y-128471858D01*
X128198932Y-128338899D01*
X128019608Y-128120392D01*
X127801101Y-127941068D01*
X127551808Y-127807818D01*
X127281309Y-127725764D01*
X127000000Y-127698057D01*
X126718692Y-127725764D01*
X126448193Y-127807818D01*
X126198900Y-127941068D01*
X125980393Y-128120392D01*
X125801068Y-128338899D01*
X125730000Y-128471858D01*
X125658932Y-128338899D01*
X125479608Y-128120392D01*
X125261101Y-127941068D01*
X125011808Y-127807818D01*
X124741309Y-127725764D01*
X124460000Y-127698057D01*
X124178692Y-127725764D01*
X123908193Y-127807818D01*
X123658900Y-127941068D01*
X123440393Y-128120392D01*
X123261068Y-128338899D01*
X123190000Y-128471858D01*
X123118932Y-128338899D01*
X122939608Y-128120392D01*
X122721101Y-127941068D01*
X122471808Y-127807818D01*
X122201309Y-127725764D01*
X121920000Y-127698057D01*
X121638692Y-127725764D01*
X121368193Y-127807818D01*
X121118900Y-127941068D01*
X120900393Y-128120392D01*
X120721068Y-128338899D01*
X120650000Y-128471858D01*
X120578932Y-128338899D01*
X120399608Y-128120392D01*
X120181101Y-127941068D01*
X119931808Y-127807818D01*
X119661309Y-127725764D01*
X119380000Y-127698057D01*
X119098692Y-127725764D01*
X118828193Y-127807818D01*
X118578900Y-127941068D01*
X118360393Y-128120392D01*
X118181068Y-128338899D01*
X118112735Y-128466741D01*
X117962601Y-128237161D01*
X117764895Y-128035500D01*
X117531646Y-127876285D01*
X117271818Y-127765633D01*
X117189039Y-127748096D01*
X116967000Y-127870085D01*
X116967000Y-129413000D01*
X116987000Y-129413000D01*
X116987000Y-129667000D01*
X116967000Y-129667000D01*
X116967000Y-131209915D01*
X117189039Y-131331904D01*
X117271818Y-131314367D01*
X117531646Y-131203715D01*
X117764895Y-131044500D01*
X117962601Y-130842839D01*
X118112735Y-130613258D01*
X118181068Y-130741100D01*
X118360392Y-130959607D01*
X118578899Y-131138932D01*
X118828192Y-131272182D01*
X119098691Y-131354236D01*
X119380000Y-131381943D01*
X119661308Y-131354236D01*
X119931807Y-131272182D01*
X120181100Y-131138932D01*
X120399607Y-130959608D01*
X120578932Y-130741101D01*
X120650000Y-130608142D01*
X120721068Y-130741100D01*
X120900392Y-130959607D01*
X121118899Y-131138932D01*
X121368192Y-131272182D01*
X121638691Y-131354236D01*
X121920000Y-131381943D01*
X122201308Y-131354236D01*
X122471807Y-131272182D01*
X122721100Y-131138932D01*
X122939607Y-130959608D01*
X123118932Y-130741101D01*
X123190000Y-130608142D01*
X123261068Y-130741100D01*
X123440392Y-130959607D01*
X123658899Y-131138932D01*
X123908192Y-131272182D01*
X124178691Y-131354236D01*
X124460000Y-131381943D01*
X124741308Y-131354236D01*
X125011807Y-131272182D01*
X125261100Y-131138932D01*
X125479607Y-130959608D01*
X125658932Y-130741101D01*
X125730000Y-130608142D01*
X125801068Y-130741100D01*
X125980392Y-130959607D01*
X126198899Y-131138932D01*
X126240000Y-131160901D01*
X126240000Y-131257198D01*
X125219002Y-132278197D01*
X125218997Y-132278201D01*
X124907199Y-132590000D01*
X114591322Y-132590000D01*
X114554000Y-132586324D01*
X114516677Y-132590000D01*
X114516667Y-132590000D01*
X114405014Y-132600997D01*
X114263912Y-132643799D01*
X114261753Y-132644454D01*
X114129723Y-132715026D01*
X114092279Y-132745756D01*
X114013999Y-132809999D01*
X113990201Y-132838997D01*
X113606198Y-133223000D01*
X113030000Y-133223000D01*
X112998481Y-133226973D01*
X112975085Y-133235486D01*
X112953800Y-133248400D01*
X111897192Y-134040856D01*
X111862273Y-134055320D01*
X111627241Y-134212363D01*
X111503416Y-134336188D01*
X110429000Y-135142000D01*
X110400665Y-135142000D01*
X110123426Y-135197147D01*
X109862273Y-135305320D01*
X109627241Y-135462363D01*
X109427363Y-135662241D01*
X109270320Y-135897273D01*
X109201977Y-136062267D01*
X107873800Y-137058400D01*
X107860197Y-137070197D01*
X107844403Y-137089443D01*
X107832667Y-137111399D01*
X107825440Y-137135224D01*
X107823000Y-137160000D01*
X107823000Y-142240000D01*
X107825440Y-142264776D01*
X107832667Y-142288601D01*
X107844403Y-142310557D01*
X107860197Y-142329803D01*
X109258440Y-143728046D01*
X109270320Y-143756727D01*
X109427363Y-143991759D01*
X109627241Y-144191637D01*
X109862273Y-144348680D01*
X109890954Y-144360560D01*
X111670197Y-146139803D01*
X111689443Y-146155597D01*
X111711399Y-146167333D01*
X111735224Y-146174560D01*
X111760000Y-146177000D01*
X117183000Y-146177000D01*
X117183000Y-146445335D01*
X117238147Y-146722574D01*
X117346320Y-146983727D01*
X117503363Y-147218759D01*
X117703241Y-147418637D01*
X117938273Y-147575680D01*
X118199426Y-147683853D01*
X118476665Y-147739000D01*
X118759335Y-147739000D01*
X119036574Y-147683853D01*
X119297727Y-147575680D01*
X119532759Y-147418637D01*
X119732637Y-147218759D01*
X119889680Y-146983727D01*
X119891650Y-146978971D01*
X119959068Y-147105101D01*
X120138392Y-147323608D01*
X120356899Y-147502932D01*
X120606192Y-147636182D01*
X120876691Y-147718236D01*
X121087508Y-147739000D01*
X121228492Y-147739000D01*
X121439309Y-147718236D01*
X121709808Y-147636182D01*
X121959101Y-147502932D01*
X122177608Y-147323608D01*
X122356932Y-147105101D01*
X122490182Y-146855808D01*
X122572236Y-146585309D01*
X122599943Y-146304000D01*
X122587434Y-146177000D01*
X129315001Y-146177000D01*
X129315001Y-146714059D01*
X129310476Y-146760000D01*
X129328529Y-146943291D01*
X129371573Y-147085186D01*
X129381994Y-147119540D01*
X129468815Y-147281972D01*
X129585657Y-147424344D01*
X129621336Y-147453625D01*
X130479110Y-148311400D01*
X106530505Y-148311400D01*
X105736363Y-148240525D01*
X104996860Y-148038220D01*
X104304872Y-147708158D01*
X103682267Y-147260771D01*
X103148734Y-146710208D01*
X102721124Y-146073856D01*
X102412958Y-145371837D01*
X102330551Y-145028583D01*
X103195225Y-145028583D01*
X103245370Y-145475636D01*
X103381393Y-145904436D01*
X103598113Y-146298649D01*
X103887276Y-146643260D01*
X104237867Y-146925142D01*
X104636532Y-147133559D01*
X105068086Y-147260572D01*
X105516092Y-147301344D01*
X105963485Y-147254321D01*
X106393223Y-147121295D01*
X106788940Y-146907332D01*
X107135561Y-146620582D01*
X107419883Y-146271968D01*
X107631079Y-145874767D01*
X107761102Y-145444110D01*
X107805000Y-144996400D01*
X107804101Y-144932041D01*
X107747719Y-144485731D01*
X107605722Y-144058872D01*
X107383519Y-143667724D01*
X107089573Y-143327184D01*
X106735081Y-143050224D01*
X106333545Y-142847394D01*
X105900259Y-142726418D01*
X105451728Y-142691906D01*
X105005035Y-142745170D01*
X104577195Y-142884184D01*
X104184505Y-143103651D01*
X103841922Y-143395212D01*
X103562494Y-143747763D01*
X103356865Y-144147873D01*
X103232868Y-144580303D01*
X103195225Y-145028583D01*
X102330551Y-145028583D01*
X102232718Y-144621081D01*
X102185000Y-143971288D01*
X102185000Y-129325413D01*
X109534192Y-129325413D01*
X109629956Y-129589814D01*
X109919571Y-129730704D01*
X110231108Y-129812384D01*
X110552595Y-129831718D01*
X110871675Y-129787961D01*
X111176088Y-129682795D01*
X111205638Y-129667000D01*
X115405000Y-129667000D01*
X115405000Y-130067000D01*
X115457350Y-130344514D01*
X115562834Y-130606483D01*
X115717399Y-130842839D01*
X115915105Y-131044500D01*
X116148354Y-131203715D01*
X116408182Y-131314367D01*
X116490961Y-131331904D01*
X116713000Y-131209915D01*
X116713000Y-129667000D01*
X115405000Y-129667000D01*
X111205638Y-129667000D01*
X111350044Y-129589814D01*
X111445808Y-129325413D01*
X110490000Y-128369605D01*
X109534192Y-129325413D01*
X102185000Y-129325413D01*
X102185000Y-128252595D01*
X108848282Y-128252595D01*
X108892039Y-128571675D01*
X108997205Y-128876088D01*
X109090186Y-129050044D01*
X109354587Y-129145808D01*
X110310395Y-128190000D01*
X110669605Y-128190000D01*
X111625413Y-129145808D01*
X111889814Y-129050044D01*
X111907834Y-129013000D01*
X115405000Y-129013000D01*
X115405000Y-129413000D01*
X116713000Y-129413000D01*
X116713000Y-127870085D01*
X116490961Y-127748096D01*
X116408182Y-127765633D01*
X116148354Y-127876285D01*
X115915105Y-128035500D01*
X115717399Y-128237161D01*
X115562834Y-128473517D01*
X115457350Y-128735486D01*
X115405000Y-129013000D01*
X111907834Y-129013000D01*
X112030704Y-128760429D01*
X112112384Y-128448892D01*
X112131718Y-128127405D01*
X112087961Y-127808325D01*
X111982795Y-127503912D01*
X111889814Y-127329956D01*
X111625413Y-127234192D01*
X110669605Y-128190000D01*
X110310395Y-128190000D01*
X109354587Y-127234192D01*
X109090186Y-127329956D01*
X108949296Y-127619571D01*
X108867616Y-127931108D01*
X108848282Y-128252595D01*
X102185000Y-128252595D01*
X102185000Y-127054587D01*
X109534192Y-127054587D01*
X110490000Y-128010395D01*
X111445808Y-127054587D01*
X111350044Y-126790186D01*
X111060429Y-126649296D01*
X110748892Y-126567616D01*
X110427405Y-126548282D01*
X110108325Y-126592039D01*
X109803912Y-126697205D01*
X109629956Y-126790186D01*
X109534192Y-127054587D01*
X102185000Y-127054587D01*
X102185000Y-123028967D01*
X108855000Y-123028967D01*
X108855000Y-123351033D01*
X108917832Y-123666912D01*
X109041082Y-123964463D01*
X109220013Y-124232252D01*
X109447748Y-124459987D01*
X109715537Y-124638918D01*
X110013088Y-124762168D01*
X110328967Y-124825000D01*
X110651033Y-124825000D01*
X110966912Y-124762168D01*
X111264463Y-124638918D01*
X111532252Y-124459987D01*
X111759987Y-124232252D01*
X111938918Y-123964463D01*
X112062168Y-123666912D01*
X112125000Y-123351033D01*
X112125000Y-123028967D01*
X112062168Y-122713088D01*
X111938918Y-122415537D01*
X111759987Y-122147748D01*
X111532252Y-121920013D01*
X111264463Y-121741082D01*
X110966912Y-121617832D01*
X110651033Y-121555000D01*
X110328967Y-121555000D01*
X110013088Y-121617832D01*
X109715537Y-121741082D01*
X109447748Y-121920013D01*
X109220013Y-122147748D01*
X109041082Y-122415537D01*
X108917832Y-122713088D01*
X108855000Y-123028967D01*
X102185000Y-123028967D01*
X102185000Y-118240000D01*
X110498057Y-118240000D01*
X110525764Y-118521309D01*
X110607818Y-118791808D01*
X110741068Y-119041101D01*
X110920392Y-119259608D01*
X111138899Y-119438932D01*
X111388192Y-119572182D01*
X111658691Y-119654236D01*
X111869508Y-119675000D01*
X112010492Y-119675000D01*
X112221309Y-119654236D01*
X112491808Y-119572182D01*
X112741101Y-119438932D01*
X112959608Y-119259608D01*
X113138932Y-119041101D01*
X113210000Y-118908142D01*
X113281068Y-119041101D01*
X113460392Y-119259608D01*
X113678899Y-119438932D01*
X113928192Y-119572182D01*
X114198691Y-119654236D01*
X114409508Y-119675000D01*
X114550492Y-119675000D01*
X114761309Y-119654236D01*
X115031808Y-119572182D01*
X115281101Y-119438932D01*
X115499608Y-119259608D01*
X115678932Y-119041101D01*
X115750000Y-118908142D01*
X115821068Y-119041101D01*
X116000392Y-119259608D01*
X116218899Y-119438932D01*
X116468192Y-119572182D01*
X116738691Y-119654236D01*
X116949508Y-119675000D01*
X117090492Y-119675000D01*
X117301309Y-119654236D01*
X117571808Y-119572182D01*
X117821101Y-119438932D01*
X118039608Y-119259608D01*
X118218932Y-119041101D01*
X118290000Y-118908142D01*
X118361068Y-119041101D01*
X118540392Y-119259608D01*
X118758899Y-119438932D01*
X118815268Y-119469062D01*
X118820107Y-119485014D01*
X118854454Y-119598246D01*
X118925026Y-119730276D01*
X118985756Y-119804275D01*
X119020000Y-119846001D01*
X119048998Y-119869799D01*
X119268261Y-120089063D01*
X119098692Y-120105764D01*
X118828193Y-120187818D01*
X118578900Y-120321068D01*
X118360393Y-120500392D01*
X118181068Y-120718899D01*
X118110000Y-120851858D01*
X118038932Y-120718899D01*
X117859608Y-120500392D01*
X117641101Y-120321068D01*
X117391808Y-120187818D01*
X117121309Y-120105764D01*
X116840000Y-120078057D01*
X116558692Y-120105764D01*
X116288193Y-120187818D01*
X116038900Y-120321068D01*
X115820393Y-120500392D01*
X115641068Y-120718899D01*
X115511173Y-120961916D01*
X115473969Y-121007249D01*
X115322148Y-121291286D01*
X115228657Y-121599485D01*
X115205000Y-121839679D01*
X115205000Y-123363681D01*
X115197089Y-123444000D01*
X115205000Y-123524319D01*
X115205000Y-123524322D01*
X115228657Y-123764516D01*
X115283761Y-123946167D01*
X115322148Y-124072714D01*
X115328868Y-124085286D01*
X115473970Y-124356752D01*
X115678287Y-124605714D01*
X115740682Y-124656920D01*
X117151079Y-126067318D01*
X117202286Y-126129714D01*
X117451248Y-126334031D01*
X117735285Y-126485852D01*
X118043484Y-126579343D01*
X118283678Y-126603000D01*
X118283680Y-126603000D01*
X118363999Y-126610911D01*
X118444319Y-126603000D01*
X140381681Y-126603000D01*
X140462000Y-126610911D01*
X140542319Y-126603000D01*
X140542322Y-126603000D01*
X140782516Y-126579343D01*
X141090715Y-126485852D01*
X141374752Y-126334031D01*
X141623714Y-126129714D01*
X141674925Y-126067314D01*
X141986000Y-125756239D01*
X142043079Y-125813318D01*
X142094286Y-125875714D01*
X142343248Y-126080031D01*
X142627285Y-126231852D01*
X142935484Y-126325343D01*
X143175678Y-126349000D01*
X143175680Y-126349000D01*
X143255999Y-126356911D01*
X143336319Y-126349000D01*
X165019681Y-126349000D01*
X165100000Y-126356911D01*
X165180319Y-126349000D01*
X165180322Y-126349000D01*
X165420516Y-126325343D01*
X165728715Y-126231852D01*
X166012752Y-126080031D01*
X166261714Y-125875714D01*
X166312924Y-125813314D01*
X168993324Y-123132916D01*
X169055714Y-123081714D01*
X169260031Y-122832752D01*
X169411852Y-122548715D01*
X169452251Y-122415537D01*
X169505343Y-122240517D01*
X169536911Y-121920000D01*
X169529000Y-121839678D01*
X169529000Y-117944000D01*
X181391928Y-117944000D01*
X181404188Y-118068482D01*
X181440498Y-118188180D01*
X181499463Y-118298494D01*
X181578815Y-118395185D01*
X181675506Y-118474537D01*
X181785820Y-118533502D01*
X181905518Y-118569812D01*
X182030000Y-118582072D01*
X182594250Y-118579000D01*
X182753000Y-118420250D01*
X182753000Y-117221000D01*
X183007000Y-117221000D01*
X183007000Y-118420250D01*
X183165750Y-118579000D01*
X183730000Y-118582072D01*
X183854482Y-118569812D01*
X183974180Y-118533502D01*
X184084494Y-118474537D01*
X184181185Y-118395185D01*
X184260537Y-118298494D01*
X184319502Y-118188180D01*
X184355812Y-118068482D01*
X184368072Y-117944000D01*
X184365000Y-117379750D01*
X184206250Y-117221000D01*
X183007000Y-117221000D01*
X182753000Y-117221000D01*
X181553750Y-117221000D01*
X181395000Y-117379750D01*
X181391928Y-117944000D01*
X169529000Y-117944000D01*
X169529000Y-111840320D01*
X169536911Y-111760001D01*
X169529000Y-111679678D01*
X169529000Y-99610238D01*
X171004240Y-98135000D01*
X178580322Y-98135000D01*
X178820516Y-98111343D01*
X179128715Y-98017852D01*
X179184429Y-97988072D01*
X179350000Y-97988072D01*
X179474482Y-97975812D01*
X179594180Y-97939502D01*
X179704494Y-97880537D01*
X179801185Y-97801185D01*
X179880537Y-97704494D01*
X179939502Y-97594180D01*
X179975812Y-97474482D01*
X179988072Y-97350000D01*
X179988072Y-97184429D01*
X180017852Y-97128715D01*
X180111343Y-96820516D01*
X180142911Y-96500000D01*
X180111343Y-96179484D01*
X180017852Y-95871285D01*
X179988072Y-95815571D01*
X179988072Y-95650000D01*
X179975812Y-95525518D01*
X179939502Y-95405820D01*
X179880537Y-95295506D01*
X179801185Y-95198815D01*
X179704494Y-95119463D01*
X179594180Y-95060498D01*
X179525313Y-95039607D01*
X179555134Y-95015134D01*
X179740706Y-94789014D01*
X179878599Y-94531034D01*
X179963513Y-94251111D01*
X179992185Y-93960000D01*
X179963513Y-93668889D01*
X179878599Y-93388966D01*
X179740706Y-93130986D01*
X179555134Y-92904866D01*
X179329014Y-92719294D01*
X179274209Y-92690000D01*
X179329014Y-92660706D01*
X179555134Y-92475134D01*
X179740706Y-92249014D01*
X179878599Y-91991034D01*
X179963513Y-91711111D01*
X179992185Y-91420000D01*
X179963513Y-91128889D01*
X179878599Y-90848966D01*
X179740706Y-90590986D01*
X179555134Y-90364866D01*
X179329014Y-90179294D01*
X179264477Y-90144799D01*
X179381355Y-90075178D01*
X179597588Y-89880269D01*
X179771641Y-89646920D01*
X179896825Y-89384099D01*
X179941476Y-89236890D01*
X179820155Y-89007000D01*
X178627000Y-89007000D01*
X178627000Y-89027000D01*
X178373000Y-89027000D01*
X178373000Y-89007000D01*
X177179845Y-89007000D01*
X177058524Y-89236890D01*
X177103175Y-89384099D01*
X177228359Y-89646920D01*
X177402412Y-89880269D01*
X177618645Y-90075178D01*
X177735523Y-90144799D01*
X177670986Y-90179294D01*
X177444866Y-90364866D01*
X177259294Y-90590986D01*
X177121401Y-90848966D01*
X177036487Y-91128889D01*
X177007815Y-91420000D01*
X177036487Y-91711111D01*
X177121401Y-91991034D01*
X177259294Y-92249014D01*
X177444866Y-92475134D01*
X177670986Y-92660706D01*
X177725791Y-92690000D01*
X177670986Y-92719294D01*
X177444866Y-92904866D01*
X177259294Y-93130986D01*
X177121401Y-93388966D01*
X177036487Y-93668889D01*
X177007815Y-93960000D01*
X177036487Y-94251111D01*
X177121401Y-94531034D01*
X177259294Y-94789014D01*
X177321654Y-94865000D01*
X170407322Y-94865000D01*
X170327000Y-94857089D01*
X170006483Y-94888657D01*
X169698285Y-94982148D01*
X169414248Y-95133969D01*
X169165286Y-95338286D01*
X169114084Y-95400676D01*
X166794685Y-97720077D01*
X166732286Y-97771286D01*
X166527969Y-98020248D01*
X166376148Y-98304285D01*
X166282657Y-98612484D01*
X166259000Y-98852678D01*
X166251089Y-98933000D01*
X166259000Y-99013319D01*
X166259000Y-99394321D01*
X166259001Y-99394331D01*
X166259000Y-111082761D01*
X162898762Y-114443000D01*
X162144967Y-114443000D01*
X162065807Y-114458746D01*
X161985484Y-114466657D01*
X161908249Y-114490086D01*
X161829088Y-114505832D01*
X161754521Y-114536719D01*
X161677285Y-114560148D01*
X161606102Y-114598196D01*
X161531537Y-114629082D01*
X161464431Y-114673921D01*
X161393248Y-114711969D01*
X161330854Y-114763174D01*
X161263748Y-114808013D01*
X161206681Y-114865080D01*
X161144286Y-114916286D01*
X161093080Y-114978681D01*
X161036013Y-115035748D01*
X161034000Y-115038761D01*
X161034000Y-114083322D01*
X161037676Y-114045999D01*
X161034000Y-114008676D01*
X161034000Y-114008667D01*
X161023003Y-113897014D01*
X160979546Y-113753753D01*
X160908974Y-113621724D01*
X160814001Y-113505999D01*
X160785004Y-113482202D01*
X158551803Y-111249002D01*
X158551799Y-111248997D01*
X154233804Y-106931003D01*
X154210001Y-106901999D01*
X154094276Y-106807026D01*
X153962247Y-106736454D01*
X153818986Y-106692997D01*
X153707333Y-106682000D01*
X153707322Y-106682000D01*
X153670000Y-106678324D01*
X153632678Y-106682000D01*
X128561325Y-106682000D01*
X128524000Y-106678324D01*
X128486675Y-106682000D01*
X128486667Y-106682000D01*
X128375014Y-106692997D01*
X128231753Y-106736454D01*
X128099724Y-106807026D01*
X127983999Y-106901999D01*
X127960201Y-106930997D01*
X124202998Y-110688201D01*
X124174000Y-110711999D01*
X124150202Y-110740997D01*
X124150201Y-110740998D01*
X124079026Y-110827724D01*
X124008454Y-110959754D01*
X123997361Y-110996324D01*
X123964998Y-111103014D01*
X123956924Y-111184986D01*
X123950324Y-111252000D01*
X123954001Y-111289332D01*
X123954000Y-116529007D01*
X122992595Y-115561114D01*
X122967802Y-115530946D01*
X122911200Y-115484559D01*
X122854585Y-115437777D01*
X122853215Y-115437039D01*
X122852012Y-115436053D01*
X122787317Y-115401530D01*
X122722793Y-115366761D01*
X122721307Y-115366305D01*
X122719934Y-115365572D01*
X122649773Y-115344343D01*
X122579680Y-115322823D01*
X122578131Y-115322665D01*
X122576643Y-115322215D01*
X122503706Y-115315082D01*
X122430744Y-115307648D01*
X122391862Y-115311346D01*
X112813080Y-115317975D01*
X112776000Y-115314323D01*
X112738395Y-115318027D01*
X112738142Y-115318027D01*
X112702615Y-115321551D01*
X112627014Y-115328997D01*
X112626756Y-115329075D01*
X112626496Y-115329101D01*
X112556098Y-115350509D01*
X112483753Y-115372454D01*
X112483516Y-115372581D01*
X112483265Y-115372657D01*
X112418120Y-115407536D01*
X112351724Y-115443026D01*
X112351517Y-115443196D01*
X112351285Y-115443320D01*
X112294132Y-115490291D01*
X112264997Y-115514201D01*
X112264807Y-115514391D01*
X112235626Y-115538373D01*
X112212018Y-115567180D01*
X111428998Y-116350201D01*
X111400000Y-116373999D01*
X111376202Y-116402997D01*
X111376201Y-116402998D01*
X111305026Y-116489724D01*
X111234454Y-116621754D01*
X111206695Y-116713267D01*
X111190998Y-116765014D01*
X111184676Y-116829206D01*
X111176324Y-116914000D01*
X111180001Y-116951332D01*
X111180001Y-117019099D01*
X111138899Y-117041068D01*
X110920392Y-117220392D01*
X110741068Y-117438899D01*
X110607818Y-117688192D01*
X110525764Y-117958691D01*
X110498057Y-118240000D01*
X102185000Y-118240000D01*
X102185000Y-103000000D01*
X110498057Y-103000000D01*
X110525764Y-103281309D01*
X110607818Y-103551808D01*
X110741068Y-103801101D01*
X110920392Y-104019608D01*
X111138899Y-104198932D01*
X111388192Y-104332182D01*
X111658691Y-104414236D01*
X111869508Y-104435000D01*
X112010492Y-104435000D01*
X112221309Y-104414236D01*
X112491808Y-104332182D01*
X112741101Y-104198932D01*
X112959608Y-104019608D01*
X113138932Y-103801101D01*
X113210000Y-103668142D01*
X113281068Y-103801101D01*
X113460392Y-104019608D01*
X113678899Y-104198932D01*
X113928192Y-104332182D01*
X114198691Y-104414236D01*
X114409508Y-104435000D01*
X114550492Y-104435000D01*
X114761309Y-104414236D01*
X115031808Y-104332182D01*
X115281101Y-104198932D01*
X115499608Y-104019608D01*
X115678932Y-103801101D01*
X115750000Y-103668142D01*
X115821068Y-103801101D01*
X116000392Y-104019608D01*
X116218899Y-104198932D01*
X116468192Y-104332182D01*
X116738691Y-104414236D01*
X116949508Y-104435000D01*
X117090492Y-104435000D01*
X117301309Y-104414236D01*
X117571808Y-104332182D01*
X117821101Y-104198932D01*
X118039608Y-104019608D01*
X118218932Y-103801101D01*
X118290000Y-103668142D01*
X118361068Y-103801101D01*
X118540392Y-104019608D01*
X118758899Y-104198932D01*
X119008192Y-104332182D01*
X119278691Y-104414236D01*
X119489508Y-104435000D01*
X119630492Y-104435000D01*
X119841309Y-104414236D01*
X120111808Y-104332182D01*
X120361101Y-104198932D01*
X120579608Y-104019608D01*
X120758932Y-103801101D01*
X120830000Y-103668142D01*
X120901068Y-103801101D01*
X121080392Y-104019608D01*
X121298899Y-104198932D01*
X121548192Y-104332182D01*
X121818691Y-104414236D01*
X122029508Y-104435000D01*
X122170492Y-104435000D01*
X122381309Y-104414236D01*
X122651808Y-104332182D01*
X122901101Y-104198932D01*
X123119608Y-104019608D01*
X123298932Y-103801101D01*
X123370000Y-103668142D01*
X123441068Y-103801101D01*
X123620392Y-104019608D01*
X123838899Y-104198932D01*
X124088192Y-104332182D01*
X124358691Y-104414236D01*
X124569508Y-104435000D01*
X124710492Y-104435000D01*
X124921309Y-104414236D01*
X125191808Y-104332182D01*
X125441101Y-104198932D01*
X125659608Y-104019608D01*
X125838932Y-103801101D01*
X125910000Y-103668142D01*
X125981068Y-103801101D01*
X126160392Y-104019608D01*
X126378899Y-104198932D01*
X126628192Y-104332182D01*
X126898691Y-104414236D01*
X127109508Y-104435000D01*
X127250492Y-104435000D01*
X127461309Y-104414236D01*
X127731808Y-104332182D01*
X127981101Y-104198932D01*
X128199608Y-104019608D01*
X128378932Y-103801101D01*
X128450000Y-103668142D01*
X128521068Y-103801101D01*
X128700392Y-104019608D01*
X128918899Y-104198932D01*
X129168192Y-104332182D01*
X129438691Y-104414236D01*
X129649508Y-104435000D01*
X129790492Y-104435000D01*
X130001309Y-104414236D01*
X130271808Y-104332182D01*
X130521101Y-104198932D01*
X130739608Y-104019608D01*
X130918932Y-103801101D01*
X130990000Y-103668142D01*
X131061068Y-103801101D01*
X131240392Y-104019608D01*
X131458899Y-104198932D01*
X131708192Y-104332182D01*
X131978691Y-104414236D01*
X132189508Y-104435000D01*
X132330492Y-104435000D01*
X132541309Y-104414236D01*
X132811808Y-104332182D01*
X133061101Y-104198932D01*
X133279608Y-104019608D01*
X133458932Y-103801101D01*
X133530000Y-103668142D01*
X133601068Y-103801101D01*
X133780392Y-104019608D01*
X133998899Y-104198932D01*
X134248192Y-104332182D01*
X134518691Y-104414236D01*
X134729508Y-104435000D01*
X134870492Y-104435000D01*
X135081309Y-104414236D01*
X135351808Y-104332182D01*
X135601101Y-104198932D01*
X135819608Y-104019608D01*
X135998932Y-103801101D01*
X136070000Y-103668142D01*
X136141068Y-103801101D01*
X136320392Y-104019608D01*
X136538899Y-104198932D01*
X136788192Y-104332182D01*
X137058691Y-104414236D01*
X137269508Y-104435000D01*
X137410492Y-104435000D01*
X137621309Y-104414236D01*
X137891808Y-104332182D01*
X138141101Y-104198932D01*
X138359608Y-104019608D01*
X138538932Y-103801101D01*
X138612579Y-103663318D01*
X138727615Y-103855131D01*
X138916586Y-104063519D01*
X139142580Y-104231037D01*
X139396913Y-104351246D01*
X139530961Y-104391904D01*
X139753000Y-104269915D01*
X139753000Y-103127000D01*
X139733000Y-103127000D01*
X139733000Y-102873000D01*
X139753000Y-102873000D01*
X139753000Y-101730085D01*
X140007000Y-101730085D01*
X140007000Y-102873000D01*
X140027000Y-102873000D01*
X140027000Y-103127000D01*
X140007000Y-103127000D01*
X140007000Y-104269915D01*
X140229039Y-104391904D01*
X140363087Y-104351246D01*
X140617420Y-104231037D01*
X140843414Y-104063519D01*
X141032385Y-103855131D01*
X141147421Y-103663318D01*
X141221068Y-103801101D01*
X141400392Y-104019608D01*
X141618899Y-104198932D01*
X141868192Y-104332182D01*
X142138691Y-104414236D01*
X142349508Y-104435000D01*
X142490492Y-104435000D01*
X142701309Y-104414236D01*
X142971808Y-104332182D01*
X143221101Y-104198932D01*
X143439608Y-104019608D01*
X143618932Y-103801101D01*
X143690000Y-103668142D01*
X143761068Y-103801101D01*
X143940392Y-104019608D01*
X144158899Y-104198932D01*
X144408192Y-104332182D01*
X144678691Y-104414236D01*
X144889508Y-104435000D01*
X145030492Y-104435000D01*
X145241309Y-104414236D01*
X145511808Y-104332182D01*
X145761101Y-104198932D01*
X145979608Y-104019608D01*
X146072419Y-103906518D01*
X146074188Y-103924482D01*
X146110498Y-104044180D01*
X146169463Y-104154494D01*
X146248815Y-104251185D01*
X146345506Y-104330537D01*
X146455820Y-104389502D01*
X146575518Y-104425812D01*
X146700000Y-104438072D01*
X148300000Y-104438072D01*
X148424482Y-104425812D01*
X148544180Y-104389502D01*
X148654494Y-104330537D01*
X148751185Y-104251185D01*
X148830537Y-104154494D01*
X148889502Y-104044180D01*
X148925812Y-103924482D01*
X148938072Y-103800000D01*
X148938072Y-102200000D01*
X148925812Y-102075518D01*
X148889502Y-101955820D01*
X148830537Y-101845506D01*
X148751185Y-101748815D01*
X148654494Y-101669463D01*
X148544180Y-101610498D01*
X148424482Y-101574188D01*
X148300000Y-101561928D01*
X146700000Y-101561928D01*
X146575518Y-101574188D01*
X146455820Y-101610498D01*
X146345506Y-101669463D01*
X146248815Y-101748815D01*
X146169463Y-101845506D01*
X146110498Y-101955820D01*
X146074188Y-102075518D01*
X146072419Y-102093482D01*
X145979608Y-101980392D01*
X145761101Y-101801068D01*
X145511808Y-101667818D01*
X145241309Y-101585764D01*
X145030492Y-101565000D01*
X144889508Y-101565000D01*
X144678691Y-101585764D01*
X144408192Y-101667818D01*
X144158899Y-101801068D01*
X143940392Y-101980392D01*
X143761068Y-102198899D01*
X143690000Y-102331858D01*
X143618932Y-102198899D01*
X143439608Y-101980392D01*
X143221101Y-101801068D01*
X142971808Y-101667818D01*
X142701309Y-101585764D01*
X142490492Y-101565000D01*
X142349508Y-101565000D01*
X142138691Y-101585764D01*
X141868192Y-101667818D01*
X141618899Y-101801068D01*
X141400392Y-101980392D01*
X141221068Y-102198899D01*
X141147421Y-102336682D01*
X141032385Y-102144869D01*
X140843414Y-101936481D01*
X140617420Y-101768963D01*
X140363087Y-101648754D01*
X140229039Y-101608096D01*
X140007000Y-101730085D01*
X139753000Y-101730085D01*
X139530961Y-101608096D01*
X139396913Y-101648754D01*
X139142580Y-101768963D01*
X138916586Y-101936481D01*
X138727615Y-102144869D01*
X138612579Y-102336682D01*
X138538932Y-102198899D01*
X138359608Y-101980392D01*
X138141101Y-101801068D01*
X137891808Y-101667818D01*
X137621309Y-101585764D01*
X137410492Y-101565000D01*
X137269508Y-101565000D01*
X137058691Y-101585764D01*
X136788192Y-101667818D01*
X136538899Y-101801068D01*
X136320392Y-101980392D01*
X136141068Y-102198899D01*
X136070000Y-102331858D01*
X135998932Y-102198899D01*
X135819608Y-101980392D01*
X135601101Y-101801068D01*
X135560000Y-101779099D01*
X135560000Y-101563322D01*
X135563676Y-101525999D01*
X135560000Y-101488676D01*
X135560000Y-101488667D01*
X135549003Y-101377014D01*
X135505546Y-101233753D01*
X135434974Y-101101724D01*
X135416327Y-101079002D01*
X135363799Y-101014996D01*
X135363795Y-101014992D01*
X135340001Y-100985999D01*
X135311008Y-100962205D01*
X134167803Y-99819002D01*
X134144001Y-99789999D01*
X134028276Y-99695026D01*
X133896247Y-99624454D01*
X133752986Y-99580997D01*
X133641333Y-99570000D01*
X133641322Y-99570000D01*
X133604000Y-99566324D01*
X133566678Y-99570000D01*
X121980803Y-99570000D01*
X121052000Y-98641199D01*
X121052000Y-96632909D01*
X121066463Y-96626918D01*
X121334252Y-96447987D01*
X121561987Y-96220252D01*
X121740918Y-95952463D01*
X121864168Y-95654912D01*
X121927000Y-95339033D01*
X121927000Y-95016967D01*
X129175000Y-95016967D01*
X129175000Y-95339033D01*
X129237832Y-95654912D01*
X129361082Y-95952463D01*
X129540013Y-96220252D01*
X129767748Y-96447987D01*
X130035537Y-96626918D01*
X130333088Y-96750168D01*
X130648967Y-96813000D01*
X130971033Y-96813000D01*
X131286912Y-96750168D01*
X131584463Y-96626918D01*
X131852252Y-96447987D01*
X132079987Y-96220252D01*
X132258918Y-95952463D01*
X132382168Y-95654912D01*
X132445000Y-95339033D01*
X132445000Y-95016967D01*
X135675000Y-95016967D01*
X135675000Y-95339033D01*
X135737832Y-95654912D01*
X135861082Y-95952463D01*
X136040013Y-96220252D01*
X136267748Y-96447987D01*
X136535537Y-96626918D01*
X136833088Y-96750168D01*
X137148967Y-96813000D01*
X137471033Y-96813000D01*
X137786912Y-96750168D01*
X138084463Y-96626918D01*
X138352252Y-96447987D01*
X138579987Y-96220252D01*
X138758918Y-95952463D01*
X138882168Y-95654912D01*
X138945000Y-95339033D01*
X138945000Y-95016967D01*
X138882168Y-94701088D01*
X138758918Y-94403537D01*
X138579987Y-94135748D01*
X138352252Y-93908013D01*
X138084463Y-93729082D01*
X137786912Y-93605832D01*
X137471033Y-93543000D01*
X137148967Y-93543000D01*
X136833088Y-93605832D01*
X136535537Y-93729082D01*
X136267748Y-93908013D01*
X136040013Y-94135748D01*
X135861082Y-94403537D01*
X135737832Y-94701088D01*
X135675000Y-95016967D01*
X132445000Y-95016967D01*
X132382168Y-94701088D01*
X132258918Y-94403537D01*
X132079987Y-94135748D01*
X131852252Y-93908013D01*
X131584463Y-93729082D01*
X131286912Y-93605832D01*
X130971033Y-93543000D01*
X130648967Y-93543000D01*
X130333088Y-93605832D01*
X130035537Y-93729082D01*
X129767748Y-93908013D01*
X129540013Y-94135748D01*
X129361082Y-94403537D01*
X129237832Y-94701088D01*
X129175000Y-95016967D01*
X121927000Y-95016967D01*
X121864168Y-94701088D01*
X121740918Y-94403537D01*
X121561987Y-94135748D01*
X121334252Y-93908013D01*
X121066463Y-93729082D01*
X120768912Y-93605832D01*
X120453033Y-93543000D01*
X120130967Y-93543000D01*
X119815088Y-93605832D01*
X119517537Y-93729082D01*
X119249748Y-93908013D01*
X119022013Y-94135748D01*
X118843082Y-94403537D01*
X118837091Y-94418000D01*
X115246909Y-94418000D01*
X115240918Y-94403537D01*
X115061987Y-94135748D01*
X114834252Y-93908013D01*
X114566463Y-93729082D01*
X114268912Y-93605832D01*
X113953033Y-93543000D01*
X113630967Y-93543000D01*
X113315088Y-93605832D01*
X113017537Y-93729082D01*
X112749748Y-93908013D01*
X112522013Y-94135748D01*
X112343082Y-94403537D01*
X112219832Y-94701088D01*
X112157000Y-95016967D01*
X112157000Y-95339033D01*
X112219832Y-95654912D01*
X112343082Y-95952463D01*
X112522013Y-96220252D01*
X112749748Y-96447987D01*
X113017537Y-96626918D01*
X113315088Y-96750168D01*
X113630967Y-96813000D01*
X113953033Y-96813000D01*
X114268912Y-96750168D01*
X114566463Y-96626918D01*
X114834252Y-96447987D01*
X115061987Y-96220252D01*
X115240918Y-95952463D01*
X115246909Y-95938000D01*
X118837091Y-95938000D01*
X118843082Y-95952463D01*
X119022013Y-96220252D01*
X119249748Y-96447987D01*
X119517537Y-96626918D01*
X119532001Y-96632909D01*
X119532000Y-98918677D01*
X119528324Y-98956000D01*
X119532000Y-98993322D01*
X119532000Y-98993332D01*
X119542997Y-99104985D01*
X119582035Y-99233678D01*
X119586454Y-99248246D01*
X119657026Y-99380276D01*
X119696871Y-99428826D01*
X119751999Y-99496001D01*
X119781002Y-99519803D01*
X121102205Y-100841008D01*
X121125999Y-100870001D01*
X121154992Y-100893795D01*
X121154996Y-100893799D01*
X121193433Y-100925343D01*
X121241724Y-100964974D01*
X121373753Y-101035546D01*
X121517014Y-101079003D01*
X121628667Y-101090000D01*
X121628676Y-101090000D01*
X121665999Y-101093676D01*
X121703322Y-101090000D01*
X133289199Y-101090000D01*
X133999789Y-101800592D01*
X133998899Y-101801068D01*
X133780392Y-101980392D01*
X133601068Y-102198899D01*
X133530000Y-102331858D01*
X133458932Y-102198899D01*
X133279608Y-101980392D01*
X133061101Y-101801068D01*
X132811808Y-101667818D01*
X132541309Y-101585764D01*
X132330492Y-101565000D01*
X132189508Y-101565000D01*
X131978691Y-101585764D01*
X131708192Y-101667818D01*
X131458899Y-101801068D01*
X131240392Y-101980392D01*
X131061068Y-102198899D01*
X130990000Y-102331858D01*
X130918932Y-102198899D01*
X130739608Y-101980392D01*
X130521101Y-101801068D01*
X130271808Y-101667818D01*
X130001309Y-101585764D01*
X129790492Y-101565000D01*
X129649508Y-101565000D01*
X129438691Y-101585764D01*
X129168192Y-101667818D01*
X128918899Y-101801068D01*
X128700392Y-101980392D01*
X128521068Y-102198899D01*
X128450000Y-102331858D01*
X128378932Y-102198899D01*
X128199608Y-101980392D01*
X127981101Y-101801068D01*
X127731808Y-101667818D01*
X127461309Y-101585764D01*
X127250492Y-101565000D01*
X127109508Y-101565000D01*
X126898691Y-101585764D01*
X126628192Y-101667818D01*
X126378899Y-101801068D01*
X126160392Y-101980392D01*
X125981068Y-102198899D01*
X125910000Y-102331858D01*
X125838932Y-102198899D01*
X125659608Y-101980392D01*
X125441101Y-101801068D01*
X125191808Y-101667818D01*
X124921309Y-101585764D01*
X124710492Y-101565000D01*
X124569508Y-101565000D01*
X124358691Y-101585764D01*
X124088192Y-101667818D01*
X123838899Y-101801068D01*
X123620392Y-101980392D01*
X123441068Y-102198899D01*
X123370000Y-102331858D01*
X123298932Y-102198899D01*
X123119608Y-101980392D01*
X122901101Y-101801068D01*
X122651808Y-101667818D01*
X122381309Y-101585764D01*
X122170492Y-101565000D01*
X122029508Y-101565000D01*
X121818691Y-101585764D01*
X121548192Y-101667818D01*
X121298899Y-101801068D01*
X121080392Y-101980392D01*
X120901068Y-102198899D01*
X120830000Y-102331858D01*
X120758932Y-102198899D01*
X120579608Y-101980392D01*
X120361101Y-101801068D01*
X120111808Y-101667818D01*
X119841309Y-101585764D01*
X119630492Y-101565000D01*
X119489508Y-101565000D01*
X119278691Y-101585764D01*
X119008192Y-101667818D01*
X118758899Y-101801068D01*
X118540392Y-101980392D01*
X118361068Y-102198899D01*
X118290000Y-102331858D01*
X118218932Y-102198899D01*
X118039608Y-101980392D01*
X117821101Y-101801068D01*
X117571808Y-101667818D01*
X117301309Y-101585764D01*
X117090492Y-101565000D01*
X116949508Y-101565000D01*
X116738691Y-101585764D01*
X116468192Y-101667818D01*
X116218899Y-101801068D01*
X116000392Y-101980392D01*
X115821068Y-102198899D01*
X115750000Y-102331858D01*
X115678932Y-102198899D01*
X115499608Y-101980392D01*
X115281101Y-101801068D01*
X115031808Y-101667818D01*
X114761309Y-101585764D01*
X114550492Y-101565000D01*
X114409508Y-101565000D01*
X114198691Y-101585764D01*
X113928192Y-101667818D01*
X113678899Y-101801068D01*
X113460392Y-101980392D01*
X113281068Y-102198899D01*
X113210000Y-102331858D01*
X113138932Y-102198899D01*
X112959608Y-101980392D01*
X112741101Y-101801068D01*
X112491808Y-101667818D01*
X112221309Y-101585764D01*
X112010492Y-101565000D01*
X111869508Y-101565000D01*
X111658691Y-101585764D01*
X111388192Y-101667818D01*
X111138899Y-101801068D01*
X110920392Y-101980392D01*
X110741068Y-102198899D01*
X110607818Y-102448192D01*
X110525764Y-102718691D01*
X110498057Y-103000000D01*
X102185000Y-103000000D01*
X102185000Y-91813413D01*
X112836192Y-91813413D01*
X112931956Y-92077814D01*
X113221571Y-92218704D01*
X113533108Y-92300384D01*
X113854595Y-92319718D01*
X114173675Y-92275961D01*
X114478088Y-92170795D01*
X114652044Y-92077814D01*
X114747808Y-91813413D01*
X119336192Y-91813413D01*
X119431956Y-92077814D01*
X119721571Y-92218704D01*
X120033108Y-92300384D01*
X120354595Y-92319718D01*
X120673675Y-92275961D01*
X120978088Y-92170795D01*
X121152044Y-92077814D01*
X121247808Y-91813413D01*
X129854192Y-91813413D01*
X129949956Y-92077814D01*
X130239571Y-92218704D01*
X130551108Y-92300384D01*
X130872595Y-92319718D01*
X131191675Y-92275961D01*
X131496088Y-92170795D01*
X131670044Y-92077814D01*
X131765808Y-91813413D01*
X136354192Y-91813413D01*
X136449956Y-92077814D01*
X136739571Y-92218704D01*
X137051108Y-92300384D01*
X137372595Y-92319718D01*
X137691675Y-92275961D01*
X137996088Y-92170795D01*
X138170044Y-92077814D01*
X138265808Y-91813413D01*
X137310000Y-90857605D01*
X136354192Y-91813413D01*
X131765808Y-91813413D01*
X130810000Y-90857605D01*
X129854192Y-91813413D01*
X121247808Y-91813413D01*
X120292000Y-90857605D01*
X119336192Y-91813413D01*
X114747808Y-91813413D01*
X113792000Y-90857605D01*
X112836192Y-91813413D01*
X102185000Y-91813413D01*
X102185000Y-90740595D01*
X112150282Y-90740595D01*
X112194039Y-91059675D01*
X112299205Y-91364088D01*
X112392186Y-91538044D01*
X112656587Y-91633808D01*
X113612395Y-90678000D01*
X113971605Y-90678000D01*
X114927413Y-91633808D01*
X115191814Y-91538044D01*
X115332704Y-91248429D01*
X115414384Y-90936892D01*
X115426189Y-90740595D01*
X118650282Y-90740595D01*
X118694039Y-91059675D01*
X118799205Y-91364088D01*
X118892186Y-91538044D01*
X119156587Y-91633808D01*
X120112395Y-90678000D01*
X120471605Y-90678000D01*
X121427413Y-91633808D01*
X121691814Y-91538044D01*
X121832704Y-91248429D01*
X121914384Y-90936892D01*
X121926189Y-90740595D01*
X129168282Y-90740595D01*
X129212039Y-91059675D01*
X129317205Y-91364088D01*
X129410186Y-91538044D01*
X129674587Y-91633808D01*
X130630395Y-90678000D01*
X130989605Y-90678000D01*
X131945413Y-91633808D01*
X132209814Y-91538044D01*
X132350704Y-91248429D01*
X132432384Y-90936892D01*
X132444189Y-90740595D01*
X135668282Y-90740595D01*
X135712039Y-91059675D01*
X135817205Y-91364088D01*
X135910186Y-91538044D01*
X136174587Y-91633808D01*
X137130395Y-90678000D01*
X137489605Y-90678000D01*
X138445413Y-91633808D01*
X138709814Y-91538044D01*
X138767239Y-91420000D01*
X146007815Y-91420000D01*
X146036487Y-91711111D01*
X146121401Y-91991034D01*
X146259294Y-92249014D01*
X146444866Y-92475134D01*
X146670986Y-92660706D01*
X146725791Y-92690000D01*
X146670986Y-92719294D01*
X146444866Y-92904866D01*
X146259294Y-93130986D01*
X146121401Y-93388966D01*
X146036487Y-93668889D01*
X146007815Y-93960000D01*
X146036487Y-94251111D01*
X146121401Y-94531034D01*
X146259294Y-94789014D01*
X146444866Y-95015134D01*
X146474687Y-95039607D01*
X146405820Y-95060498D01*
X146295506Y-95119463D01*
X146198815Y-95198815D01*
X146119463Y-95295506D01*
X146060498Y-95405820D01*
X146024188Y-95525518D01*
X146011928Y-95650000D01*
X146011928Y-97350000D01*
X146024188Y-97474482D01*
X146060498Y-97594180D01*
X146119463Y-97704494D01*
X146198815Y-97801185D01*
X146295506Y-97880537D01*
X146405820Y-97939502D01*
X146525518Y-97975812D01*
X146650000Y-97988072D01*
X148350000Y-97988072D01*
X148474482Y-97975812D01*
X148594180Y-97939502D01*
X148704494Y-97880537D01*
X148801185Y-97801185D01*
X148880537Y-97704494D01*
X148939502Y-97594180D01*
X148975812Y-97474482D01*
X148988072Y-97350000D01*
X148988072Y-95650000D01*
X148975812Y-95525518D01*
X148939502Y-95405820D01*
X148880537Y-95295506D01*
X148801185Y-95198815D01*
X148704494Y-95119463D01*
X148594180Y-95060498D01*
X148525313Y-95039607D01*
X148555134Y-95015134D01*
X148740706Y-94789014D01*
X148878599Y-94531034D01*
X148963513Y-94251111D01*
X148992185Y-93960000D01*
X148963513Y-93668889D01*
X148878599Y-93388966D01*
X148740706Y-93130986D01*
X148555134Y-92904866D01*
X148329014Y-92719294D01*
X148274209Y-92690000D01*
X148329014Y-92660706D01*
X148555134Y-92475134D01*
X148740706Y-92249014D01*
X148878599Y-91991034D01*
X148963513Y-91711111D01*
X148992185Y-91420000D01*
X148963513Y-91128889D01*
X148878599Y-90848966D01*
X148740706Y-90590986D01*
X148555134Y-90364866D01*
X148329014Y-90179294D01*
X148264477Y-90144799D01*
X148381355Y-90075178D01*
X148597588Y-89880269D01*
X148771641Y-89646920D01*
X148896825Y-89384099D01*
X148941476Y-89236890D01*
X148820155Y-89007000D01*
X147627000Y-89007000D01*
X147627000Y-89027000D01*
X147373000Y-89027000D01*
X147373000Y-89007000D01*
X146179845Y-89007000D01*
X146058524Y-89236890D01*
X146103175Y-89384099D01*
X146228359Y-89646920D01*
X146402412Y-89880269D01*
X146618645Y-90075178D01*
X146735523Y-90144799D01*
X146670986Y-90179294D01*
X146444866Y-90364866D01*
X146259294Y-90590986D01*
X146121401Y-90848966D01*
X146036487Y-91128889D01*
X146007815Y-91420000D01*
X138767239Y-91420000D01*
X138850704Y-91248429D01*
X138932384Y-90936892D01*
X138951718Y-90615405D01*
X138907961Y-90296325D01*
X138802795Y-89991912D01*
X138709814Y-89817956D01*
X138445413Y-89722192D01*
X137489605Y-90678000D01*
X137130395Y-90678000D01*
X136174587Y-89722192D01*
X135910186Y-89817956D01*
X135769296Y-90107571D01*
X135687616Y-90419108D01*
X135668282Y-90740595D01*
X132444189Y-90740595D01*
X132451718Y-90615405D01*
X132407961Y-90296325D01*
X132302795Y-89991912D01*
X132209814Y-89817956D01*
X131945413Y-89722192D01*
X130989605Y-90678000D01*
X130630395Y-90678000D01*
X129674587Y-89722192D01*
X129410186Y-89817956D01*
X129269296Y-90107571D01*
X129187616Y-90419108D01*
X129168282Y-90740595D01*
X121926189Y-90740595D01*
X121933718Y-90615405D01*
X121889961Y-90296325D01*
X121784795Y-89991912D01*
X121691814Y-89817956D01*
X121427413Y-89722192D01*
X120471605Y-90678000D01*
X120112395Y-90678000D01*
X119156587Y-89722192D01*
X118892186Y-89817956D01*
X118751296Y-90107571D01*
X118669616Y-90419108D01*
X118650282Y-90740595D01*
X115426189Y-90740595D01*
X115433718Y-90615405D01*
X115389961Y-90296325D01*
X115284795Y-89991912D01*
X115191814Y-89817956D01*
X114927413Y-89722192D01*
X113971605Y-90678000D01*
X113612395Y-90678000D01*
X112656587Y-89722192D01*
X112392186Y-89817956D01*
X112251296Y-90107571D01*
X112169616Y-90419108D01*
X112150282Y-90740595D01*
X102185000Y-90740595D01*
X102185000Y-89026906D01*
X102255875Y-88232763D01*
X102311732Y-88028582D01*
X103195225Y-88028582D01*
X103245370Y-88475635D01*
X103381393Y-88904435D01*
X103598113Y-89298648D01*
X103887276Y-89643259D01*
X104237867Y-89925141D01*
X104636532Y-90133558D01*
X105068086Y-90260571D01*
X105516092Y-90301343D01*
X105963485Y-90254320D01*
X106393223Y-90121294D01*
X106788940Y-89907331D01*
X107135561Y-89620581D01*
X107199171Y-89542587D01*
X112836192Y-89542587D01*
X113792000Y-90498395D01*
X114747808Y-89542587D01*
X119336192Y-89542587D01*
X120292000Y-90498395D01*
X121247808Y-89542587D01*
X129854192Y-89542587D01*
X130810000Y-90498395D01*
X131765808Y-89542587D01*
X136354192Y-89542587D01*
X137310000Y-90498395D01*
X138265808Y-89542587D01*
X138170044Y-89278186D01*
X137880429Y-89137296D01*
X137568892Y-89055616D01*
X137247405Y-89036282D01*
X136928325Y-89080039D01*
X136623912Y-89185205D01*
X136449956Y-89278186D01*
X136354192Y-89542587D01*
X131765808Y-89542587D01*
X131670044Y-89278186D01*
X131380429Y-89137296D01*
X131068892Y-89055616D01*
X130747405Y-89036282D01*
X130428325Y-89080039D01*
X130123912Y-89185205D01*
X129949956Y-89278186D01*
X129854192Y-89542587D01*
X121247808Y-89542587D01*
X121152044Y-89278186D01*
X120862429Y-89137296D01*
X120550892Y-89055616D01*
X120229405Y-89036282D01*
X119910325Y-89080039D01*
X119605912Y-89185205D01*
X119431956Y-89278186D01*
X119336192Y-89542587D01*
X114747808Y-89542587D01*
X114652044Y-89278186D01*
X114362429Y-89137296D01*
X114050892Y-89055616D01*
X113729405Y-89036282D01*
X113410325Y-89080039D01*
X113105912Y-89185205D01*
X112931956Y-89278186D01*
X112836192Y-89542587D01*
X107199171Y-89542587D01*
X107419883Y-89271967D01*
X107631079Y-88874766D01*
X107737250Y-88523110D01*
X146058524Y-88523110D01*
X146179845Y-88753000D01*
X147373000Y-88753000D01*
X147373000Y-87559186D01*
X147627000Y-87559186D01*
X147627000Y-88753000D01*
X148820155Y-88753000D01*
X148941476Y-88523110D01*
X177058524Y-88523110D01*
X177179845Y-88753000D01*
X178373000Y-88753000D01*
X178373000Y-87559186D01*
X178627000Y-87559186D01*
X178627000Y-88753000D01*
X179820155Y-88753000D01*
X179941476Y-88523110D01*
X179896825Y-88375901D01*
X179771641Y-88113080D01*
X179708615Y-88028582D01*
X185195226Y-88028582D01*
X185245371Y-88475635D01*
X185381394Y-88904435D01*
X185598114Y-89298648D01*
X185887277Y-89643259D01*
X186237868Y-89925141D01*
X186636533Y-90133558D01*
X187068087Y-90260571D01*
X187516093Y-90301343D01*
X187963486Y-90254320D01*
X188393224Y-90121294D01*
X188788941Y-89907331D01*
X189135562Y-89620581D01*
X189419884Y-89271967D01*
X189631080Y-88874766D01*
X189761103Y-88444109D01*
X189805001Y-87996399D01*
X189804102Y-87932040D01*
X189747720Y-87485730D01*
X189605723Y-87058871D01*
X189383520Y-86667723D01*
X189089574Y-86327183D01*
X188735082Y-86050223D01*
X188333546Y-85847393D01*
X187900260Y-85726417D01*
X187451729Y-85691905D01*
X187005036Y-85745169D01*
X186577196Y-85884183D01*
X186184506Y-86103650D01*
X185841923Y-86395211D01*
X185562495Y-86747762D01*
X185356866Y-87147872D01*
X185232869Y-87580302D01*
X185195226Y-88028582D01*
X179708615Y-88028582D01*
X179597588Y-87879731D01*
X179381355Y-87684822D01*
X179131252Y-87535843D01*
X178856891Y-87438519D01*
X178627000Y-87559186D01*
X178373000Y-87559186D01*
X178143109Y-87438519D01*
X177868748Y-87535843D01*
X177618645Y-87684822D01*
X177402412Y-87879731D01*
X177228359Y-88113080D01*
X177103175Y-88375901D01*
X177058524Y-88523110D01*
X148941476Y-88523110D01*
X148896825Y-88375901D01*
X148771641Y-88113080D01*
X148597588Y-87879731D01*
X148381355Y-87684822D01*
X148131252Y-87535843D01*
X147856891Y-87438519D01*
X147627000Y-87559186D01*
X147373000Y-87559186D01*
X147143109Y-87438519D01*
X146868748Y-87535843D01*
X146618645Y-87684822D01*
X146402412Y-87879731D01*
X146228359Y-88113080D01*
X146103175Y-88375901D01*
X146058524Y-88523110D01*
X107737250Y-88523110D01*
X107761102Y-88444109D01*
X107805000Y-87996399D01*
X107804101Y-87932040D01*
X107747719Y-87485730D01*
X107605722Y-87058871D01*
X107383519Y-86667723D01*
X107089573Y-86327183D01*
X106735081Y-86050223D01*
X106333545Y-85847393D01*
X105900259Y-85726417D01*
X105451728Y-85691905D01*
X105005035Y-85745169D01*
X104577195Y-85884183D01*
X104184505Y-86103650D01*
X103841922Y-86395211D01*
X103562494Y-86747762D01*
X103356865Y-87147872D01*
X103232868Y-87580302D01*
X103195225Y-88028582D01*
X102311732Y-88028582D01*
X102458180Y-87493260D01*
X102788242Y-86801272D01*
X103235629Y-86178667D01*
X103786195Y-85645132D01*
X104422544Y-85217524D01*
X105124561Y-84909359D01*
X105875320Y-84729117D01*
X106525112Y-84681400D01*
X186469494Y-84681400D01*
X187263637Y-84752275D01*
X187263637Y-84752275D01*
G37*
X187263637Y-84752275D02*
X188003140Y-84954580D01*
X188695128Y-85284642D01*
X189317733Y-85732029D01*
X189851268Y-86282595D01*
X190278876Y-86918944D01*
X190587041Y-87620961D01*
X190767283Y-88371720D01*
X190815000Y-89021512D01*
X190815001Y-135700259D01*
X190809590Y-135690136D01*
X190773186Y-135622028D01*
X190656344Y-135479656D01*
X190620659Y-135450370D01*
X189149000Y-133978711D01*
X189149000Y-133427772D01*
X189375714Y-133241714D01*
X189580031Y-132992752D01*
X189731852Y-132708715D01*
X189825343Y-132400516D01*
X189849000Y-132160322D01*
X189849000Y-108284319D01*
X189856911Y-108203999D01*
X189841864Y-108051229D01*
X189825343Y-107883484D01*
X189731852Y-107575285D01*
X189580031Y-107291248D01*
X189375714Y-107042286D01*
X189313318Y-106991079D01*
X188156924Y-105834686D01*
X188105714Y-105772286D01*
X187856752Y-105567969D01*
X187572715Y-105416148D01*
X187264516Y-105322657D01*
X187024322Y-105299000D01*
X187024319Y-105299000D01*
X186944000Y-105291089D01*
X186863681Y-105299000D01*
X182799678Y-105299000D01*
X182559484Y-105322657D01*
X182251285Y-105416148D01*
X181967248Y-105567969D01*
X181718286Y-105772286D01*
X181513969Y-106021248D01*
X181362148Y-106305285D01*
X181268657Y-106613484D01*
X181237089Y-106934000D01*
X181268657Y-107254516D01*
X181362148Y-107562715D01*
X181513969Y-107846752D01*
X181718286Y-108095714D01*
X181967248Y-108300031D01*
X181968713Y-108300814D01*
X181824866Y-108418866D01*
X181639294Y-108644986D01*
X181501401Y-108902966D01*
X181416487Y-109182889D01*
X181387815Y-109474000D01*
X181416487Y-109765111D01*
X181501401Y-110045034D01*
X181639294Y-110303014D01*
X181824866Y-110529134D01*
X182050986Y-110714706D01*
X182105791Y-110744000D01*
X182050986Y-110773294D01*
X181824866Y-110958866D01*
X181639294Y-111184986D01*
X181501401Y-111442966D01*
X181416487Y-111722889D01*
X181387815Y-112014000D01*
X181416487Y-112305111D01*
X181501401Y-112585034D01*
X181639294Y-112843014D01*
X181824866Y-113069134D01*
X182050986Y-113254706D01*
X182105791Y-113284000D01*
X182050986Y-113313294D01*
X181824866Y-113498866D01*
X181639294Y-113724986D01*
X181501401Y-113982966D01*
X181416487Y-114262889D01*
X181387815Y-114554000D01*
X181416487Y-114845111D01*
X181501401Y-115125034D01*
X181639294Y-115383014D01*
X181824866Y-115609134D01*
X181854687Y-115633607D01*
X181785820Y-115654498D01*
X181675506Y-115713463D01*
X181578815Y-115792815D01*
X181499463Y-115889506D01*
X181440498Y-115999820D01*
X181404188Y-116119518D01*
X181391928Y-116244000D01*
X181395000Y-116808250D01*
X181553750Y-116967000D01*
X182753000Y-116967000D01*
X182753000Y-116947000D01*
X183007000Y-116947000D01*
X183007000Y-116967000D01*
X184206250Y-116967000D01*
X184365000Y-116808250D01*
X184368072Y-116244000D01*
X184355812Y-116119518D01*
X184319502Y-115999820D01*
X184260537Y-115889506D01*
X184181185Y-115792815D01*
X184084494Y-115713463D01*
X183974180Y-115654498D01*
X183905313Y-115633607D01*
X183935134Y-115609134D01*
X184120706Y-115383014D01*
X184258599Y-115125034D01*
X184343513Y-114845111D01*
X184372185Y-114554000D01*
X184343513Y-114262889D01*
X184258599Y-113982966D01*
X184120706Y-113724986D01*
X183935134Y-113498866D01*
X183709014Y-113313294D01*
X183654209Y-113284000D01*
X183709014Y-113254706D01*
X183935134Y-113069134D01*
X184120706Y-112843014D01*
X184258599Y-112585034D01*
X184343513Y-112305111D01*
X184372185Y-112014000D01*
X184343513Y-111722889D01*
X184258599Y-111442966D01*
X184120706Y-111184986D01*
X183935134Y-110958866D01*
X183709014Y-110773294D01*
X183654209Y-110744000D01*
X183709014Y-110714706D01*
X183935134Y-110529134D01*
X184120706Y-110303014D01*
X184258599Y-110045034D01*
X184343513Y-109765111D01*
X184372185Y-109474000D01*
X184343513Y-109182889D01*
X184258599Y-108902966D01*
X184120706Y-108644986D01*
X184058346Y-108569000D01*
X186266762Y-108569000D01*
X186579001Y-108881240D01*
X186579000Y-132160321D01*
X186602657Y-132400515D01*
X186696148Y-132708714D01*
X186847969Y-132992751D01*
X187052286Y-133241714D01*
X187279001Y-133427773D01*
X187279000Y-134320068D01*
X187274476Y-134366000D01*
X187280067Y-134422761D01*
X187292529Y-134549291D01*
X187345993Y-134725539D01*
X187432814Y-134887971D01*
X187549656Y-135030344D01*
X187585341Y-135059630D01*
X188030610Y-135504899D01*
X187987309Y-135491764D01*
X187776492Y-135471000D01*
X187635508Y-135471000D01*
X187424691Y-135491764D01*
X187154192Y-135573818D01*
X186904899Y-135707068D01*
X186686392Y-135886392D01*
X186507068Y-136104899D01*
X186373818Y-136354192D01*
X186291764Y-136624691D01*
X186264057Y-136906000D01*
X186291764Y-137187309D01*
X186373818Y-137457808D01*
X186507068Y-137707101D01*
X186686392Y-137925608D01*
X186904899Y-138104932D01*
X187031029Y-138172350D01*
X187026273Y-138174320D01*
X186791241Y-138331363D01*
X186611604Y-138511000D01*
X185973932Y-138511000D01*
X185928000Y-138506476D01*
X185828724Y-138516254D01*
X185744708Y-138524529D01*
X185568460Y-138577993D01*
X185547000Y-138589464D01*
X185547000Y-137160000D01*
X185544560Y-137135224D01*
X185537333Y-137111399D01*
X185525597Y-137089443D01*
X185509803Y-137070197D01*
X181699803Y-133260197D01*
X181680557Y-133244403D01*
X181658601Y-133232667D01*
X181634776Y-133225440D01*
X181610000Y-133223000D01*
X180256227Y-133223000D01*
X180124247Y-133152454D01*
X179980986Y-133108997D01*
X179869333Y-133098000D01*
X179869322Y-133098000D01*
X179832000Y-133094324D01*
X179794678Y-133098000D01*
X170217535Y-133098000D01*
X170114889Y-133029414D01*
X169944729Y-132958932D01*
X169764089Y-132923000D01*
X169579911Y-132923000D01*
X169399271Y-132958932D01*
X169229111Y-133029414D01*
X169075972Y-133131738D01*
X168984710Y-133223000D01*
X168826227Y-133223000D01*
X168694247Y-133152454D01*
X168550986Y-133108997D01*
X168439333Y-133098000D01*
X168439322Y-133098000D01*
X168402000Y-133094324D01*
X168364678Y-133098000D01*
X159803322Y-133098000D01*
X159765999Y-133094324D01*
X159728676Y-133098000D01*
X159728667Y-133098000D01*
X159617014Y-133108997D01*
X159473753Y-133152454D01*
X159341773Y-133223000D01*
X158161000Y-133223000D01*
X158161000Y-131029043D01*
X158245607Y-130959608D01*
X158424932Y-130741101D01*
X158496000Y-130608142D01*
X158567068Y-130741100D01*
X158746392Y-130959607D01*
X158964899Y-131138932D01*
X159214192Y-131272182D01*
X159484691Y-131354236D01*
X159766000Y-131381943D01*
X160047308Y-131354236D01*
X160317807Y-131272182D01*
X160567100Y-131138932D01*
X160785607Y-130959608D01*
X160964932Y-130741101D01*
X161036000Y-130608142D01*
X161107068Y-130741100D01*
X161286392Y-130959607D01*
X161504899Y-131138932D01*
X161754192Y-131272182D01*
X162024691Y-131354236D01*
X162306000Y-131381943D01*
X162587308Y-131354236D01*
X162857807Y-131272182D01*
X163107100Y-131138932D01*
X163325607Y-130959608D01*
X163504932Y-130741101D01*
X163638182Y-130491808D01*
X163720236Y-130221309D01*
X163741000Y-130010492D01*
X163741000Y-129069509D01*
X163720236Y-128858691D01*
X163638182Y-128588192D01*
X163504932Y-128338899D01*
X163325608Y-128120392D01*
X163107101Y-127941068D01*
X162857808Y-127807818D01*
X162587309Y-127725764D01*
X162306000Y-127698057D01*
X162024692Y-127725764D01*
X161754193Y-127807818D01*
X161504900Y-127941068D01*
X161286393Y-128120392D01*
X161107068Y-128338899D01*
X161036000Y-128471858D01*
X160964932Y-128338899D01*
X160785608Y-128120392D01*
X160567101Y-127941068D01*
X160317808Y-127807818D01*
X160047309Y-127725764D01*
X159766000Y-127698057D01*
X159484692Y-127725764D01*
X159214193Y-127807818D01*
X158964900Y-127941068D01*
X158746393Y-128120392D01*
X158567068Y-128338899D01*
X158496000Y-128471858D01*
X158424932Y-128338899D01*
X158245608Y-128120392D01*
X158027101Y-127941068D01*
X157777808Y-127807818D01*
X157507309Y-127725764D01*
X157226000Y-127698057D01*
X156944692Y-127725764D01*
X156674193Y-127807818D01*
X156424900Y-127941068D01*
X156206393Y-128120392D01*
X156027068Y-128338899D01*
X155956000Y-128471858D01*
X155884932Y-128338899D01*
X155705608Y-128120392D01*
X155487101Y-127941068D01*
X155237808Y-127807818D01*
X154967309Y-127725764D01*
X154686000Y-127698057D01*
X154404692Y-127725764D01*
X154134193Y-127807818D01*
X153884900Y-127941068D01*
X153666393Y-128120392D01*
X153487068Y-128338899D01*
X153416000Y-128471858D01*
X153344932Y-128338899D01*
X153165608Y-128120392D01*
X152947101Y-127941068D01*
X152697808Y-127807818D01*
X152427309Y-127725764D01*
X152146000Y-127698057D01*
X151864692Y-127725764D01*
X151594193Y-127807818D01*
X151344900Y-127941068D01*
X151126393Y-128120392D01*
X150947068Y-128338899D01*
X150876000Y-128471858D01*
X150804932Y-128338899D01*
X150625608Y-128120392D01*
X150407101Y-127941068D01*
X150157808Y-127807818D01*
X149887309Y-127725764D01*
X149606000Y-127698057D01*
X149324692Y-127725764D01*
X149054193Y-127807818D01*
X148804900Y-127941068D01*
X148586393Y-128120392D01*
X148407068Y-128338899D01*
X148336000Y-128471858D01*
X148264932Y-128338899D01*
X148085608Y-128120392D01*
X147867101Y-127941068D01*
X147617808Y-127807818D01*
X147347309Y-127725764D01*
X147066000Y-127698057D01*
X146784692Y-127725764D01*
X146514193Y-127807818D01*
X146264900Y-127941068D01*
X146046393Y-128120392D01*
X145867068Y-128338899D01*
X145796000Y-128471858D01*
X145724932Y-128338899D01*
X145545608Y-128120392D01*
X145327101Y-127941068D01*
X145077808Y-127807818D01*
X144807309Y-127725764D01*
X144526000Y-127698057D01*
X144244692Y-127725764D01*
X143974193Y-127807818D01*
X143893708Y-127850838D01*
X143890974Y-127845724D01*
X143796001Y-127729999D01*
X143767002Y-127706200D01*
X143311803Y-127251002D01*
X143288001Y-127221999D01*
X143172276Y-127127026D01*
X143040247Y-127056454D01*
X142896986Y-127012997D01*
X142785333Y-127002000D01*
X142785322Y-127002000D01*
X142748000Y-126998324D01*
X142710678Y-127002000D01*
X136435535Y-127002000D01*
X136332889Y-126933414D01*
X136162729Y-126862932D01*
X135982089Y-126827000D01*
X135797911Y-126827000D01*
X135617271Y-126862932D01*
X135447111Y-126933414D01*
X135293972Y-127035738D01*
X135163738Y-127165972D01*
X135061414Y-127319111D01*
X134990932Y-127489271D01*
X134955000Y-127669911D01*
X134955000Y-127742051D01*
X134901309Y-127725764D01*
X134620000Y-127698057D01*
X134338692Y-127725764D01*
X134068193Y-127807818D01*
X133818900Y-127941068D01*
X133600393Y-128120392D01*
X133421068Y-128338899D01*
X133350000Y-128471858D01*
X133278932Y-128338899D01*
X133099608Y-128120392D01*
X132881101Y-127941068D01*
X132631808Y-127807818D01*
X132361309Y-127725764D01*
X132080000Y-127698057D01*
X131798692Y-127725764D01*
X131528193Y-127807818D01*
X131278900Y-127941068D01*
X131060393Y-128120392D01*
X130881068Y-128338899D01*
X130810000Y-128471858D01*
X130738932Y-128338899D01*
X130559608Y-128120392D01*
X130341101Y-127941068D01*
X130091808Y-127807818D01*
X129821309Y-127725764D01*
X129540000Y-127698057D01*
X129258692Y-127725764D01*
X128988193Y-127807818D01*
X128738900Y-127941068D01*
X128520393Y-128120392D01*
X128341068Y-128338899D01*
X128270000Y-128471858D01*
X128198932Y-128338899D01*
X128019608Y-128120392D01*
X127801101Y-127941068D01*
X127551808Y-127807818D01*
X127281309Y-127725764D01*
X127000000Y-127698057D01*
X126718692Y-127725764D01*
X126448193Y-127807818D01*
X126198900Y-127941068D01*
X125980393Y-128120392D01*
X125801068Y-128338899D01*
X125730000Y-128471858D01*
X125658932Y-128338899D01*
X125479608Y-128120392D01*
X125261101Y-127941068D01*
X125011808Y-127807818D01*
X124741309Y-127725764D01*
X124460000Y-127698057D01*
X124178692Y-127725764D01*
X123908193Y-127807818D01*
X123658900Y-127941068D01*
X123440393Y-128120392D01*
X123261068Y-128338899D01*
X123190000Y-128471858D01*
X123118932Y-128338899D01*
X122939608Y-128120392D01*
X122721101Y-127941068D01*
X122471808Y-127807818D01*
X122201309Y-127725764D01*
X121920000Y-127698057D01*
X121638692Y-127725764D01*
X121368193Y-127807818D01*
X121118900Y-127941068D01*
X120900393Y-128120392D01*
X120721068Y-128338899D01*
X120650000Y-128471858D01*
X120578932Y-128338899D01*
X120399608Y-128120392D01*
X120181101Y-127941068D01*
X119931808Y-127807818D01*
X119661309Y-127725764D01*
X119380000Y-127698057D01*
X119098692Y-127725764D01*
X118828193Y-127807818D01*
X118578900Y-127941068D01*
X118360393Y-128120392D01*
X118181068Y-128338899D01*
X118112735Y-128466741D01*
X117962601Y-128237161D01*
X117764895Y-128035500D01*
X117531646Y-127876285D01*
X117271818Y-127765633D01*
X117189039Y-127748096D01*
X116967000Y-127870085D01*
X116967000Y-129413000D01*
X116987000Y-129413000D01*
X116987000Y-129667000D01*
X116967000Y-129667000D01*
X116967000Y-131209915D01*
X117189039Y-131331904D01*
X117271818Y-131314367D01*
X117531646Y-131203715D01*
X117764895Y-131044500D01*
X117962601Y-130842839D01*
X118112735Y-130613258D01*
X118181068Y-130741100D01*
X118360392Y-130959607D01*
X118578899Y-131138932D01*
X118828192Y-131272182D01*
X119098691Y-131354236D01*
X119380000Y-131381943D01*
X119661308Y-131354236D01*
X119931807Y-131272182D01*
X120181100Y-131138932D01*
X120399607Y-130959608D01*
X120578932Y-130741101D01*
X120650000Y-130608142D01*
X120721068Y-130741100D01*
X120900392Y-130959607D01*
X121118899Y-131138932D01*
X121368192Y-131272182D01*
X121638691Y-131354236D01*
X121920000Y-131381943D01*
X122201308Y-131354236D01*
X122471807Y-131272182D01*
X122721100Y-131138932D01*
X122939607Y-130959608D01*
X123118932Y-130741101D01*
X123190000Y-130608142D01*
X123261068Y-130741100D01*
X123440392Y-130959607D01*
X123658899Y-131138932D01*
X123908192Y-131272182D01*
X124178691Y-131354236D01*
X124460000Y-131381943D01*
X124741308Y-131354236D01*
X125011807Y-131272182D01*
X125261100Y-131138932D01*
X125479607Y-130959608D01*
X125658932Y-130741101D01*
X125730000Y-130608142D01*
X125801068Y-130741100D01*
X125980392Y-130959607D01*
X126198899Y-131138932D01*
X126240000Y-131160901D01*
X126240000Y-131257198D01*
X125219002Y-132278197D01*
X125218997Y-132278201D01*
X124907199Y-132590000D01*
X114591322Y-132590000D01*
X114554000Y-132586324D01*
X114516677Y-132590000D01*
X114516667Y-132590000D01*
X114405014Y-132600997D01*
X114263912Y-132643799D01*
X114261753Y-132644454D01*
X114129723Y-132715026D01*
X114092279Y-132745756D01*
X114013999Y-132809999D01*
X113990201Y-132838997D01*
X113606198Y-133223000D01*
X113030000Y-133223000D01*
X112998481Y-133226973D01*
X112975085Y-133235486D01*
X112953800Y-133248400D01*
X111897192Y-134040856D01*
X111862273Y-134055320D01*
X111627241Y-134212363D01*
X111503416Y-134336188D01*
X110429000Y-135142000D01*
X110400665Y-135142000D01*
X110123426Y-135197147D01*
X109862273Y-135305320D01*
X109627241Y-135462363D01*
X109427363Y-135662241D01*
X109270320Y-135897273D01*
X109201977Y-136062267D01*
X107873800Y-137058400D01*
X107860197Y-137070197D01*
X107844403Y-137089443D01*
X107832667Y-137111399D01*
X107825440Y-137135224D01*
X107823000Y-137160000D01*
X107823000Y-142240000D01*
X107825440Y-142264776D01*
X107832667Y-142288601D01*
X107844403Y-142310557D01*
X107860197Y-142329803D01*
X109258440Y-143728046D01*
X109270320Y-143756727D01*
X109427363Y-143991759D01*
X109627241Y-144191637D01*
X109862273Y-144348680D01*
X109890954Y-144360560D01*
X111670197Y-146139803D01*
X111689443Y-146155597D01*
X111711399Y-146167333D01*
X111735224Y-146174560D01*
X111760000Y-146177000D01*
X117183000Y-146177000D01*
X117183000Y-146445335D01*
X117238147Y-146722574D01*
X117346320Y-146983727D01*
X117503363Y-147218759D01*
X117703241Y-147418637D01*
X117938273Y-147575680D01*
X118199426Y-147683853D01*
X118476665Y-147739000D01*
X118759335Y-147739000D01*
X119036574Y-147683853D01*
X119297727Y-147575680D01*
X119532759Y-147418637D01*
X119732637Y-147218759D01*
X119889680Y-146983727D01*
X119891650Y-146978971D01*
X119959068Y-147105101D01*
X120138392Y-147323608D01*
X120356899Y-147502932D01*
X120606192Y-147636182D01*
X120876691Y-147718236D01*
X121087508Y-147739000D01*
X121228492Y-147739000D01*
X121439309Y-147718236D01*
X121709808Y-147636182D01*
X121959101Y-147502932D01*
X122177608Y-147323608D01*
X122356932Y-147105101D01*
X122490182Y-146855808D01*
X122572236Y-146585309D01*
X122599943Y-146304000D01*
X122587434Y-146177000D01*
X129315001Y-146177000D01*
X129315001Y-146714059D01*
X129310476Y-146760000D01*
X129328529Y-146943291D01*
X129371573Y-147085186D01*
X129381994Y-147119540D01*
X129468815Y-147281972D01*
X129585657Y-147424344D01*
X129621336Y-147453625D01*
X130479110Y-148311400D01*
X106530505Y-148311400D01*
X105736363Y-148240525D01*
X104996860Y-148038220D01*
X104304872Y-147708158D01*
X103682267Y-147260771D01*
X103148734Y-146710208D01*
X102721124Y-146073856D01*
X102412958Y-145371837D01*
X102330551Y-145028583D01*
X103195225Y-145028583D01*
X103245370Y-145475636D01*
X103381393Y-145904436D01*
X103598113Y-146298649D01*
X103887276Y-146643260D01*
X104237867Y-146925142D01*
X104636532Y-147133559D01*
X105068086Y-147260572D01*
X105516092Y-147301344D01*
X105963485Y-147254321D01*
X106393223Y-147121295D01*
X106788940Y-146907332D01*
X107135561Y-146620582D01*
X107419883Y-146271968D01*
X107631079Y-145874767D01*
X107761102Y-145444110D01*
X107805000Y-144996400D01*
X107804101Y-144932041D01*
X107747719Y-144485731D01*
X107605722Y-144058872D01*
X107383519Y-143667724D01*
X107089573Y-143327184D01*
X106735081Y-143050224D01*
X106333545Y-142847394D01*
X105900259Y-142726418D01*
X105451728Y-142691906D01*
X105005035Y-142745170D01*
X104577195Y-142884184D01*
X104184505Y-143103651D01*
X103841922Y-143395212D01*
X103562494Y-143747763D01*
X103356865Y-144147873D01*
X103232868Y-144580303D01*
X103195225Y-145028583D01*
X102330551Y-145028583D01*
X102232718Y-144621081D01*
X102185000Y-143971288D01*
X102185000Y-129325413D01*
X109534192Y-129325413D01*
X109629956Y-129589814D01*
X109919571Y-129730704D01*
X110231108Y-129812384D01*
X110552595Y-129831718D01*
X110871675Y-129787961D01*
X111176088Y-129682795D01*
X111205638Y-129667000D01*
X115405000Y-129667000D01*
X115405000Y-130067000D01*
X115457350Y-130344514D01*
X115562834Y-130606483D01*
X115717399Y-130842839D01*
X115915105Y-131044500D01*
X116148354Y-131203715D01*
X116408182Y-131314367D01*
X116490961Y-131331904D01*
X116713000Y-131209915D01*
X116713000Y-129667000D01*
X115405000Y-129667000D01*
X111205638Y-129667000D01*
X111350044Y-129589814D01*
X111445808Y-129325413D01*
X110490000Y-128369605D01*
X109534192Y-129325413D01*
X102185000Y-129325413D01*
X102185000Y-128252595D01*
X108848282Y-128252595D01*
X108892039Y-128571675D01*
X108997205Y-128876088D01*
X109090186Y-129050044D01*
X109354587Y-129145808D01*
X110310395Y-128190000D01*
X110669605Y-128190000D01*
X111625413Y-129145808D01*
X111889814Y-129050044D01*
X111907834Y-129013000D01*
X115405000Y-129013000D01*
X115405000Y-129413000D01*
X116713000Y-129413000D01*
X116713000Y-127870085D01*
X116490961Y-127748096D01*
X116408182Y-127765633D01*
X116148354Y-127876285D01*
X115915105Y-128035500D01*
X115717399Y-128237161D01*
X115562834Y-128473517D01*
X115457350Y-128735486D01*
X115405000Y-129013000D01*
X111907834Y-129013000D01*
X112030704Y-128760429D01*
X112112384Y-128448892D01*
X112131718Y-128127405D01*
X112087961Y-127808325D01*
X111982795Y-127503912D01*
X111889814Y-127329956D01*
X111625413Y-127234192D01*
X110669605Y-128190000D01*
X110310395Y-128190000D01*
X109354587Y-127234192D01*
X109090186Y-127329956D01*
X108949296Y-127619571D01*
X108867616Y-127931108D01*
X108848282Y-128252595D01*
X102185000Y-128252595D01*
X102185000Y-127054587D01*
X109534192Y-127054587D01*
X110490000Y-128010395D01*
X111445808Y-127054587D01*
X111350044Y-126790186D01*
X111060429Y-126649296D01*
X110748892Y-126567616D01*
X110427405Y-126548282D01*
X110108325Y-126592039D01*
X109803912Y-126697205D01*
X109629956Y-126790186D01*
X109534192Y-127054587D01*
X102185000Y-127054587D01*
X102185000Y-123028967D01*
X108855000Y-123028967D01*
X108855000Y-123351033D01*
X108917832Y-123666912D01*
X109041082Y-123964463D01*
X109220013Y-124232252D01*
X109447748Y-124459987D01*
X109715537Y-124638918D01*
X110013088Y-124762168D01*
X110328967Y-124825000D01*
X110651033Y-124825000D01*
X110966912Y-124762168D01*
X111264463Y-124638918D01*
X111532252Y-124459987D01*
X111759987Y-124232252D01*
X111938918Y-123964463D01*
X112062168Y-123666912D01*
X112125000Y-123351033D01*
X112125000Y-123028967D01*
X112062168Y-122713088D01*
X111938918Y-122415537D01*
X111759987Y-122147748D01*
X111532252Y-121920013D01*
X111264463Y-121741082D01*
X110966912Y-121617832D01*
X110651033Y-121555000D01*
X110328967Y-121555000D01*
X110013088Y-121617832D01*
X109715537Y-121741082D01*
X109447748Y-121920013D01*
X109220013Y-122147748D01*
X109041082Y-122415537D01*
X108917832Y-122713088D01*
X108855000Y-123028967D01*
X102185000Y-123028967D01*
X102185000Y-118240000D01*
X110498057Y-118240000D01*
X110525764Y-118521309D01*
X110607818Y-118791808D01*
X110741068Y-119041101D01*
X110920392Y-119259608D01*
X111138899Y-119438932D01*
X111388192Y-119572182D01*
X111658691Y-119654236D01*
X111869508Y-119675000D01*
X112010492Y-119675000D01*
X112221309Y-119654236D01*
X112491808Y-119572182D01*
X112741101Y-119438932D01*
X112959608Y-119259608D01*
X113138932Y-119041101D01*
X113210000Y-118908142D01*
X113281068Y-119041101D01*
X113460392Y-119259608D01*
X113678899Y-119438932D01*
X113928192Y-119572182D01*
X114198691Y-119654236D01*
X114409508Y-119675000D01*
X114550492Y-119675000D01*
X114761309Y-119654236D01*
X115031808Y-119572182D01*
X115281101Y-119438932D01*
X115499608Y-119259608D01*
X115678932Y-119041101D01*
X115750000Y-118908142D01*
X115821068Y-119041101D01*
X116000392Y-119259608D01*
X116218899Y-119438932D01*
X116468192Y-119572182D01*
X116738691Y-119654236D01*
X116949508Y-119675000D01*
X117090492Y-119675000D01*
X117301309Y-119654236D01*
X117571808Y-119572182D01*
X117821101Y-119438932D01*
X118039608Y-119259608D01*
X118218932Y-119041101D01*
X118290000Y-118908142D01*
X118361068Y-119041101D01*
X118540392Y-119259608D01*
X118758899Y-119438932D01*
X118815268Y-119469062D01*
X118820107Y-119485014D01*
X118854454Y-119598246D01*
X118925026Y-119730276D01*
X118985756Y-119804275D01*
X119020000Y-119846001D01*
X119048998Y-119869799D01*
X119268261Y-120089063D01*
X119098692Y-120105764D01*
X118828193Y-120187818D01*
X118578900Y-120321068D01*
X118360393Y-120500392D01*
X118181068Y-120718899D01*
X118110000Y-120851858D01*
X118038932Y-120718899D01*
X117859608Y-120500392D01*
X117641101Y-120321068D01*
X117391808Y-120187818D01*
X117121309Y-120105764D01*
X116840000Y-120078057D01*
X116558692Y-120105764D01*
X116288193Y-120187818D01*
X116038900Y-120321068D01*
X115820393Y-120500392D01*
X115641068Y-120718899D01*
X115511173Y-120961916D01*
X115473969Y-121007249D01*
X115322148Y-121291286D01*
X115228657Y-121599485D01*
X115205000Y-121839679D01*
X115205000Y-123363681D01*
X115197089Y-123444000D01*
X115205000Y-123524319D01*
X115205000Y-123524322D01*
X115228657Y-123764516D01*
X115283761Y-123946167D01*
X115322148Y-124072714D01*
X115328868Y-124085286D01*
X115473970Y-124356752D01*
X115678287Y-124605714D01*
X115740682Y-124656920D01*
X117151079Y-126067318D01*
X117202286Y-126129714D01*
X117451248Y-126334031D01*
X117735285Y-126485852D01*
X118043484Y-126579343D01*
X118283678Y-126603000D01*
X118283680Y-126603000D01*
X118363999Y-126610911D01*
X118444319Y-126603000D01*
X140381681Y-126603000D01*
X140462000Y-126610911D01*
X140542319Y-126603000D01*
X140542322Y-126603000D01*
X140782516Y-126579343D01*
X141090715Y-126485852D01*
X141374752Y-126334031D01*
X141623714Y-126129714D01*
X141674925Y-126067314D01*
X141986000Y-125756239D01*
X142043079Y-125813318D01*
X142094286Y-125875714D01*
X142343248Y-126080031D01*
X142627285Y-126231852D01*
X142935484Y-126325343D01*
X143175678Y-126349000D01*
X143175680Y-126349000D01*
X143255999Y-126356911D01*
X143336319Y-126349000D01*
X165019681Y-126349000D01*
X165100000Y-126356911D01*
X165180319Y-126349000D01*
X165180322Y-126349000D01*
X165420516Y-126325343D01*
X165728715Y-126231852D01*
X166012752Y-126080031D01*
X166261714Y-125875714D01*
X166312924Y-125813314D01*
X168993324Y-123132916D01*
X169055714Y-123081714D01*
X169260031Y-122832752D01*
X169411852Y-122548715D01*
X169452251Y-122415537D01*
X169505343Y-122240517D01*
X169536911Y-121920000D01*
X169529000Y-121839678D01*
X169529000Y-117944000D01*
X181391928Y-117944000D01*
X181404188Y-118068482D01*
X181440498Y-118188180D01*
X181499463Y-118298494D01*
X181578815Y-118395185D01*
X181675506Y-118474537D01*
X181785820Y-118533502D01*
X181905518Y-118569812D01*
X182030000Y-118582072D01*
X182594250Y-118579000D01*
X182753000Y-118420250D01*
X182753000Y-117221000D01*
X183007000Y-117221000D01*
X183007000Y-118420250D01*
X183165750Y-118579000D01*
X183730000Y-118582072D01*
X183854482Y-118569812D01*
X183974180Y-118533502D01*
X184084494Y-118474537D01*
X184181185Y-118395185D01*
X184260537Y-118298494D01*
X184319502Y-118188180D01*
X184355812Y-118068482D01*
X184368072Y-117944000D01*
X184365000Y-117379750D01*
X184206250Y-117221000D01*
X183007000Y-117221000D01*
X182753000Y-117221000D01*
X181553750Y-117221000D01*
X181395000Y-117379750D01*
X181391928Y-117944000D01*
X169529000Y-117944000D01*
X169529000Y-111840320D01*
X169536911Y-111760001D01*
X169529000Y-111679678D01*
X169529000Y-99610238D01*
X171004240Y-98135000D01*
X178580322Y-98135000D01*
X178820516Y-98111343D01*
X179128715Y-98017852D01*
X179184429Y-97988072D01*
X179350000Y-97988072D01*
X179474482Y-97975812D01*
X179594180Y-97939502D01*
X179704494Y-97880537D01*
X179801185Y-97801185D01*
X179880537Y-97704494D01*
X179939502Y-97594180D01*
X179975812Y-97474482D01*
X179988072Y-97350000D01*
X179988072Y-97184429D01*
X180017852Y-97128715D01*
X180111343Y-96820516D01*
X180142911Y-96500000D01*
X180111343Y-96179484D01*
X180017852Y-95871285D01*
X179988072Y-95815571D01*
X179988072Y-95650000D01*
X179975812Y-95525518D01*
X179939502Y-95405820D01*
X179880537Y-95295506D01*
X179801185Y-95198815D01*
X179704494Y-95119463D01*
X179594180Y-95060498D01*
X179525313Y-95039607D01*
X179555134Y-95015134D01*
X179740706Y-94789014D01*
X179878599Y-94531034D01*
X179963513Y-94251111D01*
X179992185Y-93960000D01*
X179963513Y-93668889D01*
X179878599Y-93388966D01*
X179740706Y-93130986D01*
X179555134Y-92904866D01*
X179329014Y-92719294D01*
X179274209Y-92690000D01*
X179329014Y-92660706D01*
X179555134Y-92475134D01*
X179740706Y-92249014D01*
X179878599Y-91991034D01*
X179963513Y-91711111D01*
X179992185Y-91420000D01*
X179963513Y-91128889D01*
X179878599Y-90848966D01*
X179740706Y-90590986D01*
X179555134Y-90364866D01*
X179329014Y-90179294D01*
X179264477Y-90144799D01*
X179381355Y-90075178D01*
X179597588Y-89880269D01*
X179771641Y-89646920D01*
X179896825Y-89384099D01*
X179941476Y-89236890D01*
X179820155Y-89007000D01*
X178627000Y-89007000D01*
X178627000Y-89027000D01*
X178373000Y-89027000D01*
X178373000Y-89007000D01*
X177179845Y-89007000D01*
X177058524Y-89236890D01*
X177103175Y-89384099D01*
X177228359Y-89646920D01*
X177402412Y-89880269D01*
X177618645Y-90075178D01*
X177735523Y-90144799D01*
X177670986Y-90179294D01*
X177444866Y-90364866D01*
X177259294Y-90590986D01*
X177121401Y-90848966D01*
X177036487Y-91128889D01*
X177007815Y-91420000D01*
X177036487Y-91711111D01*
X177121401Y-91991034D01*
X177259294Y-92249014D01*
X177444866Y-92475134D01*
X177670986Y-92660706D01*
X177725791Y-92690000D01*
X177670986Y-92719294D01*
X177444866Y-92904866D01*
X177259294Y-93130986D01*
X177121401Y-93388966D01*
X177036487Y-93668889D01*
X177007815Y-93960000D01*
X177036487Y-94251111D01*
X177121401Y-94531034D01*
X177259294Y-94789014D01*
X177321654Y-94865000D01*
X170407322Y-94865000D01*
X170327000Y-94857089D01*
X170006483Y-94888657D01*
X169698285Y-94982148D01*
X169414248Y-95133969D01*
X169165286Y-95338286D01*
X169114084Y-95400676D01*
X166794685Y-97720077D01*
X166732286Y-97771286D01*
X166527969Y-98020248D01*
X166376148Y-98304285D01*
X166282657Y-98612484D01*
X166259000Y-98852678D01*
X166251089Y-98933000D01*
X166259000Y-99013319D01*
X166259000Y-99394321D01*
X166259001Y-99394331D01*
X166259000Y-111082761D01*
X162898762Y-114443000D01*
X162144967Y-114443000D01*
X162065807Y-114458746D01*
X161985484Y-114466657D01*
X161908249Y-114490086D01*
X161829088Y-114505832D01*
X161754521Y-114536719D01*
X161677285Y-114560148D01*
X161606102Y-114598196D01*
X161531537Y-114629082D01*
X161464431Y-114673921D01*
X161393248Y-114711969D01*
X161330854Y-114763174D01*
X161263748Y-114808013D01*
X161206681Y-114865080D01*
X161144286Y-114916286D01*
X161093080Y-114978681D01*
X161036013Y-115035748D01*
X161034000Y-115038761D01*
X161034000Y-114083322D01*
X161037676Y-114045999D01*
X161034000Y-114008676D01*
X161034000Y-114008667D01*
X161023003Y-113897014D01*
X160979546Y-113753753D01*
X160908974Y-113621724D01*
X160814001Y-113505999D01*
X160785004Y-113482202D01*
X158551803Y-111249002D01*
X158551799Y-111248997D01*
X154233804Y-106931003D01*
X154210001Y-106901999D01*
X154094276Y-106807026D01*
X153962247Y-106736454D01*
X153818986Y-106692997D01*
X153707333Y-106682000D01*
X153707322Y-106682000D01*
X153670000Y-106678324D01*
X153632678Y-106682000D01*
X128561325Y-106682000D01*
X128524000Y-106678324D01*
X128486675Y-106682000D01*
X128486667Y-106682000D01*
X128375014Y-106692997D01*
X128231753Y-106736454D01*
X128099724Y-106807026D01*
X127983999Y-106901999D01*
X127960201Y-106930997D01*
X124202998Y-110688201D01*
X124174000Y-110711999D01*
X124150202Y-110740997D01*
X124150201Y-110740998D01*
X124079026Y-110827724D01*
X124008454Y-110959754D01*
X123997361Y-110996324D01*
X123964998Y-111103014D01*
X123956924Y-111184986D01*
X123950324Y-111252000D01*
X123954001Y-111289332D01*
X123954000Y-116529007D01*
X122992595Y-115561114D01*
X122967802Y-115530946D01*
X122911200Y-115484559D01*
X122854585Y-115437777D01*
X122853215Y-115437039D01*
X122852012Y-115436053D01*
X122787317Y-115401530D01*
X122722793Y-115366761D01*
X122721307Y-115366305D01*
X122719934Y-115365572D01*
X122649773Y-115344343D01*
X122579680Y-115322823D01*
X122578131Y-115322665D01*
X122576643Y-115322215D01*
X122503706Y-115315082D01*
X122430744Y-115307648D01*
X122391862Y-115311346D01*
X112813080Y-115317975D01*
X112776000Y-115314323D01*
X112738395Y-115318027D01*
X112738142Y-115318027D01*
X112702615Y-115321551D01*
X112627014Y-115328997D01*
X112626756Y-115329075D01*
X112626496Y-115329101D01*
X112556098Y-115350509D01*
X112483753Y-115372454D01*
X112483516Y-115372581D01*
X112483265Y-115372657D01*
X112418120Y-115407536D01*
X112351724Y-115443026D01*
X112351517Y-115443196D01*
X112351285Y-115443320D01*
X112294132Y-115490291D01*
X112264997Y-115514201D01*
X112264807Y-115514391D01*
X112235626Y-115538373D01*
X112212018Y-115567180D01*
X111428998Y-116350201D01*
X111400000Y-116373999D01*
X111376202Y-116402997D01*
X111376201Y-116402998D01*
X111305026Y-116489724D01*
X111234454Y-116621754D01*
X111206695Y-116713267D01*
X111190998Y-116765014D01*
X111184676Y-116829206D01*
X111176324Y-116914000D01*
X111180001Y-116951332D01*
X111180001Y-117019099D01*
X111138899Y-117041068D01*
X110920392Y-117220392D01*
X110741068Y-117438899D01*
X110607818Y-117688192D01*
X110525764Y-117958691D01*
X110498057Y-118240000D01*
X102185000Y-118240000D01*
X102185000Y-103000000D01*
X110498057Y-103000000D01*
X110525764Y-103281309D01*
X110607818Y-103551808D01*
X110741068Y-103801101D01*
X110920392Y-104019608D01*
X111138899Y-104198932D01*
X111388192Y-104332182D01*
X111658691Y-104414236D01*
X111869508Y-104435000D01*
X112010492Y-104435000D01*
X112221309Y-104414236D01*
X112491808Y-104332182D01*
X112741101Y-104198932D01*
X112959608Y-104019608D01*
X113138932Y-103801101D01*
X113210000Y-103668142D01*
X113281068Y-103801101D01*
X113460392Y-104019608D01*
X113678899Y-104198932D01*
X113928192Y-104332182D01*
X114198691Y-104414236D01*
X114409508Y-104435000D01*
X114550492Y-104435000D01*
X114761309Y-104414236D01*
X115031808Y-104332182D01*
X115281101Y-104198932D01*
X115499608Y-104019608D01*
X115678932Y-103801101D01*
X115750000Y-103668142D01*
X115821068Y-103801101D01*
X116000392Y-104019608D01*
X116218899Y-104198932D01*
X116468192Y-104332182D01*
X116738691Y-104414236D01*
X116949508Y-104435000D01*
X117090492Y-104435000D01*
X117301309Y-104414236D01*
X117571808Y-104332182D01*
X117821101Y-104198932D01*
X118039608Y-104019608D01*
X118218932Y-103801101D01*
X118290000Y-103668142D01*
X118361068Y-103801101D01*
X118540392Y-104019608D01*
X118758899Y-104198932D01*
X119008192Y-104332182D01*
X119278691Y-104414236D01*
X119489508Y-104435000D01*
X119630492Y-104435000D01*
X119841309Y-104414236D01*
X120111808Y-104332182D01*
X120361101Y-104198932D01*
X120579608Y-104019608D01*
X120758932Y-103801101D01*
X120830000Y-103668142D01*
X120901068Y-103801101D01*
X121080392Y-104019608D01*
X121298899Y-104198932D01*
X121548192Y-104332182D01*
X121818691Y-104414236D01*
X122029508Y-104435000D01*
X122170492Y-104435000D01*
X122381309Y-104414236D01*
X122651808Y-104332182D01*
X122901101Y-104198932D01*
X123119608Y-104019608D01*
X123298932Y-103801101D01*
X123370000Y-103668142D01*
X123441068Y-103801101D01*
X123620392Y-104019608D01*
X123838899Y-104198932D01*
X124088192Y-104332182D01*
X124358691Y-104414236D01*
X124569508Y-104435000D01*
X124710492Y-104435000D01*
X124921309Y-104414236D01*
X125191808Y-104332182D01*
X125441101Y-104198932D01*
X125659608Y-104019608D01*
X125838932Y-103801101D01*
X125910000Y-103668142D01*
X125981068Y-103801101D01*
X126160392Y-104019608D01*
X126378899Y-104198932D01*
X126628192Y-104332182D01*
X126898691Y-104414236D01*
X127109508Y-104435000D01*
X127250492Y-104435000D01*
X127461309Y-104414236D01*
X127731808Y-104332182D01*
X127981101Y-104198932D01*
X128199608Y-104019608D01*
X128378932Y-103801101D01*
X128450000Y-103668142D01*
X128521068Y-103801101D01*
X128700392Y-104019608D01*
X128918899Y-104198932D01*
X129168192Y-104332182D01*
X129438691Y-104414236D01*
X129649508Y-104435000D01*
X129790492Y-104435000D01*
X130001309Y-104414236D01*
X130271808Y-104332182D01*
X130521101Y-104198932D01*
X130739608Y-104019608D01*
X130918932Y-103801101D01*
X130990000Y-103668142D01*
X131061068Y-103801101D01*
X131240392Y-104019608D01*
X131458899Y-104198932D01*
X131708192Y-104332182D01*
X131978691Y-104414236D01*
X132189508Y-104435000D01*
X132330492Y-104435000D01*
X132541309Y-104414236D01*
X132811808Y-104332182D01*
X133061101Y-104198932D01*
X133279608Y-104019608D01*
X133458932Y-103801101D01*
X133530000Y-103668142D01*
X133601068Y-103801101D01*
X133780392Y-104019608D01*
X133998899Y-104198932D01*
X134248192Y-104332182D01*
X134518691Y-104414236D01*
X134729508Y-104435000D01*
X134870492Y-104435000D01*
X135081309Y-104414236D01*
X135351808Y-104332182D01*
X135601101Y-104198932D01*
X135819608Y-104019608D01*
X135998932Y-103801101D01*
X136070000Y-103668142D01*
X136141068Y-103801101D01*
X136320392Y-104019608D01*
X136538899Y-104198932D01*
X136788192Y-104332182D01*
X137058691Y-104414236D01*
X137269508Y-104435000D01*
X137410492Y-104435000D01*
X137621309Y-104414236D01*
X137891808Y-104332182D01*
X138141101Y-104198932D01*
X138359608Y-104019608D01*
X138538932Y-103801101D01*
X138612579Y-103663318D01*
X138727615Y-103855131D01*
X138916586Y-104063519D01*
X139142580Y-104231037D01*
X139396913Y-104351246D01*
X139530961Y-104391904D01*
X139753000Y-104269915D01*
X139753000Y-103127000D01*
X139733000Y-103127000D01*
X139733000Y-102873000D01*
X139753000Y-102873000D01*
X139753000Y-101730085D01*
X140007000Y-101730085D01*
X140007000Y-102873000D01*
X140027000Y-102873000D01*
X140027000Y-103127000D01*
X140007000Y-103127000D01*
X140007000Y-104269915D01*
X140229039Y-104391904D01*
X140363087Y-104351246D01*
X140617420Y-104231037D01*
X140843414Y-104063519D01*
X141032385Y-103855131D01*
X141147421Y-103663318D01*
X141221068Y-103801101D01*
X141400392Y-104019608D01*
X141618899Y-104198932D01*
X141868192Y-104332182D01*
X142138691Y-104414236D01*
X142349508Y-104435000D01*
X142490492Y-104435000D01*
X142701309Y-104414236D01*
X142971808Y-104332182D01*
X143221101Y-104198932D01*
X143439608Y-104019608D01*
X143618932Y-103801101D01*
X143690000Y-103668142D01*
X143761068Y-103801101D01*
X143940392Y-104019608D01*
X144158899Y-104198932D01*
X144408192Y-104332182D01*
X144678691Y-104414236D01*
X144889508Y-104435000D01*
X145030492Y-104435000D01*
X145241309Y-104414236D01*
X145511808Y-104332182D01*
X145761101Y-104198932D01*
X145979608Y-104019608D01*
X146072419Y-103906518D01*
X146074188Y-103924482D01*
X146110498Y-104044180D01*
X146169463Y-104154494D01*
X146248815Y-104251185D01*
X146345506Y-104330537D01*
X146455820Y-104389502D01*
X146575518Y-104425812D01*
X146700000Y-104438072D01*
X148300000Y-104438072D01*
X148424482Y-104425812D01*
X148544180Y-104389502D01*
X148654494Y-104330537D01*
X148751185Y-104251185D01*
X148830537Y-104154494D01*
X148889502Y-104044180D01*
X148925812Y-103924482D01*
X148938072Y-103800000D01*
X148938072Y-102200000D01*
X148925812Y-102075518D01*
X148889502Y-101955820D01*
X148830537Y-101845506D01*
X148751185Y-101748815D01*
X148654494Y-101669463D01*
X148544180Y-101610498D01*
X148424482Y-101574188D01*
X148300000Y-101561928D01*
X146700000Y-101561928D01*
X146575518Y-101574188D01*
X146455820Y-101610498D01*
X146345506Y-101669463D01*
X146248815Y-101748815D01*
X146169463Y-101845506D01*
X146110498Y-101955820D01*
X146074188Y-102075518D01*
X146072419Y-102093482D01*
X145979608Y-101980392D01*
X145761101Y-101801068D01*
X145511808Y-101667818D01*
X145241309Y-101585764D01*
X145030492Y-101565000D01*
X144889508Y-101565000D01*
X144678691Y-101585764D01*
X144408192Y-101667818D01*
X144158899Y-101801068D01*
X143940392Y-101980392D01*
X143761068Y-102198899D01*
X143690000Y-102331858D01*
X143618932Y-102198899D01*
X143439608Y-101980392D01*
X143221101Y-101801068D01*
X142971808Y-101667818D01*
X142701309Y-101585764D01*
X142490492Y-101565000D01*
X142349508Y-101565000D01*
X142138691Y-101585764D01*
X141868192Y-101667818D01*
X141618899Y-101801068D01*
X141400392Y-101980392D01*
X141221068Y-102198899D01*
X141147421Y-102336682D01*
X141032385Y-102144869D01*
X140843414Y-101936481D01*
X140617420Y-101768963D01*
X140363087Y-101648754D01*
X140229039Y-101608096D01*
X140007000Y-101730085D01*
X139753000Y-101730085D01*
X139530961Y-101608096D01*
X139396913Y-101648754D01*
X139142580Y-101768963D01*
X138916586Y-101936481D01*
X138727615Y-102144869D01*
X138612579Y-102336682D01*
X138538932Y-102198899D01*
X138359608Y-101980392D01*
X138141101Y-101801068D01*
X137891808Y-101667818D01*
X137621309Y-101585764D01*
X137410492Y-101565000D01*
X137269508Y-101565000D01*
X137058691Y-101585764D01*
X136788192Y-101667818D01*
X136538899Y-101801068D01*
X136320392Y-101980392D01*
X136141068Y-102198899D01*
X136070000Y-102331858D01*
X135998932Y-102198899D01*
X135819608Y-101980392D01*
X135601101Y-101801068D01*
X135560000Y-101779099D01*
X135560000Y-101563322D01*
X135563676Y-101525999D01*
X135560000Y-101488676D01*
X135560000Y-101488667D01*
X135549003Y-101377014D01*
X135505546Y-101233753D01*
X135434974Y-101101724D01*
X135416327Y-101079002D01*
X135363799Y-101014996D01*
X135363795Y-101014992D01*
X135340001Y-100985999D01*
X135311008Y-100962205D01*
X134167803Y-99819002D01*
X134144001Y-99789999D01*
X134028276Y-99695026D01*
X133896247Y-99624454D01*
X133752986Y-99580997D01*
X133641333Y-99570000D01*
X133641322Y-99570000D01*
X133604000Y-99566324D01*
X133566678Y-99570000D01*
X121980803Y-99570000D01*
X121052000Y-98641199D01*
X121052000Y-96632909D01*
X121066463Y-96626918D01*
X121334252Y-96447987D01*
X121561987Y-96220252D01*
X121740918Y-95952463D01*
X121864168Y-95654912D01*
X121927000Y-95339033D01*
X121927000Y-95016967D01*
X129175000Y-95016967D01*
X129175000Y-95339033D01*
X129237832Y-95654912D01*
X129361082Y-95952463D01*
X129540013Y-96220252D01*
X129767748Y-96447987D01*
X130035537Y-96626918D01*
X130333088Y-96750168D01*
X130648967Y-96813000D01*
X130971033Y-96813000D01*
X131286912Y-96750168D01*
X131584463Y-96626918D01*
X131852252Y-96447987D01*
X132079987Y-96220252D01*
X132258918Y-95952463D01*
X132382168Y-95654912D01*
X132445000Y-95339033D01*
X132445000Y-95016967D01*
X135675000Y-95016967D01*
X135675000Y-95339033D01*
X135737832Y-95654912D01*
X135861082Y-95952463D01*
X136040013Y-96220252D01*
X136267748Y-96447987D01*
X136535537Y-96626918D01*
X136833088Y-96750168D01*
X137148967Y-96813000D01*
X137471033Y-96813000D01*
X137786912Y-96750168D01*
X138084463Y-96626918D01*
X138352252Y-96447987D01*
X138579987Y-96220252D01*
X138758918Y-95952463D01*
X138882168Y-95654912D01*
X138945000Y-95339033D01*
X138945000Y-95016967D01*
X138882168Y-94701088D01*
X138758918Y-94403537D01*
X138579987Y-94135748D01*
X138352252Y-93908013D01*
X138084463Y-93729082D01*
X137786912Y-93605832D01*
X137471033Y-93543000D01*
X137148967Y-93543000D01*
X136833088Y-93605832D01*
X136535537Y-93729082D01*
X136267748Y-93908013D01*
X136040013Y-94135748D01*
X135861082Y-94403537D01*
X135737832Y-94701088D01*
X135675000Y-95016967D01*
X132445000Y-95016967D01*
X132382168Y-94701088D01*
X132258918Y-94403537D01*
X132079987Y-94135748D01*
X131852252Y-93908013D01*
X131584463Y-93729082D01*
X131286912Y-93605832D01*
X130971033Y-93543000D01*
X130648967Y-93543000D01*
X130333088Y-93605832D01*
X130035537Y-93729082D01*
X129767748Y-93908013D01*
X129540013Y-94135748D01*
X129361082Y-94403537D01*
X129237832Y-94701088D01*
X129175000Y-95016967D01*
X121927000Y-95016967D01*
X121864168Y-94701088D01*
X121740918Y-94403537D01*
X121561987Y-94135748D01*
X121334252Y-93908013D01*
X121066463Y-93729082D01*
X120768912Y-93605832D01*
X120453033Y-93543000D01*
X120130967Y-93543000D01*
X119815088Y-93605832D01*
X119517537Y-93729082D01*
X119249748Y-93908013D01*
X119022013Y-94135748D01*
X118843082Y-94403537D01*
X118837091Y-94418000D01*
X115246909Y-94418000D01*
X115240918Y-94403537D01*
X115061987Y-94135748D01*
X114834252Y-93908013D01*
X114566463Y-93729082D01*
X114268912Y-93605832D01*
X113953033Y-93543000D01*
X113630967Y-93543000D01*
X113315088Y-93605832D01*
X113017537Y-93729082D01*
X112749748Y-93908013D01*
X112522013Y-94135748D01*
X112343082Y-94403537D01*
X112219832Y-94701088D01*
X112157000Y-95016967D01*
X112157000Y-95339033D01*
X112219832Y-95654912D01*
X112343082Y-95952463D01*
X112522013Y-96220252D01*
X112749748Y-96447987D01*
X113017537Y-96626918D01*
X113315088Y-96750168D01*
X113630967Y-96813000D01*
X113953033Y-96813000D01*
X114268912Y-96750168D01*
X114566463Y-96626918D01*
X114834252Y-96447987D01*
X115061987Y-96220252D01*
X115240918Y-95952463D01*
X115246909Y-95938000D01*
X118837091Y-95938000D01*
X118843082Y-95952463D01*
X119022013Y-96220252D01*
X119249748Y-96447987D01*
X119517537Y-96626918D01*
X119532001Y-96632909D01*
X119532000Y-98918677D01*
X119528324Y-98956000D01*
X119532000Y-98993322D01*
X119532000Y-98993332D01*
X119542997Y-99104985D01*
X119582035Y-99233678D01*
X119586454Y-99248246D01*
X119657026Y-99380276D01*
X119696871Y-99428826D01*
X119751999Y-99496001D01*
X119781002Y-99519803D01*
X121102205Y-100841008D01*
X121125999Y-100870001D01*
X121154992Y-100893795D01*
X121154996Y-100893799D01*
X121193433Y-100925343D01*
X121241724Y-100964974D01*
X121373753Y-101035546D01*
X121517014Y-101079003D01*
X121628667Y-101090000D01*
X121628676Y-101090000D01*
X121665999Y-101093676D01*
X121703322Y-101090000D01*
X133289199Y-101090000D01*
X133999789Y-101800592D01*
X133998899Y-101801068D01*
X133780392Y-101980392D01*
X133601068Y-102198899D01*
X133530000Y-102331858D01*
X133458932Y-102198899D01*
X133279608Y-101980392D01*
X133061101Y-101801068D01*
X132811808Y-101667818D01*
X132541309Y-101585764D01*
X132330492Y-101565000D01*
X132189508Y-101565000D01*
X131978691Y-101585764D01*
X131708192Y-101667818D01*
X131458899Y-101801068D01*
X131240392Y-101980392D01*
X131061068Y-102198899D01*
X130990000Y-102331858D01*
X130918932Y-102198899D01*
X130739608Y-101980392D01*
X130521101Y-101801068D01*
X130271808Y-101667818D01*
X130001309Y-101585764D01*
X129790492Y-101565000D01*
X129649508Y-101565000D01*
X129438691Y-101585764D01*
X129168192Y-101667818D01*
X128918899Y-101801068D01*
X128700392Y-101980392D01*
X128521068Y-102198899D01*
X128450000Y-102331858D01*
X128378932Y-102198899D01*
X128199608Y-101980392D01*
X127981101Y-101801068D01*
X127731808Y-101667818D01*
X127461309Y-101585764D01*
X127250492Y-101565000D01*
X127109508Y-101565000D01*
X126898691Y-101585764D01*
X126628192Y-101667818D01*
X126378899Y-101801068D01*
X126160392Y-101980392D01*
X125981068Y-102198899D01*
X125910000Y-102331858D01*
X125838932Y-102198899D01*
X125659608Y-101980392D01*
X125441101Y-101801068D01*
X125191808Y-101667818D01*
X124921309Y-101585764D01*
X124710492Y-101565000D01*
X124569508Y-101565000D01*
X124358691Y-101585764D01*
X124088192Y-101667818D01*
X123838899Y-101801068D01*
X123620392Y-101980392D01*
X123441068Y-102198899D01*
X123370000Y-102331858D01*
X123298932Y-102198899D01*
X123119608Y-101980392D01*
X122901101Y-101801068D01*
X122651808Y-101667818D01*
X122381309Y-101585764D01*
X122170492Y-101565000D01*
X122029508Y-101565000D01*
X121818691Y-101585764D01*
X121548192Y-101667818D01*
X121298899Y-101801068D01*
X121080392Y-101980392D01*
X120901068Y-102198899D01*
X120830000Y-102331858D01*
X120758932Y-102198899D01*
X120579608Y-101980392D01*
X120361101Y-101801068D01*
X120111808Y-101667818D01*
X119841309Y-101585764D01*
X119630492Y-101565000D01*
X119489508Y-101565000D01*
X119278691Y-101585764D01*
X119008192Y-101667818D01*
X118758899Y-101801068D01*
X118540392Y-101980392D01*
X118361068Y-102198899D01*
X118290000Y-102331858D01*
X118218932Y-102198899D01*
X118039608Y-101980392D01*
X117821101Y-101801068D01*
X117571808Y-101667818D01*
X117301309Y-101585764D01*
X117090492Y-101565000D01*
X116949508Y-101565000D01*
X116738691Y-101585764D01*
X116468192Y-101667818D01*
X116218899Y-101801068D01*
X116000392Y-101980392D01*
X115821068Y-102198899D01*
X115750000Y-102331858D01*
X115678932Y-102198899D01*
X115499608Y-101980392D01*
X115281101Y-101801068D01*
X115031808Y-101667818D01*
X114761309Y-101585764D01*
X114550492Y-101565000D01*
X114409508Y-101565000D01*
X114198691Y-101585764D01*
X113928192Y-101667818D01*
X113678899Y-101801068D01*
X113460392Y-101980392D01*
X113281068Y-102198899D01*
X113210000Y-102331858D01*
X113138932Y-102198899D01*
X112959608Y-101980392D01*
X112741101Y-101801068D01*
X112491808Y-101667818D01*
X112221309Y-101585764D01*
X112010492Y-101565000D01*
X111869508Y-101565000D01*
X111658691Y-101585764D01*
X111388192Y-101667818D01*
X111138899Y-101801068D01*
X110920392Y-101980392D01*
X110741068Y-102198899D01*
X110607818Y-102448192D01*
X110525764Y-102718691D01*
X110498057Y-103000000D01*
X102185000Y-103000000D01*
X102185000Y-91813413D01*
X112836192Y-91813413D01*
X112931956Y-92077814D01*
X113221571Y-92218704D01*
X113533108Y-92300384D01*
X113854595Y-92319718D01*
X114173675Y-92275961D01*
X114478088Y-92170795D01*
X114652044Y-92077814D01*
X114747808Y-91813413D01*
X119336192Y-91813413D01*
X119431956Y-92077814D01*
X119721571Y-92218704D01*
X120033108Y-92300384D01*
X120354595Y-92319718D01*
X120673675Y-92275961D01*
X120978088Y-92170795D01*
X121152044Y-92077814D01*
X121247808Y-91813413D01*
X129854192Y-91813413D01*
X129949956Y-92077814D01*
X130239571Y-92218704D01*
X130551108Y-92300384D01*
X130872595Y-92319718D01*
X131191675Y-92275961D01*
X131496088Y-92170795D01*
X131670044Y-92077814D01*
X131765808Y-91813413D01*
X136354192Y-91813413D01*
X136449956Y-92077814D01*
X136739571Y-92218704D01*
X137051108Y-92300384D01*
X137372595Y-92319718D01*
X137691675Y-92275961D01*
X137996088Y-92170795D01*
X138170044Y-92077814D01*
X138265808Y-91813413D01*
X137310000Y-90857605D01*
X136354192Y-91813413D01*
X131765808Y-91813413D01*
X130810000Y-90857605D01*
X129854192Y-91813413D01*
X121247808Y-91813413D01*
X120292000Y-90857605D01*
X119336192Y-91813413D01*
X114747808Y-91813413D01*
X113792000Y-90857605D01*
X112836192Y-91813413D01*
X102185000Y-91813413D01*
X102185000Y-90740595D01*
X112150282Y-90740595D01*
X112194039Y-91059675D01*
X112299205Y-91364088D01*
X112392186Y-91538044D01*
X112656587Y-91633808D01*
X113612395Y-90678000D01*
X113971605Y-90678000D01*
X114927413Y-91633808D01*
X115191814Y-91538044D01*
X115332704Y-91248429D01*
X115414384Y-90936892D01*
X115426189Y-90740595D01*
X118650282Y-90740595D01*
X118694039Y-91059675D01*
X118799205Y-91364088D01*
X118892186Y-91538044D01*
X119156587Y-91633808D01*
X120112395Y-90678000D01*
X120471605Y-90678000D01*
X121427413Y-91633808D01*
X121691814Y-91538044D01*
X121832704Y-91248429D01*
X121914384Y-90936892D01*
X121926189Y-90740595D01*
X129168282Y-90740595D01*
X129212039Y-91059675D01*
X129317205Y-91364088D01*
X129410186Y-91538044D01*
X129674587Y-91633808D01*
X130630395Y-90678000D01*
X130989605Y-90678000D01*
X131945413Y-91633808D01*
X132209814Y-91538044D01*
X132350704Y-91248429D01*
X132432384Y-90936892D01*
X132444189Y-90740595D01*
X135668282Y-90740595D01*
X135712039Y-91059675D01*
X135817205Y-91364088D01*
X135910186Y-91538044D01*
X136174587Y-91633808D01*
X137130395Y-90678000D01*
X137489605Y-90678000D01*
X138445413Y-91633808D01*
X138709814Y-91538044D01*
X138767239Y-91420000D01*
X146007815Y-91420000D01*
X146036487Y-91711111D01*
X146121401Y-91991034D01*
X146259294Y-92249014D01*
X146444866Y-92475134D01*
X146670986Y-92660706D01*
X146725791Y-92690000D01*
X146670986Y-92719294D01*
X146444866Y-92904866D01*
X146259294Y-93130986D01*
X146121401Y-93388966D01*
X146036487Y-93668889D01*
X146007815Y-93960000D01*
X146036487Y-94251111D01*
X146121401Y-94531034D01*
X146259294Y-94789014D01*
X146444866Y-95015134D01*
X146474687Y-95039607D01*
X146405820Y-95060498D01*
X146295506Y-95119463D01*
X146198815Y-95198815D01*
X146119463Y-95295506D01*
X146060498Y-95405820D01*
X146024188Y-95525518D01*
X146011928Y-95650000D01*
X146011928Y-97350000D01*
X146024188Y-97474482D01*
X146060498Y-97594180D01*
X146119463Y-97704494D01*
X146198815Y-97801185D01*
X146295506Y-97880537D01*
X146405820Y-97939502D01*
X146525518Y-97975812D01*
X146650000Y-97988072D01*
X148350000Y-97988072D01*
X148474482Y-97975812D01*
X148594180Y-97939502D01*
X148704494Y-97880537D01*
X148801185Y-97801185D01*
X148880537Y-97704494D01*
X148939502Y-97594180D01*
X148975812Y-97474482D01*
X148988072Y-97350000D01*
X148988072Y-95650000D01*
X148975812Y-95525518D01*
X148939502Y-95405820D01*
X148880537Y-95295506D01*
X148801185Y-95198815D01*
X148704494Y-95119463D01*
X148594180Y-95060498D01*
X148525313Y-95039607D01*
X148555134Y-95015134D01*
X148740706Y-94789014D01*
X148878599Y-94531034D01*
X148963513Y-94251111D01*
X148992185Y-93960000D01*
X148963513Y-93668889D01*
X148878599Y-93388966D01*
X148740706Y-93130986D01*
X148555134Y-92904866D01*
X148329014Y-92719294D01*
X148274209Y-92690000D01*
X148329014Y-92660706D01*
X148555134Y-92475134D01*
X148740706Y-92249014D01*
X148878599Y-91991034D01*
X148963513Y-91711111D01*
X148992185Y-91420000D01*
X148963513Y-91128889D01*
X148878599Y-90848966D01*
X148740706Y-90590986D01*
X148555134Y-90364866D01*
X148329014Y-90179294D01*
X148264477Y-90144799D01*
X148381355Y-90075178D01*
X148597588Y-89880269D01*
X148771641Y-89646920D01*
X148896825Y-89384099D01*
X148941476Y-89236890D01*
X148820155Y-89007000D01*
X147627000Y-89007000D01*
X147627000Y-89027000D01*
X147373000Y-89027000D01*
X147373000Y-89007000D01*
X146179845Y-89007000D01*
X146058524Y-89236890D01*
X146103175Y-89384099D01*
X146228359Y-89646920D01*
X146402412Y-89880269D01*
X146618645Y-90075178D01*
X146735523Y-90144799D01*
X146670986Y-90179294D01*
X146444866Y-90364866D01*
X146259294Y-90590986D01*
X146121401Y-90848966D01*
X146036487Y-91128889D01*
X146007815Y-91420000D01*
X138767239Y-91420000D01*
X138850704Y-91248429D01*
X138932384Y-90936892D01*
X138951718Y-90615405D01*
X138907961Y-90296325D01*
X138802795Y-89991912D01*
X138709814Y-89817956D01*
X138445413Y-89722192D01*
X137489605Y-90678000D01*
X137130395Y-90678000D01*
X136174587Y-89722192D01*
X135910186Y-89817956D01*
X135769296Y-90107571D01*
X135687616Y-90419108D01*
X135668282Y-90740595D01*
X132444189Y-90740595D01*
X132451718Y-90615405D01*
X132407961Y-90296325D01*
X132302795Y-89991912D01*
X132209814Y-89817956D01*
X131945413Y-89722192D01*
X130989605Y-90678000D01*
X130630395Y-90678000D01*
X129674587Y-89722192D01*
X129410186Y-89817956D01*
X129269296Y-90107571D01*
X129187616Y-90419108D01*
X129168282Y-90740595D01*
X121926189Y-90740595D01*
X121933718Y-90615405D01*
X121889961Y-90296325D01*
X121784795Y-89991912D01*
X121691814Y-89817956D01*
X121427413Y-89722192D01*
X120471605Y-90678000D01*
X120112395Y-90678000D01*
X119156587Y-89722192D01*
X118892186Y-89817956D01*
X118751296Y-90107571D01*
X118669616Y-90419108D01*
X118650282Y-90740595D01*
X115426189Y-90740595D01*
X115433718Y-90615405D01*
X115389961Y-90296325D01*
X115284795Y-89991912D01*
X115191814Y-89817956D01*
X114927413Y-89722192D01*
X113971605Y-90678000D01*
X113612395Y-90678000D01*
X112656587Y-89722192D01*
X112392186Y-89817956D01*
X112251296Y-90107571D01*
X112169616Y-90419108D01*
X112150282Y-90740595D01*
X102185000Y-90740595D01*
X102185000Y-89026906D01*
X102255875Y-88232763D01*
X102311732Y-88028582D01*
X103195225Y-88028582D01*
X103245370Y-88475635D01*
X103381393Y-88904435D01*
X103598113Y-89298648D01*
X103887276Y-89643259D01*
X104237867Y-89925141D01*
X104636532Y-90133558D01*
X105068086Y-90260571D01*
X105516092Y-90301343D01*
X105963485Y-90254320D01*
X106393223Y-90121294D01*
X106788940Y-89907331D01*
X107135561Y-89620581D01*
X107199171Y-89542587D01*
X112836192Y-89542587D01*
X113792000Y-90498395D01*
X114747808Y-89542587D01*
X119336192Y-89542587D01*
X120292000Y-90498395D01*
X121247808Y-89542587D01*
X129854192Y-89542587D01*
X130810000Y-90498395D01*
X131765808Y-89542587D01*
X136354192Y-89542587D01*
X137310000Y-90498395D01*
X138265808Y-89542587D01*
X138170044Y-89278186D01*
X137880429Y-89137296D01*
X137568892Y-89055616D01*
X137247405Y-89036282D01*
X136928325Y-89080039D01*
X136623912Y-89185205D01*
X136449956Y-89278186D01*
X136354192Y-89542587D01*
X131765808Y-89542587D01*
X131670044Y-89278186D01*
X131380429Y-89137296D01*
X131068892Y-89055616D01*
X130747405Y-89036282D01*
X130428325Y-89080039D01*
X130123912Y-89185205D01*
X129949956Y-89278186D01*
X129854192Y-89542587D01*
X121247808Y-89542587D01*
X121152044Y-89278186D01*
X120862429Y-89137296D01*
X120550892Y-89055616D01*
X120229405Y-89036282D01*
X119910325Y-89080039D01*
X119605912Y-89185205D01*
X119431956Y-89278186D01*
X119336192Y-89542587D01*
X114747808Y-89542587D01*
X114652044Y-89278186D01*
X114362429Y-89137296D01*
X114050892Y-89055616D01*
X113729405Y-89036282D01*
X113410325Y-89080039D01*
X113105912Y-89185205D01*
X112931956Y-89278186D01*
X112836192Y-89542587D01*
X107199171Y-89542587D01*
X107419883Y-89271967D01*
X107631079Y-88874766D01*
X107737250Y-88523110D01*
X146058524Y-88523110D01*
X146179845Y-88753000D01*
X147373000Y-88753000D01*
X147373000Y-87559186D01*
X147627000Y-87559186D01*
X147627000Y-88753000D01*
X148820155Y-88753000D01*
X148941476Y-88523110D01*
X177058524Y-88523110D01*
X177179845Y-88753000D01*
X178373000Y-88753000D01*
X178373000Y-87559186D01*
X178627000Y-87559186D01*
X178627000Y-88753000D01*
X179820155Y-88753000D01*
X179941476Y-88523110D01*
X179896825Y-88375901D01*
X179771641Y-88113080D01*
X179708615Y-88028582D01*
X185195226Y-88028582D01*
X185245371Y-88475635D01*
X185381394Y-88904435D01*
X185598114Y-89298648D01*
X185887277Y-89643259D01*
X186237868Y-89925141D01*
X186636533Y-90133558D01*
X187068087Y-90260571D01*
X187516093Y-90301343D01*
X187963486Y-90254320D01*
X188393224Y-90121294D01*
X188788941Y-89907331D01*
X189135562Y-89620581D01*
X189419884Y-89271967D01*
X189631080Y-88874766D01*
X189761103Y-88444109D01*
X189805001Y-87996399D01*
X189804102Y-87932040D01*
X189747720Y-87485730D01*
X189605723Y-87058871D01*
X189383520Y-86667723D01*
X189089574Y-86327183D01*
X188735082Y-86050223D01*
X188333546Y-85847393D01*
X187900260Y-85726417D01*
X187451729Y-85691905D01*
X187005036Y-85745169D01*
X186577196Y-85884183D01*
X186184506Y-86103650D01*
X185841923Y-86395211D01*
X185562495Y-86747762D01*
X185356866Y-87147872D01*
X185232869Y-87580302D01*
X185195226Y-88028582D01*
X179708615Y-88028582D01*
X179597588Y-87879731D01*
X179381355Y-87684822D01*
X179131252Y-87535843D01*
X178856891Y-87438519D01*
X178627000Y-87559186D01*
X178373000Y-87559186D01*
X178143109Y-87438519D01*
X177868748Y-87535843D01*
X177618645Y-87684822D01*
X177402412Y-87879731D01*
X177228359Y-88113080D01*
X177103175Y-88375901D01*
X177058524Y-88523110D01*
X148941476Y-88523110D01*
X148896825Y-88375901D01*
X148771641Y-88113080D01*
X148597588Y-87879731D01*
X148381355Y-87684822D01*
X148131252Y-87535843D01*
X147856891Y-87438519D01*
X147627000Y-87559186D01*
X147373000Y-87559186D01*
X147143109Y-87438519D01*
X146868748Y-87535843D01*
X146618645Y-87684822D01*
X146402412Y-87879731D01*
X146228359Y-88113080D01*
X146103175Y-88375901D01*
X146058524Y-88523110D01*
X107737250Y-88523110D01*
X107761102Y-88444109D01*
X107805000Y-87996399D01*
X107804101Y-87932040D01*
X107747719Y-87485730D01*
X107605722Y-87058871D01*
X107383519Y-86667723D01*
X107089573Y-86327183D01*
X106735081Y-86050223D01*
X106333545Y-85847393D01*
X105900259Y-85726417D01*
X105451728Y-85691905D01*
X105005035Y-85745169D01*
X104577195Y-85884183D01*
X104184505Y-86103650D01*
X103841922Y-86395211D01*
X103562494Y-86747762D01*
X103356865Y-87147872D01*
X103232868Y-87580302D01*
X103195225Y-88028582D01*
X102311732Y-88028582D01*
X102458180Y-87493260D01*
X102788242Y-86801272D01*
X103235629Y-86178667D01*
X103786195Y-85645132D01*
X104422544Y-85217524D01*
X105124561Y-84909359D01*
X105875320Y-84729117D01*
X106525112Y-84681400D01*
X186469494Y-84681400D01*
X187263637Y-84752275D01*
G36*
X151386000Y-114360802D02*
G01*
X151386001Y-120299099D01*
X151344900Y-120321068D01*
X151126393Y-120500392D01*
X150947068Y-120718899D01*
X150876000Y-120851858D01*
X150804932Y-120718899D01*
X150625608Y-120500392D01*
X150407101Y-120321068D01*
X150157808Y-120187818D01*
X149887309Y-120105764D01*
X149606000Y-120078057D01*
X149324692Y-120105764D01*
X149054193Y-120187818D01*
X148804900Y-120321068D01*
X148586393Y-120500392D01*
X148407068Y-120718899D01*
X148336000Y-120851858D01*
X148264932Y-120718899D01*
X148085608Y-120500392D01*
X147867101Y-120321068D01*
X147617808Y-120187818D01*
X147347309Y-120105764D01*
X147066000Y-120078057D01*
X146784692Y-120105764D01*
X146514193Y-120187818D01*
X146264900Y-120321068D01*
X146046393Y-120500392D01*
X145867068Y-120718899D01*
X145796000Y-120851858D01*
X145724932Y-120718899D01*
X145545608Y-120500392D01*
X145327101Y-120321068D01*
X145077808Y-120187818D01*
X144807309Y-120105764D01*
X144526000Y-120078057D01*
X144244692Y-120105764D01*
X143974193Y-120187818D01*
X143724900Y-120321068D01*
X143506393Y-120500392D01*
X143327068Y-120718899D01*
X143256000Y-120851858D01*
X143184932Y-120718899D01*
X143005608Y-120500392D01*
X142787101Y-120321068D01*
X142537808Y-120187818D01*
X142267309Y-120105764D01*
X141986000Y-120078057D01*
X141704692Y-120105764D01*
X141434193Y-120187818D01*
X141184900Y-120321068D01*
X140966393Y-120500392D01*
X140787068Y-120718899D01*
X140657173Y-120961916D01*
X140619969Y-121007249D01*
X140468148Y-121291286D01*
X140374657Y-121599485D01*
X140351000Y-121839679D01*
X140351000Y-122766761D01*
X139784762Y-123333000D01*
X138558960Y-123333000D01*
X138585812Y-123244482D01*
X138598072Y-123120000D01*
X138598072Y-120720000D01*
X138585812Y-120595518D01*
X138549502Y-120475820D01*
X138490537Y-120365506D01*
X138411185Y-120268815D01*
X138314494Y-120189463D01*
X138204180Y-120130498D01*
X138084482Y-120094188D01*
X137960000Y-120081928D01*
X136389874Y-120081928D01*
X136528004Y-119943798D01*
X136557001Y-119920001D01*
X136651974Y-119804276D01*
X136722546Y-119672247D01*
X136757824Y-119555950D01*
X136788192Y-119572182D01*
X137058691Y-119654236D01*
X137269508Y-119675000D01*
X137410492Y-119675000D01*
X137621309Y-119654236D01*
X137891808Y-119572182D01*
X138141101Y-119438932D01*
X138359608Y-119259608D01*
X138487675Y-119103558D01*
X138513969Y-119152751D01*
X138718286Y-119401714D01*
X138967248Y-119606031D01*
X139251285Y-119757852D01*
X139559484Y-119851343D01*
X139880000Y-119882911D01*
X140200515Y-119851343D01*
X140508714Y-119757852D01*
X140792751Y-119606031D01*
X141041714Y-119401714D01*
X141246031Y-119152752D01*
X141272326Y-119103558D01*
X141400392Y-119259608D01*
X141618899Y-119438932D01*
X141868192Y-119572182D01*
X142138691Y-119654236D01*
X142349508Y-119675000D01*
X142490492Y-119675000D01*
X142701309Y-119654236D01*
X142971808Y-119572182D01*
X143221101Y-119438932D01*
X143439608Y-119259608D01*
X143618932Y-119041101D01*
X143692579Y-118903318D01*
X143807615Y-119095131D01*
X143996586Y-119303519D01*
X144222580Y-119471037D01*
X144476913Y-119591246D01*
X144610961Y-119631904D01*
X144833000Y-119509915D01*
X144833000Y-118367000D01*
X144813000Y-118367000D01*
X144813000Y-118113000D01*
X144833000Y-118113000D01*
X144833000Y-116970085D01*
X145087000Y-116970085D01*
X145087000Y-118113000D01*
X145107000Y-118113000D01*
X145107000Y-118367000D01*
X145087000Y-118367000D01*
X145087000Y-119509915D01*
X145309039Y-119631904D01*
X145443087Y-119591246D01*
X145697420Y-119471037D01*
X145923414Y-119303519D01*
X146112385Y-119095131D01*
X146227421Y-118903318D01*
X146301068Y-119041101D01*
X146480392Y-119259608D01*
X146698899Y-119438932D01*
X146948192Y-119572182D01*
X147218691Y-119654236D01*
X147429508Y-119675000D01*
X147570492Y-119675000D01*
X147781309Y-119654236D01*
X148051808Y-119572182D01*
X148301101Y-119438932D01*
X148519608Y-119259608D01*
X148698932Y-119041101D01*
X148832182Y-118791808D01*
X148914236Y-118521309D01*
X148941943Y-118240000D01*
X148914236Y-117958691D01*
X148832182Y-117688192D01*
X148698932Y-117438899D01*
X148519608Y-117220392D01*
X148301101Y-117041068D01*
X148051808Y-116907818D01*
X147781309Y-116825764D01*
X147570492Y-116805000D01*
X147429508Y-116805000D01*
X147218691Y-116825764D01*
X146948192Y-116907818D01*
X146698899Y-117041068D01*
X146480392Y-117220392D01*
X146301068Y-117438899D01*
X146227421Y-117576682D01*
X146112385Y-117384869D01*
X145923414Y-117176481D01*
X145697420Y-117008963D01*
X145443087Y-116888754D01*
X145309039Y-116848096D01*
X145087000Y-116970085D01*
X144833000Y-116970085D01*
X144610961Y-116848096D01*
X144476913Y-116888754D01*
X144222580Y-117008963D01*
X143996586Y-117176481D01*
X143807615Y-117384869D01*
X143692579Y-117576682D01*
X143618932Y-117438899D01*
X143439608Y-117220392D01*
X143221101Y-117041068D01*
X142971808Y-116907818D01*
X142701309Y-116825764D01*
X142490492Y-116805000D01*
X142349508Y-116805000D01*
X142138691Y-116825764D01*
X141868192Y-116907818D01*
X141618899Y-117041068D01*
X141515000Y-117126336D01*
X141515000Y-115681000D01*
X149432322Y-115681000D01*
X149672516Y-115657343D01*
X149980715Y-115563852D01*
X150264752Y-115412031D01*
X150513714Y-115207714D01*
X150718031Y-114958752D01*
X150869852Y-114674715D01*
X150963343Y-114366516D01*
X150994911Y-114046000D01*
X150986576Y-113961378D01*
X151386000Y-114360802D01*
X151386000Y-114360802D01*
G37*
X151386000Y-114360802D02*
X151386001Y-120299099D01*
X151344900Y-120321068D01*
X151126393Y-120500392D01*
X150947068Y-120718899D01*
X150876000Y-120851858D01*
X150804932Y-120718899D01*
X150625608Y-120500392D01*
X150407101Y-120321068D01*
X150157808Y-120187818D01*
X149887309Y-120105764D01*
X149606000Y-120078057D01*
X149324692Y-120105764D01*
X149054193Y-120187818D01*
X148804900Y-120321068D01*
X148586393Y-120500392D01*
X148407068Y-120718899D01*
X148336000Y-120851858D01*
X148264932Y-120718899D01*
X148085608Y-120500392D01*
X147867101Y-120321068D01*
X147617808Y-120187818D01*
X147347309Y-120105764D01*
X147066000Y-120078057D01*
X146784692Y-120105764D01*
X146514193Y-120187818D01*
X146264900Y-120321068D01*
X146046393Y-120500392D01*
X145867068Y-120718899D01*
X145796000Y-120851858D01*
X145724932Y-120718899D01*
X145545608Y-120500392D01*
X145327101Y-120321068D01*
X145077808Y-120187818D01*
X144807309Y-120105764D01*
X144526000Y-120078057D01*
X144244692Y-120105764D01*
X143974193Y-120187818D01*
X143724900Y-120321068D01*
X143506393Y-120500392D01*
X143327068Y-120718899D01*
X143256000Y-120851858D01*
X143184932Y-120718899D01*
X143005608Y-120500392D01*
X142787101Y-120321068D01*
X142537808Y-120187818D01*
X142267309Y-120105764D01*
X141986000Y-120078057D01*
X141704692Y-120105764D01*
X141434193Y-120187818D01*
X141184900Y-120321068D01*
X140966393Y-120500392D01*
X140787068Y-120718899D01*
X140657173Y-120961916D01*
X140619969Y-121007249D01*
X140468148Y-121291286D01*
X140374657Y-121599485D01*
X140351000Y-121839679D01*
X140351000Y-122766761D01*
X139784762Y-123333000D01*
X138558960Y-123333000D01*
X138585812Y-123244482D01*
X138598072Y-123120000D01*
X138598072Y-120720000D01*
X138585812Y-120595518D01*
X138549502Y-120475820D01*
X138490537Y-120365506D01*
X138411185Y-120268815D01*
X138314494Y-120189463D01*
X138204180Y-120130498D01*
X138084482Y-120094188D01*
X137960000Y-120081928D01*
X136389874Y-120081928D01*
X136528004Y-119943798D01*
X136557001Y-119920001D01*
X136651974Y-119804276D01*
X136722546Y-119672247D01*
X136757824Y-119555950D01*
X136788192Y-119572182D01*
X137058691Y-119654236D01*
X137269508Y-119675000D01*
X137410492Y-119675000D01*
X137621309Y-119654236D01*
X137891808Y-119572182D01*
X138141101Y-119438932D01*
X138359608Y-119259608D01*
X138487675Y-119103558D01*
X138513969Y-119152751D01*
X138718286Y-119401714D01*
X138967248Y-119606031D01*
X139251285Y-119757852D01*
X139559484Y-119851343D01*
X139880000Y-119882911D01*
X140200515Y-119851343D01*
X140508714Y-119757852D01*
X140792751Y-119606031D01*
X141041714Y-119401714D01*
X141246031Y-119152752D01*
X141272326Y-119103558D01*
X141400392Y-119259608D01*
X141618899Y-119438932D01*
X141868192Y-119572182D01*
X142138691Y-119654236D01*
X142349508Y-119675000D01*
X142490492Y-119675000D01*
X142701309Y-119654236D01*
X142971808Y-119572182D01*
X143221101Y-119438932D01*
X143439608Y-119259608D01*
X143618932Y-119041101D01*
X143692579Y-118903318D01*
X143807615Y-119095131D01*
X143996586Y-119303519D01*
X144222580Y-119471037D01*
X144476913Y-119591246D01*
X144610961Y-119631904D01*
X144833000Y-119509915D01*
X144833000Y-118367000D01*
X144813000Y-118367000D01*
X144813000Y-118113000D01*
X144833000Y-118113000D01*
X144833000Y-116970085D01*
X145087000Y-116970085D01*
X145087000Y-118113000D01*
X145107000Y-118113000D01*
X145107000Y-118367000D01*
X145087000Y-118367000D01*
X145087000Y-119509915D01*
X145309039Y-119631904D01*
X145443087Y-119591246D01*
X145697420Y-119471037D01*
X145923414Y-119303519D01*
X146112385Y-119095131D01*
X146227421Y-118903318D01*
X146301068Y-119041101D01*
X146480392Y-119259608D01*
X146698899Y-119438932D01*
X146948192Y-119572182D01*
X147218691Y-119654236D01*
X147429508Y-119675000D01*
X147570492Y-119675000D01*
X147781309Y-119654236D01*
X148051808Y-119572182D01*
X148301101Y-119438932D01*
X148519608Y-119259608D01*
X148698932Y-119041101D01*
X148832182Y-118791808D01*
X148914236Y-118521309D01*
X148941943Y-118240000D01*
X148914236Y-117958691D01*
X148832182Y-117688192D01*
X148698932Y-117438899D01*
X148519608Y-117220392D01*
X148301101Y-117041068D01*
X148051808Y-116907818D01*
X147781309Y-116825764D01*
X147570492Y-116805000D01*
X147429508Y-116805000D01*
X147218691Y-116825764D01*
X146948192Y-116907818D01*
X146698899Y-117041068D01*
X146480392Y-117220392D01*
X146301068Y-117438899D01*
X146227421Y-117576682D01*
X146112385Y-117384869D01*
X145923414Y-117176481D01*
X145697420Y-117008963D01*
X145443087Y-116888754D01*
X145309039Y-116848096D01*
X145087000Y-116970085D01*
X144833000Y-116970085D01*
X144610961Y-116848096D01*
X144476913Y-116888754D01*
X144222580Y-117008963D01*
X143996586Y-117176481D01*
X143807615Y-117384869D01*
X143692579Y-117576682D01*
X143618932Y-117438899D01*
X143439608Y-117220392D01*
X143221101Y-117041068D01*
X142971808Y-116907818D01*
X142701309Y-116825764D01*
X142490492Y-116805000D01*
X142349508Y-116805000D01*
X142138691Y-116825764D01*
X141868192Y-116907818D01*
X141618899Y-117041068D01*
X141515000Y-117126336D01*
X141515000Y-115681000D01*
X149432322Y-115681000D01*
X149672516Y-115657343D01*
X149980715Y-115563852D01*
X150264752Y-115412031D01*
X150513714Y-115207714D01*
X150718031Y-114958752D01*
X150869852Y-114674715D01*
X150963343Y-114366516D01*
X150994911Y-114046000D01*
X150986576Y-113961378D01*
X151386000Y-114360802D01*
G36*
X156714997Y-113085799D02*
G01*
X156715002Y-113085803D01*
X158498000Y-114868802D01*
X158498000Y-115142687D01*
X158441413Y-115122192D01*
X157485605Y-116078000D01*
X158441413Y-117033808D01*
X158498000Y-117013312D01*
X158498001Y-120848114D01*
X158496000Y-120851858D01*
X158424932Y-120718899D01*
X158245608Y-120500392D01*
X158027101Y-120321068D01*
X157986000Y-120299099D01*
X157986000Y-120179322D01*
X157989676Y-120141999D01*
X157986000Y-120104676D01*
X157986000Y-120104667D01*
X157975003Y-119993014D01*
X157931546Y-119849753D01*
X157860974Y-119717724D01*
X157847811Y-119701685D01*
X157789799Y-119630996D01*
X157789795Y-119630992D01*
X157766001Y-119601999D01*
X157737008Y-119578205D01*
X155372215Y-117213413D01*
X156350192Y-117213413D01*
X156445956Y-117477814D01*
X156735571Y-117618704D01*
X157047108Y-117700384D01*
X157368595Y-117719718D01*
X157687675Y-117675961D01*
X157992088Y-117570795D01*
X158166044Y-117477814D01*
X158261808Y-117213413D01*
X157306000Y-116257605D01*
X156350192Y-117213413D01*
X155372215Y-117213413D01*
X154430000Y-116271199D01*
X154430000Y-116140595D01*
X155664282Y-116140595D01*
X155708039Y-116459675D01*
X155813205Y-116764088D01*
X155906186Y-116938044D01*
X156170587Y-117033808D01*
X157126395Y-116078000D01*
X156170587Y-115122192D01*
X155906186Y-115217956D01*
X155765296Y-115507571D01*
X155683616Y-115819108D01*
X155664282Y-116140595D01*
X154430000Y-116140595D01*
X154430000Y-114942587D01*
X156350192Y-114942587D01*
X157306000Y-115898395D01*
X158261808Y-114942587D01*
X158166044Y-114678186D01*
X157876429Y-114537296D01*
X157564892Y-114455616D01*
X157243405Y-114436282D01*
X156924325Y-114480039D01*
X156619912Y-114585205D01*
X156445956Y-114678186D01*
X156350192Y-114942587D01*
X154430000Y-114942587D01*
X154430000Y-113457000D01*
X154524089Y-113457000D01*
X154704729Y-113421068D01*
X154874889Y-113350586D01*
X155028028Y-113248262D01*
X155067000Y-113209290D01*
X155105972Y-113248262D01*
X155259111Y-113350586D01*
X155429271Y-113421068D01*
X155609911Y-113457000D01*
X155794089Y-113457000D01*
X155974729Y-113421068D01*
X156144889Y-113350586D01*
X156298028Y-113248262D01*
X156428262Y-113118028D01*
X156530586Y-112964889D01*
X156549185Y-112919987D01*
X156714997Y-113085799D01*
X156714997Y-113085799D01*
G37*
X156714997Y-113085799D02*
X156715002Y-113085803D01*
X158498000Y-114868802D01*
X158498000Y-115142687D01*
X158441413Y-115122192D01*
X157485605Y-116078000D01*
X158441413Y-117033808D01*
X158498000Y-117013312D01*
X158498001Y-120848114D01*
X158496000Y-120851858D01*
X158424932Y-120718899D01*
X158245608Y-120500392D01*
X158027101Y-120321068D01*
X157986000Y-120299099D01*
X157986000Y-120179322D01*
X157989676Y-120141999D01*
X157986000Y-120104676D01*
X157986000Y-120104667D01*
X157975003Y-119993014D01*
X157931546Y-119849753D01*
X157860974Y-119717724D01*
X157847811Y-119701685D01*
X157789799Y-119630996D01*
X157789795Y-119630992D01*
X157766001Y-119601999D01*
X157737008Y-119578205D01*
X155372215Y-117213413D01*
X156350192Y-117213413D01*
X156445956Y-117477814D01*
X156735571Y-117618704D01*
X157047108Y-117700384D01*
X157368595Y-117719718D01*
X157687675Y-117675961D01*
X157992088Y-117570795D01*
X158166044Y-117477814D01*
X158261808Y-117213413D01*
X157306000Y-116257605D01*
X156350192Y-117213413D01*
X155372215Y-117213413D01*
X154430000Y-116271199D01*
X154430000Y-116140595D01*
X155664282Y-116140595D01*
X155708039Y-116459675D01*
X155813205Y-116764088D01*
X155906186Y-116938044D01*
X156170587Y-117033808D01*
X157126395Y-116078000D01*
X156170587Y-115122192D01*
X155906186Y-115217956D01*
X155765296Y-115507571D01*
X155683616Y-115819108D01*
X155664282Y-116140595D01*
X154430000Y-116140595D01*
X154430000Y-114942587D01*
X156350192Y-114942587D01*
X157306000Y-115898395D01*
X158261808Y-114942587D01*
X158166044Y-114678186D01*
X157876429Y-114537296D01*
X157564892Y-114455616D01*
X157243405Y-114436282D01*
X156924325Y-114480039D01*
X156619912Y-114585205D01*
X156445956Y-114678186D01*
X156350192Y-114942587D01*
X154430000Y-114942587D01*
X154430000Y-113457000D01*
X154524089Y-113457000D01*
X154704729Y-113421068D01*
X154874889Y-113350586D01*
X155028028Y-113248262D01*
X155067000Y-113209290D01*
X155105972Y-113248262D01*
X155259111Y-113350586D01*
X155429271Y-113421068D01*
X155609911Y-113457000D01*
X155794089Y-113457000D01*
X155974729Y-113421068D01*
X156144889Y-113350586D01*
X156298028Y-113248262D01*
X156428262Y-113118028D01*
X156530586Y-112964889D01*
X156549185Y-112919987D01*
X156714997Y-113085799D01*
G36*
X140603350Y-128735486D02*
G01*
X140551000Y-129013000D01*
X140551000Y-129413000D01*
X141859000Y-129413000D01*
X141859000Y-129393000D01*
X142113000Y-129393000D01*
X142113000Y-129413000D01*
X142133000Y-129413000D01*
X142133000Y-129667000D01*
X142113000Y-129667000D01*
X142113000Y-129687000D01*
X141859000Y-129687000D01*
X141859000Y-129667000D01*
X140551000Y-129667000D01*
X140551000Y-130067000D01*
X140603350Y-130344514D01*
X140708834Y-130606483D01*
X140843232Y-130812000D01*
X140522802Y-130812000D01*
X139501803Y-129791002D01*
X139501799Y-129790997D01*
X138739803Y-129029002D01*
X138716001Y-128999999D01*
X138600276Y-128905026D01*
X138577606Y-128892909D01*
X138574236Y-128858691D01*
X138492182Y-128588192D01*
X138456802Y-128522000D01*
X140689312Y-128522000D01*
X140603350Y-128735486D01*
X140603350Y-128735486D01*
G37*
X140603350Y-128735486D02*
X140551000Y-129013000D01*
X140551000Y-129413000D01*
X141859000Y-129413000D01*
X141859000Y-129393000D01*
X142113000Y-129393000D01*
X142113000Y-129413000D01*
X142133000Y-129413000D01*
X142133000Y-129667000D01*
X142113000Y-129667000D01*
X142113000Y-129687000D01*
X141859000Y-129687000D01*
X141859000Y-129667000D01*
X140551000Y-129667000D01*
X140551000Y-130067000D01*
X140603350Y-130344514D01*
X140708834Y-130606483D01*
X140843232Y-130812000D01*
X140522802Y-130812000D01*
X139501803Y-129791002D01*
X139501799Y-129790997D01*
X138739803Y-129029002D01*
X138716001Y-128999999D01*
X138600276Y-128905026D01*
X138577606Y-128892909D01*
X138574236Y-128858691D01*
X138492182Y-128588192D01*
X138456802Y-128522000D01*
X140689312Y-128522000D01*
X140603350Y-128735486D01*
M02*
