G04 #@! TF.GenerationSoftware,KiCad,Pcbnew,(5.0.0)*
G04 #@! TF.CreationDate,2018-09-15T21:24:34+09:00*
G04 #@! TF.ProjectId,VFD_Clock_LD8035,5646445F436C6F636B5F4C4438303335,rev?*
G04 #@! TF.SameCoordinates,Original*
G04 #@! TF.FileFunction,Soldermask,Top*
G04 #@! TF.FilePolarity,Negative*
%FSLAX46Y46*%
G04 Gerber Fmt 4.6, Leading zero omitted, Abs format (unit mm)*
G04 Created by KiCad (PCBNEW (5.0.0)) date 09/15/18 21:24:34*
%MOMM*%
%LPD*%
G01*
G04 APERTURE LIST*
%ADD10C,0.100000*%
%ADD11C,0.010000*%
%ADD12R,2.000000X2.000000*%
%ADD13O,2.000000X2.000000*%
%ADD14C,2.400000*%
%ADD15R,2.100000X2.100000*%
%ADD16O,2.100000X2.100000*%
%ADD17R,2.000000X2.800000*%
%ADD18O,2.000000X2.800000*%
%ADD19C,2.000000*%
G04 APERTURE END LIST*
D10*
X106500000Y-83996400D02*
X186500000Y-83996400D01*
X101500000Y-88996400D02*
G75*
G02X106500000Y-83996400I5000000J0D01*
G01*
X101500000Y-143996400D02*
X101500000Y-88996400D01*
X106500000Y-148996400D02*
G75*
G02X101500000Y-143996400I0J5000000D01*
G01*
X186500000Y-148996400D02*
X106500000Y-148996400D01*
X191500000Y-143996400D02*
G75*
G02X186500000Y-148996400I-5000000J0D01*
G01*
X191500000Y-88996400D02*
X191500000Y-143996400D01*
X186500000Y-83996400D02*
G75*
G02X191500000Y-88996400I0J-5000000D01*
G01*
X189100001Y-87996399D02*
G75*
G03X189100001Y-87996399I-1600000J0D01*
G01*
X107100000Y-144996400D02*
G75*
G03X107100000Y-144996400I-1600000J0D01*
G01*
X189100001Y-144996400D02*
G75*
G03X189100001Y-144996400I-1600000J0D01*
G01*
X107100000Y-87996399D02*
G75*
G03X107100000Y-87996399I-1600000J0D01*
G01*
D11*
G04 #@! TO.C,G\002A\002A\002A*
G36*
X105900298Y-94037584D02*
X106339685Y-94095661D01*
X106747897Y-94205470D01*
X107074365Y-94342145D01*
X107397050Y-94523950D01*
X107702818Y-94741000D01*
X107978532Y-94983407D01*
X108211060Y-95241285D01*
X108315176Y-95385208D01*
X108377644Y-95482508D01*
X108408505Y-95542958D01*
X108411907Y-95582185D01*
X108391998Y-95615817D01*
X108380008Y-95629471D01*
X108307239Y-95682109D01*
X108230620Y-95711501D01*
X108203658Y-95715295D01*
X108172308Y-95713552D01*
X108132063Y-95703894D01*
X108078415Y-95683944D01*
X108006854Y-95651323D01*
X107912873Y-95603653D01*
X107791963Y-95538558D01*
X107639616Y-95453658D01*
X107451324Y-95346577D01*
X107222579Y-95214936D01*
X106948871Y-95056358D01*
X106625693Y-94868465D01*
X106562725Y-94831817D01*
X106349369Y-94708324D01*
X106152726Y-94595840D01*
X105979720Y-94498218D01*
X105837271Y-94419315D01*
X105732303Y-94362985D01*
X105671738Y-94333085D01*
X105660338Y-94329250D01*
X105619215Y-94344656D01*
X105536880Y-94385943D01*
X105426202Y-94445711D01*
X105300048Y-94516563D01*
X105171288Y-94591098D01*
X105052791Y-94661919D01*
X104957424Y-94721626D01*
X104898057Y-94762821D01*
X104885518Y-94774730D01*
X104897050Y-94809119D01*
X104950496Y-94856295D01*
X105028655Y-94905855D01*
X105114328Y-94947393D01*
X105190317Y-94970503D01*
X105212114Y-94972307D01*
X105281902Y-94971184D01*
X105395576Y-94969116D01*
X105533532Y-94966465D01*
X105600500Y-94965134D01*
X105884046Y-94979815D01*
X106135474Y-95033656D01*
X106349959Y-95123386D01*
X106522674Y-95245735D01*
X106648792Y-95397433D01*
X106723487Y-95575211D01*
X106742977Y-95739181D01*
X106711960Y-95927655D01*
X106621951Y-96097844D01*
X106475613Y-96246669D01*
X106275605Y-96371054D01*
X106149213Y-96425840D01*
X105964605Y-96476150D01*
X105746962Y-96504726D01*
X105521934Y-96510324D01*
X105315170Y-96491698D01*
X105219500Y-96470951D01*
X104943091Y-96374169D01*
X104725943Y-96255070D01*
X104567767Y-96113380D01*
X104468271Y-95948824D01*
X104427166Y-95761129D01*
X104425927Y-95720909D01*
X104418630Y-95636704D01*
X104406309Y-95585531D01*
X104363949Y-95536441D01*
X104280366Y-95476628D01*
X104174218Y-95415864D01*
X104064160Y-95363920D01*
X103968848Y-95330569D01*
X103908936Y-95325011D01*
X103854189Y-95348857D01*
X103760427Y-95399567D01*
X103641757Y-95469210D01*
X103536750Y-95534252D01*
X103409317Y-95611579D01*
X103296000Y-95673988D01*
X103210489Y-95714318D01*
X103170425Y-95725894D01*
X103106233Y-95706370D01*
X103025709Y-95657277D01*
X103002588Y-95638937D01*
X102899450Y-95551625D01*
X103016553Y-95379020D01*
X103217199Y-95124159D01*
X103464587Y-94875525D01*
X103742440Y-94647143D01*
X104034482Y-94453042D01*
X104187625Y-94369776D01*
X104590512Y-94203243D01*
X105016437Y-94091970D01*
X105456124Y-94036552D01*
X105900298Y-94037584D01*
X105900298Y-94037584D01*
G37*
X105900298Y-94037584D02*
X106339685Y-94095661D01*
X106747897Y-94205470D01*
X107074365Y-94342145D01*
X107397050Y-94523950D01*
X107702818Y-94741000D01*
X107978532Y-94983407D01*
X108211060Y-95241285D01*
X108315176Y-95385208D01*
X108377644Y-95482508D01*
X108408505Y-95542958D01*
X108411907Y-95582185D01*
X108391998Y-95615817D01*
X108380008Y-95629471D01*
X108307239Y-95682109D01*
X108230620Y-95711501D01*
X108203658Y-95715295D01*
X108172308Y-95713552D01*
X108132063Y-95703894D01*
X108078415Y-95683944D01*
X108006854Y-95651323D01*
X107912873Y-95603653D01*
X107791963Y-95538558D01*
X107639616Y-95453658D01*
X107451324Y-95346577D01*
X107222579Y-95214936D01*
X106948871Y-95056358D01*
X106625693Y-94868465D01*
X106562725Y-94831817D01*
X106349369Y-94708324D01*
X106152726Y-94595840D01*
X105979720Y-94498218D01*
X105837271Y-94419315D01*
X105732303Y-94362985D01*
X105671738Y-94333085D01*
X105660338Y-94329250D01*
X105619215Y-94344656D01*
X105536880Y-94385943D01*
X105426202Y-94445711D01*
X105300048Y-94516563D01*
X105171288Y-94591098D01*
X105052791Y-94661919D01*
X104957424Y-94721626D01*
X104898057Y-94762821D01*
X104885518Y-94774730D01*
X104897050Y-94809119D01*
X104950496Y-94856295D01*
X105028655Y-94905855D01*
X105114328Y-94947393D01*
X105190317Y-94970503D01*
X105212114Y-94972307D01*
X105281902Y-94971184D01*
X105395576Y-94969116D01*
X105533532Y-94966465D01*
X105600500Y-94965134D01*
X105884046Y-94979815D01*
X106135474Y-95033656D01*
X106349959Y-95123386D01*
X106522674Y-95245735D01*
X106648792Y-95397433D01*
X106723487Y-95575211D01*
X106742977Y-95739181D01*
X106711960Y-95927655D01*
X106621951Y-96097844D01*
X106475613Y-96246669D01*
X106275605Y-96371054D01*
X106149213Y-96425840D01*
X105964605Y-96476150D01*
X105746962Y-96504726D01*
X105521934Y-96510324D01*
X105315170Y-96491698D01*
X105219500Y-96470951D01*
X104943091Y-96374169D01*
X104725943Y-96255070D01*
X104567767Y-96113380D01*
X104468271Y-95948824D01*
X104427166Y-95761129D01*
X104425927Y-95720909D01*
X104418630Y-95636704D01*
X104406309Y-95585531D01*
X104363949Y-95536441D01*
X104280366Y-95476628D01*
X104174218Y-95415864D01*
X104064160Y-95363920D01*
X103968848Y-95330569D01*
X103908936Y-95325011D01*
X103854189Y-95348857D01*
X103760427Y-95399567D01*
X103641757Y-95469210D01*
X103536750Y-95534252D01*
X103409317Y-95611579D01*
X103296000Y-95673988D01*
X103210489Y-95714318D01*
X103170425Y-95725894D01*
X103106233Y-95706370D01*
X103025709Y-95657277D01*
X103002588Y-95638937D01*
X102899450Y-95551625D01*
X103016553Y-95379020D01*
X103217199Y-95124159D01*
X103464587Y-94875525D01*
X103742440Y-94647143D01*
X104034482Y-94453042D01*
X104187625Y-94369776D01*
X104590512Y-94203243D01*
X105016437Y-94091970D01*
X105456124Y-94036552D01*
X105900298Y-94037584D01*
G36*
X108551395Y-95786506D02*
X108600959Y-95864286D01*
X108658333Y-95979729D01*
X108718401Y-96121223D01*
X108776048Y-96277159D01*
X108826161Y-96435924D01*
X108846214Y-96510432D01*
X108874327Y-96632976D01*
X108893967Y-96750300D01*
X108906495Y-96878130D01*
X108913270Y-97032191D01*
X108915653Y-97228206D01*
X108915695Y-97313750D01*
X108914503Y-97516124D01*
X108910577Y-97670060D01*
X108902307Y-97790608D01*
X108888081Y-97892817D01*
X108866290Y-97991740D01*
X108835322Y-98102427D01*
X108829066Y-98123375D01*
X108728471Y-98407189D01*
X108596734Y-98702257D01*
X108444543Y-98987791D01*
X108282588Y-99243002D01*
X108188890Y-99368320D01*
X107922377Y-99655668D01*
X107612869Y-99913387D01*
X107271337Y-100135476D01*
X106908750Y-100315933D01*
X106536080Y-100448757D01*
X106164296Y-100527946D01*
X106045000Y-100541173D01*
X105912339Y-100546870D01*
X105831237Y-100536063D01*
X105798937Y-100517301D01*
X105772708Y-100459857D01*
X105759593Y-100372008D01*
X105759250Y-100355850D01*
X105758367Y-100324608D01*
X105758750Y-100297904D01*
X105764942Y-100272641D01*
X105781487Y-100245722D01*
X105812930Y-100214052D01*
X105863813Y-100174533D01*
X105938682Y-100124068D01*
X106042080Y-100059561D01*
X106178552Y-99977915D01*
X106352641Y-99876034D01*
X106568891Y-99750821D01*
X106831847Y-99599179D01*
X107076875Y-99457920D01*
X107317533Y-99318271D01*
X107542346Y-99186206D01*
X107744997Y-99065555D01*
X107919170Y-98960148D01*
X108058548Y-98873816D01*
X108156817Y-98810390D01*
X108207659Y-98773701D01*
X108211937Y-98769499D01*
X108235143Y-98732860D01*
X108251005Y-98680012D01*
X108260818Y-98599558D01*
X108265877Y-98480097D01*
X108267478Y-98310233D01*
X108267500Y-98280481D01*
X108265147Y-98106362D01*
X108258532Y-97968351D01*
X108248320Y-97875602D01*
X108235357Y-97837382D01*
X108194743Y-97843783D01*
X108118771Y-97879530D01*
X108023677Y-97936948D01*
X108021044Y-97938695D01*
X107931391Y-98002519D01*
X107864502Y-98064782D01*
X107807248Y-98142036D01*
X107746497Y-98250833D01*
X107700903Y-98342233D01*
X107544301Y-98611114D01*
X107366370Y-98820722D01*
X107167436Y-98970811D01*
X106947828Y-99061133D01*
X106708507Y-99091439D01*
X106524582Y-99073276D01*
X106379563Y-99013727D01*
X106259189Y-98906128D01*
X106228374Y-98867042D01*
X106156175Y-98721691D01*
X106118306Y-98536699D01*
X106113713Y-98325156D01*
X106141342Y-98100149D01*
X106200138Y-97874768D01*
X106289049Y-97662099D01*
X106331563Y-97585590D01*
X106483861Y-97372677D01*
X106657840Y-97198164D01*
X106845875Y-97065595D01*
X107040343Y-96978515D01*
X107233618Y-96940467D01*
X107418077Y-96954996D01*
X107564303Y-97012507D01*
X107662767Y-97064618D01*
X107737001Y-97085422D01*
X107810856Y-97074906D01*
X107908184Y-97033056D01*
X107949656Y-97012299D01*
X108058599Y-96954576D01*
X108135665Y-96901678D01*
X108186365Y-96841373D01*
X108216211Y-96761426D01*
X108230711Y-96649607D01*
X108235378Y-96493682D01*
X108235750Y-96377206D01*
X108238611Y-96172803D01*
X108247392Y-96028230D01*
X108262381Y-95940070D01*
X108275437Y-95911588D01*
X108341593Y-95848499D01*
X108423865Y-95792679D01*
X108496611Y-95760584D01*
X108514755Y-95758000D01*
X108551395Y-95786506D01*
X108551395Y-95786506D01*
G37*
X108551395Y-95786506D02*
X108600959Y-95864286D01*
X108658333Y-95979729D01*
X108718401Y-96121223D01*
X108776048Y-96277159D01*
X108826161Y-96435924D01*
X108846214Y-96510432D01*
X108874327Y-96632976D01*
X108893967Y-96750300D01*
X108906495Y-96878130D01*
X108913270Y-97032191D01*
X108915653Y-97228206D01*
X108915695Y-97313750D01*
X108914503Y-97516124D01*
X108910577Y-97670060D01*
X108902307Y-97790608D01*
X108888081Y-97892817D01*
X108866290Y-97991740D01*
X108835322Y-98102427D01*
X108829066Y-98123375D01*
X108728471Y-98407189D01*
X108596734Y-98702257D01*
X108444543Y-98987791D01*
X108282588Y-99243002D01*
X108188890Y-99368320D01*
X107922377Y-99655668D01*
X107612869Y-99913387D01*
X107271337Y-100135476D01*
X106908750Y-100315933D01*
X106536080Y-100448757D01*
X106164296Y-100527946D01*
X106045000Y-100541173D01*
X105912339Y-100546870D01*
X105831237Y-100536063D01*
X105798937Y-100517301D01*
X105772708Y-100459857D01*
X105759593Y-100372008D01*
X105759250Y-100355850D01*
X105758367Y-100324608D01*
X105758750Y-100297904D01*
X105764942Y-100272641D01*
X105781487Y-100245722D01*
X105812930Y-100214052D01*
X105863813Y-100174533D01*
X105938682Y-100124068D01*
X106042080Y-100059561D01*
X106178552Y-99977915D01*
X106352641Y-99876034D01*
X106568891Y-99750821D01*
X106831847Y-99599179D01*
X107076875Y-99457920D01*
X107317533Y-99318271D01*
X107542346Y-99186206D01*
X107744997Y-99065555D01*
X107919170Y-98960148D01*
X108058548Y-98873816D01*
X108156817Y-98810390D01*
X108207659Y-98773701D01*
X108211937Y-98769499D01*
X108235143Y-98732860D01*
X108251005Y-98680012D01*
X108260818Y-98599558D01*
X108265877Y-98480097D01*
X108267478Y-98310233D01*
X108267500Y-98280481D01*
X108265147Y-98106362D01*
X108258532Y-97968351D01*
X108248320Y-97875602D01*
X108235357Y-97837382D01*
X108194743Y-97843783D01*
X108118771Y-97879530D01*
X108023677Y-97936948D01*
X108021044Y-97938695D01*
X107931391Y-98002519D01*
X107864502Y-98064782D01*
X107807248Y-98142036D01*
X107746497Y-98250833D01*
X107700903Y-98342233D01*
X107544301Y-98611114D01*
X107366370Y-98820722D01*
X107167436Y-98970811D01*
X106947828Y-99061133D01*
X106708507Y-99091439D01*
X106524582Y-99073276D01*
X106379563Y-99013727D01*
X106259189Y-98906128D01*
X106228374Y-98867042D01*
X106156175Y-98721691D01*
X106118306Y-98536699D01*
X106113713Y-98325156D01*
X106141342Y-98100149D01*
X106200138Y-97874768D01*
X106289049Y-97662099D01*
X106331563Y-97585590D01*
X106483861Y-97372677D01*
X106657840Y-97198164D01*
X106845875Y-97065595D01*
X107040343Y-96978515D01*
X107233618Y-96940467D01*
X107418077Y-96954996D01*
X107564303Y-97012507D01*
X107662767Y-97064618D01*
X107737001Y-97085422D01*
X107810856Y-97074906D01*
X107908184Y-97033056D01*
X107949656Y-97012299D01*
X108058599Y-96954576D01*
X108135665Y-96901678D01*
X108186365Y-96841373D01*
X108216211Y-96761426D01*
X108230711Y-96649607D01*
X108235378Y-96493682D01*
X108235750Y-96377206D01*
X108238611Y-96172803D01*
X108247392Y-96028230D01*
X108262381Y-95940070D01*
X108275437Y-95911588D01*
X108341593Y-95848499D01*
X108423865Y-95792679D01*
X108496611Y-95760584D01*
X108514755Y-95758000D01*
X108551395Y-95786506D01*
G36*
X102880141Y-95769805D02*
X102955331Y-95832659D01*
X103076375Y-95943555D01*
X103108125Y-98790125D01*
X103457375Y-98988325D01*
X103593627Y-99063769D01*
X103712391Y-99126034D01*
X103801570Y-99169022D01*
X103849068Y-99186631D01*
X103850849Y-99186763D01*
X103872633Y-99174945D01*
X103883282Y-99131784D01*
X103883963Y-99046163D01*
X103877582Y-98931804D01*
X103864419Y-98791040D01*
X103842110Y-98685750D01*
X103801909Y-98587910D01*
X103735072Y-98469495D01*
X103731454Y-98463491D01*
X103589250Y-98188117D01*
X103505789Y-97928298D01*
X103479846Y-97678701D01*
X103502871Y-97466876D01*
X103570632Y-97270494D01*
X103679136Y-97119436D01*
X103822077Y-97016380D01*
X103993151Y-96964003D01*
X104186053Y-96964982D01*
X104394477Y-97021995D01*
X104470528Y-97055979D01*
X104691254Y-97198926D01*
X104889389Y-97397241D01*
X105059594Y-97645185D01*
X105114674Y-97748860D01*
X105170573Y-97866906D01*
X105206588Y-97962414D01*
X105227874Y-98057540D01*
X105239589Y-98174439D01*
X105246098Y-98313519D01*
X105245975Y-98517921D01*
X105225023Y-98675041D01*
X105178223Y-98799098D01*
X105100551Y-98904311D01*
X105007688Y-98988599D01*
X104887992Y-99084622D01*
X104875979Y-99413623D01*
X104873152Y-99588567D01*
X104884285Y-99714779D01*
X104916443Y-99806654D01*
X104976688Y-99878585D01*
X105072083Y-99944965D01*
X105161026Y-99994487D01*
X105326770Y-100089032D01*
X105440673Y-100169949D01*
X105510911Y-100244341D01*
X105545664Y-100319314D01*
X105548299Y-100330933D01*
X105554650Y-100443426D01*
X105516469Y-100513392D01*
X105429182Y-100545962D01*
X105353320Y-100549725D01*
X105238850Y-100541222D01*
X105098561Y-100521869D01*
X104997250Y-100502919D01*
X104560417Y-100377870D01*
X104152489Y-100198523D01*
X103777232Y-99968895D01*
X103438414Y-99693001D01*
X103139801Y-99374856D01*
X102885160Y-99018476D01*
X102678259Y-98627877D01*
X102522864Y-98207074D01*
X102422742Y-97760082D01*
X102422458Y-97758250D01*
X102403661Y-97558272D01*
X102400040Y-97319407D01*
X102410427Y-97064131D01*
X102433656Y-96814917D01*
X102468559Y-96594239D01*
X102487159Y-96512578D01*
X102531056Y-96360114D01*
X102585083Y-96199871D01*
X102643680Y-96045664D01*
X102701291Y-95911310D01*
X102752357Y-95810627D01*
X102790697Y-95757939D01*
X102828171Y-95745484D01*
X102880141Y-95769805D01*
X102880141Y-95769805D01*
G37*
X102880141Y-95769805D02*
X102955331Y-95832659D01*
X103076375Y-95943555D01*
X103108125Y-98790125D01*
X103457375Y-98988325D01*
X103593627Y-99063769D01*
X103712391Y-99126034D01*
X103801570Y-99169022D01*
X103849068Y-99186631D01*
X103850849Y-99186763D01*
X103872633Y-99174945D01*
X103883282Y-99131784D01*
X103883963Y-99046163D01*
X103877582Y-98931804D01*
X103864419Y-98791040D01*
X103842110Y-98685750D01*
X103801909Y-98587910D01*
X103735072Y-98469495D01*
X103731454Y-98463491D01*
X103589250Y-98188117D01*
X103505789Y-97928298D01*
X103479846Y-97678701D01*
X103502871Y-97466876D01*
X103570632Y-97270494D01*
X103679136Y-97119436D01*
X103822077Y-97016380D01*
X103993151Y-96964003D01*
X104186053Y-96964982D01*
X104394477Y-97021995D01*
X104470528Y-97055979D01*
X104691254Y-97198926D01*
X104889389Y-97397241D01*
X105059594Y-97645185D01*
X105114674Y-97748860D01*
X105170573Y-97866906D01*
X105206588Y-97962414D01*
X105227874Y-98057540D01*
X105239589Y-98174439D01*
X105246098Y-98313519D01*
X105245975Y-98517921D01*
X105225023Y-98675041D01*
X105178223Y-98799098D01*
X105100551Y-98904311D01*
X105007688Y-98988599D01*
X104887992Y-99084622D01*
X104875979Y-99413623D01*
X104873152Y-99588567D01*
X104884285Y-99714779D01*
X104916443Y-99806654D01*
X104976688Y-99878585D01*
X105072083Y-99944965D01*
X105161026Y-99994487D01*
X105326770Y-100089032D01*
X105440673Y-100169949D01*
X105510911Y-100244341D01*
X105545664Y-100319314D01*
X105548299Y-100330933D01*
X105554650Y-100443426D01*
X105516469Y-100513392D01*
X105429182Y-100545962D01*
X105353320Y-100549725D01*
X105238850Y-100541222D01*
X105098561Y-100521869D01*
X104997250Y-100502919D01*
X104560417Y-100377870D01*
X104152489Y-100198523D01*
X103777232Y-99968895D01*
X103438414Y-99693001D01*
X103139801Y-99374856D01*
X102885160Y-99018476D01*
X102678259Y-98627877D01*
X102522864Y-98207074D01*
X102422742Y-97760082D01*
X102422458Y-97758250D01*
X102403661Y-97558272D01*
X102400040Y-97319407D01*
X102410427Y-97064131D01*
X102433656Y-96814917D01*
X102468559Y-96594239D01*
X102487159Y-96512578D01*
X102531056Y-96360114D01*
X102585083Y-96199871D01*
X102643680Y-96045664D01*
X102701291Y-95911310D01*
X102752357Y-95810627D01*
X102790697Y-95757939D01*
X102828171Y-95745484D01*
X102880141Y-95769805D01*
G36*
X108997750Y-100599875D02*
X108981875Y-100615750D01*
X108966000Y-100599875D01*
X108981875Y-100584000D01*
X108997750Y-100599875D01*
X108997750Y-100599875D01*
G37*
X108997750Y-100599875D02*
X108981875Y-100615750D01*
X108966000Y-100599875D01*
X108981875Y-100584000D01*
X108997750Y-100599875D01*
G04 #@! TD*
D12*
G04 #@! TO.C,ARDUINO1*
X147500000Y-103000000D03*
D13*
X114480000Y-118240000D03*
X144960000Y-103000000D03*
X117020000Y-118240000D03*
X142420000Y-103000000D03*
X119560000Y-118240000D03*
X139880000Y-103000000D03*
X122100000Y-118240000D03*
X137340000Y-103000000D03*
X124640000Y-118240000D03*
X134800000Y-103000000D03*
X127180000Y-118240000D03*
X132260000Y-103000000D03*
X129720000Y-118240000D03*
X129720000Y-103000000D03*
X132260000Y-118240000D03*
X127180000Y-103000000D03*
X134800000Y-118240000D03*
X124640000Y-103000000D03*
X137340000Y-118240000D03*
X122100000Y-103000000D03*
X139880000Y-118240000D03*
X119560000Y-103000000D03*
X142420000Y-118240000D03*
X117020000Y-103000000D03*
X144960000Y-118240000D03*
X114480000Y-103000000D03*
X147500000Y-118240000D03*
X111940000Y-103000000D03*
X111940000Y-118240000D03*
G04 #@! TD*
D14*
G04 #@! TO.C,C2*
X110490000Y-123190000D03*
X110490000Y-128190000D03*
G04 #@! TD*
G04 #@! TO.C,C3*
X162306000Y-116078000D03*
X157306000Y-116078000D03*
G04 #@! TD*
D15*
G04 #@! TO.C,J3*
X185801000Y-105410000D03*
D16*
X185801000Y-107950000D03*
X185801000Y-110490000D03*
X185801000Y-113030000D03*
X185801000Y-115570000D03*
G04 #@! TD*
D14*
G04 #@! TO.C,SW1*
X113792000Y-95178000D03*
X113792000Y-90678000D03*
X120292000Y-95178000D03*
X120292000Y-90678000D03*
G04 #@! TD*
G04 #@! TO.C,SW2*
X130810000Y-95178000D03*
X130810000Y-90678000D03*
X137310000Y-95178000D03*
X137310000Y-90678000D03*
G04 #@! TD*
D17*
G04 #@! TO.C,U2*
X162306000Y-121920000D03*
D18*
X141986000Y-129540000D03*
X159766000Y-121920000D03*
X144526000Y-129540000D03*
X157226000Y-121920000D03*
X147066000Y-129540000D03*
X154686000Y-121920000D03*
X149606000Y-129540000D03*
X152146000Y-121920000D03*
X152146000Y-129540000D03*
X149606000Y-121920000D03*
X154686000Y-129540000D03*
X147066000Y-121920000D03*
X157226000Y-129540000D03*
X144526000Y-121920000D03*
X159766000Y-129540000D03*
X141986000Y-121920000D03*
X162306000Y-129540000D03*
G04 #@! TD*
D17*
G04 #@! TO.C,U3*
X137160000Y-121920000D03*
D18*
X116840000Y-129540000D03*
X134620000Y-121920000D03*
X119380000Y-129540000D03*
X132080000Y-121920000D03*
X121920000Y-129540000D03*
X129540000Y-121920000D03*
X124460000Y-129540000D03*
X127000000Y-121920000D03*
X127000000Y-129540000D03*
X124460000Y-121920000D03*
X129540000Y-129540000D03*
X121920000Y-121920000D03*
X132080000Y-129540000D03*
X119380000Y-121920000D03*
X134620000Y-129540000D03*
X116840000Y-121920000D03*
X137160000Y-129540000D03*
G04 #@! TD*
D15*
G04 #@! TO.C,J1*
X147500000Y-96500000D03*
D16*
X147500000Y-93960000D03*
X147500000Y-91420000D03*
X147500000Y-88880000D03*
G04 #@! TD*
D15*
G04 #@! TO.C,J2*
X178500000Y-96500000D03*
D16*
X178500000Y-93960000D03*
X178500000Y-91420000D03*
X178500000Y-88880000D03*
G04 #@! TD*
D19*
G04 #@! TO.C,V1*
X180500000Y-144250000D03*
X182500000Y-143000000D03*
X183750000Y-141000000D03*
X183750000Y-138500000D03*
X182500000Y-136500000D03*
X180500000Y-135250000D03*
X176000000Y-136500000D03*
X174750000Y-138500000D03*
X174750000Y-141000000D03*
X176000000Y-143000000D03*
X178000000Y-144250000D03*
X178000000Y-135250000D03*
G04 #@! TD*
G04 #@! TO.C,V2*
X167500000Y-144250000D03*
X169500000Y-143000000D03*
X170750000Y-141000000D03*
X170750000Y-138500000D03*
X169500000Y-136500000D03*
X167500000Y-135250000D03*
X163000000Y-136500000D03*
X161750000Y-138500000D03*
X161750000Y-141000000D03*
X163000000Y-143000000D03*
X165000000Y-144250000D03*
X165000000Y-135250000D03*
G04 #@! TD*
G04 #@! TO.C,V3*
X154500000Y-144250000D03*
X156500000Y-143000000D03*
X157750000Y-141000000D03*
X157750000Y-138500000D03*
X156500000Y-136500000D03*
X154500000Y-135250000D03*
X150000000Y-136500000D03*
X148750000Y-138500000D03*
X148750000Y-141000000D03*
X150000000Y-143000000D03*
X152000000Y-144250000D03*
X152000000Y-135250000D03*
G04 #@! TD*
G04 #@! TO.C,V4*
X141500000Y-144250000D03*
X143500000Y-143000000D03*
X144750000Y-141000000D03*
X144750000Y-138500000D03*
X143500000Y-136500000D03*
X141500000Y-135250000D03*
X137000000Y-136500000D03*
X135750000Y-138500000D03*
X135750000Y-141000000D03*
X137000000Y-143000000D03*
X139000000Y-144250000D03*
X139000000Y-135250000D03*
G04 #@! TD*
G04 #@! TO.C,V5*
X128250000Y-144250000D03*
X130250000Y-143000000D03*
X131500000Y-141000000D03*
X131500000Y-138500000D03*
X130250000Y-136500000D03*
X128250000Y-135250000D03*
X123750000Y-136500000D03*
X122500000Y-138500000D03*
X122500000Y-141000000D03*
X123750000Y-143000000D03*
X125750000Y-144250000D03*
X125750000Y-135250000D03*
G04 #@! TD*
G04 #@! TO.C,V6*
X115042000Y-144327000D03*
X117042000Y-143077000D03*
X118292000Y-141077000D03*
X118292000Y-138577000D03*
X117042000Y-136577000D03*
X115042000Y-135327000D03*
X110542000Y-136577000D03*
X109292000Y-138577000D03*
X109292000Y-141077000D03*
X110542000Y-143077000D03*
X112542000Y-144327000D03*
X112542000Y-135327000D03*
G04 #@! TD*
G04 #@! TO.C,R1*
X187706000Y-139446000D03*
D13*
X187706000Y-136906000D03*
G04 #@! TD*
G04 #@! TO.C,R2*
X173609000Y-146304000D03*
D19*
X171069000Y-146304000D03*
G04 #@! TD*
G04 #@! TO.C,R3*
X158051500Y-146304000D03*
D13*
X160591500Y-146304000D03*
G04 #@! TD*
G04 #@! TO.C,R4*
X147701000Y-146304000D03*
D19*
X145161000Y-146304000D03*
G04 #@! TD*
G04 #@! TO.C,R5*
X132080000Y-146304000D03*
D13*
X134620000Y-146304000D03*
G04 #@! TD*
G04 #@! TO.C,R6*
X121158000Y-146304000D03*
D19*
X118618000Y-146304000D03*
G04 #@! TD*
M02*
