G04 #@! TF.FileFunction,Copper,L1,Top,Signal*
%FSLAX46Y46*%
G04 Gerber Fmt 4.6, Leading zero omitted, Abs format (unit mm)*
G04 Created by KiCad (PCBNEW 4.0.6) date 07/11/18 12:50:33*
%MOMM*%
%LPD*%
G01*
G04 APERTURE LIST*
%ADD10C,0.100000*%
%ADD11R,1.600000X1.600000*%
%ADD12O,1.600000X1.600000*%
%ADD13C,2.000000*%
%ADD14R,1.700000X1.700000*%
%ADD15O,1.700000X1.700000*%
%ADD16R,1.600000X2.400000*%
%ADD17O,1.600000X2.400000*%
%ADD18C,1.600000*%
%ADD19C,0.800000*%
%ADD20C,0.600000*%
%ADD21C,1.000000*%
%ADD22C,0.250000*%
%ADD23C,0.600000*%
%ADD24C,1.000000*%
%ADD25C,2.000000*%
%ADD26C,0.254000*%
G04 APERTURE END LIST*
D10*
X106500000Y-83996400D02*
X186500000Y-83996400D01*
X101500000Y-88996400D02*
G75*
G02X106500000Y-83996400I5000000J0D01*
G01*
X101500000Y-143996400D02*
X101500000Y-88996400D01*
X106500000Y-148996400D02*
G75*
G02X101500000Y-143996400I0J5000000D01*
G01*
X186500000Y-148996400D02*
X106500000Y-148996400D01*
X191500000Y-143996400D02*
G75*
G02X186500000Y-148996400I-5000000J0D01*
G01*
X191500000Y-88996400D02*
X191500000Y-143996400D01*
X186500000Y-83996400D02*
G75*
G02X191500000Y-88996400I0J-5000000D01*
G01*
X189100001Y-87996399D02*
G75*
G03X189100001Y-87996399I-1600000J0D01*
G01*
X107100000Y-144996400D02*
G75*
G03X107100000Y-144996400I-1600000J0D01*
G01*
X189100001Y-144996400D02*
G75*
G03X189100001Y-144996400I-1600000J0D01*
G01*
X107100000Y-87996399D02*
G75*
G03X107100000Y-87996399I-1600000J0D01*
G01*
D11*
X147500000Y-103000000D03*
D12*
X114480000Y-118240000D03*
X144960000Y-103000000D03*
X117020000Y-118240000D03*
X142420000Y-103000000D03*
X119560000Y-118240000D03*
X139880000Y-103000000D03*
X122100000Y-118240000D03*
X137340000Y-103000000D03*
X124640000Y-118240000D03*
X134800000Y-103000000D03*
X127180000Y-118240000D03*
X132260000Y-103000000D03*
X129720000Y-118240000D03*
X129720000Y-103000000D03*
X132260000Y-118240000D03*
X127180000Y-103000000D03*
X134800000Y-118240000D03*
X124640000Y-103000000D03*
X137340000Y-118240000D03*
X122100000Y-103000000D03*
X139880000Y-118240000D03*
X119560000Y-103000000D03*
X142420000Y-118240000D03*
X117020000Y-103000000D03*
X144960000Y-118240000D03*
X114480000Y-103000000D03*
X147500000Y-118240000D03*
X111940000Y-103000000D03*
X111940000Y-118240000D03*
D13*
X110490000Y-123190000D03*
X110490000Y-128190000D03*
X162306000Y-116078000D03*
X157306000Y-116078000D03*
D14*
X185801000Y-105410000D03*
D15*
X185801000Y-107950000D03*
X185801000Y-110490000D03*
X185801000Y-113030000D03*
X185801000Y-115570000D03*
D13*
X113792000Y-95178000D03*
X113792000Y-90678000D03*
X120292000Y-95178000D03*
X120292000Y-90678000D03*
X130810000Y-95178000D03*
X130810000Y-90678000D03*
X137310000Y-95178000D03*
X137310000Y-90678000D03*
D16*
X162306000Y-121920000D03*
D17*
X141986000Y-129540000D03*
X159766000Y-121920000D03*
X144526000Y-129540000D03*
X157226000Y-121920000D03*
X147066000Y-129540000D03*
X154686000Y-121920000D03*
X149606000Y-129540000D03*
X152146000Y-121920000D03*
X152146000Y-129540000D03*
X149606000Y-121920000D03*
X154686000Y-129540000D03*
X147066000Y-121920000D03*
X157226000Y-129540000D03*
X144526000Y-121920000D03*
X159766000Y-129540000D03*
X141986000Y-121920000D03*
X162306000Y-129540000D03*
D16*
X137160000Y-121920000D03*
D17*
X116840000Y-129540000D03*
X134620000Y-121920000D03*
X119380000Y-129540000D03*
X132080000Y-121920000D03*
X121920000Y-129540000D03*
X129540000Y-121920000D03*
X124460000Y-129540000D03*
X127000000Y-121920000D03*
X127000000Y-129540000D03*
X124460000Y-121920000D03*
X129540000Y-129540000D03*
X121920000Y-121920000D03*
X132080000Y-129540000D03*
X119380000Y-121920000D03*
X134620000Y-129540000D03*
X116840000Y-121920000D03*
X137160000Y-129540000D03*
D14*
X147500000Y-96500000D03*
D15*
X147500000Y-93960000D03*
X147500000Y-91420000D03*
X147500000Y-88880000D03*
D14*
X178500000Y-96500000D03*
D15*
X178500000Y-93960000D03*
X178500000Y-91420000D03*
X178500000Y-88880000D03*
D18*
X180500000Y-144250000D03*
X182500000Y-143000000D03*
X183750000Y-141000000D03*
X183750000Y-138500000D03*
X182500000Y-136500000D03*
X180500000Y-135250000D03*
X176000000Y-136500000D03*
X174750000Y-138500000D03*
X174750000Y-141000000D03*
X176000000Y-143000000D03*
X178000000Y-144250000D03*
X178000000Y-135250000D03*
X167500000Y-144250000D03*
X169500000Y-143000000D03*
X170750000Y-141000000D03*
X170750000Y-138500000D03*
X169500000Y-136500000D03*
X167500000Y-135250000D03*
X163000000Y-136500000D03*
X161750000Y-138500000D03*
X161750000Y-141000000D03*
X163000000Y-143000000D03*
X165000000Y-144250000D03*
X165000000Y-135250000D03*
X154500000Y-144250000D03*
X156500000Y-143000000D03*
X157750000Y-141000000D03*
X157750000Y-138500000D03*
X156500000Y-136500000D03*
X154500000Y-135250000D03*
X150000000Y-136500000D03*
X148750000Y-138500000D03*
X148750000Y-141000000D03*
X150000000Y-143000000D03*
X152000000Y-144250000D03*
X152000000Y-135250000D03*
X141500000Y-144250000D03*
X143500000Y-143000000D03*
X144750000Y-141000000D03*
X144750000Y-138500000D03*
X143500000Y-136500000D03*
X141500000Y-135250000D03*
X137000000Y-136500000D03*
X135750000Y-138500000D03*
X135750000Y-141000000D03*
X137000000Y-143000000D03*
X139000000Y-144250000D03*
X139000000Y-135250000D03*
X128250000Y-144250000D03*
X130250000Y-143000000D03*
X131500000Y-141000000D03*
X131500000Y-138500000D03*
X130250000Y-136500000D03*
X128250000Y-135250000D03*
X123750000Y-136500000D03*
X122500000Y-138500000D03*
X122500000Y-141000000D03*
X123750000Y-143000000D03*
X125750000Y-144250000D03*
X125750000Y-135250000D03*
X115042000Y-144327000D03*
X117042000Y-143077000D03*
X118292000Y-141077000D03*
X118292000Y-138577000D03*
X117042000Y-136577000D03*
X115042000Y-135327000D03*
X110542000Y-136577000D03*
X109292000Y-138577000D03*
X109292000Y-141077000D03*
X110542000Y-143077000D03*
X112542000Y-144327000D03*
X112542000Y-135327000D03*
X187706000Y-139446000D03*
D12*
X187706000Y-134366000D03*
D18*
X171069000Y-146304000D03*
D12*
X176149000Y-146304000D03*
D18*
X158051500Y-146304000D03*
D12*
X163131500Y-146304000D03*
D18*
X145161000Y-146304000D03*
D12*
X150241000Y-146304000D03*
D18*
X132080000Y-146304000D03*
D12*
X137160000Y-146304000D03*
D18*
X118618000Y-146304000D03*
D12*
X123698000Y-146304000D03*
D19*
X175260000Y-91440000D03*
X152400000Y-91440000D03*
X154940000Y-91440000D03*
X157480000Y-91440000D03*
X160020000Y-91440000D03*
X162560000Y-91440000D03*
X165100000Y-91440000D03*
X167640000Y-91440000D03*
X170180000Y-91440000D03*
X172720000Y-91440000D03*
D20*
X170688000Y-125476000D03*
X180848000Y-125476000D03*
X178308000Y-125476000D03*
X175768000Y-125476000D03*
X173228000Y-125476000D03*
X170688000Y-115824000D03*
X175768000Y-115824000D03*
X178308000Y-115824000D03*
X180848000Y-115824000D03*
X183388000Y-115824000D03*
X173228000Y-115824000D03*
X183388000Y-121412000D03*
X180848000Y-121412000D03*
X178308000Y-121412000D03*
X175768000Y-121412000D03*
X173228000Y-121412000D03*
X170688000Y-121412000D03*
X184277000Y-132080000D03*
X150876000Y-119634000D03*
X132080000Y-99060000D03*
X143510000Y-99060000D03*
X129540000Y-99060000D03*
X127000000Y-99060000D03*
X123190000Y-99060000D03*
X119380000Y-99060000D03*
X115570000Y-99060000D03*
X111760000Y-99060000D03*
X111760000Y-106934000D03*
X111760000Y-109982000D03*
X114554000Y-109982000D03*
X116840000Y-113538000D03*
X114554000Y-113538000D03*
X111760000Y-113538000D03*
X128778000Y-147828000D03*
X123190000Y-127127000D03*
X120650000Y-127127000D03*
X118110000Y-127127000D03*
X124206000Y-147828000D03*
X125730000Y-147828000D03*
X127254000Y-147828000D03*
X185674000Y-133350000D03*
X144018000Y-127508000D03*
X154432000Y-146812000D03*
X155702000Y-112522000D03*
X153162000Y-111506000D03*
X147320000Y-114046000D03*
D21*
X175260000Y-108712000D03*
D20*
X150749000Y-148082000D03*
X169672000Y-133858000D03*
X155702000Y-131826000D03*
X140208000Y-147320000D03*
X143383000Y-146939000D03*
X157226000Y-134620000D03*
X133096000Y-133604000D03*
X139192000Y-131826000D03*
X135890000Y-127762000D03*
X171958000Y-134620000D03*
X160528000Y-135382000D03*
X134620000Y-133858000D03*
X172212000Y-140208000D03*
X152654000Y-141986000D03*
X159512000Y-144526000D03*
X134112000Y-143002000D03*
X150876000Y-134366000D03*
X136271000Y-110998000D03*
D22*
X152400000Y-91440000D02*
X154940000Y-91440000D01*
X157480000Y-91440000D02*
X160020000Y-91440000D01*
X162560000Y-91440000D02*
X165100000Y-91440000D01*
X167640000Y-91440000D02*
X170180000Y-91440000D01*
X172720000Y-91440000D02*
X175260000Y-91440000D01*
X178500000Y-88880000D02*
X147500000Y-88880000D01*
X178500000Y-88880000D02*
X182479000Y-88880000D01*
X187960000Y-94488000D02*
X187960000Y-113411000D01*
X187960000Y-113411000D02*
X185801000Y-115570000D01*
X187960000Y-94361000D02*
X187960000Y-94488000D01*
X182479000Y-88880000D02*
X187960000Y-94361000D01*
X180848000Y-125476000D02*
X178308000Y-125476000D01*
X175768000Y-125476000D02*
X173228000Y-125476000D01*
X173228000Y-115824000D02*
X170688000Y-115824000D01*
X178308000Y-115824000D02*
X175768000Y-115824000D01*
X183388000Y-115824000D02*
X180848000Y-115824000D01*
X180848000Y-121412000D02*
X183388000Y-121412000D01*
X175768000Y-121412000D02*
X178308000Y-121412000D01*
X170688000Y-121412000D02*
X173228000Y-121412000D01*
X157306000Y-116078000D02*
X157226000Y-116078000D01*
X157226000Y-116078000D02*
X153670000Y-119634000D01*
X153670000Y-119634000D02*
X150876000Y-119634000D01*
X157306000Y-116078000D02*
X157306000Y-116666000D01*
X157306000Y-116666000D02*
X159258000Y-118618000D01*
X182753000Y-118618000D02*
X185801000Y-115570000D01*
X159258000Y-118618000D02*
X182753000Y-118618000D01*
X132080000Y-99060000D02*
X143510000Y-99060000D01*
X127000000Y-99060000D02*
X129540000Y-99060000D01*
X119380000Y-99060000D02*
X123190000Y-99060000D01*
X111760000Y-99060000D02*
X115570000Y-99060000D01*
X127000000Y-99060000D02*
X123190000Y-99060000D01*
X111760000Y-109982000D02*
X111760000Y-106934000D01*
X115316000Y-109982000D02*
X114554000Y-109982000D01*
X116840000Y-111506000D02*
X115316000Y-109982000D01*
X116840000Y-113538000D02*
X116840000Y-111506000D01*
X111760000Y-113538000D02*
X114554000Y-113538000D01*
X138938000Y-145288000D02*
X138938000Y-146812000D01*
X137922000Y-147828000D02*
X128778000Y-147828000D01*
X138938000Y-146812000D02*
X137922000Y-147828000D01*
X139000000Y-145226000D02*
X138938000Y-145288000D01*
X139000000Y-144250000D02*
X139000000Y-145226000D01*
X116840000Y-129540000D02*
X116840000Y-127254000D01*
X120777000Y-127254000D02*
X123190000Y-127127000D01*
X120650000Y-127127000D02*
X120777000Y-127254000D01*
X116967000Y-127127000D02*
X118110000Y-127127000D01*
X116840000Y-127254000D02*
X116967000Y-127127000D01*
X124206000Y-147828000D02*
X123190000Y-147828000D01*
X127254000Y-147828000D02*
X125730000Y-147828000D01*
D23*
X186055000Y-134747000D02*
X186055000Y-133731000D01*
X186055000Y-133731000D02*
X185674000Y-133350000D01*
X186055000Y-142113000D02*
X186055000Y-134747000D01*
X181864000Y-146304000D02*
X186055000Y-142113000D01*
X178054000Y-146304000D02*
X181864000Y-146304000D01*
D24*
X141986000Y-129540000D02*
X141986000Y-128016000D01*
X141986000Y-128016000D02*
X142494000Y-127508000D01*
X142494000Y-127508000D02*
X144018000Y-127508000D01*
D22*
X110490000Y-128190000D02*
X112950000Y-128190000D01*
X112950000Y-128190000D02*
X114300000Y-129540000D01*
X114300000Y-129540000D02*
X116840000Y-129540000D01*
D23*
X165100000Y-146812000D02*
X166370000Y-148082000D01*
X178054000Y-146304000D02*
X178000000Y-144250000D01*
X176276000Y-148082000D02*
X178054000Y-146304000D01*
X166370000Y-148082000D02*
X176276000Y-148082000D01*
X165100000Y-146812000D02*
X165100000Y-144350000D01*
X163830000Y-148082000D02*
X165100000Y-146812000D01*
X155702000Y-148082000D02*
X163830000Y-148082000D01*
X154432000Y-146812000D02*
X155702000Y-148082000D01*
X165100000Y-144350000D02*
X165000000Y-144250000D01*
X112470000Y-144780000D02*
X113000000Y-144250000D01*
D22*
X122100000Y-118240000D02*
X122100000Y-121740000D01*
X122100000Y-121740000D02*
X121920000Y-121920000D01*
X183388000Y-110490000D02*
X185801000Y-110490000D01*
X181356000Y-112522000D02*
X183388000Y-110490000D01*
X155702000Y-112522000D02*
X181356000Y-112522000D01*
X184404000Y-107950000D02*
X184404000Y-107950000D01*
X180848000Y-111506000D02*
X184404000Y-107950000D01*
X174244000Y-111506000D02*
X180848000Y-111506000D01*
X153162000Y-111506000D02*
X174244000Y-111506000D01*
X186563000Y-107950000D02*
X184404000Y-107950000D01*
X143510000Y-115570000D02*
X144780000Y-115570000D01*
X127242618Y-104394511D02*
X138430000Y-115570000D01*
X138430000Y-115570000D02*
X143510000Y-115570000D01*
X146304000Y-117348000D02*
X146304000Y-119380000D01*
X146304000Y-119380000D02*
X147320000Y-120396000D01*
X147320000Y-121920000D02*
X147320000Y-120396000D01*
X127242618Y-104394511D02*
X127180000Y-103000000D01*
X146304000Y-117094000D02*
X146304000Y-117348000D01*
X144780000Y-115570000D02*
X146304000Y-117094000D01*
X137310000Y-95178000D02*
X130810000Y-95178000D01*
X132260000Y-103000000D02*
X132260000Y-101780000D01*
X130810000Y-100330000D02*
X130810000Y-95178000D01*
X132260000Y-101780000D02*
X130810000Y-100330000D01*
X124640000Y-103000000D02*
X124714000Y-104394000D01*
X144780000Y-120650000D02*
X144780000Y-121920000D01*
X143764000Y-119634000D02*
X144780000Y-120650000D01*
X143764000Y-117094000D02*
X143764000Y-119634000D01*
X142748000Y-116078000D02*
X143764000Y-117094000D01*
X136398000Y-116078000D02*
X142748000Y-116078000D01*
X124714000Y-104394000D02*
X136398000Y-116078000D01*
X122100000Y-103000000D02*
X122174000Y-104394000D01*
X137160000Y-120396000D02*
X137160000Y-121920000D01*
X136144000Y-119380000D02*
X137160000Y-120396000D01*
X136144000Y-117094000D02*
X136144000Y-119380000D01*
X135128000Y-116078000D02*
X136144000Y-117094000D01*
X133858000Y-116078000D02*
X135128000Y-116078000D01*
X122174000Y-104394000D02*
X133858000Y-116078000D01*
D25*
X154432000Y-99314000D02*
X154432000Y-98552000D01*
X154432000Y-106934000D02*
X154432000Y-99314000D01*
X152380000Y-96500000D02*
X147500000Y-96500000D01*
X154432000Y-98552000D02*
X152380000Y-96500000D01*
X147320000Y-114046000D02*
X154432000Y-106934000D01*
X154432000Y-106934000D02*
X173482000Y-106934000D01*
X173482000Y-106934000D02*
X175260000Y-108712000D01*
D23*
X137160000Y-146304000D02*
X136144000Y-146304000D01*
X129413000Y-146304000D02*
X123698000Y-146304000D01*
X130810000Y-144907000D02*
X129413000Y-146304000D01*
X134747000Y-144907000D02*
X130810000Y-144907000D01*
X136144000Y-146304000D02*
X134747000Y-144907000D01*
X150241000Y-147574000D02*
X150241000Y-146304000D01*
X150749000Y-148082000D02*
X150241000Y-147574000D01*
D22*
X119560000Y-103000000D02*
X119634000Y-104394000D01*
X134620000Y-120396000D02*
X134620000Y-121920000D01*
X133604000Y-119380000D02*
X134620000Y-120396000D01*
X133604000Y-117094000D02*
X133604000Y-119380000D01*
X132588000Y-116078000D02*
X133604000Y-117094000D01*
X131318000Y-116078000D02*
X132588000Y-116078000D01*
X119634000Y-104394000D02*
X131318000Y-116078000D01*
X117020000Y-103000000D02*
X117094000Y-104394000D01*
X132080000Y-120396000D02*
X132080000Y-121920000D01*
X131064000Y-119380000D02*
X132080000Y-120396000D01*
X131064000Y-117094000D02*
X131064000Y-119380000D01*
X130048000Y-116078000D02*
X131064000Y-117094000D01*
X128778000Y-116078000D02*
X130048000Y-116078000D01*
X117094000Y-104394000D02*
X128778000Y-116078000D01*
X114480000Y-103000000D02*
X114554000Y-104140000D01*
X129540000Y-120396000D02*
X129540000Y-121920000D01*
X128524000Y-119380000D02*
X129540000Y-120396000D01*
X128524000Y-117094000D02*
X128524000Y-119380000D01*
X126238000Y-116078000D02*
X127508000Y-116078000D01*
X127508000Y-116078000D02*
X128524000Y-117094000D01*
X126238000Y-116078000D02*
X126238000Y-116078000D01*
X114554000Y-104140000D02*
X114554000Y-104394000D01*
X114554000Y-104394000D02*
X126238000Y-116078000D01*
X111940000Y-103000000D02*
X111940000Y-104320000D01*
X111940000Y-104320000D02*
X123698000Y-116078000D01*
X127000000Y-120396000D02*
X127000000Y-121920000D01*
X125984000Y-119380000D02*
X127000000Y-120396000D01*
X125984000Y-117094000D02*
X125984000Y-119380000D01*
X124968000Y-116078000D02*
X125984000Y-117094000D01*
X123698000Y-116078000D02*
X124968000Y-116078000D01*
D25*
X110490000Y-123190000D02*
X115570000Y-123190000D01*
X115570000Y-123190000D02*
X116840000Y-121920000D01*
D23*
X118292000Y-141077000D02*
X118292000Y-141660000D01*
X118292000Y-141660000D02*
X118618000Y-141986000D01*
X118618000Y-141986000D02*
X118618000Y-146304000D01*
D22*
X144526000Y-129540000D02*
X144526000Y-133604000D01*
X144526000Y-133604000D02*
X143500000Y-134630000D01*
X143500000Y-134630000D02*
X143500000Y-136500000D01*
X168402000Y-134620000D02*
X167500000Y-135250000D01*
X169164000Y-133858000D02*
X168402000Y-134620000D01*
X169672000Y-133858000D02*
X169164000Y-133858000D01*
X155702000Y-131826000D02*
X159004000Y-131826000D01*
X159004000Y-131826000D02*
X160528000Y-133350000D01*
X160528000Y-133350000D02*
X166116000Y-133350000D01*
X166116000Y-133350000D02*
X167132000Y-134366000D01*
X167132000Y-134366000D02*
X167500000Y-135250000D01*
X128250000Y-135250000D02*
X128270000Y-134366000D01*
X115824000Y-134366000D02*
X115500000Y-135250000D01*
X116332000Y-133858000D02*
X115824000Y-134366000D01*
X127762000Y-133858000D02*
X116332000Y-133858000D01*
X128270000Y-134366000D02*
X127762000Y-133858000D01*
X145542000Y-126492000D02*
X141986000Y-126492000D01*
X141986000Y-126492000D02*
X140462000Y-128016000D01*
X140462000Y-128016000D02*
X140462000Y-133096000D01*
X140462000Y-133096000D02*
X141500000Y-134134000D01*
X141500000Y-134134000D02*
X141500000Y-135250000D01*
X147066000Y-129540000D02*
X147066000Y-128016000D01*
X147066000Y-128016000D02*
X145542000Y-126492000D01*
D23*
X110871000Y-146431000D02*
X115443000Y-146431000D01*
X106680000Y-142240000D02*
X106680000Y-128524000D01*
X149606000Y-127508000D02*
X147320031Y-125224822D01*
X147320031Y-125224822D02*
X125730000Y-125222000D01*
X149606000Y-129540000D02*
X149606000Y-127508000D01*
X110871000Y-146431000D02*
X106680000Y-142240000D01*
X109982000Y-125222000D02*
X125730000Y-125222000D01*
X106680000Y-128524000D02*
X109982000Y-125222000D01*
X117042000Y-144832000D02*
X117042000Y-143077000D01*
X115443000Y-146431000D02*
X117042000Y-144832000D01*
X148844000Y-131572000D02*
X149098000Y-131318000D01*
X146304000Y-134112000D02*
X148844000Y-131572000D01*
X152146000Y-131064000D02*
X152146000Y-129540000D01*
X151892000Y-131318000D02*
X152146000Y-131064000D01*
X149098000Y-131318000D02*
X151892000Y-131318000D01*
X146304000Y-143002000D02*
X146304000Y-143256000D01*
X146304000Y-134112000D02*
X146304000Y-143002000D01*
X143500000Y-146050000D02*
X141478000Y-146050000D01*
X141478000Y-146050000D02*
X140208000Y-147320000D01*
X146304000Y-143256000D02*
X143500000Y-146050000D01*
X146304000Y-134112000D02*
X146303972Y-134112028D01*
X144526000Y-148082000D02*
X146304000Y-148082000D01*
X149352000Y-132334000D02*
X153924000Y-132334000D01*
X153924000Y-132334000D02*
X154686000Y-131572000D01*
X154686000Y-129540000D02*
X154686000Y-131572000D01*
X147320000Y-142748000D02*
X147320000Y-134366000D01*
X147320000Y-134366000D02*
X149352000Y-132334000D01*
X143383000Y-146939000D02*
X144526000Y-148082000D01*
X147320000Y-147066000D02*
X147320000Y-142748000D01*
X146304000Y-148082000D02*
X147320000Y-147066000D01*
X157226000Y-134620000D02*
X159766000Y-137160000D01*
X159766000Y-137160000D02*
X159766000Y-141732000D01*
X159766000Y-141732000D02*
X158242000Y-143256000D01*
X156756000Y-143256000D02*
X158242000Y-143256000D01*
X156756000Y-143256000D02*
X156500000Y-143000000D01*
X160020000Y-129540000D02*
X160020000Y-131572000D01*
X170942000Y-143001700D02*
X169500000Y-143000000D01*
X170941701Y-143001700D02*
X170942000Y-143001700D01*
X173203195Y-141192985D02*
X170941701Y-143001700D01*
X172974000Y-134112000D02*
X173203195Y-141192985D01*
X171450000Y-132588000D02*
X172974000Y-134112000D01*
X161036000Y-132588000D02*
X171450000Y-132588000D01*
X160020000Y-131572000D02*
X161036000Y-132588000D01*
X182500000Y-143000000D02*
X183640000Y-143000000D01*
X183896000Y-143002000D02*
X185166000Y-141732000D01*
X183642000Y-143002000D02*
X183896000Y-143002000D01*
X183640000Y-143000000D02*
X183642000Y-143002000D01*
X162560000Y-129540000D02*
X162560000Y-131064000D01*
X185166000Y-135382000D02*
X185166000Y-141732000D01*
X181356000Y-131572000D02*
X185166000Y-135382000D01*
X163068000Y-131572000D02*
X181356000Y-131572000D01*
X162560000Y-131064000D02*
X163068000Y-131572000D01*
D22*
X138684000Y-142748000D02*
X140716000Y-142748000D01*
X141500000Y-143532000D02*
X140716000Y-142748000D01*
X136144000Y-144526000D02*
X137160000Y-144526000D01*
X135128000Y-143510000D02*
X136144000Y-144526000D01*
X135128000Y-143510000D02*
X135128000Y-143256000D01*
X137160000Y-144526000D02*
X137668000Y-144018000D01*
X138684000Y-142748000D02*
X137668000Y-144018000D01*
X177546000Y-142748000D02*
X179832000Y-142748000D01*
X168148000Y-145034000D02*
X175260000Y-145034000D01*
X175260000Y-145034000D02*
X175514000Y-145034000D01*
X175514000Y-145034000D02*
X176276000Y-144272000D01*
X176276000Y-144272000D02*
X176530000Y-144272000D01*
X176530000Y-144272000D02*
X177546000Y-142748000D01*
X167500000Y-144250000D02*
X168148000Y-145034000D01*
X179832000Y-142748000D02*
X180594000Y-143510000D01*
X180594000Y-143510000D02*
X180500000Y-144250000D01*
X141500000Y-143532000D02*
X141500000Y-144250000D01*
X135128000Y-143256000D02*
X134620000Y-143764000D01*
X133350000Y-143510000D02*
X133604000Y-143764000D01*
X131572000Y-143510000D02*
X133350000Y-143510000D01*
X130810000Y-144272000D02*
X131572000Y-143510000D01*
X130556000Y-144272000D02*
X130810000Y-144272000D01*
X130556000Y-144272000D02*
X128250000Y-144250000D01*
X134620000Y-143764000D02*
X133604000Y-143764000D01*
X133604000Y-138938000D02*
X133604000Y-141224000D01*
X133604000Y-134112000D02*
X133604000Y-138938000D01*
X133096000Y-133604000D02*
X133604000Y-134112000D01*
X135128000Y-142748000D02*
X135128000Y-143256000D01*
X133604000Y-141224000D02*
X135128000Y-142748000D01*
X121920000Y-129540000D02*
X121920000Y-131318000D01*
X121920000Y-131318000D02*
X123444000Y-132842000D01*
X123444000Y-132842000D02*
X132334000Y-132842000D01*
X132334000Y-132842000D02*
X133096000Y-133604000D01*
X115500000Y-144250000D02*
X115548000Y-144250000D01*
X137160137Y-125989904D02*
X138684000Y-127508000D01*
X138684000Y-127508000D02*
X138684000Y-131318000D01*
X138684000Y-131318000D02*
X139192000Y-131826000D01*
X137928418Y-125977891D02*
X138938000Y-125984000D01*
X138938000Y-125984000D02*
X147066000Y-125984000D01*
X147066000Y-125984000D02*
X148336000Y-127254000D01*
X148336000Y-127254000D02*
X148336000Y-130810000D01*
X148336000Y-130810000D02*
X145034000Y-134112000D01*
X145034000Y-134112000D02*
X145034000Y-138216000D01*
X145034000Y-138216000D02*
X144750000Y-138500000D01*
X124460000Y-129540000D02*
X124460000Y-128016000D01*
X124460000Y-128016000D02*
X126492000Y-125984000D01*
X126492000Y-125984000D02*
X137160137Y-125989904D01*
X137160137Y-125989904D02*
X137928418Y-125977891D01*
X165000000Y-135250000D02*
X165100000Y-136144000D01*
X169418000Y-134620000D02*
X171958000Y-134620000D01*
X167894000Y-136652000D02*
X169418000Y-134620000D01*
X165608000Y-136652000D02*
X167894000Y-136652000D01*
X165100000Y-136144000D02*
X165608000Y-136652000D01*
X138938000Y-134366000D02*
X138938000Y-135188000D01*
X138938000Y-135188000D02*
X139000000Y-135250000D01*
X135890000Y-131318000D02*
X138938000Y-134366000D01*
X138938000Y-135188000D02*
X139000000Y-135250000D01*
X127000000Y-129540000D02*
X127000000Y-128016000D01*
X127000000Y-128016000D02*
X128270000Y-126746000D01*
X128270000Y-126746000D02*
X134874000Y-126746000D01*
X134874000Y-126746000D02*
X135890000Y-127762000D01*
X135890000Y-127762000D02*
X135890000Y-131318000D01*
X158750000Y-133604000D02*
X160528000Y-135382000D01*
X149860000Y-133604000D02*
X158750000Y-133604000D01*
X148844000Y-134620000D02*
X149860000Y-133604000D01*
X148844000Y-135382000D02*
X148844000Y-134620000D01*
X149352000Y-135890000D02*
X148844000Y-135382000D01*
X149606000Y-135890000D02*
X149352000Y-135890000D01*
X150000000Y-136500000D02*
X150000000Y-136284000D01*
X150000000Y-136284000D02*
X149606000Y-135890000D01*
X129540000Y-129540000D02*
X129540000Y-128016000D01*
X129540000Y-128016000D02*
X130302000Y-127254000D01*
X130302000Y-127254000D02*
X132334000Y-127254000D01*
X132334000Y-127254000D02*
X133350000Y-128270000D01*
X133350000Y-128270000D02*
X133350000Y-131318000D01*
X133350000Y-131318000D02*
X136398000Y-134366000D01*
X136398000Y-134366000D02*
X136398000Y-135898000D01*
X136398000Y-135898000D02*
X137000000Y-136500000D01*
X150000000Y-136500000D02*
X150470000Y-136500000D01*
X129540000Y-129540000D02*
X129540000Y-130556000D01*
X157988000Y-133096000D02*
X159258000Y-133096000D01*
X148082000Y-137414000D02*
X148082000Y-134620000D01*
X148082000Y-134620000D02*
X149606000Y-133096000D01*
X149606000Y-133096000D02*
X157988000Y-133096000D01*
X148750000Y-138082000D02*
X148082000Y-137414000D01*
X161290000Y-135128000D02*
X161290000Y-138040000D01*
X159258000Y-133096000D02*
X161290000Y-135128000D01*
X161290000Y-138040000D02*
X161750000Y-138500000D01*
X148750000Y-138500000D02*
X148750000Y-138082000D01*
X132080000Y-129540000D02*
X132080000Y-131318000D01*
X132080000Y-131318000D02*
X134620000Y-133858000D01*
X134620000Y-133858000D02*
X134620000Y-136144000D01*
X134620000Y-136144000D02*
X135750000Y-137274000D01*
X135750000Y-137274000D02*
X135750000Y-138500000D01*
X161750000Y-141000000D02*
X168656000Y-140970000D01*
X171958000Y-139700000D02*
X172212000Y-140208000D01*
X171450000Y-139700000D02*
X171958000Y-139700000D01*
X169926000Y-139700000D02*
X171450000Y-139700000D01*
X168656000Y-140970000D02*
X169926000Y-139700000D01*
X155956000Y-144272000D02*
X158496000Y-144272000D01*
X153416000Y-142748000D02*
X154940000Y-142748000D01*
X152654000Y-141986000D02*
X153416000Y-142748000D01*
X155956000Y-144272000D02*
X154940000Y-142748000D01*
X161750000Y-142034000D02*
X161750000Y-141000000D01*
X160274000Y-143510000D02*
X161750000Y-142034000D01*
X159258000Y-143510000D02*
X160274000Y-143510000D01*
X158496000Y-144272000D02*
X159258000Y-143510000D01*
X138430000Y-136652000D02*
X138430000Y-139700000D01*
X138430000Y-139700000D02*
X137130000Y-141000000D01*
X137130000Y-141000000D02*
X135750000Y-141000000D01*
X137668000Y-135382000D02*
X138430000Y-136652000D01*
X137414000Y-134112000D02*
X137414000Y-135128000D01*
X137414000Y-135128000D02*
X137668000Y-135382000D01*
X134620000Y-129540000D02*
X134620000Y-131318000D01*
X134620000Y-131318000D02*
X136398000Y-133096000D01*
X136398000Y-133096000D02*
X136398000Y-133096000D01*
X136398000Y-133096000D02*
X137414000Y-134112000D01*
X168910000Y-144272000D02*
X175006000Y-144272000D01*
X167640000Y-142494000D02*
X168148000Y-143002000D01*
X168148000Y-143002000D02*
X168910000Y-144272000D01*
X163576000Y-142494000D02*
X167640000Y-142494000D01*
X175514000Y-143764000D02*
X176000000Y-143000000D01*
X175006000Y-144272000D02*
X175514000Y-143764000D01*
X163000000Y-143000000D02*
X163576000Y-142494000D01*
X163000000Y-144086000D02*
X163000000Y-143000000D01*
X162560000Y-144526000D02*
X163000000Y-144086000D01*
X159512000Y-144526000D02*
X162560000Y-144526000D01*
X152146000Y-138684000D02*
X152146000Y-140854000D01*
X152146000Y-140854000D02*
X150000000Y-143000000D01*
X151638000Y-137922000D02*
X151638000Y-138176000D01*
X151638000Y-138176000D02*
X152146000Y-138684000D01*
X123750000Y-143000000D02*
X125222000Y-141478000D01*
X134112000Y-143002000D02*
X132080000Y-143002000D01*
X132080000Y-143002000D02*
X131318000Y-142240000D01*
X131318000Y-142240000D02*
X130048000Y-141478000D01*
X125222000Y-141478000D02*
X130048000Y-141478000D01*
X150622000Y-135382000D02*
X150876000Y-134366000D01*
X151638000Y-136906000D02*
X150622000Y-135382000D01*
X151638000Y-137922000D02*
X151638000Y-136906000D01*
X137160000Y-129540000D02*
X137160000Y-131318000D01*
X138014000Y-141986000D02*
X137000000Y-143000000D01*
X138684000Y-141986000D02*
X138014000Y-141986000D01*
X140208000Y-140462000D02*
X138684000Y-141986000D01*
X140208000Y-133858000D02*
X140208000Y-140462000D01*
X139446000Y-133096000D02*
X140208000Y-133858000D01*
X138938000Y-133096000D02*
X139446000Y-133096000D01*
X137160000Y-131318000D02*
X138938000Y-133096000D01*
X123750000Y-143000000D02*
X123750000Y-142950000D01*
X149606000Y-121920000D02*
X149606000Y-117602000D01*
X137287000Y-104267000D02*
X137340000Y-103000000D01*
X146304000Y-115570000D02*
X145669000Y-114935000D01*
X145669000Y-114935000D02*
X145669000Y-112776000D01*
X145669000Y-112776000D02*
X139065000Y-106045000D01*
X139065000Y-106045000D02*
X137287000Y-104267000D01*
X147574000Y-115570000D02*
X146304000Y-115570000D01*
X149606000Y-117602000D02*
X147574000Y-115570000D01*
X129667000Y-104394000D02*
X129720000Y-103000000D01*
X136271000Y-110998000D02*
X129667000Y-104394000D01*
D26*
G36*
X188146142Y-85022258D02*
X189541676Y-85954723D01*
X190474142Y-87350256D01*
X190815000Y-89063867D01*
X190815000Y-143928933D01*
X190474142Y-145642544D01*
X189541676Y-147038077D01*
X188146142Y-147970542D01*
X186432533Y-148311400D01*
X151666148Y-148311400D01*
X151683838Y-148268799D01*
X151684162Y-147896833D01*
X151542117Y-147553057D01*
X151293577Y-147304083D01*
X151594880Y-146853151D01*
X151704113Y-146304000D01*
X151678851Y-146177000D01*
X156616611Y-146177000D01*
X156616252Y-146588187D01*
X156834257Y-147115800D01*
X157237577Y-147519824D01*
X157764809Y-147738750D01*
X158335687Y-147739248D01*
X158863300Y-147521243D01*
X159267324Y-147117923D01*
X159486250Y-146590691D01*
X159486611Y-146177000D01*
X161693649Y-146177000D01*
X161668387Y-146304000D01*
X161777620Y-146853151D01*
X162088689Y-147318698D01*
X162554236Y-147629767D01*
X163103387Y-147739000D01*
X163159613Y-147739000D01*
X163708764Y-147629767D01*
X164174311Y-147318698D01*
X164485380Y-146853151D01*
X164594613Y-146304000D01*
X164569351Y-146177000D01*
X169634111Y-146177000D01*
X169633752Y-146588187D01*
X169851757Y-147115800D01*
X170255077Y-147519824D01*
X170782309Y-147738750D01*
X171353187Y-147739248D01*
X171880800Y-147521243D01*
X172284824Y-147117923D01*
X172503750Y-146590691D01*
X172504111Y-146177000D01*
X174711149Y-146177000D01*
X174685887Y-146304000D01*
X174795120Y-146853151D01*
X175106189Y-147318698D01*
X175571736Y-147629767D01*
X176120887Y-147739000D01*
X176177113Y-147739000D01*
X176726264Y-147629767D01*
X177191811Y-147318698D01*
X177502880Y-146853151D01*
X177612113Y-146304000D01*
X177586851Y-146177000D01*
X181610000Y-146177000D01*
X181657789Y-146167666D01*
X181699803Y-146139803D01*
X182843206Y-144996400D01*
X185215001Y-144996400D01*
X185388936Y-145870832D01*
X185884262Y-146612139D01*
X186625569Y-147107465D01*
X187500001Y-147281400D01*
X188374433Y-147107465D01*
X189115740Y-146612139D01*
X189611066Y-145870832D01*
X189785001Y-144996400D01*
X189611066Y-144121968D01*
X189115740Y-143380661D01*
X188374433Y-142885335D01*
X187500001Y-142711400D01*
X186625569Y-142885335D01*
X185884262Y-143380661D01*
X185388936Y-144121968D01*
X185215001Y-144996400D01*
X182843206Y-144996400D01*
X183904246Y-143935360D01*
X184253809Y-143865827D01*
X184557145Y-143663145D01*
X185827145Y-142393145D01*
X186029827Y-142089809D01*
X186101000Y-141732000D01*
X186101000Y-139730187D01*
X186270752Y-139730187D01*
X186488757Y-140257800D01*
X186892077Y-140661824D01*
X187419309Y-140880750D01*
X187990187Y-140881248D01*
X188517800Y-140663243D01*
X188921824Y-140259923D01*
X189140750Y-139732691D01*
X189141248Y-139161813D01*
X188923243Y-138634200D01*
X188519923Y-138230176D01*
X187992691Y-138011250D01*
X187421813Y-138010752D01*
X186894200Y-138228757D01*
X186490176Y-138632077D01*
X186271250Y-139159309D01*
X186270752Y-139730187D01*
X186101000Y-139730187D01*
X186101000Y-135382000D01*
X186029827Y-135024191D01*
X185827145Y-134720855D01*
X185444177Y-134337887D01*
X186271000Y-134337887D01*
X186271000Y-134394113D01*
X186380233Y-134943264D01*
X186691302Y-135408811D01*
X187156849Y-135719880D01*
X187706000Y-135829113D01*
X188255151Y-135719880D01*
X188720698Y-135408811D01*
X189031767Y-134943264D01*
X189141000Y-134394113D01*
X189141000Y-134337887D01*
X189031767Y-133788736D01*
X188720698Y-133323189D01*
X188255151Y-133012120D01*
X187706000Y-132902887D01*
X187156849Y-133012120D01*
X186691302Y-133323189D01*
X186380233Y-133788736D01*
X186271000Y-134337887D01*
X185444177Y-134337887D01*
X182017145Y-130910855D01*
X181713809Y-130708173D01*
X181356000Y-130637000D01*
X163556998Y-130637000D01*
X163631767Y-130525101D01*
X163741000Y-129975950D01*
X163741000Y-129104050D01*
X163631767Y-128554899D01*
X163320698Y-128089352D01*
X162855151Y-127778283D01*
X162306000Y-127669050D01*
X161756849Y-127778283D01*
X161291302Y-128089352D01*
X161036000Y-128471438D01*
X160780698Y-128089352D01*
X160315151Y-127778283D01*
X159766000Y-127669050D01*
X159216849Y-127778283D01*
X158751302Y-128089352D01*
X158496000Y-128471438D01*
X158240698Y-128089352D01*
X157775151Y-127778283D01*
X157226000Y-127669050D01*
X156676849Y-127778283D01*
X156211302Y-128089352D01*
X155956000Y-128471438D01*
X155700698Y-128089352D01*
X155235151Y-127778283D01*
X154686000Y-127669050D01*
X154136849Y-127778283D01*
X153671302Y-128089352D01*
X153416000Y-128471438D01*
X153160698Y-128089352D01*
X152695151Y-127778283D01*
X152146000Y-127669050D01*
X151596849Y-127778283D01*
X151131302Y-128089352D01*
X150876000Y-128471438D01*
X150620698Y-128089352D01*
X150541000Y-128036099D01*
X150541000Y-127508000D01*
X150540943Y-127507715D01*
X150541000Y-127507429D01*
X150505366Y-127328856D01*
X150469827Y-127150191D01*
X150469665Y-127149949D01*
X150469608Y-127149663D01*
X150368273Y-126998204D01*
X150267145Y-126846855D01*
X150266903Y-126846693D01*
X150266741Y-126846451D01*
X147980772Y-124563273D01*
X147829005Y-124462000D01*
X147677953Y-124361042D01*
X147677608Y-124360973D01*
X147677312Y-124360776D01*
X147498083Y-124325239D01*
X147320153Y-124289822D01*
X125730122Y-124287000D01*
X125730061Y-124287012D01*
X125730000Y-124287000D01*
X116785240Y-124287000D01*
X117393284Y-123678955D01*
X117854698Y-123370648D01*
X118110000Y-122988562D01*
X118365302Y-123370648D01*
X118830849Y-123681717D01*
X119380000Y-123790950D01*
X119929151Y-123681717D01*
X120394698Y-123370648D01*
X120650000Y-122988562D01*
X120905302Y-123370648D01*
X121370849Y-123681717D01*
X121920000Y-123790950D01*
X122469151Y-123681717D01*
X122934698Y-123370648D01*
X123190000Y-122988562D01*
X123445302Y-123370648D01*
X123910849Y-123681717D01*
X124460000Y-123790950D01*
X125009151Y-123681717D01*
X125474698Y-123370648D01*
X125730000Y-122988562D01*
X125985302Y-123370648D01*
X126450849Y-123681717D01*
X127000000Y-123790950D01*
X127549151Y-123681717D01*
X128014698Y-123370648D01*
X128270000Y-122988562D01*
X128525302Y-123370648D01*
X128990849Y-123681717D01*
X129540000Y-123790950D01*
X130089151Y-123681717D01*
X130554698Y-123370648D01*
X130810000Y-122988562D01*
X131065302Y-123370648D01*
X131530849Y-123681717D01*
X132080000Y-123790950D01*
X132629151Y-123681717D01*
X133094698Y-123370648D01*
X133350000Y-122988562D01*
X133605302Y-123370648D01*
X134070849Y-123681717D01*
X134620000Y-123790950D01*
X135169151Y-123681717D01*
X135634698Y-123370648D01*
X135732251Y-123224650D01*
X135756838Y-123355317D01*
X135895910Y-123571441D01*
X136108110Y-123716431D01*
X136360000Y-123767440D01*
X137960000Y-123767440D01*
X138195317Y-123723162D01*
X138411441Y-123584090D01*
X138556431Y-123371890D01*
X138607440Y-123120000D01*
X138607440Y-120720000D01*
X138563162Y-120484683D01*
X138424090Y-120268559D01*
X138211890Y-120123569D01*
X137960000Y-120072560D01*
X137840365Y-120072560D01*
X137697401Y-119858599D01*
X137508415Y-119669613D01*
X137889151Y-119593880D01*
X138354698Y-119282811D01*
X138610000Y-118900725D01*
X138865302Y-119282811D01*
X139330849Y-119593880D01*
X139880000Y-119703113D01*
X140429151Y-119593880D01*
X140894698Y-119282811D01*
X141150000Y-118900725D01*
X141405302Y-119282811D01*
X141870849Y-119593880D01*
X142420000Y-119703113D01*
X142969151Y-119593880D01*
X143004000Y-119570595D01*
X143004000Y-119634000D01*
X143061852Y-119924839D01*
X143226599Y-120171401D01*
X143519244Y-120464046D01*
X143511302Y-120469352D01*
X143256000Y-120851438D01*
X143000698Y-120469352D01*
X142535151Y-120158283D01*
X141986000Y-120049050D01*
X141436849Y-120158283D01*
X140971302Y-120469352D01*
X140660233Y-120934899D01*
X140551000Y-121484050D01*
X140551000Y-122355950D01*
X140660233Y-122905101D01*
X140971302Y-123370648D01*
X141436849Y-123681717D01*
X141986000Y-123790950D01*
X142535151Y-123681717D01*
X143000698Y-123370648D01*
X143256000Y-122988562D01*
X143511302Y-123370648D01*
X143976849Y-123681717D01*
X144526000Y-123790950D01*
X145075151Y-123681717D01*
X145540698Y-123370648D01*
X145796000Y-122988562D01*
X146051302Y-123370648D01*
X146516849Y-123681717D01*
X147066000Y-123790950D01*
X147615151Y-123681717D01*
X148080698Y-123370648D01*
X148336000Y-122988562D01*
X148591302Y-123370648D01*
X149056849Y-123681717D01*
X149606000Y-123790950D01*
X150155151Y-123681717D01*
X150620698Y-123370648D01*
X150876000Y-122988562D01*
X151131302Y-123370648D01*
X151596849Y-123681717D01*
X152146000Y-123790950D01*
X152695151Y-123681717D01*
X153160698Y-123370648D01*
X153416000Y-122988562D01*
X153671302Y-123370648D01*
X154136849Y-123681717D01*
X154686000Y-123790950D01*
X155235151Y-123681717D01*
X155700698Y-123370648D01*
X155956000Y-122988562D01*
X156211302Y-123370648D01*
X156676849Y-123681717D01*
X157226000Y-123790950D01*
X157775151Y-123681717D01*
X158240698Y-123370648D01*
X158496000Y-122988562D01*
X158751302Y-123370648D01*
X159216849Y-123681717D01*
X159766000Y-123790950D01*
X160315151Y-123681717D01*
X160780698Y-123370648D01*
X160878251Y-123224650D01*
X160902838Y-123355317D01*
X161041910Y-123571441D01*
X161254110Y-123716431D01*
X161506000Y-123767440D01*
X163106000Y-123767440D01*
X163341317Y-123723162D01*
X163557441Y-123584090D01*
X163702431Y-123371890D01*
X163753440Y-123120000D01*
X163753440Y-120720000D01*
X163709162Y-120484683D01*
X163570090Y-120268559D01*
X163357890Y-120123569D01*
X163106000Y-120072560D01*
X161506000Y-120072560D01*
X161270683Y-120116838D01*
X161054559Y-120255910D01*
X160909569Y-120468110D01*
X160879403Y-120617074D01*
X160780698Y-120469352D01*
X160315151Y-120158283D01*
X159766000Y-120049050D01*
X159216849Y-120158283D01*
X158751302Y-120469352D01*
X158496000Y-120851438D01*
X158240698Y-120469352D01*
X157775151Y-120158283D01*
X157226000Y-120049050D01*
X156676849Y-120158283D01*
X156211302Y-120469352D01*
X155956000Y-120851438D01*
X155700698Y-120469352D01*
X155235151Y-120158283D01*
X154686000Y-120049050D01*
X154136849Y-120158283D01*
X153671302Y-120469352D01*
X153416000Y-120851438D01*
X153160698Y-120469352D01*
X152695151Y-120158283D01*
X152146000Y-120049050D01*
X151596849Y-120158283D01*
X151131302Y-120469352D01*
X150876000Y-120851438D01*
X150620698Y-120469352D01*
X150366000Y-120299168D01*
X150366000Y-117602000D01*
X150308148Y-117311161D01*
X150254274Y-117230532D01*
X156333073Y-117230532D01*
X156431736Y-117497387D01*
X157041461Y-117723908D01*
X157691460Y-117699856D01*
X158180264Y-117497387D01*
X158278927Y-117230532D01*
X157306000Y-116257605D01*
X156333073Y-117230532D01*
X150254274Y-117230532D01*
X150143401Y-117064599D01*
X148892263Y-115813461D01*
X155660092Y-115813461D01*
X155684144Y-116463460D01*
X155886613Y-116952264D01*
X156153468Y-117050927D01*
X157126395Y-116078000D01*
X157485605Y-116078000D01*
X158458532Y-117050927D01*
X158725387Y-116952264D01*
X158929893Y-116401795D01*
X160670716Y-116401795D01*
X160919106Y-117002943D01*
X161378637Y-117463278D01*
X161979352Y-117712716D01*
X162629795Y-117713284D01*
X163230943Y-117464894D01*
X163691278Y-117005363D01*
X163940716Y-116404648D01*
X163941133Y-115926890D01*
X184359524Y-115926890D01*
X184529355Y-116336924D01*
X184919642Y-116765183D01*
X185444108Y-117011486D01*
X185674000Y-116890819D01*
X185674000Y-115697000D01*
X185928000Y-115697000D01*
X185928000Y-116890819D01*
X186157892Y-117011486D01*
X186682358Y-116765183D01*
X187072645Y-116336924D01*
X187242476Y-115926890D01*
X187121155Y-115697000D01*
X185928000Y-115697000D01*
X185674000Y-115697000D01*
X184480845Y-115697000D01*
X184359524Y-115926890D01*
X163941133Y-115926890D01*
X163941284Y-115754205D01*
X163692894Y-115153057D01*
X163233363Y-114692722D01*
X162632648Y-114443284D01*
X161982205Y-114442716D01*
X161381057Y-114691106D01*
X160920722Y-115150637D01*
X160671284Y-115751352D01*
X160670716Y-116401795D01*
X158929893Y-116401795D01*
X158951908Y-116342539D01*
X158927856Y-115692540D01*
X158725387Y-115203736D01*
X158458532Y-115105073D01*
X157485605Y-116078000D01*
X157126395Y-116078000D01*
X156153468Y-115105073D01*
X155886613Y-115203736D01*
X155660092Y-115813461D01*
X148892263Y-115813461D01*
X148359107Y-115280305D01*
X148476120Y-115202120D01*
X148752771Y-114925468D01*
X156333073Y-114925468D01*
X157306000Y-115898395D01*
X158278927Y-114925468D01*
X158180264Y-114658613D01*
X157570539Y-114432092D01*
X156920540Y-114456144D01*
X156431736Y-114658613D01*
X156333073Y-114925468D01*
X148752771Y-114925468D01*
X152227047Y-111451192D01*
X152226838Y-111691167D01*
X152368883Y-112034943D01*
X152631673Y-112298192D01*
X152975201Y-112440838D01*
X153347167Y-112441162D01*
X153690943Y-112299117D01*
X153724118Y-112266000D01*
X154795897Y-112266000D01*
X154767162Y-112335201D01*
X154766838Y-112707167D01*
X154908883Y-113050943D01*
X155171673Y-113314192D01*
X155515201Y-113456838D01*
X155887167Y-113457162D01*
X156230943Y-113315117D01*
X156264118Y-113282000D01*
X181356000Y-113282000D01*
X181646839Y-113224148D01*
X181893401Y-113059401D01*
X183702802Y-111250000D01*
X184528046Y-111250000D01*
X184721853Y-111540054D01*
X185051026Y-111760000D01*
X184721853Y-111979946D01*
X184399946Y-112461715D01*
X184286907Y-113030000D01*
X184399946Y-113598285D01*
X184721853Y-114080054D01*
X185062553Y-114307702D01*
X184919642Y-114374817D01*
X184529355Y-114803076D01*
X184359524Y-115213110D01*
X184480845Y-115443000D01*
X185674000Y-115443000D01*
X185674000Y-115423000D01*
X185928000Y-115423000D01*
X185928000Y-115443000D01*
X187121155Y-115443000D01*
X187242476Y-115213110D01*
X187072645Y-114803076D01*
X186682358Y-114374817D01*
X186539447Y-114307702D01*
X186880147Y-114080054D01*
X187202054Y-113598285D01*
X187315093Y-113030000D01*
X187202054Y-112461715D01*
X186880147Y-111979946D01*
X186550974Y-111760000D01*
X186880147Y-111540054D01*
X187202054Y-111058285D01*
X187315093Y-110490000D01*
X187202054Y-109921715D01*
X186880147Y-109439946D01*
X186550974Y-109220000D01*
X186880147Y-109000054D01*
X187202054Y-108518285D01*
X187253890Y-108257688D01*
X187265148Y-108240839D01*
X187323000Y-107950000D01*
X187265148Y-107659161D01*
X187253890Y-107642312D01*
X187202054Y-107381715D01*
X186880147Y-106899946D01*
X186838548Y-106872150D01*
X186886317Y-106863162D01*
X187102441Y-106724090D01*
X187247431Y-106511890D01*
X187298440Y-106260000D01*
X187298440Y-104560000D01*
X187254162Y-104324683D01*
X187115090Y-104108559D01*
X186902890Y-103963569D01*
X186651000Y-103912560D01*
X184951000Y-103912560D01*
X184715683Y-103956838D01*
X184499559Y-104095910D01*
X184354569Y-104308110D01*
X184303560Y-104560000D01*
X184303560Y-106260000D01*
X184347838Y-106495317D01*
X184486910Y-106711441D01*
X184699110Y-106856431D01*
X184766541Y-106870086D01*
X184721853Y-106899946D01*
X184528046Y-107190000D01*
X184404000Y-107190000D01*
X184161414Y-107238254D01*
X184113160Y-107247852D01*
X183866599Y-107412599D01*
X180533198Y-110746000D01*
X153724463Y-110746000D01*
X153692327Y-110713808D01*
X153348799Y-110571162D01*
X153107288Y-110570952D01*
X155109239Y-108569000D01*
X172804760Y-108569000D01*
X174103881Y-109868120D01*
X174634313Y-110222543D01*
X175260000Y-110347001D01*
X175885688Y-110222543D01*
X176416120Y-109868120D01*
X176770543Y-109337688D01*
X176895001Y-108712000D01*
X176770543Y-108086313D01*
X176416120Y-107555881D01*
X174638120Y-105777880D01*
X174107688Y-105423457D01*
X173482000Y-105298999D01*
X173481995Y-105299000D01*
X156067000Y-105299000D01*
X156067000Y-98552000D01*
X155988605Y-98157880D01*
X155942543Y-97926312D01*
X155714697Y-97585317D01*
X155588120Y-97395880D01*
X155588117Y-97395878D01*
X153536120Y-95343880D01*
X153005688Y-94989457D01*
X152380000Y-94864999D01*
X152379995Y-94865000D01*
X148676069Y-94865000D01*
X148901054Y-94528285D01*
X149014093Y-93960000D01*
X148901054Y-93391715D01*
X148579147Y-92909946D01*
X148249974Y-92690000D01*
X148579147Y-92470054D01*
X148901054Y-91988285D01*
X149014093Y-91420000D01*
X176985907Y-91420000D01*
X177098946Y-91988285D01*
X177420853Y-92470054D01*
X177750026Y-92690000D01*
X177420853Y-92909946D01*
X177098946Y-93391715D01*
X176985907Y-93960000D01*
X177098946Y-94528285D01*
X177420853Y-95010054D01*
X177462452Y-95037850D01*
X177414683Y-95046838D01*
X177198559Y-95185910D01*
X177053569Y-95398110D01*
X177002560Y-95650000D01*
X177002560Y-97350000D01*
X177046838Y-97585317D01*
X177185910Y-97801441D01*
X177398110Y-97946431D01*
X177650000Y-97997440D01*
X179350000Y-97997440D01*
X179585317Y-97953162D01*
X179801441Y-97814090D01*
X179946431Y-97601890D01*
X179997440Y-97350000D01*
X179997440Y-95650000D01*
X179953162Y-95414683D01*
X179814090Y-95198559D01*
X179601890Y-95053569D01*
X179534459Y-95039914D01*
X179579147Y-95010054D01*
X179901054Y-94528285D01*
X180014093Y-93960000D01*
X179901054Y-93391715D01*
X179579147Y-92909946D01*
X179249974Y-92690000D01*
X179579147Y-92470054D01*
X179901054Y-91988285D01*
X180014093Y-91420000D01*
X179901054Y-90851715D01*
X179579147Y-90369946D01*
X179238447Y-90142298D01*
X179381358Y-90075183D01*
X179771645Y-89646924D01*
X179941476Y-89236890D01*
X179820155Y-89007000D01*
X178627000Y-89007000D01*
X178627000Y-89027000D01*
X178373000Y-89027000D01*
X178373000Y-89007000D01*
X177179845Y-89007000D01*
X177058524Y-89236890D01*
X177228355Y-89646924D01*
X177618642Y-90075183D01*
X177761553Y-90142298D01*
X177420853Y-90369946D01*
X177098946Y-90851715D01*
X176985907Y-91420000D01*
X149014093Y-91420000D01*
X148901054Y-90851715D01*
X148579147Y-90369946D01*
X148238447Y-90142298D01*
X148381358Y-90075183D01*
X148771645Y-89646924D01*
X148941476Y-89236890D01*
X148820155Y-89007000D01*
X147627000Y-89007000D01*
X147627000Y-89027000D01*
X147373000Y-89027000D01*
X147373000Y-89007000D01*
X146179845Y-89007000D01*
X146058524Y-89236890D01*
X146228355Y-89646924D01*
X146618642Y-90075183D01*
X146761553Y-90142298D01*
X146420853Y-90369946D01*
X146098946Y-90851715D01*
X145985907Y-91420000D01*
X146098946Y-91988285D01*
X146420853Y-92470054D01*
X146750026Y-92690000D01*
X146420853Y-92909946D01*
X146098946Y-93391715D01*
X145985907Y-93960000D01*
X146098946Y-94528285D01*
X146420853Y-95010054D01*
X146462452Y-95037850D01*
X146414683Y-95046838D01*
X146198559Y-95185910D01*
X146053569Y-95398110D01*
X146002560Y-95650000D01*
X146002560Y-95854703D01*
X145989457Y-95874313D01*
X145865000Y-96500000D01*
X145989457Y-97125687D01*
X146002560Y-97145297D01*
X146002560Y-97350000D01*
X146046838Y-97585317D01*
X146185910Y-97801441D01*
X146398110Y-97946431D01*
X146650000Y-97997440D01*
X146854703Y-97997440D01*
X146874313Y-98010543D01*
X147500000Y-98135000D01*
X151702760Y-98135000D01*
X152797000Y-99229239D01*
X152797000Y-106256761D01*
X146403907Y-112649853D01*
X146400771Y-112634085D01*
X146373886Y-112491861D01*
X146371867Y-112488776D01*
X146371148Y-112485161D01*
X146290765Y-112364859D01*
X146211495Y-112243741D01*
X139607495Y-105512741D01*
X139604448Y-105510663D01*
X139602401Y-105507599D01*
X138224565Y-104129763D01*
X138354698Y-104042811D01*
X138624986Y-103638297D01*
X138727611Y-103855134D01*
X139142577Y-104231041D01*
X139530961Y-104391904D01*
X139753000Y-104269915D01*
X139753000Y-103127000D01*
X139733000Y-103127000D01*
X139733000Y-102873000D01*
X139753000Y-102873000D01*
X139753000Y-101730085D01*
X140007000Y-101730085D01*
X140007000Y-102873000D01*
X140027000Y-102873000D01*
X140027000Y-103127000D01*
X140007000Y-103127000D01*
X140007000Y-104269915D01*
X140229039Y-104391904D01*
X140617423Y-104231041D01*
X141032389Y-103855134D01*
X141135014Y-103638297D01*
X141405302Y-104042811D01*
X141870849Y-104353880D01*
X142420000Y-104463113D01*
X142969151Y-104353880D01*
X143434698Y-104042811D01*
X143690000Y-103660725D01*
X143945302Y-104042811D01*
X144410849Y-104353880D01*
X144960000Y-104463113D01*
X145509151Y-104353880D01*
X145974698Y-104042811D01*
X146071101Y-103898535D01*
X146096838Y-104035317D01*
X146235910Y-104251441D01*
X146448110Y-104396431D01*
X146700000Y-104447440D01*
X148300000Y-104447440D01*
X148535317Y-104403162D01*
X148751441Y-104264090D01*
X148896431Y-104051890D01*
X148947440Y-103800000D01*
X148947440Y-102200000D01*
X148903162Y-101964683D01*
X148764090Y-101748559D01*
X148551890Y-101603569D01*
X148300000Y-101552560D01*
X146700000Y-101552560D01*
X146464683Y-101596838D01*
X146248559Y-101735910D01*
X146103569Y-101948110D01*
X146072185Y-102103089D01*
X145974698Y-101957189D01*
X145509151Y-101646120D01*
X144960000Y-101536887D01*
X144410849Y-101646120D01*
X143945302Y-101957189D01*
X143690000Y-102339275D01*
X143434698Y-101957189D01*
X142969151Y-101646120D01*
X142420000Y-101536887D01*
X141870849Y-101646120D01*
X141405302Y-101957189D01*
X141135014Y-102361703D01*
X141032389Y-102144866D01*
X140617423Y-101768959D01*
X140229039Y-101608096D01*
X140007000Y-101730085D01*
X139753000Y-101730085D01*
X139530961Y-101608096D01*
X139142577Y-101768959D01*
X138727611Y-102144866D01*
X138624986Y-102361703D01*
X138354698Y-101957189D01*
X137889151Y-101646120D01*
X137340000Y-101536887D01*
X136790849Y-101646120D01*
X136325302Y-101957189D01*
X136070000Y-102339275D01*
X135814698Y-101957189D01*
X135349151Y-101646120D01*
X134800000Y-101536887D01*
X134250849Y-101646120D01*
X133785302Y-101957189D01*
X133530000Y-102339275D01*
X133274698Y-101957189D01*
X133020000Y-101787005D01*
X133020000Y-101780000D01*
X132962148Y-101489161D01*
X132797401Y-101242599D01*
X131570000Y-100015198D01*
X131570000Y-96633047D01*
X131734943Y-96564894D01*
X132195278Y-96105363D01*
X132264773Y-95938000D01*
X135854953Y-95938000D01*
X135923106Y-96102943D01*
X136382637Y-96563278D01*
X136983352Y-96812716D01*
X137633795Y-96813284D01*
X138234943Y-96564894D01*
X138695278Y-96105363D01*
X138944716Y-95504648D01*
X138945284Y-94854205D01*
X138696894Y-94253057D01*
X138237363Y-93792722D01*
X137636648Y-93543284D01*
X136986205Y-93542716D01*
X136385057Y-93791106D01*
X135924722Y-94250637D01*
X135855227Y-94418000D01*
X132265047Y-94418000D01*
X132196894Y-94253057D01*
X131737363Y-93792722D01*
X131136648Y-93543284D01*
X130486205Y-93542716D01*
X129885057Y-93791106D01*
X129424722Y-94250637D01*
X129175284Y-94851352D01*
X129174716Y-95501795D01*
X129423106Y-96102943D01*
X129882637Y-96563278D01*
X130050000Y-96632773D01*
X130050000Y-100330000D01*
X130107852Y-100620839D01*
X130272599Y-100867401D01*
X131315489Y-101910291D01*
X131245302Y-101957189D01*
X130990000Y-102339275D01*
X130734698Y-101957189D01*
X130269151Y-101646120D01*
X129720000Y-101536887D01*
X129170849Y-101646120D01*
X128705302Y-101957189D01*
X128450000Y-102339275D01*
X128194698Y-101957189D01*
X127729151Y-101646120D01*
X127180000Y-101536887D01*
X126630849Y-101646120D01*
X126165302Y-101957189D01*
X125910000Y-102339275D01*
X125654698Y-101957189D01*
X125189151Y-101646120D01*
X124640000Y-101536887D01*
X124090849Y-101646120D01*
X123625302Y-101957189D01*
X123370000Y-102339275D01*
X123114698Y-101957189D01*
X122649151Y-101646120D01*
X122100000Y-101536887D01*
X121550849Y-101646120D01*
X121085302Y-101957189D01*
X120830000Y-102339275D01*
X120574698Y-101957189D01*
X120109151Y-101646120D01*
X119560000Y-101536887D01*
X119010849Y-101646120D01*
X118545302Y-101957189D01*
X118290000Y-102339275D01*
X118034698Y-101957189D01*
X117569151Y-101646120D01*
X117020000Y-101536887D01*
X116470849Y-101646120D01*
X116005302Y-101957189D01*
X115750000Y-102339275D01*
X115494698Y-101957189D01*
X115029151Y-101646120D01*
X114480000Y-101536887D01*
X113930849Y-101646120D01*
X113465302Y-101957189D01*
X113210000Y-102339275D01*
X112954698Y-101957189D01*
X112489151Y-101646120D01*
X111940000Y-101536887D01*
X111390849Y-101646120D01*
X110925302Y-101957189D01*
X110614233Y-102422736D01*
X110505000Y-102971887D01*
X110505000Y-103028113D01*
X110614233Y-103577264D01*
X110925302Y-104042811D01*
X111180000Y-104212995D01*
X111180000Y-104320000D01*
X111237852Y-104610839D01*
X111402599Y-104857401D01*
X123160599Y-116615401D01*
X123407161Y-116780148D01*
X123698000Y-116838000D01*
X124332764Y-116838000D01*
X124090849Y-116886120D01*
X123625302Y-117197189D01*
X123370000Y-117579275D01*
X123114698Y-117197189D01*
X122649151Y-116886120D01*
X122100000Y-116776887D01*
X121550849Y-116886120D01*
X121085302Y-117197189D01*
X120830000Y-117579275D01*
X120574698Y-117197189D01*
X120109151Y-116886120D01*
X119560000Y-116776887D01*
X119010849Y-116886120D01*
X118545302Y-117197189D01*
X118290000Y-117579275D01*
X118034698Y-117197189D01*
X117569151Y-116886120D01*
X117020000Y-116776887D01*
X116470849Y-116886120D01*
X116005302Y-117197189D01*
X115750000Y-117579275D01*
X115494698Y-117197189D01*
X115029151Y-116886120D01*
X114480000Y-116776887D01*
X113930849Y-116886120D01*
X113465302Y-117197189D01*
X113210000Y-117579275D01*
X112954698Y-117197189D01*
X112489151Y-116886120D01*
X111940000Y-116776887D01*
X111390849Y-116886120D01*
X110925302Y-117197189D01*
X110614233Y-117662736D01*
X110505000Y-118211887D01*
X110505000Y-118268113D01*
X110614233Y-118817264D01*
X110925302Y-119282811D01*
X111390849Y-119593880D01*
X111940000Y-119703113D01*
X112489151Y-119593880D01*
X112954698Y-119282811D01*
X113210000Y-118900725D01*
X113465302Y-119282811D01*
X113930849Y-119593880D01*
X114480000Y-119703113D01*
X115029151Y-119593880D01*
X115494698Y-119282811D01*
X115750000Y-118900725D01*
X116005302Y-119282811D01*
X116470849Y-119593880D01*
X117020000Y-119703113D01*
X117569151Y-119593880D01*
X118034698Y-119282811D01*
X118290000Y-118900725D01*
X118545302Y-119282811D01*
X119010849Y-119593880D01*
X119560000Y-119703113D01*
X120109151Y-119593880D01*
X120574698Y-119282811D01*
X120830000Y-118900725D01*
X121085302Y-119282811D01*
X121340000Y-119452995D01*
X121340000Y-120178896D01*
X120905302Y-120469352D01*
X120650000Y-120851438D01*
X120394698Y-120469352D01*
X119929151Y-120158283D01*
X119380000Y-120049050D01*
X118830849Y-120158283D01*
X118365302Y-120469352D01*
X118110000Y-120851438D01*
X117854698Y-120469352D01*
X117389151Y-120158283D01*
X116840000Y-120049050D01*
X116290849Y-120158283D01*
X115825302Y-120469352D01*
X115516994Y-120930767D01*
X114892760Y-121555000D01*
X110491426Y-121555000D01*
X110166205Y-121554716D01*
X109565057Y-121803106D01*
X109104722Y-122262637D01*
X108855284Y-122863352D01*
X108854716Y-123513795D01*
X109103106Y-124114943D01*
X109457257Y-124469714D01*
X109320855Y-124560855D01*
X106018855Y-127862855D01*
X105816173Y-128166191D01*
X105745000Y-128524000D01*
X105745000Y-142240000D01*
X105816173Y-142597809D01*
X105952169Y-142801342D01*
X105500000Y-142711400D01*
X104625568Y-142885335D01*
X103884261Y-143380661D01*
X103388935Y-144121968D01*
X103215000Y-144996400D01*
X103388935Y-145870832D01*
X103884261Y-146612139D01*
X104625568Y-147107465D01*
X105500000Y-147281400D01*
X106374432Y-147107465D01*
X107115739Y-146612139D01*
X107611065Y-145870832D01*
X107785000Y-144996400D01*
X107703281Y-144585571D01*
X110209855Y-147092145D01*
X110513191Y-147294827D01*
X110871000Y-147366000D01*
X115443000Y-147366000D01*
X115800809Y-147294827D01*
X116104145Y-147092145D01*
X117019289Y-146177000D01*
X117183111Y-146177000D01*
X117182752Y-146588187D01*
X117400757Y-147115800D01*
X117804077Y-147519824D01*
X118331309Y-147738750D01*
X118902187Y-147739248D01*
X119429800Y-147521243D01*
X119833824Y-147117923D01*
X120052750Y-146590691D01*
X120053111Y-146177000D01*
X122260149Y-146177000D01*
X122234887Y-146304000D01*
X122344120Y-146853151D01*
X122655189Y-147318698D01*
X123120736Y-147629767D01*
X123669887Y-147739000D01*
X123726113Y-147739000D01*
X124275264Y-147629767D01*
X124740811Y-147318698D01*
X124794064Y-147239000D01*
X129413000Y-147239000D01*
X129770809Y-147167827D01*
X130074145Y-146965145D01*
X130644921Y-146394369D01*
X130644752Y-146588187D01*
X130862757Y-147115800D01*
X131266077Y-147519824D01*
X131793309Y-147738750D01*
X132364187Y-147739248D01*
X132891800Y-147521243D01*
X133295824Y-147117923D01*
X133514750Y-146590691D01*
X133515111Y-146177000D01*
X134694710Y-146177000D01*
X135482855Y-146965145D01*
X135786191Y-147167827D01*
X136051664Y-147220633D01*
X136117189Y-147318698D01*
X136582736Y-147629767D01*
X137131887Y-147739000D01*
X137188113Y-147739000D01*
X137737264Y-147629767D01*
X138202811Y-147318698D01*
X138513880Y-146853151D01*
X138623113Y-146304000D01*
X138597851Y-146177000D01*
X140028710Y-146177000D01*
X139547146Y-146658564D01*
X139415808Y-146789673D01*
X139273162Y-147133201D01*
X139272838Y-147505167D01*
X139414883Y-147848943D01*
X139677673Y-148112192D01*
X140021201Y-148254838D01*
X140393167Y-148255162D01*
X140736943Y-148113117D01*
X141000192Y-147850327D01*
X141000355Y-147849935D01*
X141865290Y-146985000D01*
X142447959Y-146985000D01*
X142447838Y-147124167D01*
X142589883Y-147467943D01*
X142852673Y-147731192D01*
X142853065Y-147731355D01*
X143433110Y-148311400D01*
X106567467Y-148311400D01*
X104853856Y-147970542D01*
X103458323Y-147038076D01*
X102525858Y-145642542D01*
X102185000Y-143928933D01*
X102185000Y-95501795D01*
X112156716Y-95501795D01*
X112405106Y-96102943D01*
X112864637Y-96563278D01*
X113465352Y-96812716D01*
X114115795Y-96813284D01*
X114716943Y-96564894D01*
X115177278Y-96105363D01*
X115426716Y-95504648D01*
X115426718Y-95501795D01*
X118656716Y-95501795D01*
X118905106Y-96102943D01*
X119364637Y-96563278D01*
X119965352Y-96812716D01*
X120615795Y-96813284D01*
X121216943Y-96564894D01*
X121677278Y-96105363D01*
X121926716Y-95504648D01*
X121927284Y-94854205D01*
X121678894Y-94253057D01*
X121219363Y-93792722D01*
X120618648Y-93543284D01*
X119968205Y-93542716D01*
X119367057Y-93791106D01*
X118906722Y-94250637D01*
X118657284Y-94851352D01*
X118656716Y-95501795D01*
X115426718Y-95501795D01*
X115427284Y-94854205D01*
X115178894Y-94253057D01*
X114719363Y-93792722D01*
X114118648Y-93543284D01*
X113468205Y-93542716D01*
X112867057Y-93791106D01*
X112406722Y-94250637D01*
X112157284Y-94851352D01*
X112156716Y-95501795D01*
X102185000Y-95501795D01*
X102185000Y-91830532D01*
X112819073Y-91830532D01*
X112917736Y-92097387D01*
X113527461Y-92323908D01*
X114177460Y-92299856D01*
X114666264Y-92097387D01*
X114764927Y-91830532D01*
X119319073Y-91830532D01*
X119417736Y-92097387D01*
X120027461Y-92323908D01*
X120677460Y-92299856D01*
X121166264Y-92097387D01*
X121264927Y-91830532D01*
X129837073Y-91830532D01*
X129935736Y-92097387D01*
X130545461Y-92323908D01*
X131195460Y-92299856D01*
X131684264Y-92097387D01*
X131782927Y-91830532D01*
X136337073Y-91830532D01*
X136435736Y-92097387D01*
X137045461Y-92323908D01*
X137695460Y-92299856D01*
X138184264Y-92097387D01*
X138282927Y-91830532D01*
X137310000Y-90857605D01*
X136337073Y-91830532D01*
X131782927Y-91830532D01*
X130810000Y-90857605D01*
X129837073Y-91830532D01*
X121264927Y-91830532D01*
X120292000Y-90857605D01*
X119319073Y-91830532D01*
X114764927Y-91830532D01*
X113792000Y-90857605D01*
X112819073Y-91830532D01*
X102185000Y-91830532D01*
X102185000Y-90413461D01*
X112146092Y-90413461D01*
X112170144Y-91063460D01*
X112372613Y-91552264D01*
X112639468Y-91650927D01*
X113612395Y-90678000D01*
X113971605Y-90678000D01*
X114944532Y-91650927D01*
X115211387Y-91552264D01*
X115437908Y-90942539D01*
X115418331Y-90413461D01*
X118646092Y-90413461D01*
X118670144Y-91063460D01*
X118872613Y-91552264D01*
X119139468Y-91650927D01*
X120112395Y-90678000D01*
X120471605Y-90678000D01*
X121444532Y-91650927D01*
X121711387Y-91552264D01*
X121937908Y-90942539D01*
X121918331Y-90413461D01*
X129164092Y-90413461D01*
X129188144Y-91063460D01*
X129390613Y-91552264D01*
X129657468Y-91650927D01*
X130630395Y-90678000D01*
X130989605Y-90678000D01*
X131962532Y-91650927D01*
X132229387Y-91552264D01*
X132455908Y-90942539D01*
X132436331Y-90413461D01*
X135664092Y-90413461D01*
X135688144Y-91063460D01*
X135890613Y-91552264D01*
X136157468Y-91650927D01*
X137130395Y-90678000D01*
X137489605Y-90678000D01*
X138462532Y-91650927D01*
X138729387Y-91552264D01*
X138955908Y-90942539D01*
X138931856Y-90292540D01*
X138729387Y-89803736D01*
X138462532Y-89705073D01*
X137489605Y-90678000D01*
X137130395Y-90678000D01*
X136157468Y-89705073D01*
X135890613Y-89803736D01*
X135664092Y-90413461D01*
X132436331Y-90413461D01*
X132431856Y-90292540D01*
X132229387Y-89803736D01*
X131962532Y-89705073D01*
X130989605Y-90678000D01*
X130630395Y-90678000D01*
X129657468Y-89705073D01*
X129390613Y-89803736D01*
X129164092Y-90413461D01*
X121918331Y-90413461D01*
X121913856Y-90292540D01*
X121711387Y-89803736D01*
X121444532Y-89705073D01*
X120471605Y-90678000D01*
X120112395Y-90678000D01*
X119139468Y-89705073D01*
X118872613Y-89803736D01*
X118646092Y-90413461D01*
X115418331Y-90413461D01*
X115413856Y-90292540D01*
X115211387Y-89803736D01*
X114944532Y-89705073D01*
X113971605Y-90678000D01*
X113612395Y-90678000D01*
X112639468Y-89705073D01*
X112372613Y-89803736D01*
X112146092Y-90413461D01*
X102185000Y-90413461D01*
X102185000Y-89063867D01*
X102397332Y-87996399D01*
X103215000Y-87996399D01*
X103388935Y-88870831D01*
X103884261Y-89612138D01*
X104625568Y-90107464D01*
X105500000Y-90281399D01*
X106374432Y-90107464D01*
X107115739Y-89612138D01*
X107173650Y-89525468D01*
X112819073Y-89525468D01*
X113792000Y-90498395D01*
X114764927Y-89525468D01*
X119319073Y-89525468D01*
X120292000Y-90498395D01*
X121264927Y-89525468D01*
X129837073Y-89525468D01*
X130810000Y-90498395D01*
X131782927Y-89525468D01*
X136337073Y-89525468D01*
X137310000Y-90498395D01*
X138282927Y-89525468D01*
X138184264Y-89258613D01*
X137574539Y-89032092D01*
X136924540Y-89056144D01*
X136435736Y-89258613D01*
X136337073Y-89525468D01*
X131782927Y-89525468D01*
X131684264Y-89258613D01*
X131074539Y-89032092D01*
X130424540Y-89056144D01*
X129935736Y-89258613D01*
X129837073Y-89525468D01*
X121264927Y-89525468D01*
X121166264Y-89258613D01*
X120556539Y-89032092D01*
X119906540Y-89056144D01*
X119417736Y-89258613D01*
X119319073Y-89525468D01*
X114764927Y-89525468D01*
X114666264Y-89258613D01*
X114056539Y-89032092D01*
X113406540Y-89056144D01*
X112917736Y-89258613D01*
X112819073Y-89525468D01*
X107173650Y-89525468D01*
X107611065Y-88870831D01*
X107680230Y-88523110D01*
X146058524Y-88523110D01*
X146179845Y-88753000D01*
X147373000Y-88753000D01*
X147373000Y-87559181D01*
X147627000Y-87559181D01*
X147627000Y-88753000D01*
X148820155Y-88753000D01*
X148941476Y-88523110D01*
X177058524Y-88523110D01*
X177179845Y-88753000D01*
X178373000Y-88753000D01*
X178373000Y-87559181D01*
X178627000Y-87559181D01*
X178627000Y-88753000D01*
X179820155Y-88753000D01*
X179941476Y-88523110D01*
X179771645Y-88113076D01*
X179665314Y-87996399D01*
X185215001Y-87996399D01*
X185388936Y-88870831D01*
X185884262Y-89612138D01*
X186625569Y-90107464D01*
X187500001Y-90281399D01*
X188374433Y-90107464D01*
X189115740Y-89612138D01*
X189611066Y-88870831D01*
X189785001Y-87996399D01*
X189611066Y-87121967D01*
X189115740Y-86380660D01*
X188374433Y-85885334D01*
X187500001Y-85711399D01*
X186625569Y-85885334D01*
X185884262Y-86380660D01*
X185388936Y-87121967D01*
X185215001Y-87996399D01*
X179665314Y-87996399D01*
X179381358Y-87684817D01*
X178856892Y-87438514D01*
X178627000Y-87559181D01*
X178373000Y-87559181D01*
X178143108Y-87438514D01*
X177618642Y-87684817D01*
X177228355Y-88113076D01*
X177058524Y-88523110D01*
X148941476Y-88523110D01*
X148771645Y-88113076D01*
X148381358Y-87684817D01*
X147856892Y-87438514D01*
X147627000Y-87559181D01*
X147373000Y-87559181D01*
X147143108Y-87438514D01*
X146618642Y-87684817D01*
X146228355Y-88113076D01*
X146058524Y-88523110D01*
X107680230Y-88523110D01*
X107785000Y-87996399D01*
X107611065Y-87121967D01*
X107115739Y-86380660D01*
X106374432Y-85885334D01*
X105500000Y-85711399D01*
X104625568Y-85885334D01*
X103884261Y-86380660D01*
X103388935Y-87121967D01*
X103215000Y-87996399D01*
X102397332Y-87996399D01*
X102525858Y-87350258D01*
X103458323Y-85954724D01*
X104853856Y-85022258D01*
X106567467Y-84681400D01*
X186432533Y-84681400D01*
X188146142Y-85022258D01*
X188146142Y-85022258D01*
G37*
X188146142Y-85022258D02*
X189541676Y-85954723D01*
X190474142Y-87350256D01*
X190815000Y-89063867D01*
X190815000Y-143928933D01*
X190474142Y-145642544D01*
X189541676Y-147038077D01*
X188146142Y-147970542D01*
X186432533Y-148311400D01*
X151666148Y-148311400D01*
X151683838Y-148268799D01*
X151684162Y-147896833D01*
X151542117Y-147553057D01*
X151293577Y-147304083D01*
X151594880Y-146853151D01*
X151704113Y-146304000D01*
X151678851Y-146177000D01*
X156616611Y-146177000D01*
X156616252Y-146588187D01*
X156834257Y-147115800D01*
X157237577Y-147519824D01*
X157764809Y-147738750D01*
X158335687Y-147739248D01*
X158863300Y-147521243D01*
X159267324Y-147117923D01*
X159486250Y-146590691D01*
X159486611Y-146177000D01*
X161693649Y-146177000D01*
X161668387Y-146304000D01*
X161777620Y-146853151D01*
X162088689Y-147318698D01*
X162554236Y-147629767D01*
X163103387Y-147739000D01*
X163159613Y-147739000D01*
X163708764Y-147629767D01*
X164174311Y-147318698D01*
X164485380Y-146853151D01*
X164594613Y-146304000D01*
X164569351Y-146177000D01*
X169634111Y-146177000D01*
X169633752Y-146588187D01*
X169851757Y-147115800D01*
X170255077Y-147519824D01*
X170782309Y-147738750D01*
X171353187Y-147739248D01*
X171880800Y-147521243D01*
X172284824Y-147117923D01*
X172503750Y-146590691D01*
X172504111Y-146177000D01*
X174711149Y-146177000D01*
X174685887Y-146304000D01*
X174795120Y-146853151D01*
X175106189Y-147318698D01*
X175571736Y-147629767D01*
X176120887Y-147739000D01*
X176177113Y-147739000D01*
X176726264Y-147629767D01*
X177191811Y-147318698D01*
X177502880Y-146853151D01*
X177612113Y-146304000D01*
X177586851Y-146177000D01*
X181610000Y-146177000D01*
X181657789Y-146167666D01*
X181699803Y-146139803D01*
X182843206Y-144996400D01*
X185215001Y-144996400D01*
X185388936Y-145870832D01*
X185884262Y-146612139D01*
X186625569Y-147107465D01*
X187500001Y-147281400D01*
X188374433Y-147107465D01*
X189115740Y-146612139D01*
X189611066Y-145870832D01*
X189785001Y-144996400D01*
X189611066Y-144121968D01*
X189115740Y-143380661D01*
X188374433Y-142885335D01*
X187500001Y-142711400D01*
X186625569Y-142885335D01*
X185884262Y-143380661D01*
X185388936Y-144121968D01*
X185215001Y-144996400D01*
X182843206Y-144996400D01*
X183904246Y-143935360D01*
X184253809Y-143865827D01*
X184557145Y-143663145D01*
X185827145Y-142393145D01*
X186029827Y-142089809D01*
X186101000Y-141732000D01*
X186101000Y-139730187D01*
X186270752Y-139730187D01*
X186488757Y-140257800D01*
X186892077Y-140661824D01*
X187419309Y-140880750D01*
X187990187Y-140881248D01*
X188517800Y-140663243D01*
X188921824Y-140259923D01*
X189140750Y-139732691D01*
X189141248Y-139161813D01*
X188923243Y-138634200D01*
X188519923Y-138230176D01*
X187992691Y-138011250D01*
X187421813Y-138010752D01*
X186894200Y-138228757D01*
X186490176Y-138632077D01*
X186271250Y-139159309D01*
X186270752Y-139730187D01*
X186101000Y-139730187D01*
X186101000Y-135382000D01*
X186029827Y-135024191D01*
X185827145Y-134720855D01*
X185444177Y-134337887D01*
X186271000Y-134337887D01*
X186271000Y-134394113D01*
X186380233Y-134943264D01*
X186691302Y-135408811D01*
X187156849Y-135719880D01*
X187706000Y-135829113D01*
X188255151Y-135719880D01*
X188720698Y-135408811D01*
X189031767Y-134943264D01*
X189141000Y-134394113D01*
X189141000Y-134337887D01*
X189031767Y-133788736D01*
X188720698Y-133323189D01*
X188255151Y-133012120D01*
X187706000Y-132902887D01*
X187156849Y-133012120D01*
X186691302Y-133323189D01*
X186380233Y-133788736D01*
X186271000Y-134337887D01*
X185444177Y-134337887D01*
X182017145Y-130910855D01*
X181713809Y-130708173D01*
X181356000Y-130637000D01*
X163556998Y-130637000D01*
X163631767Y-130525101D01*
X163741000Y-129975950D01*
X163741000Y-129104050D01*
X163631767Y-128554899D01*
X163320698Y-128089352D01*
X162855151Y-127778283D01*
X162306000Y-127669050D01*
X161756849Y-127778283D01*
X161291302Y-128089352D01*
X161036000Y-128471438D01*
X160780698Y-128089352D01*
X160315151Y-127778283D01*
X159766000Y-127669050D01*
X159216849Y-127778283D01*
X158751302Y-128089352D01*
X158496000Y-128471438D01*
X158240698Y-128089352D01*
X157775151Y-127778283D01*
X157226000Y-127669050D01*
X156676849Y-127778283D01*
X156211302Y-128089352D01*
X155956000Y-128471438D01*
X155700698Y-128089352D01*
X155235151Y-127778283D01*
X154686000Y-127669050D01*
X154136849Y-127778283D01*
X153671302Y-128089352D01*
X153416000Y-128471438D01*
X153160698Y-128089352D01*
X152695151Y-127778283D01*
X152146000Y-127669050D01*
X151596849Y-127778283D01*
X151131302Y-128089352D01*
X150876000Y-128471438D01*
X150620698Y-128089352D01*
X150541000Y-128036099D01*
X150541000Y-127508000D01*
X150540943Y-127507715D01*
X150541000Y-127507429D01*
X150505366Y-127328856D01*
X150469827Y-127150191D01*
X150469665Y-127149949D01*
X150469608Y-127149663D01*
X150368273Y-126998204D01*
X150267145Y-126846855D01*
X150266903Y-126846693D01*
X150266741Y-126846451D01*
X147980772Y-124563273D01*
X147829005Y-124462000D01*
X147677953Y-124361042D01*
X147677608Y-124360973D01*
X147677312Y-124360776D01*
X147498083Y-124325239D01*
X147320153Y-124289822D01*
X125730122Y-124287000D01*
X125730061Y-124287012D01*
X125730000Y-124287000D01*
X116785240Y-124287000D01*
X117393284Y-123678955D01*
X117854698Y-123370648D01*
X118110000Y-122988562D01*
X118365302Y-123370648D01*
X118830849Y-123681717D01*
X119380000Y-123790950D01*
X119929151Y-123681717D01*
X120394698Y-123370648D01*
X120650000Y-122988562D01*
X120905302Y-123370648D01*
X121370849Y-123681717D01*
X121920000Y-123790950D01*
X122469151Y-123681717D01*
X122934698Y-123370648D01*
X123190000Y-122988562D01*
X123445302Y-123370648D01*
X123910849Y-123681717D01*
X124460000Y-123790950D01*
X125009151Y-123681717D01*
X125474698Y-123370648D01*
X125730000Y-122988562D01*
X125985302Y-123370648D01*
X126450849Y-123681717D01*
X127000000Y-123790950D01*
X127549151Y-123681717D01*
X128014698Y-123370648D01*
X128270000Y-122988562D01*
X128525302Y-123370648D01*
X128990849Y-123681717D01*
X129540000Y-123790950D01*
X130089151Y-123681717D01*
X130554698Y-123370648D01*
X130810000Y-122988562D01*
X131065302Y-123370648D01*
X131530849Y-123681717D01*
X132080000Y-123790950D01*
X132629151Y-123681717D01*
X133094698Y-123370648D01*
X133350000Y-122988562D01*
X133605302Y-123370648D01*
X134070849Y-123681717D01*
X134620000Y-123790950D01*
X135169151Y-123681717D01*
X135634698Y-123370648D01*
X135732251Y-123224650D01*
X135756838Y-123355317D01*
X135895910Y-123571441D01*
X136108110Y-123716431D01*
X136360000Y-123767440D01*
X137960000Y-123767440D01*
X138195317Y-123723162D01*
X138411441Y-123584090D01*
X138556431Y-123371890D01*
X138607440Y-123120000D01*
X138607440Y-120720000D01*
X138563162Y-120484683D01*
X138424090Y-120268559D01*
X138211890Y-120123569D01*
X137960000Y-120072560D01*
X137840365Y-120072560D01*
X137697401Y-119858599D01*
X137508415Y-119669613D01*
X137889151Y-119593880D01*
X138354698Y-119282811D01*
X138610000Y-118900725D01*
X138865302Y-119282811D01*
X139330849Y-119593880D01*
X139880000Y-119703113D01*
X140429151Y-119593880D01*
X140894698Y-119282811D01*
X141150000Y-118900725D01*
X141405302Y-119282811D01*
X141870849Y-119593880D01*
X142420000Y-119703113D01*
X142969151Y-119593880D01*
X143004000Y-119570595D01*
X143004000Y-119634000D01*
X143061852Y-119924839D01*
X143226599Y-120171401D01*
X143519244Y-120464046D01*
X143511302Y-120469352D01*
X143256000Y-120851438D01*
X143000698Y-120469352D01*
X142535151Y-120158283D01*
X141986000Y-120049050D01*
X141436849Y-120158283D01*
X140971302Y-120469352D01*
X140660233Y-120934899D01*
X140551000Y-121484050D01*
X140551000Y-122355950D01*
X140660233Y-122905101D01*
X140971302Y-123370648D01*
X141436849Y-123681717D01*
X141986000Y-123790950D01*
X142535151Y-123681717D01*
X143000698Y-123370648D01*
X143256000Y-122988562D01*
X143511302Y-123370648D01*
X143976849Y-123681717D01*
X144526000Y-123790950D01*
X145075151Y-123681717D01*
X145540698Y-123370648D01*
X145796000Y-122988562D01*
X146051302Y-123370648D01*
X146516849Y-123681717D01*
X147066000Y-123790950D01*
X147615151Y-123681717D01*
X148080698Y-123370648D01*
X148336000Y-122988562D01*
X148591302Y-123370648D01*
X149056849Y-123681717D01*
X149606000Y-123790950D01*
X150155151Y-123681717D01*
X150620698Y-123370648D01*
X150876000Y-122988562D01*
X151131302Y-123370648D01*
X151596849Y-123681717D01*
X152146000Y-123790950D01*
X152695151Y-123681717D01*
X153160698Y-123370648D01*
X153416000Y-122988562D01*
X153671302Y-123370648D01*
X154136849Y-123681717D01*
X154686000Y-123790950D01*
X155235151Y-123681717D01*
X155700698Y-123370648D01*
X155956000Y-122988562D01*
X156211302Y-123370648D01*
X156676849Y-123681717D01*
X157226000Y-123790950D01*
X157775151Y-123681717D01*
X158240698Y-123370648D01*
X158496000Y-122988562D01*
X158751302Y-123370648D01*
X159216849Y-123681717D01*
X159766000Y-123790950D01*
X160315151Y-123681717D01*
X160780698Y-123370648D01*
X160878251Y-123224650D01*
X160902838Y-123355317D01*
X161041910Y-123571441D01*
X161254110Y-123716431D01*
X161506000Y-123767440D01*
X163106000Y-123767440D01*
X163341317Y-123723162D01*
X163557441Y-123584090D01*
X163702431Y-123371890D01*
X163753440Y-123120000D01*
X163753440Y-120720000D01*
X163709162Y-120484683D01*
X163570090Y-120268559D01*
X163357890Y-120123569D01*
X163106000Y-120072560D01*
X161506000Y-120072560D01*
X161270683Y-120116838D01*
X161054559Y-120255910D01*
X160909569Y-120468110D01*
X160879403Y-120617074D01*
X160780698Y-120469352D01*
X160315151Y-120158283D01*
X159766000Y-120049050D01*
X159216849Y-120158283D01*
X158751302Y-120469352D01*
X158496000Y-120851438D01*
X158240698Y-120469352D01*
X157775151Y-120158283D01*
X157226000Y-120049050D01*
X156676849Y-120158283D01*
X156211302Y-120469352D01*
X155956000Y-120851438D01*
X155700698Y-120469352D01*
X155235151Y-120158283D01*
X154686000Y-120049050D01*
X154136849Y-120158283D01*
X153671302Y-120469352D01*
X153416000Y-120851438D01*
X153160698Y-120469352D01*
X152695151Y-120158283D01*
X152146000Y-120049050D01*
X151596849Y-120158283D01*
X151131302Y-120469352D01*
X150876000Y-120851438D01*
X150620698Y-120469352D01*
X150366000Y-120299168D01*
X150366000Y-117602000D01*
X150308148Y-117311161D01*
X150254274Y-117230532D01*
X156333073Y-117230532D01*
X156431736Y-117497387D01*
X157041461Y-117723908D01*
X157691460Y-117699856D01*
X158180264Y-117497387D01*
X158278927Y-117230532D01*
X157306000Y-116257605D01*
X156333073Y-117230532D01*
X150254274Y-117230532D01*
X150143401Y-117064599D01*
X148892263Y-115813461D01*
X155660092Y-115813461D01*
X155684144Y-116463460D01*
X155886613Y-116952264D01*
X156153468Y-117050927D01*
X157126395Y-116078000D01*
X157485605Y-116078000D01*
X158458532Y-117050927D01*
X158725387Y-116952264D01*
X158929893Y-116401795D01*
X160670716Y-116401795D01*
X160919106Y-117002943D01*
X161378637Y-117463278D01*
X161979352Y-117712716D01*
X162629795Y-117713284D01*
X163230943Y-117464894D01*
X163691278Y-117005363D01*
X163940716Y-116404648D01*
X163941133Y-115926890D01*
X184359524Y-115926890D01*
X184529355Y-116336924D01*
X184919642Y-116765183D01*
X185444108Y-117011486D01*
X185674000Y-116890819D01*
X185674000Y-115697000D01*
X185928000Y-115697000D01*
X185928000Y-116890819D01*
X186157892Y-117011486D01*
X186682358Y-116765183D01*
X187072645Y-116336924D01*
X187242476Y-115926890D01*
X187121155Y-115697000D01*
X185928000Y-115697000D01*
X185674000Y-115697000D01*
X184480845Y-115697000D01*
X184359524Y-115926890D01*
X163941133Y-115926890D01*
X163941284Y-115754205D01*
X163692894Y-115153057D01*
X163233363Y-114692722D01*
X162632648Y-114443284D01*
X161982205Y-114442716D01*
X161381057Y-114691106D01*
X160920722Y-115150637D01*
X160671284Y-115751352D01*
X160670716Y-116401795D01*
X158929893Y-116401795D01*
X158951908Y-116342539D01*
X158927856Y-115692540D01*
X158725387Y-115203736D01*
X158458532Y-115105073D01*
X157485605Y-116078000D01*
X157126395Y-116078000D01*
X156153468Y-115105073D01*
X155886613Y-115203736D01*
X155660092Y-115813461D01*
X148892263Y-115813461D01*
X148359107Y-115280305D01*
X148476120Y-115202120D01*
X148752771Y-114925468D01*
X156333073Y-114925468D01*
X157306000Y-115898395D01*
X158278927Y-114925468D01*
X158180264Y-114658613D01*
X157570539Y-114432092D01*
X156920540Y-114456144D01*
X156431736Y-114658613D01*
X156333073Y-114925468D01*
X148752771Y-114925468D01*
X152227047Y-111451192D01*
X152226838Y-111691167D01*
X152368883Y-112034943D01*
X152631673Y-112298192D01*
X152975201Y-112440838D01*
X153347167Y-112441162D01*
X153690943Y-112299117D01*
X153724118Y-112266000D01*
X154795897Y-112266000D01*
X154767162Y-112335201D01*
X154766838Y-112707167D01*
X154908883Y-113050943D01*
X155171673Y-113314192D01*
X155515201Y-113456838D01*
X155887167Y-113457162D01*
X156230943Y-113315117D01*
X156264118Y-113282000D01*
X181356000Y-113282000D01*
X181646839Y-113224148D01*
X181893401Y-113059401D01*
X183702802Y-111250000D01*
X184528046Y-111250000D01*
X184721853Y-111540054D01*
X185051026Y-111760000D01*
X184721853Y-111979946D01*
X184399946Y-112461715D01*
X184286907Y-113030000D01*
X184399946Y-113598285D01*
X184721853Y-114080054D01*
X185062553Y-114307702D01*
X184919642Y-114374817D01*
X184529355Y-114803076D01*
X184359524Y-115213110D01*
X184480845Y-115443000D01*
X185674000Y-115443000D01*
X185674000Y-115423000D01*
X185928000Y-115423000D01*
X185928000Y-115443000D01*
X187121155Y-115443000D01*
X187242476Y-115213110D01*
X187072645Y-114803076D01*
X186682358Y-114374817D01*
X186539447Y-114307702D01*
X186880147Y-114080054D01*
X187202054Y-113598285D01*
X187315093Y-113030000D01*
X187202054Y-112461715D01*
X186880147Y-111979946D01*
X186550974Y-111760000D01*
X186880147Y-111540054D01*
X187202054Y-111058285D01*
X187315093Y-110490000D01*
X187202054Y-109921715D01*
X186880147Y-109439946D01*
X186550974Y-109220000D01*
X186880147Y-109000054D01*
X187202054Y-108518285D01*
X187253890Y-108257688D01*
X187265148Y-108240839D01*
X187323000Y-107950000D01*
X187265148Y-107659161D01*
X187253890Y-107642312D01*
X187202054Y-107381715D01*
X186880147Y-106899946D01*
X186838548Y-106872150D01*
X186886317Y-106863162D01*
X187102441Y-106724090D01*
X187247431Y-106511890D01*
X187298440Y-106260000D01*
X187298440Y-104560000D01*
X187254162Y-104324683D01*
X187115090Y-104108559D01*
X186902890Y-103963569D01*
X186651000Y-103912560D01*
X184951000Y-103912560D01*
X184715683Y-103956838D01*
X184499559Y-104095910D01*
X184354569Y-104308110D01*
X184303560Y-104560000D01*
X184303560Y-106260000D01*
X184347838Y-106495317D01*
X184486910Y-106711441D01*
X184699110Y-106856431D01*
X184766541Y-106870086D01*
X184721853Y-106899946D01*
X184528046Y-107190000D01*
X184404000Y-107190000D01*
X184161414Y-107238254D01*
X184113160Y-107247852D01*
X183866599Y-107412599D01*
X180533198Y-110746000D01*
X153724463Y-110746000D01*
X153692327Y-110713808D01*
X153348799Y-110571162D01*
X153107288Y-110570952D01*
X155109239Y-108569000D01*
X172804760Y-108569000D01*
X174103881Y-109868120D01*
X174634313Y-110222543D01*
X175260000Y-110347001D01*
X175885688Y-110222543D01*
X176416120Y-109868120D01*
X176770543Y-109337688D01*
X176895001Y-108712000D01*
X176770543Y-108086313D01*
X176416120Y-107555881D01*
X174638120Y-105777880D01*
X174107688Y-105423457D01*
X173482000Y-105298999D01*
X173481995Y-105299000D01*
X156067000Y-105299000D01*
X156067000Y-98552000D01*
X155988605Y-98157880D01*
X155942543Y-97926312D01*
X155714697Y-97585317D01*
X155588120Y-97395880D01*
X155588117Y-97395878D01*
X153536120Y-95343880D01*
X153005688Y-94989457D01*
X152380000Y-94864999D01*
X152379995Y-94865000D01*
X148676069Y-94865000D01*
X148901054Y-94528285D01*
X149014093Y-93960000D01*
X148901054Y-93391715D01*
X148579147Y-92909946D01*
X148249974Y-92690000D01*
X148579147Y-92470054D01*
X148901054Y-91988285D01*
X149014093Y-91420000D01*
X176985907Y-91420000D01*
X177098946Y-91988285D01*
X177420853Y-92470054D01*
X177750026Y-92690000D01*
X177420853Y-92909946D01*
X177098946Y-93391715D01*
X176985907Y-93960000D01*
X177098946Y-94528285D01*
X177420853Y-95010054D01*
X177462452Y-95037850D01*
X177414683Y-95046838D01*
X177198559Y-95185910D01*
X177053569Y-95398110D01*
X177002560Y-95650000D01*
X177002560Y-97350000D01*
X177046838Y-97585317D01*
X177185910Y-97801441D01*
X177398110Y-97946431D01*
X177650000Y-97997440D01*
X179350000Y-97997440D01*
X179585317Y-97953162D01*
X179801441Y-97814090D01*
X179946431Y-97601890D01*
X179997440Y-97350000D01*
X179997440Y-95650000D01*
X179953162Y-95414683D01*
X179814090Y-95198559D01*
X179601890Y-95053569D01*
X179534459Y-95039914D01*
X179579147Y-95010054D01*
X179901054Y-94528285D01*
X180014093Y-93960000D01*
X179901054Y-93391715D01*
X179579147Y-92909946D01*
X179249974Y-92690000D01*
X179579147Y-92470054D01*
X179901054Y-91988285D01*
X180014093Y-91420000D01*
X179901054Y-90851715D01*
X179579147Y-90369946D01*
X179238447Y-90142298D01*
X179381358Y-90075183D01*
X179771645Y-89646924D01*
X179941476Y-89236890D01*
X179820155Y-89007000D01*
X178627000Y-89007000D01*
X178627000Y-89027000D01*
X178373000Y-89027000D01*
X178373000Y-89007000D01*
X177179845Y-89007000D01*
X177058524Y-89236890D01*
X177228355Y-89646924D01*
X177618642Y-90075183D01*
X177761553Y-90142298D01*
X177420853Y-90369946D01*
X177098946Y-90851715D01*
X176985907Y-91420000D01*
X149014093Y-91420000D01*
X148901054Y-90851715D01*
X148579147Y-90369946D01*
X148238447Y-90142298D01*
X148381358Y-90075183D01*
X148771645Y-89646924D01*
X148941476Y-89236890D01*
X148820155Y-89007000D01*
X147627000Y-89007000D01*
X147627000Y-89027000D01*
X147373000Y-89027000D01*
X147373000Y-89007000D01*
X146179845Y-89007000D01*
X146058524Y-89236890D01*
X146228355Y-89646924D01*
X146618642Y-90075183D01*
X146761553Y-90142298D01*
X146420853Y-90369946D01*
X146098946Y-90851715D01*
X145985907Y-91420000D01*
X146098946Y-91988285D01*
X146420853Y-92470054D01*
X146750026Y-92690000D01*
X146420853Y-92909946D01*
X146098946Y-93391715D01*
X145985907Y-93960000D01*
X146098946Y-94528285D01*
X146420853Y-95010054D01*
X146462452Y-95037850D01*
X146414683Y-95046838D01*
X146198559Y-95185910D01*
X146053569Y-95398110D01*
X146002560Y-95650000D01*
X146002560Y-95854703D01*
X145989457Y-95874313D01*
X145865000Y-96500000D01*
X145989457Y-97125687D01*
X146002560Y-97145297D01*
X146002560Y-97350000D01*
X146046838Y-97585317D01*
X146185910Y-97801441D01*
X146398110Y-97946431D01*
X146650000Y-97997440D01*
X146854703Y-97997440D01*
X146874313Y-98010543D01*
X147500000Y-98135000D01*
X151702760Y-98135000D01*
X152797000Y-99229239D01*
X152797000Y-106256761D01*
X146403907Y-112649853D01*
X146400771Y-112634085D01*
X146373886Y-112491861D01*
X146371867Y-112488776D01*
X146371148Y-112485161D01*
X146290765Y-112364859D01*
X146211495Y-112243741D01*
X139607495Y-105512741D01*
X139604448Y-105510663D01*
X139602401Y-105507599D01*
X138224565Y-104129763D01*
X138354698Y-104042811D01*
X138624986Y-103638297D01*
X138727611Y-103855134D01*
X139142577Y-104231041D01*
X139530961Y-104391904D01*
X139753000Y-104269915D01*
X139753000Y-103127000D01*
X139733000Y-103127000D01*
X139733000Y-102873000D01*
X139753000Y-102873000D01*
X139753000Y-101730085D01*
X140007000Y-101730085D01*
X140007000Y-102873000D01*
X140027000Y-102873000D01*
X140027000Y-103127000D01*
X140007000Y-103127000D01*
X140007000Y-104269915D01*
X140229039Y-104391904D01*
X140617423Y-104231041D01*
X141032389Y-103855134D01*
X141135014Y-103638297D01*
X141405302Y-104042811D01*
X141870849Y-104353880D01*
X142420000Y-104463113D01*
X142969151Y-104353880D01*
X143434698Y-104042811D01*
X143690000Y-103660725D01*
X143945302Y-104042811D01*
X144410849Y-104353880D01*
X144960000Y-104463113D01*
X145509151Y-104353880D01*
X145974698Y-104042811D01*
X146071101Y-103898535D01*
X146096838Y-104035317D01*
X146235910Y-104251441D01*
X146448110Y-104396431D01*
X146700000Y-104447440D01*
X148300000Y-104447440D01*
X148535317Y-104403162D01*
X148751441Y-104264090D01*
X148896431Y-104051890D01*
X148947440Y-103800000D01*
X148947440Y-102200000D01*
X148903162Y-101964683D01*
X148764090Y-101748559D01*
X148551890Y-101603569D01*
X148300000Y-101552560D01*
X146700000Y-101552560D01*
X146464683Y-101596838D01*
X146248559Y-101735910D01*
X146103569Y-101948110D01*
X146072185Y-102103089D01*
X145974698Y-101957189D01*
X145509151Y-101646120D01*
X144960000Y-101536887D01*
X144410849Y-101646120D01*
X143945302Y-101957189D01*
X143690000Y-102339275D01*
X143434698Y-101957189D01*
X142969151Y-101646120D01*
X142420000Y-101536887D01*
X141870849Y-101646120D01*
X141405302Y-101957189D01*
X141135014Y-102361703D01*
X141032389Y-102144866D01*
X140617423Y-101768959D01*
X140229039Y-101608096D01*
X140007000Y-101730085D01*
X139753000Y-101730085D01*
X139530961Y-101608096D01*
X139142577Y-101768959D01*
X138727611Y-102144866D01*
X138624986Y-102361703D01*
X138354698Y-101957189D01*
X137889151Y-101646120D01*
X137340000Y-101536887D01*
X136790849Y-101646120D01*
X136325302Y-101957189D01*
X136070000Y-102339275D01*
X135814698Y-101957189D01*
X135349151Y-101646120D01*
X134800000Y-101536887D01*
X134250849Y-101646120D01*
X133785302Y-101957189D01*
X133530000Y-102339275D01*
X133274698Y-101957189D01*
X133020000Y-101787005D01*
X133020000Y-101780000D01*
X132962148Y-101489161D01*
X132797401Y-101242599D01*
X131570000Y-100015198D01*
X131570000Y-96633047D01*
X131734943Y-96564894D01*
X132195278Y-96105363D01*
X132264773Y-95938000D01*
X135854953Y-95938000D01*
X135923106Y-96102943D01*
X136382637Y-96563278D01*
X136983352Y-96812716D01*
X137633795Y-96813284D01*
X138234943Y-96564894D01*
X138695278Y-96105363D01*
X138944716Y-95504648D01*
X138945284Y-94854205D01*
X138696894Y-94253057D01*
X138237363Y-93792722D01*
X137636648Y-93543284D01*
X136986205Y-93542716D01*
X136385057Y-93791106D01*
X135924722Y-94250637D01*
X135855227Y-94418000D01*
X132265047Y-94418000D01*
X132196894Y-94253057D01*
X131737363Y-93792722D01*
X131136648Y-93543284D01*
X130486205Y-93542716D01*
X129885057Y-93791106D01*
X129424722Y-94250637D01*
X129175284Y-94851352D01*
X129174716Y-95501795D01*
X129423106Y-96102943D01*
X129882637Y-96563278D01*
X130050000Y-96632773D01*
X130050000Y-100330000D01*
X130107852Y-100620839D01*
X130272599Y-100867401D01*
X131315489Y-101910291D01*
X131245302Y-101957189D01*
X130990000Y-102339275D01*
X130734698Y-101957189D01*
X130269151Y-101646120D01*
X129720000Y-101536887D01*
X129170849Y-101646120D01*
X128705302Y-101957189D01*
X128450000Y-102339275D01*
X128194698Y-101957189D01*
X127729151Y-101646120D01*
X127180000Y-101536887D01*
X126630849Y-101646120D01*
X126165302Y-101957189D01*
X125910000Y-102339275D01*
X125654698Y-101957189D01*
X125189151Y-101646120D01*
X124640000Y-101536887D01*
X124090849Y-101646120D01*
X123625302Y-101957189D01*
X123370000Y-102339275D01*
X123114698Y-101957189D01*
X122649151Y-101646120D01*
X122100000Y-101536887D01*
X121550849Y-101646120D01*
X121085302Y-101957189D01*
X120830000Y-102339275D01*
X120574698Y-101957189D01*
X120109151Y-101646120D01*
X119560000Y-101536887D01*
X119010849Y-101646120D01*
X118545302Y-101957189D01*
X118290000Y-102339275D01*
X118034698Y-101957189D01*
X117569151Y-101646120D01*
X117020000Y-101536887D01*
X116470849Y-101646120D01*
X116005302Y-101957189D01*
X115750000Y-102339275D01*
X115494698Y-101957189D01*
X115029151Y-101646120D01*
X114480000Y-101536887D01*
X113930849Y-101646120D01*
X113465302Y-101957189D01*
X113210000Y-102339275D01*
X112954698Y-101957189D01*
X112489151Y-101646120D01*
X111940000Y-101536887D01*
X111390849Y-101646120D01*
X110925302Y-101957189D01*
X110614233Y-102422736D01*
X110505000Y-102971887D01*
X110505000Y-103028113D01*
X110614233Y-103577264D01*
X110925302Y-104042811D01*
X111180000Y-104212995D01*
X111180000Y-104320000D01*
X111237852Y-104610839D01*
X111402599Y-104857401D01*
X123160599Y-116615401D01*
X123407161Y-116780148D01*
X123698000Y-116838000D01*
X124332764Y-116838000D01*
X124090849Y-116886120D01*
X123625302Y-117197189D01*
X123370000Y-117579275D01*
X123114698Y-117197189D01*
X122649151Y-116886120D01*
X122100000Y-116776887D01*
X121550849Y-116886120D01*
X121085302Y-117197189D01*
X120830000Y-117579275D01*
X120574698Y-117197189D01*
X120109151Y-116886120D01*
X119560000Y-116776887D01*
X119010849Y-116886120D01*
X118545302Y-117197189D01*
X118290000Y-117579275D01*
X118034698Y-117197189D01*
X117569151Y-116886120D01*
X117020000Y-116776887D01*
X116470849Y-116886120D01*
X116005302Y-117197189D01*
X115750000Y-117579275D01*
X115494698Y-117197189D01*
X115029151Y-116886120D01*
X114480000Y-116776887D01*
X113930849Y-116886120D01*
X113465302Y-117197189D01*
X113210000Y-117579275D01*
X112954698Y-117197189D01*
X112489151Y-116886120D01*
X111940000Y-116776887D01*
X111390849Y-116886120D01*
X110925302Y-117197189D01*
X110614233Y-117662736D01*
X110505000Y-118211887D01*
X110505000Y-118268113D01*
X110614233Y-118817264D01*
X110925302Y-119282811D01*
X111390849Y-119593880D01*
X111940000Y-119703113D01*
X112489151Y-119593880D01*
X112954698Y-119282811D01*
X113210000Y-118900725D01*
X113465302Y-119282811D01*
X113930849Y-119593880D01*
X114480000Y-119703113D01*
X115029151Y-119593880D01*
X115494698Y-119282811D01*
X115750000Y-118900725D01*
X116005302Y-119282811D01*
X116470849Y-119593880D01*
X117020000Y-119703113D01*
X117569151Y-119593880D01*
X118034698Y-119282811D01*
X118290000Y-118900725D01*
X118545302Y-119282811D01*
X119010849Y-119593880D01*
X119560000Y-119703113D01*
X120109151Y-119593880D01*
X120574698Y-119282811D01*
X120830000Y-118900725D01*
X121085302Y-119282811D01*
X121340000Y-119452995D01*
X121340000Y-120178896D01*
X120905302Y-120469352D01*
X120650000Y-120851438D01*
X120394698Y-120469352D01*
X119929151Y-120158283D01*
X119380000Y-120049050D01*
X118830849Y-120158283D01*
X118365302Y-120469352D01*
X118110000Y-120851438D01*
X117854698Y-120469352D01*
X117389151Y-120158283D01*
X116840000Y-120049050D01*
X116290849Y-120158283D01*
X115825302Y-120469352D01*
X115516994Y-120930767D01*
X114892760Y-121555000D01*
X110491426Y-121555000D01*
X110166205Y-121554716D01*
X109565057Y-121803106D01*
X109104722Y-122262637D01*
X108855284Y-122863352D01*
X108854716Y-123513795D01*
X109103106Y-124114943D01*
X109457257Y-124469714D01*
X109320855Y-124560855D01*
X106018855Y-127862855D01*
X105816173Y-128166191D01*
X105745000Y-128524000D01*
X105745000Y-142240000D01*
X105816173Y-142597809D01*
X105952169Y-142801342D01*
X105500000Y-142711400D01*
X104625568Y-142885335D01*
X103884261Y-143380661D01*
X103388935Y-144121968D01*
X103215000Y-144996400D01*
X103388935Y-145870832D01*
X103884261Y-146612139D01*
X104625568Y-147107465D01*
X105500000Y-147281400D01*
X106374432Y-147107465D01*
X107115739Y-146612139D01*
X107611065Y-145870832D01*
X107785000Y-144996400D01*
X107703281Y-144585571D01*
X110209855Y-147092145D01*
X110513191Y-147294827D01*
X110871000Y-147366000D01*
X115443000Y-147366000D01*
X115800809Y-147294827D01*
X116104145Y-147092145D01*
X117019289Y-146177000D01*
X117183111Y-146177000D01*
X117182752Y-146588187D01*
X117400757Y-147115800D01*
X117804077Y-147519824D01*
X118331309Y-147738750D01*
X118902187Y-147739248D01*
X119429800Y-147521243D01*
X119833824Y-147117923D01*
X120052750Y-146590691D01*
X120053111Y-146177000D01*
X122260149Y-146177000D01*
X122234887Y-146304000D01*
X122344120Y-146853151D01*
X122655189Y-147318698D01*
X123120736Y-147629767D01*
X123669887Y-147739000D01*
X123726113Y-147739000D01*
X124275264Y-147629767D01*
X124740811Y-147318698D01*
X124794064Y-147239000D01*
X129413000Y-147239000D01*
X129770809Y-147167827D01*
X130074145Y-146965145D01*
X130644921Y-146394369D01*
X130644752Y-146588187D01*
X130862757Y-147115800D01*
X131266077Y-147519824D01*
X131793309Y-147738750D01*
X132364187Y-147739248D01*
X132891800Y-147521243D01*
X133295824Y-147117923D01*
X133514750Y-146590691D01*
X133515111Y-146177000D01*
X134694710Y-146177000D01*
X135482855Y-146965145D01*
X135786191Y-147167827D01*
X136051664Y-147220633D01*
X136117189Y-147318698D01*
X136582736Y-147629767D01*
X137131887Y-147739000D01*
X137188113Y-147739000D01*
X137737264Y-147629767D01*
X138202811Y-147318698D01*
X138513880Y-146853151D01*
X138623113Y-146304000D01*
X138597851Y-146177000D01*
X140028710Y-146177000D01*
X139547146Y-146658564D01*
X139415808Y-146789673D01*
X139273162Y-147133201D01*
X139272838Y-147505167D01*
X139414883Y-147848943D01*
X139677673Y-148112192D01*
X140021201Y-148254838D01*
X140393167Y-148255162D01*
X140736943Y-148113117D01*
X141000192Y-147850327D01*
X141000355Y-147849935D01*
X141865290Y-146985000D01*
X142447959Y-146985000D01*
X142447838Y-147124167D01*
X142589883Y-147467943D01*
X142852673Y-147731192D01*
X142853065Y-147731355D01*
X143433110Y-148311400D01*
X106567467Y-148311400D01*
X104853856Y-147970542D01*
X103458323Y-147038076D01*
X102525858Y-145642542D01*
X102185000Y-143928933D01*
X102185000Y-95501795D01*
X112156716Y-95501795D01*
X112405106Y-96102943D01*
X112864637Y-96563278D01*
X113465352Y-96812716D01*
X114115795Y-96813284D01*
X114716943Y-96564894D01*
X115177278Y-96105363D01*
X115426716Y-95504648D01*
X115426718Y-95501795D01*
X118656716Y-95501795D01*
X118905106Y-96102943D01*
X119364637Y-96563278D01*
X119965352Y-96812716D01*
X120615795Y-96813284D01*
X121216943Y-96564894D01*
X121677278Y-96105363D01*
X121926716Y-95504648D01*
X121927284Y-94854205D01*
X121678894Y-94253057D01*
X121219363Y-93792722D01*
X120618648Y-93543284D01*
X119968205Y-93542716D01*
X119367057Y-93791106D01*
X118906722Y-94250637D01*
X118657284Y-94851352D01*
X118656716Y-95501795D01*
X115426718Y-95501795D01*
X115427284Y-94854205D01*
X115178894Y-94253057D01*
X114719363Y-93792722D01*
X114118648Y-93543284D01*
X113468205Y-93542716D01*
X112867057Y-93791106D01*
X112406722Y-94250637D01*
X112157284Y-94851352D01*
X112156716Y-95501795D01*
X102185000Y-95501795D01*
X102185000Y-91830532D01*
X112819073Y-91830532D01*
X112917736Y-92097387D01*
X113527461Y-92323908D01*
X114177460Y-92299856D01*
X114666264Y-92097387D01*
X114764927Y-91830532D01*
X119319073Y-91830532D01*
X119417736Y-92097387D01*
X120027461Y-92323908D01*
X120677460Y-92299856D01*
X121166264Y-92097387D01*
X121264927Y-91830532D01*
X129837073Y-91830532D01*
X129935736Y-92097387D01*
X130545461Y-92323908D01*
X131195460Y-92299856D01*
X131684264Y-92097387D01*
X131782927Y-91830532D01*
X136337073Y-91830532D01*
X136435736Y-92097387D01*
X137045461Y-92323908D01*
X137695460Y-92299856D01*
X138184264Y-92097387D01*
X138282927Y-91830532D01*
X137310000Y-90857605D01*
X136337073Y-91830532D01*
X131782927Y-91830532D01*
X130810000Y-90857605D01*
X129837073Y-91830532D01*
X121264927Y-91830532D01*
X120292000Y-90857605D01*
X119319073Y-91830532D01*
X114764927Y-91830532D01*
X113792000Y-90857605D01*
X112819073Y-91830532D01*
X102185000Y-91830532D01*
X102185000Y-90413461D01*
X112146092Y-90413461D01*
X112170144Y-91063460D01*
X112372613Y-91552264D01*
X112639468Y-91650927D01*
X113612395Y-90678000D01*
X113971605Y-90678000D01*
X114944532Y-91650927D01*
X115211387Y-91552264D01*
X115437908Y-90942539D01*
X115418331Y-90413461D01*
X118646092Y-90413461D01*
X118670144Y-91063460D01*
X118872613Y-91552264D01*
X119139468Y-91650927D01*
X120112395Y-90678000D01*
X120471605Y-90678000D01*
X121444532Y-91650927D01*
X121711387Y-91552264D01*
X121937908Y-90942539D01*
X121918331Y-90413461D01*
X129164092Y-90413461D01*
X129188144Y-91063460D01*
X129390613Y-91552264D01*
X129657468Y-91650927D01*
X130630395Y-90678000D01*
X130989605Y-90678000D01*
X131962532Y-91650927D01*
X132229387Y-91552264D01*
X132455908Y-90942539D01*
X132436331Y-90413461D01*
X135664092Y-90413461D01*
X135688144Y-91063460D01*
X135890613Y-91552264D01*
X136157468Y-91650927D01*
X137130395Y-90678000D01*
X137489605Y-90678000D01*
X138462532Y-91650927D01*
X138729387Y-91552264D01*
X138955908Y-90942539D01*
X138931856Y-90292540D01*
X138729387Y-89803736D01*
X138462532Y-89705073D01*
X137489605Y-90678000D01*
X137130395Y-90678000D01*
X136157468Y-89705073D01*
X135890613Y-89803736D01*
X135664092Y-90413461D01*
X132436331Y-90413461D01*
X132431856Y-90292540D01*
X132229387Y-89803736D01*
X131962532Y-89705073D01*
X130989605Y-90678000D01*
X130630395Y-90678000D01*
X129657468Y-89705073D01*
X129390613Y-89803736D01*
X129164092Y-90413461D01*
X121918331Y-90413461D01*
X121913856Y-90292540D01*
X121711387Y-89803736D01*
X121444532Y-89705073D01*
X120471605Y-90678000D01*
X120112395Y-90678000D01*
X119139468Y-89705073D01*
X118872613Y-89803736D01*
X118646092Y-90413461D01*
X115418331Y-90413461D01*
X115413856Y-90292540D01*
X115211387Y-89803736D01*
X114944532Y-89705073D01*
X113971605Y-90678000D01*
X113612395Y-90678000D01*
X112639468Y-89705073D01*
X112372613Y-89803736D01*
X112146092Y-90413461D01*
X102185000Y-90413461D01*
X102185000Y-89063867D01*
X102397332Y-87996399D01*
X103215000Y-87996399D01*
X103388935Y-88870831D01*
X103884261Y-89612138D01*
X104625568Y-90107464D01*
X105500000Y-90281399D01*
X106374432Y-90107464D01*
X107115739Y-89612138D01*
X107173650Y-89525468D01*
X112819073Y-89525468D01*
X113792000Y-90498395D01*
X114764927Y-89525468D01*
X119319073Y-89525468D01*
X120292000Y-90498395D01*
X121264927Y-89525468D01*
X129837073Y-89525468D01*
X130810000Y-90498395D01*
X131782927Y-89525468D01*
X136337073Y-89525468D01*
X137310000Y-90498395D01*
X138282927Y-89525468D01*
X138184264Y-89258613D01*
X137574539Y-89032092D01*
X136924540Y-89056144D01*
X136435736Y-89258613D01*
X136337073Y-89525468D01*
X131782927Y-89525468D01*
X131684264Y-89258613D01*
X131074539Y-89032092D01*
X130424540Y-89056144D01*
X129935736Y-89258613D01*
X129837073Y-89525468D01*
X121264927Y-89525468D01*
X121166264Y-89258613D01*
X120556539Y-89032092D01*
X119906540Y-89056144D01*
X119417736Y-89258613D01*
X119319073Y-89525468D01*
X114764927Y-89525468D01*
X114666264Y-89258613D01*
X114056539Y-89032092D01*
X113406540Y-89056144D01*
X112917736Y-89258613D01*
X112819073Y-89525468D01*
X107173650Y-89525468D01*
X107611065Y-88870831D01*
X107680230Y-88523110D01*
X146058524Y-88523110D01*
X146179845Y-88753000D01*
X147373000Y-88753000D01*
X147373000Y-87559181D01*
X147627000Y-87559181D01*
X147627000Y-88753000D01*
X148820155Y-88753000D01*
X148941476Y-88523110D01*
X177058524Y-88523110D01*
X177179845Y-88753000D01*
X178373000Y-88753000D01*
X178373000Y-87559181D01*
X178627000Y-87559181D01*
X178627000Y-88753000D01*
X179820155Y-88753000D01*
X179941476Y-88523110D01*
X179771645Y-88113076D01*
X179665314Y-87996399D01*
X185215001Y-87996399D01*
X185388936Y-88870831D01*
X185884262Y-89612138D01*
X186625569Y-90107464D01*
X187500001Y-90281399D01*
X188374433Y-90107464D01*
X189115740Y-89612138D01*
X189611066Y-88870831D01*
X189785001Y-87996399D01*
X189611066Y-87121967D01*
X189115740Y-86380660D01*
X188374433Y-85885334D01*
X187500001Y-85711399D01*
X186625569Y-85885334D01*
X185884262Y-86380660D01*
X185388936Y-87121967D01*
X185215001Y-87996399D01*
X179665314Y-87996399D01*
X179381358Y-87684817D01*
X178856892Y-87438514D01*
X178627000Y-87559181D01*
X178373000Y-87559181D01*
X178143108Y-87438514D01*
X177618642Y-87684817D01*
X177228355Y-88113076D01*
X177058524Y-88523110D01*
X148941476Y-88523110D01*
X148771645Y-88113076D01*
X148381358Y-87684817D01*
X147856892Y-87438514D01*
X147627000Y-87559181D01*
X147373000Y-87559181D01*
X147143108Y-87438514D01*
X146618642Y-87684817D01*
X146228355Y-88113076D01*
X146058524Y-88523110D01*
X107680230Y-88523110D01*
X107785000Y-87996399D01*
X107611065Y-87121967D01*
X107115739Y-86380660D01*
X106374432Y-85885334D01*
X105500000Y-85711399D01*
X104625568Y-85885334D01*
X103884261Y-86380660D01*
X103388935Y-87121967D01*
X103215000Y-87996399D01*
X102397332Y-87996399D01*
X102525858Y-87350258D01*
X103458323Y-85954724D01*
X104853856Y-85022258D01*
X106567467Y-84681400D01*
X186432533Y-84681400D01*
X188146142Y-85022258D01*
G36*
X123922599Y-127478599D02*
X123757852Y-127725161D01*
X123722214Y-127904325D01*
X123445302Y-128089352D01*
X123190000Y-128471438D01*
X122934698Y-128089352D01*
X122469151Y-127778283D01*
X121920000Y-127669050D01*
X121370849Y-127778283D01*
X120905302Y-128089352D01*
X120650000Y-128471438D01*
X120394698Y-128089352D01*
X119929151Y-127778283D01*
X119380000Y-127669050D01*
X118830849Y-127778283D01*
X118365302Y-128089352D01*
X118112493Y-128467707D01*
X117764896Y-128035500D01*
X117271819Y-127765633D01*
X117189039Y-127748096D01*
X116967000Y-127870085D01*
X116967000Y-129413000D01*
X116987000Y-129413000D01*
X116987000Y-129667000D01*
X116967000Y-129667000D01*
X116967000Y-131209915D01*
X117189039Y-131331904D01*
X117271819Y-131314367D01*
X117764896Y-131044500D01*
X118112493Y-130612293D01*
X118365302Y-130990648D01*
X118830849Y-131301717D01*
X119380000Y-131410950D01*
X119929151Y-131301717D01*
X120394698Y-130990648D01*
X120650000Y-130608562D01*
X120905302Y-130990648D01*
X121160000Y-131160832D01*
X121160000Y-131318000D01*
X121217852Y-131608839D01*
X121382599Y-131855401D01*
X122625198Y-133098000D01*
X116332000Y-133098000D01*
X116041161Y-133155852D01*
X115940667Y-133223000D01*
X113030000Y-133223000D01*
X112999332Y-133226759D01*
X112953800Y-133248400D01*
X111897485Y-134040636D01*
X111730200Y-134109757D01*
X111503246Y-134336315D01*
X110429131Y-135141901D01*
X110257813Y-135141752D01*
X109730200Y-135359757D01*
X109326176Y-135763077D01*
X109201925Y-136062306D01*
X107873800Y-137058400D01*
X107833006Y-137110590D01*
X107823000Y-137160000D01*
X107823000Y-142060710D01*
X107615000Y-141852710D01*
X107615000Y-129342532D01*
X109517073Y-129342532D01*
X109615736Y-129609387D01*
X110225461Y-129835908D01*
X110875460Y-129811856D01*
X111225173Y-129667000D01*
X115405000Y-129667000D01*
X115405000Y-130067000D01*
X115562834Y-130606483D01*
X115915104Y-131044500D01*
X116408181Y-131314367D01*
X116490961Y-131331904D01*
X116713000Y-131209915D01*
X116713000Y-129667000D01*
X115405000Y-129667000D01*
X111225173Y-129667000D01*
X111364264Y-129609387D01*
X111462927Y-129342532D01*
X110490000Y-128369605D01*
X109517073Y-129342532D01*
X107615000Y-129342532D01*
X107615000Y-128911290D01*
X108987891Y-127538399D01*
X108844092Y-127925461D01*
X108868144Y-128575460D01*
X109070613Y-129064264D01*
X109337468Y-129162927D01*
X110310395Y-128190000D01*
X110669605Y-128190000D01*
X111642532Y-129162927D01*
X111909387Y-129064264D01*
X111928432Y-129013000D01*
X115405000Y-129013000D01*
X115405000Y-129413000D01*
X116713000Y-129413000D01*
X116713000Y-127870085D01*
X116490961Y-127748096D01*
X116408181Y-127765633D01*
X115915104Y-128035500D01*
X115562834Y-128473517D01*
X115405000Y-129013000D01*
X111928432Y-129013000D01*
X112135908Y-128454539D01*
X112111856Y-127804540D01*
X111909387Y-127315736D01*
X111642532Y-127217073D01*
X110669605Y-128190000D01*
X110310395Y-128190000D01*
X110296253Y-128175858D01*
X110475858Y-127996253D01*
X110490000Y-128010395D01*
X111462927Y-127037468D01*
X111364264Y-126770613D01*
X110754539Y-126544092D01*
X110104540Y-126568144D01*
X109854630Y-126671660D01*
X110369290Y-126157000D01*
X125244198Y-126157000D01*
X123922599Y-127478599D01*
X123922599Y-127478599D01*
G37*
X123922599Y-127478599D02*
X123757852Y-127725161D01*
X123722214Y-127904325D01*
X123445302Y-128089352D01*
X123190000Y-128471438D01*
X122934698Y-128089352D01*
X122469151Y-127778283D01*
X121920000Y-127669050D01*
X121370849Y-127778283D01*
X120905302Y-128089352D01*
X120650000Y-128471438D01*
X120394698Y-128089352D01*
X119929151Y-127778283D01*
X119380000Y-127669050D01*
X118830849Y-127778283D01*
X118365302Y-128089352D01*
X118112493Y-128467707D01*
X117764896Y-128035500D01*
X117271819Y-127765633D01*
X117189039Y-127748096D01*
X116967000Y-127870085D01*
X116967000Y-129413000D01*
X116987000Y-129413000D01*
X116987000Y-129667000D01*
X116967000Y-129667000D01*
X116967000Y-131209915D01*
X117189039Y-131331904D01*
X117271819Y-131314367D01*
X117764896Y-131044500D01*
X118112493Y-130612293D01*
X118365302Y-130990648D01*
X118830849Y-131301717D01*
X119380000Y-131410950D01*
X119929151Y-131301717D01*
X120394698Y-130990648D01*
X120650000Y-130608562D01*
X120905302Y-130990648D01*
X121160000Y-131160832D01*
X121160000Y-131318000D01*
X121217852Y-131608839D01*
X121382599Y-131855401D01*
X122625198Y-133098000D01*
X116332000Y-133098000D01*
X116041161Y-133155852D01*
X115940667Y-133223000D01*
X113030000Y-133223000D01*
X112999332Y-133226759D01*
X112953800Y-133248400D01*
X111897485Y-134040636D01*
X111730200Y-134109757D01*
X111503246Y-134336315D01*
X110429131Y-135141901D01*
X110257813Y-135141752D01*
X109730200Y-135359757D01*
X109326176Y-135763077D01*
X109201925Y-136062306D01*
X107873800Y-137058400D01*
X107833006Y-137110590D01*
X107823000Y-137160000D01*
X107823000Y-142060710D01*
X107615000Y-141852710D01*
X107615000Y-129342532D01*
X109517073Y-129342532D01*
X109615736Y-129609387D01*
X110225461Y-129835908D01*
X110875460Y-129811856D01*
X111225173Y-129667000D01*
X115405000Y-129667000D01*
X115405000Y-130067000D01*
X115562834Y-130606483D01*
X115915104Y-131044500D01*
X116408181Y-131314367D01*
X116490961Y-131331904D01*
X116713000Y-131209915D01*
X116713000Y-129667000D01*
X115405000Y-129667000D01*
X111225173Y-129667000D01*
X111364264Y-129609387D01*
X111462927Y-129342532D01*
X110490000Y-128369605D01*
X109517073Y-129342532D01*
X107615000Y-129342532D01*
X107615000Y-128911290D01*
X108987891Y-127538399D01*
X108844092Y-127925461D01*
X108868144Y-128575460D01*
X109070613Y-129064264D01*
X109337468Y-129162927D01*
X110310395Y-128190000D01*
X110669605Y-128190000D01*
X111642532Y-129162927D01*
X111909387Y-129064264D01*
X111928432Y-129013000D01*
X115405000Y-129013000D01*
X115405000Y-129413000D01*
X116713000Y-129413000D01*
X116713000Y-127870085D01*
X116490961Y-127748096D01*
X116408181Y-127765633D01*
X115915104Y-128035500D01*
X115562834Y-128473517D01*
X115405000Y-129013000D01*
X111928432Y-129013000D01*
X112135908Y-128454539D01*
X112111856Y-127804540D01*
X111909387Y-127315736D01*
X111642532Y-127217073D01*
X110669605Y-128190000D01*
X110310395Y-128190000D01*
X110296253Y-128175858D01*
X110475858Y-127996253D01*
X110490000Y-128010395D01*
X111462927Y-127037468D01*
X111364264Y-126770613D01*
X110754539Y-126544092D01*
X110104540Y-126568144D01*
X109854630Y-126671660D01*
X110369290Y-126157000D01*
X125244198Y-126157000D01*
X123922599Y-127478599D01*
G36*
X146059244Y-128084046D02*
X146051302Y-128089352D01*
X145796000Y-128471438D01*
X145540698Y-128089352D01*
X145075151Y-127778283D01*
X144526000Y-127669050D01*
X143976849Y-127778283D01*
X143511302Y-128089352D01*
X143258493Y-128467707D01*
X142910896Y-128035500D01*
X142417819Y-127765633D01*
X142335039Y-127748096D01*
X142113000Y-127870085D01*
X142113000Y-129413000D01*
X142133000Y-129413000D01*
X142133000Y-129667000D01*
X142113000Y-129667000D01*
X142113000Y-131209915D01*
X142335039Y-131331904D01*
X142417819Y-131314367D01*
X142910896Y-131044500D01*
X143258493Y-130612293D01*
X143511302Y-130990648D01*
X143766000Y-131160832D01*
X143766000Y-133223000D01*
X141663802Y-133223000D01*
X141222000Y-132781198D01*
X141222000Y-131132560D01*
X141554181Y-131314367D01*
X141636961Y-131331904D01*
X141859000Y-131209915D01*
X141859000Y-129667000D01*
X141839000Y-129667000D01*
X141839000Y-129413000D01*
X141859000Y-129413000D01*
X141859000Y-127870085D01*
X141745225Y-127807577D01*
X142300802Y-127252000D01*
X145227198Y-127252000D01*
X146059244Y-128084046D01*
X146059244Y-128084046D01*
G37*
X146059244Y-128084046D02*
X146051302Y-128089352D01*
X145796000Y-128471438D01*
X145540698Y-128089352D01*
X145075151Y-127778283D01*
X144526000Y-127669050D01*
X143976849Y-127778283D01*
X143511302Y-128089352D01*
X143258493Y-128467707D01*
X142910896Y-128035500D01*
X142417819Y-127765633D01*
X142335039Y-127748096D01*
X142113000Y-127870085D01*
X142113000Y-129413000D01*
X142133000Y-129413000D01*
X142133000Y-129667000D01*
X142113000Y-129667000D01*
X142113000Y-131209915D01*
X142335039Y-131331904D01*
X142417819Y-131314367D01*
X142910896Y-131044500D01*
X143258493Y-130612293D01*
X143511302Y-130990648D01*
X143766000Y-131160832D01*
X143766000Y-133223000D01*
X141663802Y-133223000D01*
X141222000Y-132781198D01*
X141222000Y-131132560D01*
X141554181Y-131314367D01*
X141636961Y-131331904D01*
X141859000Y-131209915D01*
X141859000Y-129667000D01*
X141839000Y-129667000D01*
X141839000Y-129413000D01*
X141859000Y-129413000D01*
X141859000Y-127870085D01*
X141745225Y-127807577D01*
X142300802Y-127252000D01*
X145227198Y-127252000D01*
X146059244Y-128084046D01*
G36*
X145087000Y-118113000D02*
X145107000Y-118113000D01*
X145107000Y-118367000D01*
X145087000Y-118367000D01*
X145087000Y-119509915D01*
X145309039Y-119631904D01*
X145572409Y-119522820D01*
X145601852Y-119670839D01*
X145766599Y-119917401D01*
X146211505Y-120362307D01*
X146051302Y-120469352D01*
X145796000Y-120851438D01*
X145540698Y-120469352D01*
X145498452Y-120441124D01*
X145482148Y-120359161D01*
X145317401Y-120112599D01*
X144756659Y-119551857D01*
X144833000Y-119509915D01*
X144833000Y-118367000D01*
X144813000Y-118367000D01*
X144813000Y-118113000D01*
X144833000Y-118113000D01*
X144833000Y-118093000D01*
X145087000Y-118093000D01*
X145087000Y-118113000D01*
X145087000Y-118113000D01*
G37*
X145087000Y-118113000D02*
X145107000Y-118113000D01*
X145107000Y-118367000D01*
X145087000Y-118367000D01*
X145087000Y-119509915D01*
X145309039Y-119631904D01*
X145572409Y-119522820D01*
X145601852Y-119670839D01*
X145766599Y-119917401D01*
X146211505Y-120362307D01*
X146051302Y-120469352D01*
X145796000Y-120851438D01*
X145540698Y-120469352D01*
X145498452Y-120441124D01*
X145482148Y-120359161D01*
X145317401Y-120112599D01*
X144756659Y-119551857D01*
X144833000Y-119509915D01*
X144833000Y-118367000D01*
X144813000Y-118367000D01*
X144813000Y-118113000D01*
X144833000Y-118113000D01*
X144833000Y-118093000D01*
X145087000Y-118093000D01*
X145087000Y-118113000D01*
M02*
